<svg version="1.1" viewBox="0.0 0.0 951.0918635170603 459.48293963254594" fill="none" stroke="none" stroke-linecap="square" stroke-miterlimit="10" xmlns:xlink="http://www.w3.org/1999/xlink" xmlns="http://www.w3.org/2000/svg"><clipPath id="p.0"><path d="m0 0l951.09186 0l0 459.48294l-951.09186 0l0 -459.48294z" clip-rule="nonzero"/></clipPath><g clip-path="url(#p.0)"><path fill="#ffffff" d="m0 0l951.09186 0l0 459.48294l-951.09186 0z" fill-rule="evenodd"/><path fill="#2874aa" d="m614.1076 188.4672l155.31757 0l-292.3412 76.17059l-74.46719 0z" fill-rule="evenodd"/><path fill="#208020" d="m401.65878 188.04199l223.4042 0l-219.14697 76.595795l-76.17062 0z" fill-rule="evenodd"/><path fill="#cc9f26" d="m331.41208 188.29134l76.68503 0l-73.00525 75.87138l-76.68765 0z" fill-rule="evenodd"/><path fill="#d32360" d="m190.67192 264.63254l0 -76.65091l144.67192 0l-72.590546 75.88977l0 71.32019l-72.33334 0z" fill-rule="evenodd"/><path fill="#ffffff" fill-opacity="0.724" d="m179.59317 181.40683l594.8031 0l0 89.13385l-594.8031 0z" fill-rule="evenodd"/><path fill="#d32360" d="m190.48819 116.391075l72.37796 0l0 72.37795l-72.37796 0z" fill-rule="evenodd"/><path stroke="#000000" stroke-width="2.0" stroke-linejoin="round" stroke-linecap="butt" d="m190.48819 116.391075l72.37796 0l0 72.37795l-72.37796 0z" fill-rule="evenodd"/><path fill="#ffffff" d="m209.8834 159.7188q-2.609375 0 -3.859375 -1.765625q-1.234375 -1.78125 -1.234375 -4.96875q0 -3.1875 1.234375 -4.953125q1.25 -1.78125 3.859375 -1.78125q2.609375 0 3.84375 1.78125q1.25 1.765625 1.25 4.953125q0 3.1875 -1.25 4.96875q-1.234375 1.765625 -3.84375 1.765625zm0 -2.203125q1.25 0 1.734375 -0.875q0.5 -0.875 0.5 -2.4375l0 -2.421875q0 -1.578125 -0.5 -2.453125q-0.484375 -0.875 -1.734375 -0.875q-1.25 0 -1.75 0.875q-0.484375 0.875 -0.484375 2.453125l0 2.421875q0 1.5625 0.484375 2.4375q0.5 0.875 1.75 0.875zm0 -3.421875q-0.65625 0 -0.90625 -0.265625q-0.25 -0.265625 -0.25 -0.640625l0 -0.40625q0 -0.375 0.25 -0.625q0.25 -0.265625 0.90625 -0.265625q0.65625 0 0.90625 0.265625q0.25 0.25 0.25 0.625l0 0.40625q0 0.375 -0.25 0.640625q-0.25 0.265625 -0.90625 0.265625zm6.021881 5.40625l3.609375 -4.890625l-3.359375 -4.734375l3.15625 0l1.015625 1.546875l0.796875 1.25l0.140625 0l0.796875 -1.25l1.046875 -1.546875l2.890625 0l-3.359375 4.59375l3.609375 5.03125l-3.171875 0l-1.21875 -1.8125l-0.828125 -1.28125l-0.15625 0l-0.8125 1.28125l-1.234375 1.8125l-2.921875 0zm16.365631 0.21875q-2.609375 0 -3.859375 -1.765625q-1.234375 -1.78125 -1.234375 -4.96875q0 -3.1875 1.234375 -4.953125q1.25 -1.78125 3.859375 -1.78125q2.609375 0 3.84375 1.78125q1.25 1.765625 1.25 4.953125q0 3.1875 -1.25 4.96875q-1.234375 1.765625 -3.84375 1.765625zm0 -2.203125q1.25 0 1.734375 -0.875q0.5 -0.875 0.5 -2.4375l0 -2.421875q0 -1.578125 -0.5 -2.453125q-0.484375 -0.875 -1.734375 -0.875q-1.25 0 -1.75 0.875q-0.484375 0.875 -0.484375 2.453125l0 2.421875q0 1.5625 0.484375 2.4375q0.5 0.875 1.75 0.875zm0 -3.421875q-0.65625 0 -0.90625 -0.265625q-0.25 -0.265625 -0.25 -0.640625l0 -0.40625q0 -0.375 0.25 -0.625q0.25 -0.265625 0.90625 -0.265625q0.65625 0 0.90625 0.265625q0.25 0.25 0.25 0.625l0 0.40625q0 0.375 -0.25 0.640625q-0.25 0.265625 -0.90625 0.265625zm13.709381 5.40625l-0.8125 -3.140625l-3.5625 0l-0.8125 3.140625l-2.828125 0l3.53125 -13.015625l3.953125 0l3.515625 13.015625l-2.984375 0zm-2.515625 -10.3125l-0.140625 0l-1.28125 4.921875l2.6875 0l-1.265625 -4.921875z" fill-rule="nonzero"/><path fill="#d32360" d="m262.86615 116.391075l72.37793 0l0 72.37795l-72.37793 0z" fill-rule="evenodd"/><path stroke="#000000" stroke-width="2.0" stroke-linejoin="round" stroke-linecap="butt" d="m262.86615 116.391075l72.37793 0l0 72.37795l-72.37793 0z" fill-rule="evenodd"/><path fill="#ffffff" d="m282.26135 159.7188q-2.609375 0 -3.859375 -1.765625q-1.234375 -1.78125 -1.234375 -4.96875q0 -3.1875 1.234375 -4.953125q1.25 -1.78125 3.859375 -1.78125q2.609375 0 3.84375 1.78125q1.25 1.765625 1.25 4.953125q0 3.1875 -1.25 4.96875q-1.234375 1.765625 -3.84375 1.765625zm0 -2.203125q1.25 0 1.734375 -0.875q0.5 -0.875 0.5 -2.4375l0 -2.421875q0 -1.578125 -0.5 -2.453125q-0.484375 -0.875 -1.734375 -0.875q-1.25 0 -1.75 0.875q-0.484375 0.875 -0.484375 2.453125l0 2.421875q0 1.5625 0.484375 2.4375q0.5 0.875 1.75 0.875zm0 -3.421875q-0.65625 0 -0.90625 -0.265625q-0.25 -0.265625 -0.25 -0.640625l0 -0.40625q0 -0.375 0.25 -0.625q0.25 -0.265625 0.90625 -0.265625q0.65625 0 0.90625 0.265625q0.25 0.25 0.25 0.625l0 0.40625q0 0.375 -0.25 0.640625q-0.25 0.265625 -0.90625 0.265625zm6.021881 5.40625l3.609375 -4.890625l-3.359375 -4.734375l3.15625 0l1.015625 1.546875l0.796875 1.25l0.140625 0l0.796875 -1.25l1.046875 -1.546875l2.890625 0l-3.359375 4.59375l3.609375 5.03125l-3.171875 0l-1.21875 -1.8125l-0.828125 -1.28125l-0.15625 0l-0.8125 1.28125l-1.234375 1.8125l-2.921875 0zm16.365631 0.21875q-2.609375 0 -3.859375 -1.765625q-1.234375 -1.78125 -1.234375 -4.96875q0 -3.1875 1.234375 -4.953125q1.25 -1.78125 3.859375 -1.78125q2.609375 0 3.84375 1.78125q1.25 1.765625 1.25 4.953125q0 3.1875 -1.25 4.96875q-1.234375 1.765625 -3.84375 1.765625zm0 -2.203125q1.25 0 1.734375 -0.875q0.5 -0.875 0.5 -2.4375l0 -2.421875q0 -1.578125 -0.5 -2.453125q-0.484375 -0.875 -1.734375 -0.875q-1.25 0 -1.75 0.875q-0.484375 0.875 -0.484375 2.453125l0 2.421875q0 1.5625 0.484375 2.4375q0.5 0.875 1.75 0.875zm0 -3.421875q-0.65625 0 -0.90625 -0.265625q-0.25 -0.265625 -0.25 -0.640625l0 -0.40625q0 -0.375 0.25 -0.625q0.25 -0.265625 0.90625 -0.265625q0.65625 0 0.90625 0.265625q0.25 0.25 0.25 0.625l0 0.40625q0 0.375 -0.25 0.640625q-0.25 0.265625 -0.90625 0.265625zm13.709381 5.40625l-0.8125 -3.140625l-3.5625 0l-0.8125 3.140625l-2.828125 0l3.53125 -13.015625l3.953125 0l3.515625 13.015625l-2.984375 0zm-2.515625 -10.3125l-0.140625 0l-1.28125 4.921875l2.6875 0l-1.265625 -4.921875z" fill-rule="nonzero"/><path fill="#cc9f26" d="m335.24408 116.391075l72.37796 0l0 72.37795l-72.37796 0z" fill-rule="evenodd"/><path stroke="#000000" stroke-width="2.0" stroke-linejoin="round" stroke-linecap="butt" d="m335.24408 116.391075l72.37796 0l0 72.37795l-72.37796 0z" fill-rule="evenodd"/><path fill="#ffffff" d="m354.6393 159.7188q-2.609375 0 -3.859375 -1.765625q-1.234375 -1.78125 -1.234375 -4.96875q0 -3.1875 1.234375 -4.953125q1.25 -1.78125 3.859375 -1.78125q2.609375 0 3.84375 1.78125q1.25 1.765625 1.25 4.953125q0 3.1875 -1.25 4.96875q-1.234375 1.765625 -3.84375 1.765625zm0 -2.203125q1.25 0 1.734375 -0.875q0.5 -0.875 0.5 -2.4375l0 -2.421875q0 -1.578125 -0.5 -2.453125q-0.484375 -0.875 -1.734375 -0.875q-1.25 0 -1.75 0.875q-0.484375 0.875 -0.484375 2.453125l0 2.421875q0 1.5625 0.484375 2.4375q0.5 0.875 1.75 0.875zm0 -3.421875q-0.65625 0 -0.90625 -0.265625q-0.25 -0.265625 -0.25 -0.640625l0 -0.40625q0 -0.375 0.25 -0.625q0.25 -0.265625 0.90625 -0.265625q0.65625 0 0.90625 0.265625q0.25 0.25 0.25 0.625l0 0.40625q0 0.375 -0.25 0.640625q-0.25 0.265625 -0.90625 0.265625zm6.021881 5.40625l3.609375 -4.890625l-3.359375 -4.734375l3.15625 0l1.015625 1.546875l0.796875 1.25l0.140625 0l0.796875 -1.25l1.046875 -1.546875l2.890625 0l-3.359375 4.59375l3.609375 5.03125l-3.171875 0l-1.21875 -1.8125l-0.828125 -1.28125l-0.15625 0l-0.8125 1.28125l-1.234375 1.8125l-2.921875 0zm16.365631 0.21875q-2.609375 0 -3.859375 -1.765625q-1.234375 -1.78125 -1.234375 -4.96875q0 -3.1875 1.234375 -4.953125q1.25 -1.78125 3.859375 -1.78125q2.609375 0 3.84375 1.78125q1.25 1.765625 1.25 4.953125q0 3.1875 -1.25 4.96875q-1.234375 1.765625 -3.84375 1.765625zm0 -2.203125q1.25 0 1.734375 -0.875q0.5 -0.875 0.5 -2.4375l0 -2.421875q0 -1.578125 -0.5 -2.453125q-0.484375 -0.875 -1.734375 -0.875q-1.25 0 -1.75 0.875q-0.484375 0.875 -0.484375 2.453125l0 2.421875q0 1.5625 0.484375 2.4375q0.5 0.875 1.75 0.875zm0 -3.421875q-0.65625 0 -0.90625 -0.265625q-0.25 -0.265625 -0.25 -0.640625l0 -0.40625q0 -0.375 0.25 -0.625q0.25 -0.265625 0.90625 -0.265625q0.65625 0 0.90625 0.265625q0.25 0.25 0.25 0.625l0 0.40625q0 0.375 -0.25 0.640625q-0.25 0.265625 -0.90625 0.265625zm7.037506 -7.609375l4.5625 0q1.921875 0 2.9375 0.9375q1.03125 0.921875 1.03125 2.53125q0 1.109375 -0.5625 1.78125q-0.546875 0.65625 -1.578125 0.953125l0 0.109375q1.21875 0.296875 1.875 1.046875q0.671875 0.75 0.671875 2.078125q0 1.640625 -1.046875 2.609375q-1.03125 0.96875 -2.890625 0.96875l-5.0 0l0 -13.015625zm4.140625 11.0625q1.0 0 1.46875 -0.328125q0.46875 -0.34375 0.46875 -1.25l0 -0.53125q0 -0.90625 -0.46875 -1.234375q-0.46875 -0.34375 -1.46875 -0.34375l-1.421875 0l0 3.6875l1.421875 0zm-0.359375 -5.546875q1.0 0 1.4375 -0.328125q0.453125 -0.328125 0.453125 -1.1875l0 -0.5625q0 -0.84375 -0.453125 -1.15625q-0.4375 -0.328125 -1.4375 -0.328125l-1.0625 0l0 3.5625l1.0625 0z" fill-rule="nonzero"/><path fill="#208020" d="m407.62204 116.391075l72.37796 0l0 72.37795l-72.37796 0z" fill-rule="evenodd"/><path stroke="#000000" stroke-width="2.0" stroke-linejoin="round" stroke-linecap="butt" d="m407.62204 116.391075l72.37796 0l0 72.37795l-72.37796 0z" fill-rule="evenodd"/><path fill="#ffffff" d="m427.01727 159.7188q-2.609375 0 -3.859375 -1.765625q-1.234375 -1.78125 -1.234375 -4.96875q0 -3.1875 1.234375 -4.953125q1.25 -1.78125 3.859375 -1.78125q2.609375 0 3.84375 1.78125q1.25 1.765625 1.25 4.953125q0 3.1875 -1.25 4.96875q-1.234375 1.765625 -3.84375 1.765625zm0 -2.203125q1.25 0 1.734375 -0.875q0.5 -0.875 0.5 -2.4375l0 -2.421875q0 -1.578125 -0.5 -2.453125q-0.484375 -0.875 -1.734375 -0.875q-1.25 0 -1.75 0.875q-0.484375 0.875 -0.484375 2.453125l0 2.421875q0 1.5625 0.484375 2.4375q0.5 0.875 1.75 0.875zm0 -3.421875q-0.65625 0 -0.90625 -0.265625q-0.25 -0.265625 -0.25 -0.640625l0 -0.40625q0 -0.375 0.25 -0.625q0.25 -0.265625 0.90625 -0.265625q0.65625 0 0.90625 0.265625q0.25 0.25 0.25 0.625l0 0.40625q0 0.375 -0.25 0.640625q-0.25 0.265625 -0.90625 0.265625zm6.021881 5.40625l3.609375 -4.890625l-3.359375 -4.734375l3.15625 0l1.015625 1.546875l0.796875 1.25l0.140625 0l0.796875 -1.25l1.046875 -1.546875l2.890625 0l-3.359375 4.59375l3.609375 5.03125l-3.171875 0l-1.21875 -1.8125l-0.828125 -1.28125l-0.15625 0l-0.8125 1.28125l-1.234375 1.8125l-2.921875 0zm16.365631 0.21875q-2.609375 0 -3.859375 -1.765625q-1.234375 -1.78125 -1.234375 -4.96875q0 -3.1875 1.234375 -4.953125q1.25 -1.78125 3.859375 -1.78125q2.609375 0 3.84375 1.78125q1.25 1.765625 1.25 4.953125q0 3.1875 -1.25 4.96875q-1.234375 1.765625 -3.84375 1.765625zm0 -2.203125q1.25 0 1.734375 -0.875q0.5 -0.875 0.5 -2.4375l0 -2.421875q0 -1.578125 -0.5 -2.453125q-0.484375 -0.875 -1.734375 -0.875q-1.25 0 -1.75 0.875q-0.484375 0.875 -0.484375 2.453125l0 2.421875q0 1.5625 0.484375 2.4375q0.5 0.875 1.75 0.875zm0 -3.421875q-0.65625 0 -0.90625 -0.265625q-0.25 -0.265625 -0.25 -0.640625l0 -0.40625q0 -0.375 0.25 -0.625q0.25 -0.265625 0.90625 -0.265625q0.65625 0 0.90625 0.265625q0.25 0.25 0.25 0.625l0 0.40625q0 0.375 -0.25 0.640625q-0.25 0.265625 -0.90625 0.265625zm11.490631 5.625q-2.609375 0 -3.875 -1.75q-1.25 -1.765625 -1.25 -4.984375q0 -3.203125 1.25 -4.96875q1.265625 -1.765625 3.875 -1.765625q1.015625 0 1.78125 0.28125q0.78125 0.265625 1.34375 0.75q0.5625 0.484375 0.921875 1.171875q0.359375 0.6875 0.5625 1.546875l-2.609375 0.640625q-0.109375 -0.46875 -0.265625 -0.859375q-0.140625 -0.390625 -0.375 -0.671875q-0.234375 -0.28125 -0.578125 -0.4375q-0.34375 -0.15625 -0.828125 -0.15625q-1.140625 0 -1.625 0.890625q-0.46875 0.875 -0.46875 2.4375l0 2.28125q0 1.5625 0.46875 2.453125q0.484375 0.890625 1.625 0.890625q0.96875 0 1.40625 -0.59375q0.4375 -0.609375 0.640625 -1.53125l2.609375 0.625q-0.203125 0.859375 -0.5625 1.5625q-0.359375 0.6875 -0.921875 1.1875q-0.5625 0.484375 -1.34375 0.75q-0.765625 0.25 -1.78125 0.25z" fill-rule="nonzero"/><path fill="#208020" d="m480.0 116.391075l72.37793 0l0 72.37795l-72.37793 0z" fill-rule="evenodd"/><path stroke="#000000" stroke-width="2.0" stroke-linejoin="round" stroke-linecap="butt" d="m480.0 116.391075l72.37793 0l0 72.37795l-72.37793 0z" fill-rule="evenodd"/><path fill="#ffffff" d="m499.3952 159.7188q-2.609375 0 -3.859375 -1.765625q-1.234375 -1.78125 -1.234375 -4.96875q0 -3.1875 1.234375 -4.953125q1.25 -1.78125 3.859375 -1.78125q2.609375 0 3.84375 1.78125q1.25 1.765625 1.25 4.953125q0 3.1875 -1.25 4.96875q-1.234375 1.765625 -3.84375 1.765625zm0 -2.203125q1.25 0 1.734375 -0.875q0.5 -0.875 0.5 -2.4375l0 -2.421875q0 -1.578125 -0.5 -2.453125q-0.484375 -0.875 -1.734375 -0.875q-1.25 0 -1.75 0.875q-0.484375 0.875 -0.484375 2.453125l0 2.421875q0 1.5625 0.484375 2.4375q0.5 0.875 1.75 0.875zm0 -3.421875q-0.65625 0 -0.90625 -0.265625q-0.25 -0.265625 -0.25 -0.640625l0 -0.40625q0 -0.375 0.25 -0.625q0.25 -0.265625 0.90625 -0.265625q0.65625 0 0.90625 0.265625q0.25 0.25 0.25 0.625l0 0.40625q0 0.375 -0.25 0.640625q-0.25 0.265625 -0.90625 0.265625zm6.021881 5.40625l3.609375 -4.890625l-3.359375 -4.734375l3.15625 0l1.015625 1.546875l0.796875 1.25l0.140625 0l0.796875 -1.25l1.0469055 -1.546875l2.890625 0l-3.359375 4.59375l3.609375 5.03125l-3.171875 0l-1.2187805 -1.8125l-0.828125 -1.28125l-0.15625 0l-0.8125 1.28125l-1.234375 1.8125l-2.921875 0zm16.365631 0.21875q-2.609375 0 -3.859375 -1.765625q-1.234375 -1.78125 -1.234375 -4.96875q0 -3.1875 1.234375 -4.953125q1.25 -1.78125 3.859375 -1.78125q2.609375 0 3.84375 1.78125q1.25 1.765625 1.25 4.953125q0 3.1875 -1.25 4.96875q-1.234375 1.765625 -3.84375 1.765625zm0 -2.203125q1.25 0 1.734375 -0.875q0.5 -0.875 0.5 -2.4375l0 -2.421875q0 -1.578125 -0.5 -2.453125q-0.484375 -0.875 -1.734375 -0.875q-1.25 0 -1.75 0.875q-0.484375 0.875 -0.484375 2.453125l0 2.421875q0 1.5625 0.484375 2.4375q0.5 0.875 1.75 0.875zm0 -3.421875q-0.65625 0 -0.90625 -0.265625q-0.25 -0.265625 -0.25 -0.640625l0 -0.40625q0 -0.375 0.25 -0.625q0.25 -0.265625 0.90625 -0.265625q0.65625 0 0.90625 0.265625q0.25 0.25 0.25 0.625l0 0.40625q0 0.375 -0.25 0.640625q-0.25 0.265625 -0.90625 0.265625zm11.490662 5.625q-2.609375 0 -3.875 -1.75q-1.25 -1.765625 -1.25 -4.984375q0 -3.203125 1.25 -4.96875q1.265625 -1.765625 3.875 -1.765625q1.015625 0 1.78125 0.28125q0.78125 0.265625 1.34375 0.75q0.5625 0.484375 0.921875 1.171875q0.359375 0.6875 0.5625 1.546875l-2.609375 0.640625q-0.109375 -0.46875 -0.265625 -0.859375q-0.140625 -0.390625 -0.375 -0.671875q-0.234375 -0.28125 -0.578125 -0.4375q-0.34375 -0.15625 -0.828125 -0.15625q-1.140625 0 -1.625 0.890625q-0.46875 0.875 -0.46875 2.4375l0 2.28125q0 1.5625 0.46875 2.453125q0.484375 0.890625 1.625 0.890625q0.96875 0 1.40625 -0.59375q0.4375 -0.609375 0.640625 -1.53125l2.609375 0.625q-0.203125 0.859375 -0.5625 1.5625q-0.359375 0.6875 -0.921875 1.1875q-0.5625 0.484375 -1.34375 0.75q-0.765625 0.25 -1.78125 0.25z" fill-rule="nonzero"/><path fill="#208020" d="m552.3779 116.391075l72.37799 0l0 72.37795l-72.37799 0z" fill-rule="evenodd"/><path stroke="#000000" stroke-width="2.0" stroke-linejoin="round" stroke-linecap="butt" d="m552.3779 116.391075l72.37799 0l0 72.37795l-72.37799 0z" fill-rule="evenodd"/><path fill="#ffffff" d="m571.7732 159.7188q-2.609375 0 -3.859375 -1.765625q-1.234375 -1.78125 -1.234375 -4.96875q0 -3.1875 1.234375 -4.953125q1.25 -1.78125 3.859375 -1.78125q2.609375 0 3.84375 1.78125q1.25 1.765625 1.25 4.953125q0 3.1875 -1.25 4.96875q-1.234375 1.765625 -3.84375 1.765625zm0 -2.203125q1.25 0 1.734375 -0.875q0.5 -0.875 0.5 -2.4375l0 -2.421875q0 -1.578125 -0.5 -2.453125q-0.484375 -0.875 -1.734375 -0.875q-1.25 0 -1.75 0.875q-0.484375 0.875 -0.484375 2.453125l0 2.421875q0 1.5625 0.484375 2.4375q0.5 0.875 1.75 0.875zm0 -3.421875q-0.65625 0 -0.90625 -0.265625q-0.25 -0.265625 -0.25 -0.640625l0 -0.40625q0 -0.375 0.25 -0.625q0.25 -0.265625 0.90625 -0.265625q0.65625 0 0.90625 0.265625q0.25 0.25 0.25 0.625l0 0.40625q0 0.375 -0.25 0.640625q-0.25 0.265625 -0.90625 0.265625zm6.0218506 5.40625l3.609375 -4.890625l-3.359375 -4.734375l3.15625 0l1.015625 1.546875l0.796875 1.25l0.140625 0l0.796875 -1.25l1.046875 -1.546875l2.890625 0l-3.359375 4.59375l3.609375 5.03125l-3.171875 0l-1.21875 -1.8125l-0.828125 -1.28125l-0.15625 0l-0.8125 1.28125l-1.234375 1.8125l-2.921875 0zm16.365662 0.21875q-2.609375 0 -3.859375 -1.765625q-1.234375 -1.78125 -1.234375 -4.96875q0 -3.1875 1.234375 -4.953125q1.25 -1.78125 3.859375 -1.78125q2.609375 0 3.84375 1.78125q1.25 1.765625 1.25 4.953125q0 3.1875 -1.25 4.96875q-1.234375 1.765625 -3.84375 1.765625zm0 -2.203125q1.25 0 1.734375 -0.875q0.5 -0.875 0.5 -2.4375l0 -2.421875q0 -1.578125 -0.5 -2.453125q-0.484375 -0.875 -1.734375 -0.875q-1.25 0 -1.75 0.875q-0.484375 0.875 -0.484375 2.453125l0 2.421875q0 1.5625 0.484375 2.4375q0.5 0.875 1.75 0.875zm0 -3.421875q-0.65625 0 -0.90625 -0.265625q-0.25 -0.265625 -0.25 -0.640625l0 -0.40625q0 -0.375 0.25 -0.625q0.25 -0.265625 0.90625 -0.265625q0.65625 0 0.90625 0.265625q0.25 0.25 0.25 0.625l0 0.40625q0 0.375 -0.25 0.640625q-0.25 0.265625 -0.90625 0.265625zm11.490601 5.625q-2.609375 0 -3.875 -1.75q-1.25 -1.765625 -1.25 -4.984375q0 -3.203125 1.25 -4.96875q1.265625 -1.765625 3.875 -1.765625q1.015625 0 1.78125 0.28125q0.78125 0.265625 1.34375 0.75q0.5625 0.484375 0.921875 1.171875q0.359375 0.6875 0.5625 1.546875l-2.609375 0.640625q-0.109375 -0.46875 -0.265625 -0.859375q-0.140625 -0.390625 -0.375 -0.671875q-0.234375 -0.28125 -0.578125 -0.4375q-0.34375 -0.15625 -0.828125 -0.15625q-1.140625 0 -1.625 0.890625q-0.46875 0.875 -0.46875 2.4375l0 2.28125q0 1.5625 0.46875 2.453125q0.484375 0.890625 1.625 0.890625q0.96875 0 1.40625 -0.59375q0.4375 -0.609375 0.640625 -1.53125l2.609375 0.625q-0.203125 0.859375 -0.5625 1.5625q-0.359375 0.6875 -0.921875 1.1875q-0.5625 0.484375 -1.34375 0.75q-0.765625 0.25 -1.78125 0.25z" fill-rule="nonzero"/><path fill="#2874aa" d="m624.7559 116.391075l72.37793 0l0 72.37795l-72.37793 0z" fill-rule="evenodd"/><path stroke="#000000" stroke-width="2.0" stroke-linejoin="round" stroke-linecap="butt" d="m624.7559 116.391075l72.37793 0l0 72.37795l-72.37793 0z" fill-rule="evenodd"/><path fill="#ffffff" d="m644.1511 159.7188q-2.609375 0 -3.859375 -1.765625q-1.234375 -1.78125 -1.234375 -4.96875q0 -3.1875 1.234375 -4.953125q1.25 -1.78125 3.859375 -1.78125q2.609375 0 3.84375 1.78125q1.25 1.765625 1.25 4.953125q0 3.1875 -1.25 4.96875q-1.234375 1.765625 -3.84375 1.765625zm0 -2.203125q1.25 0 1.734375 -0.875q0.5 -0.875 0.5 -2.4375l0 -2.421875q0 -1.578125 -0.5 -2.453125q-0.484375 -0.875 -1.734375 -0.875q-1.25 0 -1.75 0.875q-0.484375 0.875 -0.484375 2.453125l0 2.421875q0 1.5625 0.484375 2.4375q0.5 0.875 1.75 0.875zm0 -3.421875q-0.65625 0 -0.90625 -0.265625q-0.25 -0.265625 -0.25 -0.640625l0 -0.40625q0 -0.375 0.25 -0.625q0.25 -0.265625 0.90625 -0.265625q0.65625 0 0.90625 0.265625q0.25 0.25 0.25 0.625l0 0.40625q0 0.375 -0.25 0.640625q-0.25 0.265625 -0.90625 0.265625zm6.0218506 5.40625l3.609375 -4.890625l-3.359375 -4.734375l3.15625 0l1.015625 1.546875l0.796875 1.25l0.140625 0l0.796875 -1.25l1.046875 -1.546875l2.890625 0l-3.359375 4.59375l3.609375 5.03125l-3.171875 0l-1.21875 -1.8125l-0.828125 -1.28125l-0.15625 0l-0.8125 1.28125l-1.234375 1.8125l-2.921875 0zm16.365662 0.21875q-2.609375 0 -3.859375 -1.765625q-1.234375 -1.78125 -1.234375 -4.96875q0 -3.1875 1.234375 -4.953125q1.25 -1.78125 3.859375 -1.78125q2.609375 0 3.84375 1.78125q1.25 1.765625 1.25 4.953125q0 3.1875 -1.25 4.96875q-1.234375 1.765625 -3.84375 1.765625zm0 -2.203125q1.25 0 1.734375 -0.875q0.5 -0.875 0.5 -2.4375l0 -2.421875q0 -1.578125 -0.5 -2.453125q-0.484375 -0.875 -1.734375 -0.875q-1.25 0 -1.75 0.875q-0.484375 0.875 -0.484375 2.453125l0 2.421875q0 1.5625 0.484375 2.4375q0.5 0.875 1.75 0.875zm0 -3.421875q-0.65625 0 -0.90625 -0.265625q-0.25 -0.265625 -0.25 -0.640625l0 -0.40625q0 -0.375 0.25 -0.625q0.25 -0.265625 0.90625 -0.265625q0.65625 0 0.90625 0.265625q0.25 0.25 0.25 0.625l0 0.40625q0 0.375 -0.25 0.640625q-0.25 0.265625 -0.90625 0.265625zm6.7874756 -7.609375l4.203125 0q2.625 0 3.890625 1.6875q1.28125 1.671875 1.28125 4.8125q0 3.15625 -1.28125 4.84375q-1.265625 1.671875 -3.890625 1.671875l-4.203125 0l0 -13.015625zm4.015625 10.8125q1.25 0 1.828125 -0.796875q0.578125 -0.8125 0.578125 -2.328125l0 -2.375q0 -1.515625 -0.578125 -2.3125q-0.578125 -0.8125 -1.828125 -0.8125l-1.25 0l0 8.625l1.25 0z" fill-rule="nonzero"/><path fill="#2874aa" d="m697.13385 116.391075l72.37799 0l0 72.37795l-72.37799 0z" fill-rule="evenodd"/><path stroke="#000000" stroke-width="2.0" stroke-linejoin="round" stroke-linecap="butt" d="m697.13385 116.391075l72.37799 0l0 72.37795l-72.37799 0z" fill-rule="evenodd"/><path fill="#ffffff" d="m716.52905 159.7188q-2.609375 0 -3.859375 -1.765625q-1.234375 -1.78125 -1.234375 -4.96875q0 -3.1875 1.234375 -4.953125q1.25 -1.78125 3.859375 -1.78125q2.609375 0 3.84375 1.78125q1.25 1.765625 1.25 4.953125q0 3.1875 -1.25 4.96875q-1.234375 1.765625 -3.84375 1.765625zm0 -2.203125q1.25 0 1.734375 -0.875q0.5 -0.875 0.5 -2.4375l0 -2.421875q0 -1.578125 -0.5 -2.453125q-0.484375 -0.875 -1.734375 -0.875q-1.25 0 -1.75 0.875q-0.484375 0.875 -0.484375 2.453125l0 2.421875q0 1.5625 0.484375 2.4375q0.5 0.875 1.75 0.875zm0 -3.421875q-0.65625 0 -0.90625 -0.265625q-0.25 -0.265625 -0.25 -0.640625l0 -0.40625q0 -0.375 0.25 -0.625q0.25 -0.265625 0.90625 -0.265625q0.65625 0 0.90625 0.265625q0.25 0.25 0.25 0.625l0 0.40625q0 0.375 -0.25 0.640625q-0.25 0.265625 -0.90625 0.265625zm6.0219116 5.40625l3.609375 -4.890625l-3.359375 -4.734375l3.15625 0l1.015625 1.546875l0.796875 1.25l0.140625 0l0.796875 -1.25l1.046875 -1.546875l2.890625 0l-3.359375 4.59375l3.609375 5.03125l-3.171875 0l-1.21875 -1.8125l-0.828125 -1.28125l-0.15625 0l-0.8125 1.28125l-1.234375 1.8125l-2.921875 0zm16.3656 0.21875q-2.609375 0 -3.859375 -1.765625q-1.234375 -1.78125 -1.234375 -4.96875q0 -3.1875 1.234375 -4.953125q1.25 -1.78125 3.859375 -1.78125q2.609375 0 3.84375 1.78125q1.25 1.765625 1.25 4.953125q0 3.1875 -1.25 4.96875q-1.234375 1.765625 -3.84375 1.765625zm0 -2.203125q1.25 0 1.734375 -0.875q0.5 -0.875 0.5 -2.4375l0 -2.421875q0 -1.578125 -0.5 -2.453125q-0.484375 -0.875 -1.734375 -0.875q-1.25 0 -1.75 0.875q-0.484375 0.875 -0.484375 2.453125l0 2.421875q0 1.5625 0.484375 2.4375q0.5 0.875 1.75 0.875zm0 -3.421875q-0.65625 0 -0.90625 -0.265625q-0.25 -0.265625 -0.25 -0.640625l0 -0.40625q0 -0.375 0.25 -0.625q0.25 -0.265625 0.90625 -0.265625q0.65625 0 0.90625 0.265625q0.25 0.25 0.25 0.625l0 0.40625q0 0.375 -0.25 0.640625q-0.25 0.265625 -0.90625 0.265625zm6.7875366 -7.609375l4.203125 0q2.625 0 3.890625 1.6875q1.28125 1.671875 1.28125 4.8125q0 3.15625 -1.28125 4.84375q-1.265625 1.671875 -3.890625 1.671875l-4.203125 0l0 -13.015625zm4.015625 10.8125q1.25 0 1.828125 -0.796875q0.578125 -0.8125 0.578125 -2.328125l0 -2.375q0 -1.515625 -0.578125 -2.3125q-0.578125 -0.8125 -1.828125 -0.8125l-1.25 0l0 8.625l1.25 0z" fill-rule="nonzero"/><path fill="#d32360" d="m190.48819 263.45145l72.37796 0l0 72.37796l-72.37796 0z" fill-rule="evenodd"/><path stroke="#000000" stroke-width="2.0" stroke-linejoin="round" stroke-linecap="butt" d="m190.48819 263.45145l72.37796 0l0 72.37796l-72.37796 0z" fill-rule="evenodd"/><path fill="#ffffff" d="m209.8834 306.77917q-2.609375 0 -3.859375 -1.765625q-1.234375 -1.78125 -1.234375 -4.96875q0 -3.1875 1.234375 -4.953125q1.25 -1.78125 3.859375 -1.78125q2.609375 0 3.84375 1.78125q1.25 1.765625 1.25 4.953125q0 3.1875 -1.25 4.96875q-1.234375 1.765625 -3.84375 1.765625zm0 -2.203125q1.25 0 1.734375 -0.875q0.5 -0.875 0.5 -2.4375l0 -2.421875q0 -1.578125 -0.5 -2.453125q-0.484375 -0.875 -1.734375 -0.875q-1.25 0 -1.75 0.875q-0.484375 0.875 -0.484375 2.453125l0 2.421875q0 1.5625 0.484375 2.4375q0.5 0.875 1.75 0.875zm0 -3.421875q-0.65625 0 -0.90625 -0.265625q-0.25 -0.265625 -0.25 -0.640625l0 -0.40625q0 -0.375 0.25 -0.625q0.25 -0.265625 0.90625 -0.265625q0.65625 0 0.90625 0.265625q0.25 0.25 0.25 0.625l0 0.40625q0 0.375 -0.25 0.640625q-0.25 0.265625 -0.90625 0.265625zm6.021881 5.40625l3.609375 -4.890625l-3.359375 -4.734375l3.15625 0l1.015625 1.546875l0.796875 1.25l0.140625 0l0.796875 -1.25l1.046875 -1.546875l2.890625 0l-3.359375 4.59375l3.609375 5.03125l-3.171875 0l-1.21875 -1.8125l-0.828125 -1.28125l-0.15625 0l-0.8125 1.28125l-1.234375 1.8125l-2.921875 0zm16.365631 0.21875q-2.609375 0 -3.859375 -1.765625q-1.234375 -1.78125 -1.234375 -4.96875q0 -3.1875 1.234375 -4.953125q1.25 -1.78125 3.859375 -1.78125q2.609375 0 3.84375 1.78125q1.25 1.765625 1.25 4.953125q0 3.1875 -1.25 4.96875q-1.234375 1.765625 -3.84375 1.765625zm0 -2.203125q1.25 0 1.734375 -0.875q0.5 -0.875 0.5 -2.4375l0 -2.421875q0 -1.578125 -0.5 -2.453125q-0.484375 -0.875 -1.734375 -0.875q-1.25 0 -1.75 0.875q-0.484375 0.875 -0.484375 2.453125l0 2.421875q0 1.5625 0.484375 2.4375q0.5 0.875 1.75 0.875zm0 -3.421875q-0.65625 0 -0.90625 -0.265625q-0.25 -0.265625 -0.25 -0.640625l0 -0.40625q0 -0.375 0.25 -0.625q0.25 -0.265625 0.90625 -0.265625q0.65625 0 0.90625 0.265625q0.25 0.25 0.25 0.625l0 0.40625q0 0.375 -0.25 0.640625q-0.25 0.265625 -0.90625 0.265625zm13.709381 5.40625l-0.8125 -3.140625l-3.5625 0l-0.8125 3.140625l-2.828125 0l3.53125 -13.015625l3.953125 0l3.515625 13.015625l-2.984375 0zm-2.515625 -10.3125l-0.140625 0l-1.28125 4.921875l2.6875 0l-1.265625 -4.921875z" fill-rule="nonzero"/><path fill="#cc9f26" d="m262.86615 263.45145l72.37793 0l0 72.37796l-72.37793 0z" fill-rule="evenodd"/><path stroke="#000000" stroke-width="2.0" stroke-linejoin="round" stroke-linecap="butt" d="m262.86615 263.45145l72.37793 0l0 72.37796l-72.37793 0z" fill-rule="evenodd"/><path fill="#ffffff" d="m282.26135 306.77917q-2.609375 0 -3.859375 -1.765625q-1.234375 -1.78125 -1.234375 -4.96875q0 -3.1875 1.234375 -4.953125q1.25 -1.78125 3.859375 -1.78125q2.609375 0 3.84375 1.78125q1.25 1.765625 1.25 4.953125q0 3.1875 -1.25 4.96875q-1.234375 1.765625 -3.84375 1.765625zm0 -2.203125q1.25 0 1.734375 -0.875q0.5 -0.875 0.5 -2.4375l0 -2.421875q0 -1.578125 -0.5 -2.453125q-0.484375 -0.875 -1.734375 -0.875q-1.25 0 -1.75 0.875q-0.484375 0.875 -0.484375 2.453125l0 2.421875q0 1.5625 0.484375 2.4375q0.5 0.875 1.75 0.875zm0 -3.421875q-0.65625 0 -0.90625 -0.265625q-0.25 -0.265625 -0.25 -0.640625l0 -0.40625q0 -0.375 0.25 -0.625q0.25 -0.265625 0.90625 -0.265625q0.65625 0 0.90625 0.265625q0.25 0.25 0.25 0.625l0 0.40625q0 0.375 -0.25 0.640625q-0.25 0.265625 -0.90625 0.265625zm6.021881 5.40625l3.609375 -4.890625l-3.359375 -4.734375l3.15625 0l1.015625 1.546875l0.796875 1.25l0.140625 0l0.796875 -1.25l1.046875 -1.546875l2.890625 0l-3.359375 4.59375l3.609375 5.03125l-3.171875 0l-1.21875 -1.8125l-0.828125 -1.28125l-0.15625 0l-0.8125 1.28125l-1.234375 1.8125l-2.921875 0zm16.365631 0.21875q-2.609375 0 -3.859375 -1.765625q-1.234375 -1.78125 -1.234375 -4.96875q0 -3.1875 1.234375 -4.953125q1.25 -1.78125 3.859375 -1.78125q2.609375 0 3.84375 1.78125q1.25 1.765625 1.25 4.953125q0 3.1875 -1.25 4.96875q-1.234375 1.765625 -3.84375 1.765625zm0 -2.203125q1.25 0 1.734375 -0.875q0.5 -0.875 0.5 -2.4375l0 -2.421875q0 -1.578125 -0.5 -2.453125q-0.484375 -0.875 -1.734375 -0.875q-1.25 0 -1.75 0.875q-0.484375 0.875 -0.484375 2.453125l0 2.421875q0 1.5625 0.484375 2.4375q0.5 0.875 1.75 0.875zm0 -3.421875q-0.65625 0 -0.90625 -0.265625q-0.25 -0.265625 -0.25 -0.640625l0 -0.40625q0 -0.375 0.25 -0.625q0.25 -0.265625 0.90625 -0.265625q0.65625 0 0.90625 0.265625q0.25 0.25 0.25 0.625l0 0.40625q0 0.375 -0.25 0.640625q-0.25 0.265625 -0.90625 0.265625zm7.037506 -7.609375l4.5625 0q1.921875 0 2.9375 0.9375q1.03125 0.921875 1.03125 2.53125q0 1.109375 -0.5625 1.78125q-0.546875 0.65625 -1.578125 0.953125l0 0.109375q1.21875 0.296875 1.875 1.046875q0.671875 0.75 0.671875 2.078125q0 1.640625 -1.046875 2.609375q-1.03125 0.96875 -2.890625 0.96875l-5.0 0l0 -13.015625zm4.140625 11.0625q1.0 0 1.46875 -0.328125q0.46875 -0.34375 0.46875 -1.25l0 -0.53125q0 -0.90625 -0.46875 -1.234375q-0.46875 -0.34375 -1.46875 -0.34375l-1.421875 0l0 3.6875l1.421875 0zm-0.359375 -5.546875q1.0 0 1.4375 -0.328125q0.453125 -0.328125 0.453125 -1.1875l0 -0.5625q0 -0.84375 -0.453125 -1.15625q-0.4375 -0.328125 -1.4375 -0.328125l-1.0625 0l0 3.5625l1.0625 0z" fill-rule="nonzero"/><path fill="#208020" d="m335.24408 263.45145l72.37796 0l0 72.37796l-72.37796 0z" fill-rule="evenodd"/><path stroke="#000000" stroke-width="2.0" stroke-linejoin="round" stroke-linecap="butt" d="m335.24408 263.45145l72.37796 0l0 72.37796l-72.37796 0z" fill-rule="evenodd"/><path fill="#ffffff" d="m354.6393 306.77917q-2.609375 0 -3.859375 -1.765625q-1.234375 -1.78125 -1.234375 -4.96875q0 -3.1875 1.234375 -4.953125q1.25 -1.78125 3.859375 -1.78125q2.609375 0 3.84375 1.78125q1.25 1.765625 1.25 4.953125q0 3.1875 -1.25 4.96875q-1.234375 1.765625 -3.84375 1.765625zm0 -2.203125q1.25 0 1.734375 -0.875q0.5 -0.875 0.5 -2.4375l0 -2.421875q0 -1.578125 -0.5 -2.453125q-0.484375 -0.875 -1.734375 -0.875q-1.25 0 -1.75 0.875q-0.484375 0.875 -0.484375 2.453125l0 2.421875q0 1.5625 0.484375 2.4375q0.5 0.875 1.75 0.875zm0 -3.421875q-0.65625 0 -0.90625 -0.265625q-0.25 -0.265625 -0.25 -0.640625l0 -0.40625q0 -0.375 0.25 -0.625q0.25 -0.265625 0.90625 -0.265625q0.65625 0 0.90625 0.265625q0.25 0.25 0.25 0.625l0 0.40625q0 0.375 -0.25 0.640625q-0.25 0.265625 -0.90625 0.265625zm6.021881 5.40625l3.609375 -4.890625l-3.359375 -4.734375l3.15625 0l1.015625 1.546875l0.796875 1.25l0.140625 0l0.796875 -1.25l1.046875 -1.546875l2.890625 0l-3.359375 4.59375l3.609375 5.03125l-3.171875 0l-1.21875 -1.8125l-0.828125 -1.28125l-0.15625 0l-0.8125 1.28125l-1.234375 1.8125l-2.921875 0zm16.365631 0.21875q-2.609375 0 -3.859375 -1.765625q-1.234375 -1.78125 -1.234375 -4.96875q0 -3.1875 1.234375 -4.953125q1.25 -1.78125 3.859375 -1.78125q2.609375 0 3.84375 1.78125q1.25 1.765625 1.25 4.953125q0 3.1875 -1.25 4.96875q-1.234375 1.765625 -3.84375 1.765625zm0 -2.203125q1.25 0 1.734375 -0.875q0.5 -0.875 0.5 -2.4375l0 -2.421875q0 -1.578125 -0.5 -2.453125q-0.484375 -0.875 -1.734375 -0.875q-1.25 0 -1.75 0.875q-0.484375 0.875 -0.484375 2.453125l0 2.421875q0 1.5625 0.484375 2.4375q0.5 0.875 1.75 0.875zm0 -3.421875q-0.65625 0 -0.90625 -0.265625q-0.25 -0.265625 -0.25 -0.640625l0 -0.40625q0 -0.375 0.25 -0.625q0.25 -0.265625 0.90625 -0.265625q0.65625 0 0.90625 0.265625q0.25 0.25 0.25 0.625l0 0.40625q0 0.375 -0.25 0.640625q-0.25 0.265625 -0.90625 0.265625zm11.490631 5.625q-2.609375 0 -3.875 -1.75q-1.25 -1.765625 -1.25 -4.984375q0 -3.203125 1.25 -4.96875q1.265625 -1.765625 3.875 -1.765625q1.015625 0 1.78125 0.28125q0.78125 0.265625 1.34375 0.75q0.5625 0.484375 0.921875 1.171875q0.359375 0.6875 0.5625 1.546875l-2.609375 0.640625q-0.109375 -0.46875 -0.265625 -0.859375q-0.140625 -0.390625 -0.375 -0.671875q-0.234375 -0.28125 -0.578125 -0.4375q-0.34375 -0.15625 -0.828125 -0.15625q-1.140625 0 -1.625 0.890625q-0.46875 0.875 -0.46875 2.4375l0 2.28125q0 1.5625 0.46875 2.453125q0.484375 0.890625 1.625 0.890625q0.96875 0 1.40625 -0.59375q0.4375 -0.609375 0.640625 -1.53125l2.609375 0.625q-0.203125 0.859375 -0.5625 1.5625q-0.359375 0.6875 -0.921875 1.1875q-0.5625 0.484375 -1.34375 0.75q-0.765625 0.25 -1.78125 0.25z" fill-rule="nonzero"/><path fill="#2874aa" d="m407.62204 263.45145l72.37796 0l0 72.37796l-72.37796 0z" fill-rule="evenodd"/><path stroke="#000000" stroke-width="2.0" stroke-linejoin="round" stroke-linecap="butt" d="m407.62204 263.45145l72.37796 0l0 72.37796l-72.37796 0z" fill-rule="evenodd"/><path fill="#ffffff" d="m427.01727 306.77917q-2.609375 0 -3.859375 -1.765625q-1.234375 -1.78125 -1.234375 -4.96875q0 -3.1875 1.234375 -4.953125q1.25 -1.78125 3.859375 -1.78125q2.609375 0 3.84375 1.78125q1.25 1.765625 1.25 4.953125q0 3.1875 -1.25 4.96875q-1.234375 1.765625 -3.84375 1.765625zm0 -2.203125q1.25 0 1.734375 -0.875q0.5 -0.875 0.5 -2.4375l0 -2.421875q0 -1.578125 -0.5 -2.453125q-0.484375 -0.875 -1.734375 -0.875q-1.25 0 -1.75 0.875q-0.484375 0.875 -0.484375 2.453125l0 2.421875q0 1.5625 0.484375 2.4375q0.5 0.875 1.75 0.875zm0 -3.421875q-0.65625 0 -0.90625 -0.265625q-0.25 -0.265625 -0.25 -0.640625l0 -0.40625q0 -0.375 0.25 -0.625q0.25 -0.265625 0.90625 -0.265625q0.65625 0 0.90625 0.265625q0.25 0.25 0.25 0.625l0 0.40625q0 0.375 -0.25 0.640625q-0.25 0.265625 -0.90625 0.265625zm6.021881 5.40625l3.609375 -4.890625l-3.359375 -4.734375l3.15625 0l1.015625 1.546875l0.796875 1.25l0.140625 0l0.796875 -1.25l1.046875 -1.546875l2.890625 0l-3.359375 4.59375l3.609375 5.03125l-3.171875 0l-1.21875 -1.8125l-0.828125 -1.28125l-0.15625 0l-0.8125 1.28125l-1.234375 1.8125l-2.921875 0zm16.365631 0.21875q-2.609375 0 -3.859375 -1.765625q-1.234375 -1.78125 -1.234375 -4.96875q0 -3.1875 1.234375 -4.953125q1.25 -1.78125 3.859375 -1.78125q2.609375 0 3.84375 1.78125q1.25 1.765625 1.25 4.953125q0 3.1875 -1.25 4.96875q-1.234375 1.765625 -3.84375 1.765625zm0 -2.203125q1.25 0 1.734375 -0.875q0.5 -0.875 0.5 -2.4375l0 -2.421875q0 -1.578125 -0.5 -2.453125q-0.484375 -0.875 -1.734375 -0.875q-1.25 0 -1.75 0.875q-0.484375 0.875 -0.484375 2.453125l0 2.421875q0 1.5625 0.484375 2.4375q0.5 0.875 1.75 0.875zm0 -3.421875q-0.65625 0 -0.90625 -0.265625q-0.25 -0.265625 -0.25 -0.640625l0 -0.40625q0 -0.375 0.25 -0.625q0.25 -0.265625 0.90625 -0.265625q0.65625 0 0.90625 0.265625q0.25 0.25 0.25 0.625l0 0.40625q0 0.375 -0.25 0.640625q-0.25 0.265625 -0.90625 0.265625zm6.787506 -7.609375l4.203125 0q2.625 0 3.890625 1.6875q1.28125 1.671875 1.28125 4.8125q0 3.15625 -1.28125 4.84375q-1.265625 1.671875 -3.890625 1.671875l-4.203125 0l0 -13.015625zm4.015625 10.8125q1.25 0 1.828125 -0.796875q0.578125 -0.8125 0.578125 -2.328125l0 -2.375q0 -1.515625 -0.578125 -2.3125q-0.578125 -0.8125 -1.828125 -0.8125l-1.25 0l0 8.625l1.25 0z" fill-rule="nonzero"/><path fill="#d32360" d="m190.48819 343.8294l72.37796 0l0 72.37793l-72.37796 0z" fill-rule="evenodd"/><path stroke="#000000" stroke-width="2.0" stroke-linejoin="round" stroke-linecap="butt" d="m190.48819 343.8294l72.37796 0l0 72.37793l-72.37796 0z" fill-rule="evenodd"/><path fill="#ffffff" d="m233.14122 389.33838l-12.71875 0l0 -3.46875l5.578125 -4.640625q1.4375 -1.234375 2.0625 -2.140625q0.640625 -0.921875 0.640625 -1.9375l0 -0.25q0 -1.109375 -0.65625 -1.671875q-0.65625 -0.578125 -1.78125 -0.578125q-1.265625 0 -1.953125 0.734375q-0.671875 0.734375 -0.953125 1.75l-3.3125 -1.265625q0.296875 -0.921875 0.828125 -1.734375q0.53125 -0.828125 1.34375 -1.4375q0.828125 -0.609375 1.921875 -0.96875q1.09375 -0.375 2.515625 -0.375q1.4375 0 2.578125 0.40625q1.140625 0.40625 1.921875 1.125q0.78125 0.703125 1.1875 1.6875q0.40625 0.96875 0.40625 2.09375q0 1.125 -0.375 2.046875q-0.359375 0.921875 -1.0 1.734375q-0.640625 0.8125 -1.515625 1.578125q-0.875 0.75 -1.859375 1.515625l-3.375 2.609375l8.515625 0l0 3.1875z" fill-rule="nonzero"/><path fill="#cc9f26" d="m262.86615 343.8294l72.37793 0l0 72.37793l-72.37793 0z" fill-rule="evenodd"/><path stroke="#000000" stroke-width="2.0" stroke-linejoin="round" stroke-linecap="butt" d="m262.86615 343.8294l72.37793 0l0 72.37793l-72.37793 0z" fill-rule="evenodd"/><path fill="#ffffff" d="m293.83167 389.33838l0 -3.0625l4.765625 0l0 -11.859375l-0.21875 0l-3.609375 4.71875l-2.421875 -1.90625l4.21875 -5.5625l5.828125 0l0 14.609375l3.75 0l0 3.0625l-12.3125 0z" fill-rule="nonzero"/><path fill="#208020" d="m335.24408 343.8294l72.37796 0l0 72.37793l-72.37796 0z" fill-rule="evenodd"/><path stroke="#000000" stroke-width="2.0" stroke-linejoin="round" stroke-linecap="butt" d="m335.24408 343.8294l72.37796 0l0 72.37793l-72.37796 0z" fill-rule="evenodd"/><path fill="#ffffff" d="m370.7565 378.65088q1.46875 0 2.125 -0.546875q0.671875 -0.5625 0.671875 -1.375l0 -0.1875q0 -0.953125 -0.640625 -1.515625q-0.640625 -0.578125 -1.828125 -0.578125q-1.09375 0 -2.046875 0.546875q-0.953125 0.546875 -1.609375 1.546875l-2.40625 -2.21875q0.515625 -0.65625 1.109375 -1.203125q0.609375 -0.546875 1.34375 -0.9375q0.734375 -0.390625 1.65625 -0.609375q0.9375 -0.21875 2.09375 -0.21875q1.453125 0 2.609375 0.328125q1.171875 0.328125 1.984375 0.953125q0.828125 0.625 1.28125 1.484375q0.46875 0.859375 0.46875 1.921875q0 0.828125 -0.28125 1.515625q-0.28125 0.6875 -0.75 1.203125q-0.46875 0.5 -1.09375 0.8125q-0.609375 0.3125 -1.328125 0.4375l0 0.15625q1.625 0.28125 2.703125 1.359375q1.078125 1.078125 1.078125 2.90625q0 1.1875 -0.5 2.15625q-0.5 0.953125 -1.40625 1.640625q-0.890625 0.671875 -2.171875 1.046875q-1.265625 0.359375 -2.84375 0.359375q-1.34375 0 -2.375 -0.28125q-1.015625 -0.265625 -1.8125 -0.734375q-0.78125 -0.46875 -1.359375 -1.09375q-0.5625 -0.625 -0.984375 -1.28125l2.8125 -2.171875q0.578125 1.09375 1.453125 1.796875q0.875 0.6875 2.34375 0.6875q1.375 0 2.109375 -0.625q0.734375 -0.640625 0.734375 -1.765625l0 -0.171875q0 -1.09375 -0.84375 -1.625q-0.828125 -0.546875 -2.328125 -0.546875l-1.640625 0l0 -3.171875l1.671875 0z" fill-rule="nonzero"/><path fill="#2874aa" d="m407.62204 343.8294l72.37796 0l0 72.37793l-72.37796 0z" fill-rule="evenodd"/><path stroke="#000000" stroke-width="2.0" stroke-linejoin="round" stroke-linecap="butt" d="m407.62204 343.8294l72.37796 0l0 72.37793l-72.37796 0z" fill-rule="evenodd"/><path fill="#ffffff" d="m450.2751 389.33838l-12.71875 0l0 -3.46875l5.578125 -4.640625q1.4375 -1.234375 2.0625 -2.140625q0.640625 -0.921875 0.640625 -1.9375l0 -0.25q0 -1.109375 -0.65625 -1.671875q-0.65625 -0.578125 -1.78125 -0.578125q-1.265625 0 -1.953125 0.734375q-0.671875 0.734375 -0.953125 1.75l-3.3125 -1.265625q0.296875 -0.921875 0.828125 -1.734375q0.53125 -0.828125 1.34375 -1.4375q0.828125 -0.609375 1.921875 -0.96875q1.09375 -0.375 2.515625 -0.375q1.4375 0 2.578125 0.40625q1.140625 0.40625 1.921875 1.125q0.78125 0.703125 1.1875 1.6875q0.40625 0.96875 0.40625 2.09375q0 1.125 -0.375 2.046875q-0.359375 0.921875 -1.0 1.734375q-0.640625 0.8125 -1.515625 1.578125q-0.875 0.75 -1.859375 1.515625l-3.375 2.609375l8.515625 0l0 3.1875z" fill-rule="nonzero"/><path fill="#000000" fill-opacity="0.0" d="m73.48819 131.57217l117.00787 0l0 42.015747l-117.00787 0z" fill-rule="evenodd"/><path fill="#000000" d="m103.66669 145.17967q1.609375 0 2.71875 1.046875q1.109375 1.03125 1.109375 2.625q0 1.265625 -0.53125 2.09375q-0.515625 0.8125 -1.59375 1.25l0 0.03125q0.953125 0.25 1.453125 1.125q0.5 0.875 0.546875 2.671875q0.03125 1.796875 0.515625 2.46875l-2.9375 0q-0.25 -0.640625 -0.34375 -2.09375q-0.140625 -1.96875 -0.671875 -2.53125q-0.515625 -0.578125 -1.59375 -0.578125l-3.0 0l0 5.203125l-2.9375 0l0 -13.3125l7.265625 0zm-1.0625 6.015625q0.921875 0 1.4375 -0.4375q0.515625 -0.453125 0.515625 -1.46875q0 -0.9375 -0.5 -1.390625q-0.5 -0.453125 -1.453125 -0.453125l-3.265625 0l0 3.75l3.265625 0zm11.426071 -2.609375q2.140625 0 3.1875 0.703125q1.046875 0.703125 1.046875 1.984375l0 5.171875q0 0.578125 0.0625 1.171875q0.078125 0.578125 0.265625 0.875l-2.6875 0q-0.078125 -0.21875 -0.125 -0.453125q-0.046875 -0.234375 -0.0625 -0.46875q-0.5625 0.578125 -1.390625 0.890625q-0.8125 0.296875 -1.859375 0.296875q-1.484375 0 -2.390625 -0.75q-0.890625 -0.75 -0.890625 -2.140625q0 -1.359375 0.84375 -2.0625q0.84375 -0.71875 3.046875 -0.96875q1.546875 -0.140625 2.03125 -0.375q0.5 -0.234375 0.5 -0.8125q0 -0.640625 -0.375 -0.96875q-0.375 -0.328125 -1.328125 -0.328125q-0.828125 0 -1.265625 0.359375q-0.4375 0.34375 -0.5 1.109375l-2.65625 0q0.109375 -1.59375 1.296875 -2.40625q1.203125 -0.828125 3.25 -0.828125zm-2.1875 7.171875q0 0.5625 0.390625 0.890625q0.390625 0.328125 1.234375 0.328125q1.0625 0 1.59375 -0.546875q0.546875 -0.5625 0.546875 -1.625l0 -1.03125q-0.234375 0.1875 -0.625 0.28125q-0.390625 0.09375 -1.40625 0.25q-0.890625 0.109375 -1.3125 0.46875q-0.421875 0.34375 -0.421875 0.984375zm10.369019 -6.90625l1.78125 6.546875l0.03125 0l1.609375 -6.546875l2.578125 0l1.640625 6.53125l0.03125 0l1.78125 -6.53125l2.71875 0l-3.046875 9.640625l-2.71875 0l-1.71875 -6.484375l-0.046875 0l-1.640625 6.484375l-2.734375 0l-3.0625 -9.640625l2.796875 0zm24.587585 -3.671875q2.65625 0 4.296875 1.734375q1.65625 1.734375 1.65625 4.84375q0 3.125 -1.609375 4.9375q-1.609375 1.796875 -4.34375 1.796875l-5.84375 0l0 -13.3125l5.84375 0zm-0.234375 10.859375q1.40625 0 2.328125 -1.0q0.921875 -1.015625 0.921875 -3.015625q0 -2.296875 -0.96875 -3.34375q-0.953125 -1.046875 -2.78125 -1.046875l-2.171875 0l0 8.40625l2.671875 0zm12.375092 -7.453125q2.140625 0 3.1875 0.703125q1.046875 0.703125 1.046875 1.984375l0 5.171875q0 0.578125 0.0625 1.171875q0.078125 0.578125 0.265625 0.875l-2.6875 0q-0.078125 -0.21875 -0.125 -0.453125q-0.046875 -0.234375 -0.0625 -0.46875q-0.5625 0.578125 -1.390625 0.890625q-0.8125 0.296875 -1.859375 0.296875q-1.484375 0 -2.390625 -0.75q-0.890625 -0.75 -0.890625 -2.140625q0 -1.359375 0.84375 -2.0625q0.84375 -0.71875 3.046875 -0.96875q1.546875 -0.140625 2.03125 -0.375q0.5 -0.234375 0.5 -0.8125q0 -0.640625 -0.375 -0.96875q-0.375 -0.328125 -1.328125 -0.328125q-0.828125 0 -1.265625 0.359375q-0.4375 0.34375 -0.5 1.109375l-2.65625 0q0.109375 -1.59375 1.296875 -2.40625q1.203125 -0.828125 3.25 -0.828125zm-2.1875 7.171875q0 0.5625 0.390625 0.890625q0.390625 0.328125 1.234375 0.328125q1.0625 0 1.59375 -0.546875q0.546875 -0.5625 0.546875 -1.625l0 -1.03125q-0.234375 0.1875 -0.625 0.28125q-0.390625 0.09375 -1.40625 0.25q-0.890625 0.109375 -1.3125 0.46875q-0.421875 0.34375 -0.421875 0.984375zm11.822144 -9.796875l0 2.890625l1.9375 0l0 1.765625l-1.9375 0l0 4.84375q0 0.59375 0.21875 0.828125q0.234375 0.21875 0.90625 0.21875q0.234375 0 0.4375 -0.015625q0.203125 -0.015625 0.375 -0.046875l0 2.0625q-0.328125 0.0625 -0.734375 0.078125q-0.390625 0.015625 -0.796875 0.015625q-1.71875 0 -2.390625 -0.578125q-0.65625 -0.59375 -0.65625 -1.65625l0 -5.75l-1.609375 0l0 -1.765625l1.609375 0l0 -2.890625l2.640625 0zm7.6460724 2.625q2.140625 0 3.1875 0.703125q1.046875 0.703125 1.046875 1.984375l0 5.171875q0 0.578125 0.0625 1.171875q0.078125 0.578125 0.265625 0.875l-2.6875 0q-0.078125 -0.21875 -0.125 -0.453125q-0.046875 -0.234375 -0.0625 -0.46875q-0.5625 0.578125 -1.390625 0.890625q-0.8125 0.296875 -1.859375 0.296875q-1.484375 0 -2.390625 -0.75q-0.890625 -0.75 -0.890625 -2.140625q0 -1.359375 0.84375 -2.0625q0.84375 -0.71875 3.046875 -0.96875q1.546875 -0.140625 2.03125 -0.375q0.5 -0.234375 0.5 -0.8125q0 -0.640625 -0.375 -0.96875q-0.375 -0.328125 -1.328125 -0.328125q-0.828125 0 -1.265625 0.359375q-0.4375 0.34375 -0.5 1.109375l-2.65625 0q0.109375 -1.59375 1.296875 -2.40625q1.203125 -0.828125 3.25 -0.828125zm-2.1875 7.171875q0 0.5625 0.390625 0.890625q0.390625 0.328125 1.234375 0.328125q1.0625 0 1.59375 -0.546875q0.546875 -0.5625 0.546875 -1.625l0 -1.03125q-0.234375 0.1875 -0.625 0.28125q-0.390625 0.09375 -1.40625 0.25q-0.890625 0.109375 -1.3125 0.46875q-0.421875 0.34375 -0.421875 0.984375z" fill-rule="nonzero"/><path fill="#000000" fill-opacity="0.0" d="m49.669292 267.32547l140.8189 0l0 64.62991l-140.8189 0z" fill-rule="evenodd"/><path fill="#000000" d="m75.25867 280.60483q2.265625 0 3.859375 1.28125q1.59375 1.28125 1.875 3.515625l-2.828125 0q-0.203125 -1.046875 -1.046875 -1.6875q-0.84375 -0.640625 -1.875 -0.640625q-1.71875 0 -2.671875 1.25q-0.9375 1.25 -0.9375 3.3125q0 1.984375 0.9375 3.21875q0.9375 1.234375 2.6875 1.234375q1.265625 0 2.046875 -0.765625q0.78125 -0.78125 0.96875 -2.203125l2.84375 0q-0.265625 2.53125 -1.859375 3.984375q-1.578125 1.453125 -4.0 1.453125q-1.921875 0 -3.421875 -0.875q-1.5 -0.875 -2.328125 -2.46875q-0.8125 -1.609375 -0.8125 -3.578125q0 -3.0625 1.796875 -5.046875q1.796875 -1.984375 4.765625 -1.984375zm12.250092 3.734375q2.28125 0 3.640625 1.40625q1.359375 1.390625 1.359375 3.6875q0 2.3125 -1.375 3.703125q-1.375 1.375 -3.625 1.375q-2.234375 0 -3.609375 -1.390625q-1.375 -1.390625 -1.375 -3.6875q0 -2.28125 1.34375 -3.6875q1.359375 -1.40625 3.640625 -1.40625zm-2.328125 5.09375q0 1.53125 0.625 2.3125q0.625 0.765625 1.703125 0.765625q1.140625 0 1.75 -0.796875q0.609375 -0.8125 0.609375 -2.28125q0 -1.4375 -0.59375 -2.265625q-0.59375 -0.828125 -1.78125 -0.828125q-1.0625 0 -1.6875 0.765625q-0.625 0.765625 -0.625 2.328125zm14.599106 -5.09375q1.078125 0 1.78125 0.421875q0.703125 0.40625 1.03125 1.1875q0.546875 -0.78125 1.296875 -1.1875q0.75 -0.421875 1.640625 -0.421875q1.75 0 2.625 0.90625q0.890625 0.890625 0.890625 2.453125l0 6.546875l-2.65625 0l0 -5.578125q0 -1.3125 -0.390625 -1.765625q-0.390625 -0.46875 -1.234375 -0.46875q-0.890625 0 -1.328125 0.609375q-0.4375 0.59375 -0.4375 1.75l0 5.453125l-2.65625 0l0 -5.9375q0 -0.953125 -0.375 -1.40625q-0.359375 -0.46875 -1.21875 -0.46875q-0.765625 0 -1.28125 0.578125q-0.515625 0.578125 -0.515625 1.578125l0 5.65625l-2.65625 0l0 -9.640625l2.5 0l0 1.3125l0.03125 0q0.578125 -0.796875 1.3125 -1.1875q0.75 -0.390625 1.640625 -0.390625zm16.773117 0q2.046875 0 3.21875 1.4375q1.171875 1.4375 1.171875 3.75q0 2.140625 -1.15625 3.5625q-1.140625 1.421875 -3.078125 1.421875q-0.890625 0 -1.65625 -0.375q-0.765625 -0.375 -1.234375 -1.078125l-0.046875 0l0 4.578125l-2.640625 0l0 -13.03125l2.515625 0l0 1.21875l0.03125 0q0.46875 -0.75 1.203125 -1.109375q0.734375 -0.375 1.671875 -0.375zm-2.875 5.109375q0 1.390625 0.59375 2.234375q0.59375 0.828125 1.71875 0.828125q1.109375 0 1.703125 -0.796875q0.59375 -0.796875 0.59375 -2.265625q0 -1.375 -0.59375 -2.234375q-0.59375 -0.875 -1.734375 -0.875q-1.09375 0 -1.6875 0.828125q-0.59375 0.8125 -0.59375 2.28125zm14.458481 -5.109375q0.1875 0 0.328125 0.03125q0.140625 0.015625 0.265625 0.0625l0 2.46875q-0.21875 -0.046875 -0.4375 -0.0625q-0.21875 -0.03125 -0.5 -0.03125q-1.34375 0 -1.984375 0.828125q-0.640625 0.8125 -0.640625 2.1875l0 4.421875l-2.640625 0l0 -9.640625l2.515625 0l0 1.78125l0.03125 0q0.421875 -0.9375 1.25 -1.484375q0.828125 -0.5625 1.8125 -0.5625zm5.958191 0q2.140625 0 3.421875 1.484375q1.28125 1.46875 1.28125 3.75l-0.03125 0.484375l-6.953125 0q0.0625 1.25 0.65625 1.859375q0.59375 0.59375 1.703125 0.59375q0.71875 0 1.328125 -0.359375q0.609375 -0.375 0.78125 -0.890625l2.328125 0q-0.53125 1.640625 -1.65625 2.453125q-1.125 0.796875 -2.859375 0.796875q-2.234375 0 -3.59375 -1.40625q-1.34375 -1.421875 -1.34375 -3.671875q0 -2.15625 1.375 -3.625q1.390625 -1.46875 3.5625 -1.46875zm-2.28125 4.046875l4.3125 0q-0.1875 -1.0625 -0.6875 -1.546875q-0.5 -0.5 -1.4375 -0.5q-0.96875 0 -1.53125 0.546875q-0.5625 0.546875 -0.65625 1.5zm12.494019 -4.046875q1.96875 0 3.03125 0.78125q1.078125 0.78125 1.21875 2.296875l-2.515625 0q-0.0625 -0.6875 -0.515625 -1.0q-0.453125 -0.3125 -1.3125 -0.3125q-0.75 0 -1.109375 0.234375q-0.34375 0.234375 -0.34375 0.671875q0 0.4375 0.453125 0.734375q0.46875 0.28125 1.859375 0.546875q2.21875 0.421875 2.96875 1.09375q0.765625 0.671875 0.765625 1.765625q0 1.640625 -1.203125 2.5q-1.1875 0.859375 -3.1875 0.859375q-2.015625 0 -3.234375 -0.84375q-1.21875 -0.859375 -1.3125 -2.5625l2.53125 0q0 0.765625 0.578125 1.203125q0.578125 0.421875 1.453125 0.421875q0.765625 0 1.25 -0.328125q0.484375 -0.328125 0.484375 -0.890625q0 -0.515625 -0.625 -0.828125q-0.625 -0.3125 -2.296875 -0.671875q-1.671875 -0.328125 -2.40625 -0.9375q-0.734375 -0.609375 -0.734375 -1.640625q0 -1.53125 1.078125 -2.3125q1.09375 -0.78125 3.125 -0.78125zm10.020447 0q1.96875 0 3.03125 0.78125q1.078125 0.78125 1.21875 2.296875l-2.515625 0q-0.0625 -0.6875 -0.515625 -1.0q-0.453125 -0.3125 -1.3125 -0.3125q-0.75 0 -1.109375 0.234375q-0.34375 0.234375 -0.34375 0.671875q0 0.4375 0.453125 0.734375q0.46875 0.28125 1.859375 0.546875q2.21875 0.421875 2.96875 1.09375q0.765625 0.671875 0.765625 1.765625q0 1.640625 -1.203125 2.5q-1.1875 0.859375 -3.1875 0.859375q-2.015625 0 -3.234375 -0.84375q-1.21875 -0.859375 -1.3125 -2.5625l2.53125 0q0 0.765625 0.578125 1.203125q0.578125 0.421875 1.453125 0.421875q0.765625 0 1.25 -0.328125q0.484375 -0.328125 0.484375 -0.890625q0 -0.515625 -0.625 -0.828125q-0.625 -0.3125 -2.296875 -0.671875q-1.671875 -0.328125 -2.40625 -0.9375q-0.734375 -0.609375 -0.734375 -1.640625q0 -1.53125 1.078125 -2.3125q1.09375 -0.78125 3.125 -0.78125zm10.520447 0q2.140625 0 3.421875 1.484375q1.28125 1.46875 1.28125 3.75l-0.03125 0.484375l-6.953125 0q0.0625 1.25 0.65625 1.859375q0.59375 0.59375 1.703125 0.59375q0.71875 0 1.328125 -0.359375q0.609375 -0.375 0.78125 -0.890625l2.328125 0q-0.53125 1.640625 -1.65625 2.453125q-1.125 0.796875 -2.859375 0.796875q-2.234375 0 -3.59375 -1.40625q-1.34375 -1.421875 -1.34375 -3.671875q0 -2.15625 1.375 -3.625q1.390625 -1.46875 3.5625 -1.46875zm-2.28125 4.046875l4.3125 0q-0.1875 -1.0625 -0.6875 -1.546875q-0.5 -0.5 -1.4375 -0.5q-0.96875 0 -1.53125 0.546875q-0.5625 0.546875 -0.65625 1.5zm17.931519 -7.453125l0 13.3125l-2.515625 0l0 -1.234375l-0.03125 0q-0.4375 0.75 -1.1875 1.125q-0.75 0.375 -1.75 0.375q-1.96875 0 -3.15625 -1.453125q-1.171875 -1.453125 -1.171875 -3.71875q0 -2.15625 1.15625 -3.578125q1.171875 -1.421875 3.125 -1.421875q0.90625 0 1.640625 0.375q0.75 0.359375 1.203125 1.0625l0.046875 0l0 -4.84375l2.640625 0zm-7.15625 8.46875q0 1.359375 0.625 2.234375q0.625 0.875 1.703125 0.875q1.09375 0 1.6875 -0.8125q0.59375 -0.8125 0.59375 -2.296875q0 -1.421875 -0.578125 -2.234375q-0.578125 -0.828125 -1.71875 -0.828125q-1.09375 0 -1.703125 0.828125q-0.609375 0.8125 -0.609375 2.234375z" fill-rule="nonzero"/><path fill="#000000" d="m146.79149 303.33295q2.65625 0 4.296875 1.734375q1.65625 1.734375 1.65625 4.84375q0 3.125 -1.609375 4.9375q-1.609375 1.796875 -4.34375 1.796875l-5.84375 0l0 -13.3125l5.84375 0zm-0.234375 10.859375q1.40625 0 2.328125 -1.0q0.921875 -1.015625 0.921875 -3.015625q0 -2.296875 -0.96875 -3.34375q-0.953125 -1.046875 -2.78125 -1.046875l-2.171875 0l0 8.40625l2.671875 0zm12.375092 -7.453125q2.140625 0 3.1875 0.703125q1.046875 0.703125 1.046875 1.984375l0 5.171875q0 0.578125 0.0625 1.171875q0.078125 0.578125 0.265625 0.875l-2.6875 0q-0.078125 -0.21875 -0.125 -0.453125q-0.046875 -0.234375 -0.0625 -0.46875q-0.5625 0.578125 -1.390625 0.890625q-0.8125 0.296875 -1.859375 0.296875q-1.484375 0 -2.390625 -0.75q-0.890625 -0.75 -0.890625 -2.140625q0 -1.359375 0.84375 -2.0625q0.84375 -0.71875 3.046875 -0.96875q1.546875 -0.140625 2.03125 -0.375q0.5 -0.234375 0.5 -0.8125q0 -0.640625 -0.375 -0.96875q-0.375 -0.328125 -1.328125 -0.328125q-0.828125 0 -1.265625 0.359375q-0.4375 0.34375 -0.5 1.109375l-2.65625 0q0.109375 -1.59375 1.296875 -2.40625q1.203125 -0.828125 3.25 -0.828125zm-2.1875 7.171875q0 0.5625 0.390625 0.890625q0.390625 0.328125 1.234375 0.328125q1.0625 0 1.59375 -0.546875q0.546875 -0.5625 0.546875 -1.625l0 -1.03125q-0.234375 0.1875 -0.625 0.28125q-0.390625 0.09375 -1.40625 0.25q-0.890625 0.109375 -1.3125 0.46875q-0.421875 0.34375 -0.421875 0.984375zm11.822144 -9.796875l0 2.890625l1.9375 0l0 1.765625l-1.9375 0l0 4.84375q0 0.59375 0.21875 0.828125q0.234375 0.21875 0.90625 0.21875q0.234375 0 0.4375 -0.015625q0.203125 -0.015625 0.375 -0.046875l0 2.0625q-0.328125 0.0625 -0.734375 0.078125q-0.390625 0.015625 -0.796875 0.015625q-1.71875 0 -2.390625 -0.578125q-0.65625 -0.59375 -0.65625 -1.65625l0 -5.75l-1.609375 0l0 -1.765625l1.609375 0l0 -2.890625l2.640625 0zm7.6460724 2.625q2.1406403 0 3.1875153 0.703125q1.046875 0.703125 1.046875 1.984375l0 5.171875q0 0.578125 0.0625 1.171875q0.078125 0.578125 0.265625 0.875l-2.6875 0q-0.078125 -0.21875 -0.125 -0.453125q-0.046875 -0.234375 -0.0625 -0.46875q-0.56251526 0.578125 -1.3906403 0.890625q-0.8125 0.296875 -1.859375 0.296875q-1.484375 0 -2.390625 -0.75q-0.890625 -0.75 -0.890625 -2.140625q0 -1.359375 0.84375 -2.0625q0.84375 -0.71875 3.046875 -0.96875q1.546875 -0.140625 2.03125 -0.375q0.50001526 -0.234375 0.50001526 -0.8125q0 -0.640625 -0.37501526 -0.96875q-0.375 -0.328125 -1.328125 -0.328125q-0.828125 0 -1.265625 0.359375q-0.4375 0.34375 -0.5 1.109375l-2.65625 0q0.109375 -1.59375 1.296875 -2.40625q1.203125 -0.828125 3.25 -0.828125zm-2.1875 7.171875q0 0.5625 0.390625 0.890625q0.390625 0.328125 1.234375 0.328125q1.0625 0 1.59375 -0.546875q0.54689026 -0.5625 0.54689026 -1.625l0 -1.03125q-0.23439026 0.1875 -0.62501526 0.28125q-0.390625 0.09375 -1.40625 0.25q-0.890625 0.109375 -1.3125 0.46875q-0.421875 0.34375 -0.421875 0.984375z" fill-rule="nonzero"/><path fill="#000000" fill-opacity="0.0" d="m49.677166 347.7034l140.8189 0l0 64.629944l-140.8189 0z" fill-rule="evenodd"/><path fill="#000000" d="m75.26654 360.9828q2.265625 0 3.859375 1.28125q1.59375 1.28125 1.875 3.515625l-2.828125 0q-0.203125 -1.046875 -1.046875 -1.6875q-0.84375 -0.640625 -1.875 -0.640625q-1.71875 0 -2.671875 1.25q-0.9375 1.25 -0.9375 3.3125q0 1.984375 0.9375 3.21875q0.9375 1.234375 2.6875 1.234375q1.265625 0 2.046875 -0.765625q0.78125 -0.78125 0.96875 -2.203125l2.84375 0q-0.265625 2.53125 -1.859375 3.984375q-1.578125 1.453125 -4.0 1.453125q-1.921875 0 -3.421875 -0.875q-1.5 -0.875 -2.328125 -2.46875q-0.8125 -1.609375 -0.8125 -3.578125q0 -3.0625 1.796875 -5.046875q1.796875 -1.984375 4.765625 -1.984375zm12.250092 3.734375q2.28125 0 3.640625 1.40625q1.359375 1.390625 1.359375 3.6875q0 2.3125 -1.375 3.703125q-1.375 1.375 -3.625 1.375q-2.234375 0 -3.609375 -1.390625q-1.375 -1.390625 -1.375 -3.6875q0 -2.28125 1.34375 -3.6875q1.359375 -1.40625 3.640625 -1.40625zm-2.328125 5.09375q0 1.53125 0.625 2.3125q0.625 0.765625 1.703125 0.765625q1.140625 0 1.75 -0.796875q0.609375 -0.8125 0.609375 -2.28125q0 -1.4375 -0.59375 -2.265625q-0.59375 -0.828125 -1.78125 -0.828125q-1.0625 0 -1.6875 0.765625q-0.625 0.765625 -0.625 2.328125zm14.599106 -5.09375q1.078125 0 1.78125 0.421875q0.703125 0.40625 1.03125 1.1875q0.546875 -0.78125 1.296875 -1.1875q0.75 -0.421875 1.640625 -0.421875q1.75 0 2.625 0.90625q0.890625 0.890625 0.890625 2.453125l0 6.546875l-2.65625 0l0 -5.578125q0 -1.3125 -0.390625 -1.765625q-0.390625 -0.46875 -1.234375 -0.46875q-0.890625 0 -1.328125 0.609375q-0.4375 0.59375 -0.4375 1.75l0 5.453125l-2.65625 0l0 -5.9375q0 -0.953125 -0.375 -1.40625q-0.359375 -0.46875 -1.21875 -0.46875q-0.765625 0 -1.28125 0.578125q-0.515625 0.578125 -0.515625 1.578125l0 5.65625l-2.65625 0l0 -9.640625l2.5 0l0 1.3125l0.03125 0q0.578125 -0.796875 1.3125 -1.1875q0.75 -0.390625 1.640625 -0.390625zm16.773117 0q2.046875 0 3.21875 1.4375q1.171875 1.4375 1.171875 3.75q0 2.140625 -1.15625 3.5625q-1.140625 1.421875 -3.078125 1.421875q-0.890625 0 -1.65625 -0.375q-0.765625 -0.375 -1.234375 -1.078125l-0.046875 0l0 4.578125l-2.640625 0l0 -13.03125l2.515625 0l0 1.21875l0.03125 0q0.46875 -0.75 1.203125 -1.109375q0.734375 -0.375 1.671875 -0.375zm-2.875 5.109375q0 1.390625 0.59375 2.234375q0.59375 0.828125 1.71875 0.828125q1.109375 0 1.703125 -0.796875q0.59375 -0.796875 0.59375 -2.265625q0 -1.375 -0.59375 -2.234375q-0.59375 -0.875 -1.734375 -0.875q-1.09375 0 -1.6875 0.828125q-0.59375 0.8125 -0.59375 2.28125zm14.458481 -5.109375q0.1875 0 0.328125 0.03125q0.140625 0.015625 0.265625 0.0625l0 2.46875q-0.21875 -0.046875 -0.4375 -0.0625q-0.21875 -0.03125 -0.5 -0.03125q-1.34375 0 -1.984375 0.828125q-0.640625 0.8125 -0.640625 2.1875l0 4.421875l-2.640625 0l0 -9.640625l2.515625 0l0 1.78125l0.03125 0q0.421875 -0.9375 1.25 -1.484375q0.828125 -0.5625 1.8125 -0.5625zm5.958191 0q2.140625 0 3.421875 1.484375q1.28125 1.46875 1.28125 3.75l-0.03125 0.484375l-6.953125 0q0.0625 1.25 0.65625 1.859375q0.59375 0.59375 1.703125 0.59375q0.71875 0 1.328125 -0.359375q0.609375 -0.375 0.78125 -0.890625l2.328125 0q-0.53125 1.640625 -1.65625 2.453125q-1.125 0.796875 -2.859375 0.796875q-2.234375 0 -3.59375 -1.40625q-1.34375 -1.421875 -1.34375 -3.671875q0 -2.15625 1.375 -3.625q1.390625 -1.46875 3.5625 -1.46875zm-2.28125 4.046875l4.3125 0q-0.1875 -1.0625 -0.6875 -1.546875q-0.5 -0.5 -1.4375 -0.5q-0.96875 0 -1.53125 0.546875q-0.5625 0.546875 -0.65625 1.5zm12.494019 -4.046875q1.96875 0 3.03125 0.78125q1.078125 0.78125 1.21875 2.296875l-2.515625 0q-0.0625 -0.6875 -0.515625 -1.0q-0.453125 -0.3125 -1.3125 -0.3125q-0.75 0 -1.109375 0.234375q-0.34375 0.234375 -0.34375 0.671875q0 0.4375 0.453125 0.734375q0.46875 0.28125 1.859375 0.546875q2.21875 0.421875 2.96875 1.09375q0.765625 0.671875 0.765625 1.765625q0 1.640625 -1.203125 2.5q-1.1875 0.859375 -3.1875 0.859375q-2.015625 0 -3.234375 -0.84375q-1.21875 -0.859375 -1.3125 -2.5625l2.53125 0q0 0.765625 0.578125 1.203125q0.578125 0.421875 1.453125 0.421875q0.765625 0 1.25 -0.328125q0.484375 -0.328125 0.484375 -0.890625q0 -0.515625 -0.625 -0.828125q-0.625 -0.3125 -2.296875 -0.671875q-1.671875 -0.328125 -2.40625 -0.9375q-0.734375 -0.609375 -0.734375 -1.640625q0 -1.53125 1.078125 -2.3125q1.09375 -0.78125 3.125 -0.78125zm10.020447 0q1.96875 0 3.03125 0.78125q1.078125 0.78125 1.21875 2.296875l-2.515625 0q-0.0625 -0.6875 -0.515625 -1.0q-0.453125 -0.3125 -1.3125 -0.3125q-0.75 0 -1.109375 0.234375q-0.34375 0.234375 -0.34375 0.671875q0 0.4375 0.453125 0.734375q0.46875 0.28125 1.859375 0.546875q2.21875 0.421875 2.96875 1.09375q0.765625 0.671875 0.765625 1.765625q0 1.640625 -1.203125 2.5q-1.1875 0.859375 -3.1875 0.859375q-2.015625 0 -3.234375 -0.84375q-1.21875 -0.859375 -1.3125 -2.5625l2.53125 0q0 0.765625 0.578125 1.203125q0.578125 0.421875 1.453125 0.421875q0.765625 0 1.25 -0.328125q0.484375 -0.328125 0.484375 -0.890625q0 -0.515625 -0.625 -0.828125q-0.625 -0.3125 -2.296875 -0.671875q-1.671875 -0.328125 -2.40625 -0.9375q-0.734375 -0.609375 -0.734375 -1.640625q0 -1.53125 1.078125 -2.3125q1.09375 -0.78125 3.125 -0.78125zm10.520447 0q2.140625 0 3.421875 1.484375q1.28125 1.46875 1.28125 3.75l-0.03125 0.484375l-6.953125 0q0.0625 1.25 0.65625 1.859375q0.59375 0.59375 1.703125 0.59375q0.71875 0 1.328125 -0.359375q0.609375 -0.375 0.78125 -0.890625l2.328125 0q-0.53125 1.640625 -1.65625 2.453125q-1.125 0.796875 -2.859375 0.796875q-2.234375 0 -3.59375 -1.40625q-1.34375 -1.421875 -1.34375 -3.671875q0 -2.15625 1.375 -3.625q1.390625 -1.46875 3.5625 -1.46875zm-2.28125 4.046875l4.3125 0q-0.1875 -1.0625 -0.6875 -1.546875q-0.5 -0.5 -1.4375 -0.5q-0.96875 0 -1.53125 0.546875q-0.5625 0.546875 -0.65625 1.5zm17.931519 -7.453125l0 13.3125l-2.515625 0l0 -1.234375l-0.03125 0q-0.4375 0.75 -1.1875 1.125q-0.75 0.375 -1.75 0.375q-1.96875 0 -3.15625 -1.453125q-1.171875 -1.453125 -1.171875 -3.71875q0 -2.15625 1.15625 -3.578125q1.171875 -1.421875 3.125 -1.421875q0.90625 0 1.640625 0.375q0.75 0.359375 1.203125 1.0625l0.046875 0l0 -4.84375l2.640625 0zm-7.15625 8.46875q0 1.359375 0.625 2.234375q0.625 0.875 1.703125 0.875q1.09375 0 1.6875 -0.8125q0.59375 -0.8125 0.59375 -2.296875q0 -1.421875 -0.578125 -2.234375q-0.578125 -0.828125 -1.71875 -0.828125q-1.09375 0 -1.703125 0.828125q-0.609375 0.8125 -0.609375 2.234375z" fill-rule="nonzero"/><path fill="#000000" d="m114.178116 383.7109l0 10.859375l6.5 0l0 2.453125l-9.4375 0l0 -13.3125l2.9375 0zm11.971695 3.40625q2.140625 0 3.421875 1.484375q1.28125 1.46875 1.28125 3.75l-0.03125 0.484375l-6.953125 0q0.0625 1.25 0.65625 1.859375q0.59375 0.59375 1.703125 0.59375q0.71875 0 1.328125 -0.359375q0.609375 -0.375 0.78125 -0.890625l2.328125 0q-0.53125 1.640625 -1.65625 2.453125q-1.125 0.796875 -2.859375 0.796875q-2.234375 0 -3.59375 -1.40625q-1.34375 -1.421875 -1.34375 -3.671875q0 -2.15625 1.375 -3.625q1.390625 -1.46875 3.5625 -1.46875zm-2.28125 4.046875l4.3125 0q-0.1875 -1.0625 -0.6875 -1.546875q-0.5 -0.5 -1.4375 -0.5q-0.96875 0 -1.53125 0.546875q-0.5625 0.546875 -0.65625 1.5zm14.072144 -4.046875q1.84375 0 2.671875 0.9375q0.84375 0.9375 0.84375 2.9375l0 6.03125l-2.65625 0l0 -5.53125q0 -1.125 -0.390625 -1.703125q-0.390625 -0.578125 -1.296875 -0.578125q-1.109375 0 -1.59375 0.65625q-0.46875 0.65625 -0.46875 2.015625l0 5.140625l-2.640625 0l0 -9.640625l2.515625 0l0 1.34375l0.046875 0q0.484375 -0.78125 1.25 -1.1875q0.78125 -0.421875 1.71875 -0.421875zm9.355804 0q1.0625 0 1.75 0.390625q0.6875 0.390625 1.125 1.15625l0.046875 0l0 -1.28125l2.515625 0l0 9.109375q0 1.9375 -1.234375 3.0625q-1.234375 1.125 -3.75 1.125q-1.703125 0 -2.9375 -0.828125q-1.21875 -0.8125 -1.328125 -2.265625l2.625 0q0.171875 0.6875 0.6875 1.0q0.515625 0.328125 1.28125 0.328125q1.03125 0 1.578125 -0.625q0.5625 -0.609375 0.5625 -1.703125l0 -1.34375l-0.046875 0q-0.390625 0.71875 -1.15625 1.109375q-0.75 0.390625 -1.734375 0.390625q-1.953125 0 -3.046875 -1.296875q-1.078125 -1.296875 -1.078125 -3.546875q0 -2.046875 1.140625 -3.40625q1.140625 -1.375 3.0 -1.375zm-1.484375 4.734375q0 1.359375 0.5625 2.125q0.5625 0.765625 1.578125 0.765625q1.046875 0 1.65625 -0.765625q0.609375 -0.765625 0.609375 -1.90625q0 -1.421875 -0.578125 -2.1875q-0.578125 -0.765625 -1.6875 -0.765625q-0.984375 0 -1.5625 0.75q-0.578125 0.75 -0.578125 1.984375zm12.395981 -7.359375l0 2.890625l1.9375 0l0 1.765625l-1.9375 0l0 4.84375q0 0.59375 0.21875 0.828125q0.234375 0.21875 0.90625 0.21875q0.234375 0 0.4375 -0.015625q0.203125 -0.015625 0.375 -0.046875l0 2.0625q-0.328125 0.0625 -0.734375 0.078125q-0.390625 0.015625 -0.796875 0.015625q-1.71875 0 -2.390625 -0.578125q-0.65625 -0.59375 -0.65625 -1.65625l0 -5.75l-1.609375 0l0 -1.765625l1.609375 0l0 -2.890625l2.640625 0zm5.8648224 -0.78125l0 5.015625l0.0625 0q0.421875 -0.71875 1.1875 -1.15625q0.765625 -0.453125 1.640625 -0.453125q1.84375 0 2.671875 0.9375q0.84375 0.9375 0.84375 2.9375l0 6.03125l-2.65625 0l0 -5.53125q0 -1.125 -0.390625 -1.703125q-0.390625 -0.578125 -1.296875 -0.578125q-1.109375 0 -1.59375 0.65625q-0.46875 0.65625 -0.46875 2.015625l0 5.140625l-2.640625 0l0 -13.3125l2.640625 0zm12.371429 3.40625q1.9687653 0 3.0312653 0.78125q1.078125 0.78125 1.21875 2.296875l-2.515625 0q-0.0625 -0.6875 -0.51564026 -1.0q-0.453125 -0.3125 -1.3125 -0.3125q-0.75 0 -1.109375 0.234375q-0.34375 0.234375 -0.34375 0.671875q0 0.4375 0.453125 0.734375q0.46875 0.28125 1.859375 0.546875q2.2187653 0.421875 2.9687653 1.09375q0.765625 0.671875 0.765625 1.765625q0 1.640625 -1.203125 2.5q-1.1875 0.859375 -3.1875153 0.859375q-2.015625 0 -3.234375 -0.84375q-1.21875 -0.859375 -1.3125 -2.5625l2.53125 0q0 0.765625 0.578125 1.203125q0.578125 0.421875 1.453125 0.421875q0.765625 0 1.2500153 -0.328125q0.484375 -0.328125 0.484375 -0.890625q0 -0.515625 -0.625 -0.828125q-0.62501526 -0.3125 -2.2968903 -0.671875q-1.671875 -0.328125 -2.40625 -0.9375q-0.734375 -0.609375 -0.734375 -1.640625q0 -1.53125 1.078125 -2.3125q1.09375 -0.78125 3.125 -0.78125z" fill-rule="nonzero"/><path fill="#000000" fill-opacity="0.0" d="m769.51184 131.57217l140.81885 0l0 42.015747l-140.81885 0z" fill-rule="evenodd"/><path fill="#000000" d="m784.1681 144.85155q-0.984375 1.859375 -1.515625 4.03125q-0.53125 2.15625 -0.53125 4.421875q0 2.296875 0.484375 4.421875q0.5 2.125 1.53125 4.15625l-2.1875 0q-1.21875 -1.984375 -1.84375 -4.140625q-0.625 -2.171875 -0.625 -4.25q0 -2.171875 0.625 -4.515625q0.640625 -2.359375 1.84375 -4.125l2.21875 0z" fill-rule="nonzero"/><path fill="#000000" d="m790.01654 158.71092q-1.140625 0 -2.046875 -0.34375q-0.890625 -0.34375 -1.515625 -0.984375q-0.625 -0.65625 -0.96875 -1.59375q-0.328125 -0.9375 -0.328125 -2.109375q0 -1.171875 0.328125 -2.109375q0.34375 -0.9375 0.96875 -1.578125q0.625 -0.65625 1.515625 -1.0q0.90625 -0.34375 2.03125 -0.34375q1.59375 0 2.546875 0.640625q0.96875 0.640625 1.46875 1.703125l-2.125 1.15625q-0.265625 -0.5625 -0.6875 -0.9375q-0.421875 -0.375 -1.203125 -0.375q-0.953125 0 -1.46875 0.5625q-0.5 0.546875 -0.5 1.5l0 1.5625q0 0.953125 0.5 1.5q0.515625 0.546875 1.5 0.546875q0.8125 0 1.265625 -0.359375q0.453125 -0.375 0.78125 -0.984375l2.078125 1.203125q-0.515625 1.0625 -1.515625 1.703125q-1.0 0.640625 -2.625 0.640625zm6.4281616 -14.03125l2.75 0l0 5.9375l0.109375 0q0.171875 -0.40625 0.40625 -0.765625q0.25 -0.359375 0.59375 -0.625q0.34375 -0.265625 0.796875 -0.421875q0.46875 -0.15625 1.046875 -0.15625q0.6875 0 1.265625 0.234375q0.578125 0.21875 0.984375 0.6875q0.421875 0.46875 0.65625 1.140625q0.234375 0.671875 0.234375 1.546875l0 6.234375l-2.765625 0l0 -5.859375q0 -1.859375 -1.625 -1.859375q-0.3125 0 -0.625 0.078125q-0.3125 0.078125 -0.5625 0.265625q-0.234375 0.171875 -0.375 0.4375q-0.140625 0.265625 -0.140625 0.609375l0 6.328125l-2.75 0l0 -13.8125zm19.0531 13.8125q-0.84375 0 -1.375 -0.4375q-0.515625 -0.4375 -0.609375 -1.265625l-0.09375 0q-0.265625 0.953125 -1.046875 1.4375q-0.765625 0.484375 -1.890625 0.484375q-1.390625 0 -2.25 -0.75q-0.84375 -0.75 -0.84375 -2.125q0 -1.5 1.09375 -2.21875q1.109375 -0.734375 3.234375 -0.734375l1.546875 0l0 -0.484375q0 -0.859375 -0.40625 -1.296875q-0.390625 -0.4375 -1.34375 -0.4375q-0.875 0 -1.421875 0.34375q-0.53125 0.328125 -0.921875 0.859375l-1.515625 -1.34375q0.484375 -0.8125 1.515625 -1.34375q1.03125 -0.53125 2.65625 -0.53125q1.984375 0 3.09375 0.90625q1.109375 0.890625 1.109375 2.71875l0 4.21875l1.0625 0l0 2.0l-1.59375 0zm-3.96875 -1.578125q0.734375 0 1.234375 -0.359375q0.5 -0.359375 0.5 -1.03125l0 -1.15625l-1.46875 0q-1.703125 0 -1.703125 1.140625l0 0.375q0 0.5 0.390625 0.765625q0.390625 0.265625 1.046875 0.265625zm7.4594116 -0.5625l2.21875 0l0 -5.34375l-2.21875 0l0 -2.140625l4.984375 0l0 2.71875l0.140625 0q0.125 -0.515625 0.359375 -1.0q0.234375 -0.5 0.59375 -0.875q0.359375 -0.390625 0.875 -0.609375q0.53125 -0.234375 1.25 -0.234375l0.90625 0l0 2.53125l-2.046875 0q-1.03125 0 -1.5625 0.609375q-0.515625 0.609375 -0.515625 1.484375l0 2.859375l3.171875 0l0 2.140625l-8.15625 0l0 -2.140625z" fill-rule="nonzero"/><path fill="#000000" d="m839.428 148.58592q2.140625 0 3.1875 0.703125q1.046875 0.703125 1.046875 1.984375l0 5.171875q0 0.578125 0.0625 1.171875q0.078125 0.578125 0.265625 0.875l-2.6875 0q-0.078125 -0.21875 -0.125 -0.453125q-0.046875 -0.234375 -0.0625 -0.46875q-0.5625 0.578125 -1.390625 0.890625q-0.8125 0.296875 -1.859375 0.296875q-1.484375 0 -2.390625 -0.75q-0.890625 -0.75 -0.890625 -2.140625q0 -1.359375 0.84375 -2.0625q0.84375 -0.71875 3.046875 -0.96875q1.546875 -0.140625 2.03125 -0.375q0.5 -0.234375 0.5 -0.8125q0 -0.640625 -0.375 -0.96875q-0.375 -0.328125 -1.328125 -0.328125q-0.828125 0 -1.265625 0.359375q-0.4375 0.34375 -0.5 1.109375l-2.65625 0q0.109375 -1.59375 1.296875 -2.40625q1.203125 -0.828125 3.25 -0.828125zm-2.1875 7.171875q0 0.5625 0.390625 0.890625q0.390625 0.328125 1.234375 0.328125q1.0625 0 1.59375 -0.546875q0.546875 -0.5625 0.546875 -1.625l0 -1.03125q-0.234375 0.1875 -0.625 0.28125q-0.390625 0.09375 -1.40625 0.25q-0.890625 0.109375 -1.3125 0.46875q-0.421875 0.34375 -0.421875 0.984375zm14.087769 -7.171875q0.1875 0 0.328125 0.03125q0.140625 0.015625 0.265625 0.0625l0 2.46875q-0.21875 -0.046875 -0.4375 -0.0625q-0.21875 -0.03125 -0.5 -0.03125q-1.34375 0 -1.984375 0.828125q-0.640625 0.8125 -0.640625 2.1875l0 4.421875l-2.640625 0l0 -9.640625l2.515625 0l0 1.78125l0.03125 0q0.421875 -0.9375 1.25 -1.484375q0.828125 -0.5625 1.8125 -0.5625zm7.260315 0q0.1875 0 0.328125 0.03125q0.140625 0.015625 0.265625 0.0625l0 2.46875q-0.21875 -0.046875 -0.4375 -0.0625q-0.21875 -0.03125 -0.5 -0.03125q-1.34375 0 -1.984375 0.828125q-0.640625 0.8125 -0.640625 2.1875l0 4.421875l-2.640625 0l0 -9.640625l2.515625 0l0 1.78125l0.03125 0q0.421875 -0.9375 1.25 -1.484375q0.828125 -0.5625 1.8125 -0.5625zm5.790222 0q2.140625 0 3.1875 0.703125q1.046875 0.703125 1.046875 1.984375l0 5.171875q0 0.578125 0.0625 1.171875q0.078125 0.578125 0.265625 0.875l-2.6875 0q-0.078125 -0.21875 -0.125 -0.453125q-0.046875 -0.234375 -0.0625 -0.46875q-0.5625 0.578125 -1.390625 0.890625q-0.8125 0.296875 -1.859375 0.296875q-1.484375 0 -2.390625 -0.75q-0.890625 -0.75 -0.890625 -2.140625q0 -1.359375 0.84375 -2.0625q0.84375 -0.71875 3.046875 -0.96875q1.546875 -0.140625 2.03125 -0.375q0.5 -0.234375 0.5 -0.8125q0 -0.640625 -0.375 -0.96875q-0.375 -0.328125 -1.328125 -0.328125q-0.828125 0 -1.265625 0.359375q-0.4375 0.34375 -0.5 1.109375l-2.65625 0q0.109375 -1.59375 1.296875 -2.40625q1.203125 -0.828125 3.25 -0.828125zm-2.1875 7.171875q0 0.5625 0.390625 0.890625q0.390625 0.328125 1.234375 0.328125q1.0625 0 1.59375 -0.546875q0.546875 -0.5625 0.546875 -1.625l0 -1.03125q-0.234375 0.1875 -0.625 0.28125q-0.390625 0.09375 -1.40625 0.25q-0.890625 0.109375 -1.3125 0.46875q-0.421875 0.34375 -0.421875 0.984375zm10.181519 -6.90625l2.1875 6.59375l0.046875 0l2.09375 -6.59375l2.75 0l-4.109375 11.03125q-0.359375 0.96875 -1.125 1.484375q-0.75 0.515625 -1.953125 0.515625q-0.5625 0 -0.96875 -0.03125q-0.390625 -0.015625 -0.8125 -0.0625l0 -2.171875q0.484375 0.046875 0.796875 0.0625q0.3125 0.03125 0.59375 0.03125q0.5625 0 0.859375 -0.359375q0.3125 -0.34375 0.3125 -0.859375q0 -0.140625 -0.015625 -0.265625q-0.015625 -0.140625 -0.09375 -0.328125l-3.40625 -9.046875l2.84375 0zm9.05835 -4.0q1.203125 1.984375 1.828125 4.15625q0.640625 2.15625 0.640625 4.265625q0 2.125 -0.640625 4.5q-0.640625 2.375 -1.828125 4.109375l-2.21875 0q1.015625 -1.9375 1.515625 -4.0625q0.515625 -2.125 0.515625 -4.359375q0 -2.328125 -0.5 -4.484375q-0.5 -2.15625 -1.515625 -4.125l2.203125 0z" fill-rule="nonzero"/><path fill="#000000" fill-opacity="0.0" d="m480.0 278.63254l140.81891 0l0 42.015747l-140.81891 0z" fill-rule="evenodd"/><path fill="#000000" d="m494.65625 291.91193q-0.984375 1.859375 -1.515625 4.03125q-0.53125 2.15625 -0.53125 4.421875q0 2.296875 0.484375 4.421875q0.5 2.125 1.53125 4.15625l-2.1875 0q-1.21875 -1.984375 -1.84375 -4.140625q-0.625 -2.171875 -0.625 -4.25q0 -2.171875 0.625 -4.515625q0.640625 -2.359375 1.84375 -4.125l2.21875 0z" fill-rule="nonzero"/><path fill="#000000" d="m500.50473 305.7713q-1.140625 0 -2.046875 -0.34375q-0.890625 -0.34375 -1.515625 -0.984375q-0.625 -0.65625 -0.96875 -1.59375q-0.328125 -0.9375 -0.328125 -2.109375q0 -1.171875 0.328125 -2.109375q0.34375 -0.9375 0.96875 -1.578125q0.625 -0.65625 1.515625 -1.0q0.90625 -0.34375 2.03125 -0.34375q1.59375 0 2.546875 0.640625q0.96875 0.640625 1.46875 1.703125l-2.125 1.15625q-0.265625 -0.5625 -0.6875 -0.9375q-0.421875 -0.375 -1.203125 -0.375q-0.953125 0 -1.46875 0.5625q-0.5 0.546875 -0.5 1.5l0 1.5625q0 0.953125 0.5 1.5q0.515625 0.546875 1.5 0.546875q0.8125 0 1.265625 -0.359375q0.453125 -0.375 0.78125 -0.984375l2.078125 1.203125q-0.515625 1.0625 -1.515625 1.703125q-1.0 0.640625 -2.625 0.640625zm6.428131 -14.03125l2.75 0l0 5.9375l0.109375 0q0.171875 -0.40625 0.40625 -0.765625q0.25 -0.359375 0.59375 -0.625q0.34375 -0.265625 0.796875 -0.421875q0.46875 -0.15625 1.046875 -0.15625q0.6875 0 1.265625 0.234375q0.578125 0.21875 0.984375 0.6875q0.421875 0.46875 0.65625 1.140625q0.234375 0.671875 0.234375 1.546875l0 6.234375l-2.765625 0l0 -5.859375q0 -1.859375 -1.625 -1.859375q-0.3125 0 -0.625 0.078125q-0.3125 0.078125 -0.5625 0.265625q-0.234375 0.171875 -0.375 0.4375q-0.140625 0.265625 -0.140625 0.609375l0 6.328125l-2.75 0l0 -13.8125zm19.0531 13.8125q-0.84375 0 -1.375 -0.4375q-0.515625 -0.4375 -0.609375 -1.265625l-0.09375 0q-0.265625 0.953125 -1.046875 1.4375q-0.765625 0.484375 -1.890625 0.484375q-1.390625 0 -2.25 -0.75q-0.84375 -0.75 -0.84375 -2.125q0 -1.5 1.09375 -2.21875q1.109375 -0.734375 3.234375 -0.734375l1.546875 0l0 -0.484375q0 -0.859375 -0.40625 -1.296875q-0.390625 -0.4375 -1.34375 -0.4375q-0.875 0 -1.421875 0.34375q-0.53125 0.328125 -0.921875 0.859375l-1.515625 -1.34375q0.484375 -0.8125 1.515625 -1.34375q1.03125 -0.53125 2.65625 -0.53125q1.984375 0 3.09375 0.90625q1.109375 0.890625 1.109375 2.71875l0 4.21875l1.0625 0l0 2.0l-1.59375 0zm-3.96875 -1.578125q0.734375 0 1.234375 -0.359375q0.5 -0.359375 0.5 -1.03125l0 -1.15625l-1.46875 0q-1.703125 0 -1.703125 1.140625l0 0.375q0 0.5 0.390625 0.765625q0.390625 0.265625 1.046875 0.265625zm7.4594116 -0.5625l2.21875 0l0 -5.34375l-2.21875 0l0 -2.140625l4.984375 0l0 2.71875l0.140625 0q0.125 -0.515625 0.359375 -1.0q0.234375 -0.5 0.59375 -0.875q0.359375 -0.390625 0.875 -0.609375q0.53125 -0.234375 1.25 -0.234375l0.90625 0l0 2.53125l-2.046875 0q-1.03125 0 -1.5625 0.609375q-0.515625 0.609375 -0.515625 1.484375l0 2.859375l3.171875 0l0 2.140625l-8.15625 0l0 -2.140625z" fill-rule="nonzero"/><path fill="#000000" d="m549.9162 295.6463q2.140625 0 3.1875 0.703125q1.046875 0.703125 1.046875 1.984375l0 5.171875q0 0.578125 0.0625 1.171875q0.078125 0.578125 0.265625 0.875l-2.6875 0q-0.078125 -0.21875 -0.125 -0.453125q-0.046875 -0.234375 -0.0625 -0.46875q-0.5625 0.578125 -1.390625 0.890625q-0.8125 0.296875 -1.859375 0.296875q-1.484375 0 -2.390625 -0.75q-0.890625 -0.75 -0.890625 -2.140625q0 -1.359375 0.84375 -2.0625q0.84375 -0.71875 3.046875 -0.96875q1.546875 -0.140625 2.03125 -0.375q0.5 -0.234375 0.5 -0.8125q0 -0.640625 -0.375 -0.96875q-0.375 -0.328125 -1.328125 -0.328125q-0.828125 0 -1.265625 0.359375q-0.4375 0.34375 -0.5 1.109375l-2.65625 0q0.109375 -1.59375 1.296875 -2.40625q1.203125 -0.828125 3.25 -0.828125zm-2.1875 7.171875q0 0.5625 0.390625 0.890625q0.390625 0.328125 1.234375 0.328125q1.0625 0 1.59375 -0.546875q0.546875 -0.5625 0.546875 -1.625l0 -1.03125q-0.234375 0.1875 -0.625 0.28125q-0.390625 0.09375 -1.40625 0.25q-0.890625 0.109375 -1.3125 0.46875q-0.421875 0.34375 -0.421875 0.984375zm14.087769 -7.171875q0.1875 0 0.328125 0.03125q0.140625 0.015625 0.265625 0.0625l0 2.46875q-0.21875 -0.046875 -0.4375 -0.0625q-0.21875 -0.03125 -0.5 -0.03125q-1.34375 0 -1.984375 0.828125q-0.640625 0.8125 -0.640625 2.1875l0 4.421875l-2.640625 0l0 -9.640625l2.515625 0l0 1.78125l0.03125 0q0.421875 -0.9375 1.25 -1.484375q0.828125 -0.5625 1.8125 -0.5625zm7.260254 0q0.1875 0 0.328125 0.03125q0.140625 0.015625 0.265625 0.0625l0 2.46875q-0.21875 -0.046875 -0.4375 -0.0625q-0.21875 -0.03125 -0.5 -0.03125q-1.34375 0 -1.984375 0.828125q-0.640625 0.8125 -0.640625 2.1875l0 4.421875l-2.640625 0l0 -9.640625l2.515625 0l0 1.78125l0.03125 0q0.421875 -0.9375 1.25 -1.484375q0.828125 -0.5625 1.8125 -0.5625zm5.790222 0q2.140625 0 3.1875 0.703125q1.046875 0.703125 1.046875 1.984375l0 5.171875q0 0.578125 0.0625 1.171875q0.078125 0.578125 0.265625 0.875l-2.6875 0q-0.078125 -0.21875 -0.125 -0.453125q-0.046875 -0.234375 -0.0625 -0.46875q-0.5625 0.578125 -1.390625 0.890625q-0.8125 0.296875 -1.859375 0.296875q-1.484375 0 -2.390625 -0.75q-0.890625 -0.75 -0.890625 -2.140625q0 -1.359375 0.84375 -2.0625q0.84375 -0.71875 3.046875 -0.96875q1.546875 -0.140625 2.03125 -0.375q0.5 -0.234375 0.5 -0.8125q0 -0.640625 -0.375 -0.96875q-0.375 -0.328125 -1.328125 -0.328125q-0.828125 0 -1.265625 0.359375q-0.4375 0.34375 -0.5 1.109375l-2.65625 0q0.109375 -1.59375 1.296875 -2.40625q1.203125 -0.828125 3.25 -0.828125zm-2.1875 7.171875q0 0.5625 0.390625 0.890625q0.390625 0.328125 1.234375 0.328125q1.0625 0 1.59375 -0.546875q0.546875 -0.5625 0.546875 -1.625l0 -1.03125q-0.234375 0.1875 -0.625 0.28125q-0.390625 0.09375 -1.40625 0.25q-0.890625 0.109375 -1.3125 0.46875q-0.421875 0.34375 -0.421875 0.984375zm10.181519 -6.90625l2.1875 6.59375l0.046875 0l2.09375 -6.59375l2.75 0l-4.109375 11.03125q-0.359375 0.96875 -1.125 1.484375q-0.75 0.515625 -1.953125 0.515625q-0.5625 0 -0.96875 -0.03125q-0.390625 -0.015625 -0.8125 -0.0625l0 -2.171875q0.484375 0.046875 0.796875 0.0625q0.3125 0.03125 0.59375 0.03125q0.5625 0 0.859375 -0.359375q0.3125 -0.34375 0.3125 -0.859375q0 -0.140625 -0.015625 -0.265625q-0.015625 -0.140625 -0.09375 -0.328125l-3.40625 -9.046875l2.84375 0zm9.058411 -4.0q1.203125 1.984375 1.828125 4.15625q0.640625 2.15625 0.640625 4.265625q0 2.125 -0.640625 4.5q-0.640625 2.375 -1.828125 4.109375l-2.21875 0q1.015625 -1.9375 1.515625 -4.0625q0.515625 -2.125 0.515625 -4.359375q0 -2.328125 -0.5 -4.484375q-0.5 -2.15625 -1.515625 -4.125l2.203125 0z" fill-rule="nonzero"/><path fill="#000000" fill-opacity="0.0" d="m480.0 359.0105l180.8819 0l0 42.015747l-180.8819 0z" fill-rule="evenodd"/><path fill="#000000" d="m494.65625 372.2899q-0.984375 1.859375 -1.515625 4.03125q-0.53125 2.15625 -0.53125 4.421875q0 2.296875 0.484375 4.421875q0.5 2.125 1.53125 4.15625l-2.1875 0q-1.21875 -1.984375 -1.84375 -4.140625q-0.625 -2.171875 -0.625 -4.25q0 -2.171875 0.625 -4.515625q0.640625 -2.359375 1.84375 -4.125l2.21875 0z" fill-rule="nonzero"/><path fill="#000000" d="m501.7391 384.1805l-0.109375 0q-0.3125 0.8125 -1.0 1.390625q-0.6875 0.578125 -1.84375 0.578125q-0.6875 0 -1.265625 -0.234375q-0.578125 -0.234375 -0.984375 -0.6875q-0.40625 -0.46875 -0.640625 -1.140625q-0.234375 -0.671875 -0.234375 -1.546875l0 -6.234375l2.765625 0l0 5.859375q0 1.859375 1.609375 1.859375q0.328125 0 0.625 -0.078125q0.3125 -0.09375 0.546875 -0.265625q0.234375 -0.171875 0.375 -0.4375q0.15625 -0.265625 0.15625 -0.609375l0 -6.328125l2.765625 0l0 9.625l-2.765625 0l0 -1.75zm10.162506 -9.109375q-0.921875 0 -1.296875 -0.375q-0.359375 -0.390625 -0.359375 -0.921875l0 -0.546875q0 -0.5625 0.359375 -0.9375q0.375 -0.375 1.296875 -0.375q0.9375 0 1.296875 0.375q0.375 0.375 0.375 0.9375l0 0.546875q0 0.53125 -0.375 0.921875q-0.359375 0.375 -1.296875 0.375zm-4.4375 8.71875l3.0625 0l0 -5.34375l-3.0625 0l0 -2.140625l5.828125 0l0 7.484375l2.828125 0l0 2.140625l-8.65625 0l0 -2.140625zm10.662476 2.140625l0 -9.625l2.75 0l0 1.75l0.109375 0q0.171875 -0.40625 0.40625 -0.765625q0.25 -0.359375 0.59375 -0.625q0.34375 -0.265625 0.796875 -0.421875q0.46875 -0.15625 1.046875 -0.15625q0.6875 0 1.265625 0.234375q0.578125 0.21875 0.984375 0.6875q0.421875 0.46875 0.65625 1.140625q0.234375 0.671875 0.234375 1.546875l0 6.234375l-2.765625 0l0 -5.859375q0 -1.859375 -1.625 -1.859375q-0.3125 0 -0.625 0.078125q-0.3125 0.078125 -0.5625 0.265625q-0.234375 0.171875 -0.375 0.4375q-0.140625 0.265625 -0.140625 0.609375l0 6.328125l-2.75 0zm16.318787 0q-1.5 0 -2.234375 -0.78125q-0.71875 -0.78125 -0.71875 -2.0l0 -4.703125l-2.609375 0l0 -2.140625l1.703125 0q0.609375 0 0.875 -0.234375q0.265625 -0.25 0.265625 -0.90625l0 -2.25l2.53125 0l0 3.390625l3.75 0l0 2.140625l-3.75 0l0 5.34375l3.75 0l0 2.140625l-3.5625 0zm9.943787 -7.875q1.078125 0 1.5625 -0.40625q0.5 -0.40625 0.5 -1.015625l0 -0.125q0 -0.703125 -0.46875 -1.125q-0.46875 -0.421875 -1.359375 -0.421875q-0.796875 0 -1.5 0.40625q-0.6875 0.390625 -1.171875 1.140625l-1.78125 -1.640625q0.375 -0.484375 0.8125 -0.875q0.453125 -0.40625 1.0 -0.6875q0.546875 -0.296875 1.21875 -0.453125q0.6875 -0.171875 1.546875 -0.171875q1.0625 0 1.921875 0.25q0.859375 0.234375 1.453125 0.703125q0.609375 0.453125 0.9375 1.09375q0.34375 0.625 0.34375 1.40625q0 0.625 -0.203125 1.125q-0.203125 0.5 -0.546875 0.875q-0.34375 0.375 -0.8125 0.609375q-0.453125 0.234375 -0.96875 0.328125l0 0.109375q1.1875 0.203125 1.984375 1.0q0.796875 0.78125 0.796875 2.125q0 0.875 -0.375 1.59375q-0.359375 0.703125 -1.03125 1.21875q-0.65625 0.5 -1.59375 0.765625q-0.9375 0.265625 -2.09375 0.265625q-1.0 0 -1.75 -0.203125q-0.75 -0.203125 -1.328125 -0.546875q-0.578125 -0.34375 -1.0 -0.796875q-0.421875 -0.46875 -0.734375 -0.953125l2.0625 -1.59375q0.4375 0.796875 1.078125 1.3125q0.640625 0.515625 1.71875 0.515625q1.015625 0 1.546875 -0.46875q0.546875 -0.46875 0.546875 -1.296875l0 -0.125q0 -0.796875 -0.625 -1.203125q-0.609375 -0.40625 -1.703125 -0.40625l-1.21875 0l0 -2.328125l1.234375 0zm16.45935 7.875l-9.375 0l0 -2.5625l4.109375 -3.40625q1.0625 -0.921875 1.53125 -1.59375q0.46875 -0.671875 0.46875 -1.40625l0 -0.1875q0 -0.828125 -0.484375 -1.25q-0.484375 -0.421875 -1.3125 -0.421875q-0.9375 0 -1.4375 0.546875q-0.5 0.546875 -0.703125 1.28125l-2.453125 -0.921875q0.234375 -0.671875 0.625 -1.28125q0.390625 -0.609375 0.984375 -1.046875q0.609375 -0.453125 1.40625 -0.71875q0.8125 -0.28125 1.859375 -0.28125q1.0625 0 1.90625 0.296875q0.84375 0.296875 1.421875 0.828125q0.578125 0.515625 0.875 1.234375q0.296875 0.71875 0.296875 1.5625q0 0.828125 -0.28125 1.515625q-0.265625 0.671875 -0.75 1.265625q-0.46875 0.59375 -1.109375 1.15625q-0.640625 0.5625 -1.375 1.125l-2.484375 1.921875l6.28125 0l0 2.34375zm1.9593506 3.578125l0 -2.25l8.953125 0l0 2.25l-8.953125 0zm16.412537 -3.578125q-1.5 0 -2.234375 -0.78125q-0.71875 -0.78125 -0.71875 -2.0l0 -4.703125l-2.609375 0l0 -2.140625l1.703125 0q0.609375 0 0.875 -0.234375q0.265625 -0.25 0.265625 -0.90625l0 -2.25l2.53125 0l0 3.390625l3.75 0l0 2.140625l-3.75 0l0 5.34375l3.75 0l0 2.140625l-3.5625 0z" fill-rule="nonzero"/><path fill="#000000" d="m594.6912 376.02426q2.140625 0 3.1875 0.703125q1.046875 0.703125 1.046875 1.984375l0 5.171875q0 0.578125 0.0625 1.171875q0.078125 0.578125 0.265625 0.875l-2.6875 0q-0.078125 -0.21875 -0.125 -0.453125q-0.046875 -0.234375 -0.0625 -0.46875q-0.5625 0.578125 -1.390625 0.890625q-0.8125 0.296875 -1.859375 0.296875q-1.484375 0 -2.390625 -0.75q-0.890625 -0.75 -0.890625 -2.140625q0 -1.359375 0.84375 -2.0625q0.84375 -0.71875 3.046875 -0.96875q1.546875 -0.140625 2.03125 -0.375q0.5 -0.234375 0.5 -0.8125q0 -0.640625 -0.375 -0.96875q-0.375 -0.328125 -1.328125 -0.328125q-0.828125 0 -1.265625 0.359375q-0.4375 0.34375 -0.5 1.109375l-2.65625 0q0.109375 -1.59375 1.296875 -2.40625q1.203125 -0.828125 3.25 -0.828125zm-2.1875 7.171875q0 0.5625 0.390625 0.890625q0.390625 0.328125 1.234375 0.328125q1.0625 0 1.59375 -0.546875q0.546875 -0.5625 0.546875 -1.625l0 -1.03125q-0.234375 0.1875 -0.625 0.28125q-0.390625 0.09375 -1.40625 0.25q-0.890625 0.109375 -1.3125 0.46875q-0.421875 0.34375 -0.421875 0.984375zm14.087769 -7.171875q0.1875 0 0.328125 0.03125q0.140625 0.015625 0.265625 0.0625l0 2.46875q-0.21875 -0.046875 -0.4375 -0.0625q-0.21875 -0.03125 -0.5 -0.03125q-1.34375 0 -1.984375 0.828125q-0.640625 0.8125 -0.640625 2.1875l0 4.421875l-2.640625 0l0 -9.640625l2.515625 0l0 1.78125l0.03125 0q0.421875 -0.9375 1.25 -1.484375q0.828125 -0.5625 1.8125 -0.5625zm7.260254 0q0.1875 0 0.328125 0.03125q0.140625 0.015625 0.265625 0.0625l0 2.46875q-0.21875 -0.046875 -0.4375 -0.0625q-0.21875 -0.03125 -0.5 -0.03125q-1.34375 0 -1.984375 0.828125q-0.640625 0.8125 -0.640625 2.1875l0 4.421875l-2.640625 0l0 -9.640625l2.515625 0l0 1.78125l0.03125 0q0.421875 -0.9375 1.25 -1.484375q0.828125 -0.5625 1.8125 -0.5625zm5.790222 0q2.140625 0 3.1875 0.703125q1.046875 0.703125 1.046875 1.984375l0 5.171875q0 0.578125 0.0625 1.171875q0.078125 0.578125 0.265625 0.875l-2.6875 0q-0.078125 -0.21875 -0.125 -0.453125q-0.046875 -0.234375 -0.0625 -0.46875q-0.5625 0.578125 -1.390625 0.890625q-0.8125 0.296875 -1.859375 0.296875q-1.484375 0 -2.390625 -0.75q-0.890625 -0.75 -0.890625 -2.140625q0 -1.359375 0.84375 -2.0625q0.84375 -0.71875 3.046875 -0.96875q1.546875 -0.140625 2.03125 -0.375q0.5 -0.234375 0.5 -0.8125q0 -0.640625 -0.375 -0.96875q-0.375 -0.328125 -1.328125 -0.328125q-0.828125 0 -1.265625 0.359375q-0.4375 0.34375 -0.5 1.109375l-2.65625 0q0.109375 -1.59375 1.296875 -2.40625q1.203125 -0.828125 3.25 -0.828125zm-2.1875 7.171875q0 0.5625 0.390625 0.890625q0.390625 0.328125 1.234375 0.328125q1.0625 0 1.59375 -0.546875q0.546875 -0.5625 0.546875 -1.625l0 -1.03125q-0.234375 0.1875 -0.625 0.28125q-0.390625 0.09375 -1.40625 0.25q-0.890625 0.109375 -1.3125 0.46875q-0.421875 0.34375 -0.421875 0.984375zm10.181519 -6.90625l2.1875 6.59375l0.046875 0l2.09375 -6.59375l2.75 0l-4.109375 11.03125q-0.359375 0.96875 -1.125 1.484375q-0.75 0.515625 -1.953125 0.515625q-0.5625 0 -0.96875 -0.03125q-0.390625 -0.015625 -0.8125 -0.0625l0 -2.171875q0.484375 0.046875 0.796875 0.0625q0.3125 0.03125 0.59375 0.03125q0.5625 0 0.859375 -0.359375q0.3125 -0.34375 0.3125 -0.859375q0 -0.140625 -0.015625 -0.265625q-0.015625 -0.140625 -0.09375 -0.328125l-3.40625 -9.046875l2.84375 0zm9.058411 -4.0q1.203125 1.984375 1.828125 4.15625q0.640625 2.15625 0.640625 4.265625q0 2.125 -0.640625 4.5q-0.640625 2.375 -1.828125 4.109375l-2.21875 0q1.015625 -1.9375 1.515625 -4.0625q0.515625 -2.125 0.515625 -4.359375q0 -2.328125 -0.5 -4.484375q-0.5 -2.15625 -1.515625 -4.125l2.203125 0z" fill-rule="nonzero"/><path fill="#666666" d="m91.07874 226.55249l20.456688 0l0 -26.677155l40.91339 0l0 26.677155l20.456696 0l-40.91339 26.67717z" fill-rule="evenodd"/><path fill="#000000" fill-opacity="0.0" d="m49.677166 34.76378l481.8268 0l0 58.173225l-481.8268 0z" fill-rule="evenodd"/><path fill="#000000" d="m73.33341 51.64003q2.765625 0 4.65625 1.78125q1.90625 1.78125 1.90625 4.53125q0 2.15625 -0.90625 3.578125q-0.890625 1.40625 -2.71875 2.140625l0 0.0625q1.609375 0.421875 2.46875 1.921875q0.859375 1.5 0.9375 4.59375q0.0625 3.09375 0.890625 4.234375l-5.03125 0q-0.4375 -1.109375 -0.59375 -3.59375q-0.234375 -3.375 -1.140625 -4.34375q-0.890625 -0.984375 -2.75 -0.984375l-5.140625 0l0 8.921875l-5.031246 0l0 -22.84375l12.453121 0zm-1.8125 10.328125q1.578125 0 2.453125 -0.765625q0.890625 -0.765625 0.890625 -2.5q0 -1.625 -0.859375 -2.390625q-0.84375 -0.765625 -2.484375 -0.765625l-5.609375 0l0 6.421875l5.609375 0zm16.53125 -4.03125l0 9.484375q0 1.875 0.65625 2.90625q0.65625 1.015625 2.265625 1.015625q1.875 0 2.6875 -1.125q0.828125 -1.140625 0.828125 -3.453125l0 -8.828125l4.546875 0l0 16.546875l-4.328125 0l0 -2.296875l-0.09375 0q-0.859375 1.375 -2.21875 2.0625q-1.359375 0.6875 -2.859375 0.6875q-3.078125 0 -4.546875 -1.5625q-1.46875 -1.578125 -1.46875 -5.078125l0 -10.359375l4.53125 0zm23.921875 -0.4375q3.171875 0 4.59375 1.609375q1.4375 1.59375 1.4375 5.03125l0 10.34375l-4.546875 0l0 -9.484375q0 -1.9375 -0.671875 -2.921875q-0.65625 -1.0 -2.234375 -1.0q-1.890625 0 -2.71875 1.125q-0.8125 1.125 -0.8125 3.453125l0 8.828125l-4.53125 0l0 -16.546875l4.3125 0l0 2.3125l0.09375 0q0.828125 -1.328125 2.15625 -2.03125q1.328125 -0.71875 2.921875 -0.71875zm19.078133 6.296875l0 3.90625l-9.625008 0l0 -3.90625l9.625008 0zm8.9375 -12.15625l0 18.625l11.140625 0l0 4.21875l-16.171875 0l0 -22.84375l5.03125 0zm20.53125 5.859375q3.671875 0 5.859375 2.53125q2.203125 2.515625 2.203125 6.4375l-0.03125 0.84375l-11.9375 0q0.09375 2.140625 1.109375 3.171875q1.03125 1.03125 2.9375 1.03125q1.234375 0 2.28125 -0.625q1.046875 -0.640625 1.328125 -1.53125l4.0 0q-0.921875 2.8125 -2.84375 4.203125q-1.921875 1.375 -4.90625 1.375q-3.828125 0 -6.140625 -2.421875q-2.3125 -2.421875 -2.3125 -6.28125q0 -3.703125 2.359375 -6.21875q2.375 -2.515625 6.09375 -2.515625zm-3.90625 6.9375l7.390625 0q-0.328125 -1.828125 -1.1875 -2.671875q-0.84375 -0.84375 -2.453125 -0.84375q-1.65625 0 -2.625 0.9375q-0.96875 0.9375 -1.125 2.578125zm24.125 -6.9375q3.171875 0 4.59375 1.609375q1.4375 1.59375 1.4375 5.03125l0 10.34375l-4.546875 0l0 -9.484375q0 -1.9375 -0.671875 -2.921875q-0.65625 -1.0 -2.234375 -1.0q-1.890625 0 -2.71875 1.125q-0.8125 1.125 -0.8125 3.453125l0 8.828125l-4.53125 0l0 -16.546875l4.3125 0l0 2.3125l0.09375 0q0.828125 -1.328125 2.15625 -2.03125q1.328125 -0.71875 2.921875 -0.71875zm16.0625 0q1.8125 0 3.0 0.671875q1.1875 0.671875 1.9375 1.96875l0.0625 0l0 -2.203125l4.3125 0l0 15.625q0 3.328125 -2.125 5.25q-2.109375 1.9375 -6.421875 1.9375q-2.921875 0 -5.015625 -1.40625q-2.09375 -1.390625 -2.296875 -3.90625l4.5 0q0.3125 1.203125 1.1875 1.734375q0.875 0.546875 2.203125 0.546875q1.75 0 2.703125 -1.0625q0.953125 -1.046875 0.953125 -2.921875l0 -2.296875l-0.0625 0q-0.671875 1.21875 -1.984375 1.890625q-1.296875 0.671875 -2.984375 0.671875q-3.34375 0 -5.203125 -2.21875q-1.859375 -2.21875 -1.859375 -6.09375q0 -3.5 1.9375 -5.84375q1.953125 -2.34375 5.15625 -2.34375zm-2.546875 8.125q0 2.328125 0.953125 3.640625q0.96875 1.3125 2.71875 1.3125q1.796875 0 2.828125 -1.3125q1.046875 -1.3125 1.046875 -3.28125q0 -2.421875 -0.984375 -3.734375q-0.984375 -1.328125 -2.90625 -1.328125q-1.6875 0 -2.671875 1.28125q-0.984375 1.28125 -0.984375 3.421875zm21.265625 -12.640625l0 4.953125l3.328125 0l0 3.046875l-3.328125 0l0 8.296875q0 1.015625 0.375 1.421875q0.390625 0.390625 1.546875 0.390625q0.390625 0 0.75 -0.03125q0.359375 -0.03125 0.65625 -0.09375l0 3.546875q-0.5625 0.09375 -1.265625 0.125q-0.6875 0.03125 -1.359375 0.03125q-2.953125 0 -4.109375 -1.0q-1.140625 -1.015625 -1.140625 -2.828125l0 -9.859375l-2.75 0l0 -3.046875l2.75 0l0 -4.953125l4.546875 0zm10.046875 -1.34375l0 8.609375l0.109375 0q0.71875 -1.234375 2.03125 -1.984375q1.328125 -0.765625 2.828125 -0.765625q3.15625 0 4.578125 1.609375q1.4375 1.609375 1.4375 5.03125l0 10.34375l-4.546875 0l0 -9.484375q0 -1.9375 -0.671875 -2.921875q-0.65625 -1.0 -2.234375 -1.0q-1.890625 0 -2.71875 1.125q-0.8125 1.125 -0.8125 3.453125l0 8.828125l-4.53125 0l0 -22.84375l4.53125 0zm34.04686 -0.546875q3.890625 0 6.625 2.203125q2.75 2.1875 3.21875 6.015625l-4.859375 0q-0.328125 -1.796875 -1.78125 -2.890625q-1.453125 -1.109375 -3.21875 -1.109375q-2.9375 0 -4.5781097 2.15625q-1.625 2.140625 -1.625 5.6875q0 3.390625 1.609375 5.515625q1.6249847 2.125 4.6093597 2.125q2.171875 0 3.515625 -1.328125q1.34375 -1.34375 1.65625 -3.78125l4.875 0q-0.4375 4.359375 -3.171875 6.859375q-2.71875 2.484375 -6.875 2.484375q-3.296875 0 -5.8749847 -1.5q-2.5625 -1.515625 -3.96875 -4.265625q-1.390625 -2.75 -1.390625 -6.109375q0 -5.265625 3.078125 -8.65625q3.078125 -3.40625 8.156235 -3.40625zm21.03125 6.40625q3.890625 0 6.234375 2.40625q2.34375 2.390625 2.34375 6.328125q0 3.953125 -2.375 6.328125q-2.359375 2.375 -6.203125 2.375q-3.84375 0 -6.203125 -2.390625q-2.34375 -2.390625 -2.34375 -6.3125q0 -3.921875 2.3125 -6.328125q2.3125 -2.40625 6.234375 -2.40625zm-4.0 8.734375q0 2.609375 1.0625 3.953125q1.078125 1.328125 2.9375 1.328125q1.9375 0 2.984375 -1.375q1.046875 -1.390625 1.046875 -3.90625q0 -2.46875 -1.015625 -3.890625q-1.015625 -1.421875 -3.046875 -1.421875q-1.828125 0 -2.90625 1.328125q-1.0625 1.3125 -1.0625 3.984375zm25.046875 -8.734375q1.84375 0 3.046875 0.71875q1.203125 0.703125 1.78125 2.03125q0.9375 -1.328125 2.21875 -2.03125q1.28125 -0.71875 2.796875 -0.71875q3.0 0 4.515625 1.53125q1.515625 1.53125 1.515625 4.234375l0 11.21875l-4.546875 0l0 -9.5625q0 -2.265625 -0.671875 -3.046875q-0.65625 -0.796875 -2.109375 -0.796875q-1.53125 0 -2.296875 1.03125q-0.75 1.03125 -0.75 3.015625l0 9.359375l-4.546875 0l0 -10.1875q0 -1.640625 -0.625 -2.421875q-0.625 -0.796875 -2.109375 -0.796875q-1.296875 0 -2.1875 1.0q-0.890625 1.0 -0.890625 2.703125l0 9.703125l-4.546875 0l0 -16.546875l4.28125 0l0 2.25l0.0625 0q0.96875 -1.359375 2.234375 -2.015625q1.28125 -0.671875 2.828125 -0.671875zm28.765625 0q3.515625 0 5.515625 2.46875q2.0 2.453125 2.0 6.421875q0 3.671875 -1.96875 6.109375q-1.96875 2.4375 -5.296875 2.4375q-1.515625 0 -2.828125 -0.640625q-1.3125 -0.65625 -2.125 -1.859375l-0.078125 0l0 7.875l-4.53125 0l0 -22.375l4.3125 0l0 2.109375l0.0625 0q0.8125 -1.296875 2.0625 -1.921875q1.265625 -0.625 2.875 -0.625zm-4.9375 8.765625q0 2.375 1.015625 3.8125q1.015625 1.4375 2.953125 1.4375q1.890625 0 2.90625 -1.375q1.03125 -1.375 1.03125 -3.875q0 -2.375 -1.015625 -3.859375q-1.015625 -1.484375 -2.984375 -1.484375q-1.875 0 -2.890625 1.40625q-1.015625 1.40625 -1.015625 3.9375zm24.8125 -8.765625q0.296875 0 0.546875 0.046875q0.25 0.03125 0.46875 0.109375l0 4.21875q-0.390625 -0.078125 -0.765625 -0.109375q-0.359375 -0.046875 -0.859375 -0.046875q-2.296875 0 -3.40625 1.40625q-1.09375 1.40625 -1.09375 3.765625l0 7.59375l-4.53125 0l0 -16.546875l4.3125 0l0 3.078125l0.0625 0q0.71875 -1.625 2.140625 -2.5625q1.4375 -0.953125 3.125 -0.953125zm10.203125 0q3.671875 0 5.859375 2.53125q2.203125 2.515625 2.203125 6.4375l-0.03125 0.84375l-11.9375 0q0.09375 2.140625 1.109375 3.171875q1.03125 1.03125 2.9375 1.03125q1.234375 0 2.28125 -0.625q1.046875 -0.640625 1.328125 -1.53125l4.0 0q-0.921875 2.8125 -2.84375 4.203125q-1.921875 1.375 -4.90625 1.375q-3.828125 0 -6.140625 -2.421875q-2.3125 -2.421875 -2.3125 -6.28125q0 -3.703125 2.359375 -6.21875q2.375 -2.515625 6.09375 -2.515625zm-3.90625 6.9375l7.390625 0q-0.328125 -1.828125 -1.1875 -2.671875q-0.84375 -0.84375 -2.453125 -0.84375q-1.65625 0 -2.625 0.9375q-0.96875 0.9375 -1.125 2.578125zm21.421875 -6.9375q3.375 0 5.203125 1.34375q1.84375 1.328125 2.09375 3.921875l-4.328125 0q-0.09375 -1.171875 -0.875 -1.703125q-0.78125 -0.53125 -2.234375 -0.53125q-1.3125 0 -1.921875 0.390625q-0.59375 0.390625 -0.59375 1.140625q0 0.765625 0.78125 1.265625q0.796875 0.484375 3.1875 0.9375q3.8125 0.734375 5.109375 1.890625q1.3125 1.15625 1.3125 3.03125q0 2.8125 -2.0625 4.28125q-2.046875 1.46875 -5.484375 1.46875q-3.4375 0 -5.546875 -1.453125q-2.09375 -1.46875 -2.234375 -4.375l4.328125 0q0 1.3125 0.984375 2.046875q1.0 0.734375 2.5 0.734375q1.328125 0 2.15625 -0.5625q0.828125 -0.578125 0.828125 -1.546875q0 -0.859375 -1.078125 -1.40625q-1.078125 -0.546875 -3.953125 -1.140625q-2.84375 -0.5625 -4.109375 -1.609375q-1.265625 -1.046875 -1.265625 -2.828125q0 -2.625 1.859375 -3.953125q1.859375 -1.34375 5.34375 -1.34375zm17.1875 0q3.375 0 5.203125 1.34375q1.84375 1.328125 2.09375 3.921875l-4.328125 0q-0.09375 -1.171875 -0.875 -1.703125q-0.78125 -0.53125 -2.234375 -0.53125q-1.3125 0 -1.921875 0.390625q-0.59375 0.390625 -0.59375 1.140625q0 0.765625 0.78125 1.265625q0.796875 0.484375 3.1875 0.9375q3.8125 0.734375 5.109375 1.890625q1.3125 1.15625 1.3125 3.03125q0 2.8125 -2.0625 4.28125q-2.046875 1.46875 -5.484375 1.46875q-3.4375 0 -5.546875 -1.453125q-2.09375 -1.46875 -2.234375 -4.375l4.328125 0q0 1.3125 0.984375 2.046875q1.0 0.734375 2.5 0.734375q1.328125 0 2.15625 -0.5625q0.828125 -0.578125 0.828125 -1.546875q0 -0.859375 -1.078125 -1.40625q-1.078125 -0.546875 -3.953125 -1.140625q-2.84375 -0.5625 -4.109375 -1.609375q-1.265625 -1.046875 -1.265625 -2.828125q0 -2.625 1.859375 -3.953125q1.859375 -1.34375 5.34375 -1.34375zm15.078125 -5.859375l0 3.734375l-4.546875 0l0 -3.734375l4.546875 0zm0 6.296875l0 16.546875l-4.546875 0l0 -16.546875l4.546875 0zm11.609375 -0.4375q3.890625 0 6.234375 2.40625q2.34375 2.390625 2.34375 6.328125q0 3.953125 -2.375 6.328125q-2.359375 2.375 -6.203125 2.375q-3.84375 0 -6.203125 -2.390625q-2.34375 -2.390625 -2.34375 -6.3125q0 -3.921875 2.3125 -6.328125q2.3125 -2.40625 6.234375 -2.40625zm-4.0 8.734375q0 2.609375 1.0625 3.953125q1.078125 1.328125 2.9375 1.328125q1.9375 0 2.984375 -1.375q1.046875 -1.390625 1.046875 -3.90625q0 -2.46875 -1.015625 -3.890625q-1.015625 -1.421875 -3.046875 -1.421875q-1.828125 0 -2.90625 1.328125q-1.0625 1.3125 -1.0625 3.984375zm25.0 -8.734375q3.171875 0 4.59375 1.609375q1.4375 1.59375 1.4375 5.03125l0 10.34375l-4.546875 0l0 -9.484375q0 -1.9375 -0.671875 -2.921875q-0.65625 -1.0 -2.234375 -1.0q-1.890625 0 -2.71875 1.125q-0.8125 1.125 -0.8125 3.453125l0 8.828125l-4.53125 0l0 -16.546875l4.3125 0l0 2.3125l0.09375 0q0.828125 -1.328125 2.15625 -2.03125q1.328125 -0.71875 2.921875 -0.71875z" fill-rule="nonzero"/></g></svg>