<svg version="1.1" viewBox="0.0 0.0 608.2834645669292 540.0971128608924" fill="none" stroke="none" stroke-linecap="square" stroke-miterlimit="10" xmlns:xlink="http://www.w3.org/1999/xlink" xmlns="http://www.w3.org/2000/svg"><clipPath id="p.0"><path d="m0 0l608.28345 0l0 540.0971l-608.28345 0l0 -540.0971z" clip-rule="nonzero"/></clipPath><g clip-path="url(#p.0)"><path fill="#ffffff" d="m0 0l608.28345 0l0 540.0971l-608.28345 0z" fill-rule="evenodd"/><path fill="#cccccc" d="m50.67979 110.538055l490.55118 0l0 79.433075l-490.55118 0z" fill-rule="evenodd"/><path fill="#d32360" d="m59.435696 116.71129l67.08661 0l0 67.08661l-67.08661 0z" fill-rule="evenodd"/><path fill="#ffffff" d="m81.78212 157.39334q-2.609375 0 -3.859375 -1.765625q-1.234375 -1.78125 -1.234375 -4.96875q0 -3.1875 1.234375 -4.953125q1.25 -1.78125 3.859375 -1.78125q2.609375 0 3.84375 1.78125q1.25 1.765625 1.25 4.953125q0 3.1875 -1.25 4.96875q-1.234375 1.765625 -3.84375 1.765625zm0 -2.203125q1.25 0 1.734375 -0.875q0.5 -0.875 0.5 -2.4375l0 -2.421875q0 -1.578125 -0.5 -2.453125q-0.484375 -0.875 -1.734375 -0.875q-1.25 0 -1.75 0.875q-0.484375 0.875 -0.484375 2.453125l0 2.421875q0 1.5625 0.484375 2.4375q0.5 0.875 1.75 0.875zm0 -3.421875q-0.65625 0 -0.90625 -0.265625q-0.25 -0.265625 -0.25 -0.640625l0 -0.40625q0 -0.375 0.25 -0.625q0.25 -0.265625 0.90625 -0.265625q0.65625 0 0.90625 0.265625q0.25 0.25 0.25 0.625l0 0.40625q0 0.375 -0.25 0.640625q-0.25 0.265625 -0.90625 0.265625zm11.193748 5.625q-1.046875 0 -1.5 -0.453125q-0.45311737 -0.453125 -0.45311737 -1.09375l0 -0.65625q0 -0.625 0.45311737 -1.078125q0.453125 -0.46875 1.5 -0.46875q1.046875 0 1.5 0.46875q0.46875 0.453125 0.46875 1.078125l0 0.65625q0 0.640625 -0.46875 1.09375q-0.453125 0.453125 -1.5 0.453125zm0 -6.328125q-1.046875 0 -1.5 -0.453125q-0.45311737 -0.453125 -0.45311737 -1.09375l0 -0.65625q0 -0.625 0.45311737 -1.078125q0.453125 -0.46875 1.5 -0.46875q1.046875 0 1.5 0.46875q0.46875 0.453125 0.46875 1.078125l0 0.65625q0 0.640625 -0.46875 1.09375q-0.453125 0.453125 -1.5 0.453125zm7.350006 6.109375l0 -2.25l3.515625 0l0 -8.734375l-0.171875 0l-2.65625 3.46875l-1.78125 -1.40625l3.109375 -4.09375l4.296875 0l0 10.765625l2.765625 0l0 2.25l-9.078125 0z" fill-rule="nonzero"/><path fill="#d32360" d="m140.69554 116.71129l67.08661 0l0 67.08661l-67.08661 0z" fill-rule="evenodd"/><path fill="#ffffff" d="m159.19821 157.17459l0 -2.25l3.515625 0l0 -8.734375l-0.171875 0l-2.65625 3.46875l-1.78125 -1.40625l3.109375 -4.09375l4.296875 0l0 10.765625l2.765625 0l0 2.25l-9.078125 0zm15.037506 0.21875q-1.046875 0 -1.5 -0.453125q-0.453125 -0.453125 -0.453125 -1.09375l0 -0.65625q0 -0.625 0.453125 -1.078125q0.453125 -0.46875 1.5 -0.46875q1.046875 0 1.5 0.46875q0.46875 0.453125 0.46875 1.078125l0 0.65625q0 0.640625 -0.46875 1.09375q-0.453125 0.453125 -1.5 0.453125zm0 -6.328125q-1.046875 0 -1.5 -0.453125q-0.453125 -0.453125 -0.453125 -1.09375l0 -0.65625q0 -0.625 0.453125 -1.078125q0.453125 -0.46875 1.5 -0.46875q1.046875 0 1.5 0.46875q0.46875 0.453125 0.46875 1.078125l0 0.65625q0 0.640625 -0.46875 1.09375q-0.453125 0.453125 -1.5 0.453125zm15.959381 6.109375l-9.375 0l0 -2.5625l4.109375 -3.40625q1.0625 -0.921875 1.53125 -1.59375q0.46875 -0.671875 0.46875 -1.40625l0 -0.1875q0 -0.828125 -0.484375 -1.25q-0.484375 -0.421875 -1.3125 -0.421875q-0.9375 0 -1.4375 0.546875q-0.5 0.546875 -0.703125 1.28125l-2.453125 -0.921875q0.234375 -0.671875 0.625 -1.28125q0.390625 -0.609375 0.984375 -1.046875q0.609375 -0.453125 1.40625 -0.71875q0.8125 -0.28125 1.859375 -0.28125q1.0625 0 1.90625 0.296875q0.84375 0.296875 1.421875 0.828125q0.578125 0.515625 0.875 1.234375q0.296875 0.71875 0.296875 1.5625q0 0.828125 -0.28125 1.515625q-0.265625 0.671875 -0.75 1.265625q-0.46875 0.59375 -1.109375 1.15625q-0.640625 0.5625 -1.375 1.125l-2.484375 1.921875l6.28125 0l0 2.34375z" fill-rule="nonzero"/><path fill="#d32360" d="m221.95538 116.71129l67.08661 0l0 67.08661l-67.08661 0z" fill-rule="evenodd"/><path fill="#ffffff" d="m249.06743 157.17459l-9.375 0l0 -2.5625l4.109375 -3.40625q1.0625 -0.921875 1.53125 -1.59375q0.46875 -0.671875 0.46875 -1.40625l0 -0.1875q0 -0.828125 -0.484375 -1.25q-0.484375 -0.421875 -1.3125 -0.421875q-0.9375 0 -1.4375 0.546875q-0.5 0.546875 -0.703125 1.28125l-2.453125 -0.921875q0.234375 -0.671875 0.625 -1.28125q0.390625 -0.609375 0.984375 -1.046875q0.609375 -0.453125 1.40625 -0.71875q0.8125 -0.28125 1.859375 -0.28125q1.0625 0 1.90625 0.296875q0.84375 0.296875 1.421875 0.828125q0.578125 0.515625 0.875 1.234375q0.296875 0.71875 0.296875 1.5625q0 0.828125 -0.28125 1.515625q-0.265625 0.671875 -0.75 1.265625q-0.46875 0.59375 -1.109375 1.15625q-0.640625 0.5625 -1.375 1.125l-2.484375 1.921875l6.28125 0l0 2.34375zm6.428131 0.21875q-1.046875 0 -1.5 -0.453125q-0.453125 -0.453125 -0.453125 -1.09375l0 -0.65625q0 -0.625 0.453125 -1.078125q0.453125 -0.46875 1.5 -0.46875q1.0468597 0 1.4999847 0.46875q0.46875 0.453125 0.46875 1.078125l0 0.65625q0 0.640625 -0.46875 1.09375q-0.453125 0.453125 -1.4999847 0.453125zm0 -6.328125q-1.046875 0 -1.5 -0.453125q-0.453125 -0.453125 -0.453125 -1.09375l0 -0.65625q0 -0.625 0.453125 -1.078125q0.453125 -0.46875 1.5 -0.46875q1.0468597 0 1.4999847 0.46875q0.46875 0.453125 0.46875 1.078125l0 0.65625q0 0.640625 -0.46875 1.09375q-0.453125 0.453125 -1.4999847 0.453125zm10.693741 -1.765625q1.078125 0 1.5625 -0.40625q0.5 -0.40625 0.5 -1.015625l0 -0.125q0 -0.703125 -0.46875 -1.125q-0.46875 -0.421875 -1.359375 -0.421875q-0.796875 0 -1.5 0.40625q-0.6875 0.390625 -1.171875 1.140625l-1.78125 -1.640625q0.375 -0.484375 0.8125 -0.875q0.453125 -0.40625 1.0 -0.6875q0.546875 -0.296875 1.21875 -0.453125q0.6875 -0.171875 1.546875 -0.171875q1.0625 0 1.921875 0.25q0.859375 0.234375 1.453125 0.703125q0.609375 0.453125 0.9375 1.09375q0.34375 0.625 0.34375 1.40625q0 0.625 -0.203125 1.125q-0.203125 0.5 -0.546875 0.875q-0.34375 0.375 -0.8125 0.609375q-0.453125 0.234375 -0.96875 0.328125l0 0.109375q1.1875 0.203125 1.984375 1.0q0.796875 0.78125 0.796875 2.125q0 0.875 -0.375 1.59375q-0.359375 0.703125 -1.03125 1.21875q-0.65625 0.5 -1.59375 0.765625q-0.9375 0.265625 -2.09375 0.265625q-1.0 0 -1.75 -0.203125q-0.75 -0.203125 -1.328125 -0.546875q-0.578125 -0.34375 -1.0 -0.796875q-0.421875 -0.46875 -0.734375 -0.953125l2.0625 -1.59375q0.4375 0.796875 1.078125 1.3125q0.640625 0.515625 1.71875 0.515625q1.015625 0 1.546875 -0.46875q0.546875 -0.46875 0.546875 -1.296875l0 -0.125q0 -0.796875 -0.625 -1.203125q-0.609375 -0.40625 -1.703125 -0.40625l-1.21875 0l0 -2.328125l1.234375 0z" fill-rule="nonzero"/><path fill="#cccccc" d="m266.90027 204.94751l14.527557 0l0 -20.015747l29.055115 0l0 20.015747l14.527557 0l-29.055115 20.015747z" fill-rule="evenodd"/><path fill="#000000" fill-opacity="0.0" d="m42.67979 15.398951l447.14963 0l0 54.92914l-447.14963 0z" fill-rule="evenodd"/><path fill="#000000" d="m60.914165 31.12145q3.7968712 0 6.078121 1.7656231q2.296875 1.75 2.296875 4.984375l-4.453125 0q-0.09375 -1.578125 -1.0781212 -2.375q-0.96875 -0.796875 -3.03125 -0.796875q-1.40625 0 -2.296875 0.625q-0.890625 0.609375 -0.890625 1.75q0 0.796875 0.375 1.1875q0.375 0.375 1.515625 0.796875q1.15625 0.421875 5.031246 1.34375q2.609375 0.625 4.0625 2.140625q1.46875 1.5 1.46875 3.796875q0 3.046875 -2.28125 4.890625q-2.265625 1.828125 -6.406246 1.828125q-3.953125 0 -6.453125 -1.9375q-2.484375 -1.953125 -2.484375 -5.390625l0 -0.125l4.453125 0q0.03125 1.953125 1.296875 2.921875q1.28125 0.953125 3.34375 0.953125q1.859375 0 2.9687462 -0.671875q1.109375 -0.6875 1.109375 -1.9375q0 -1.015625 -0.859375 -1.65625q-0.8437462 -0.65625 -2.7187462 -1.140625q-2.40625 -0.53125 -4.375 -1.140625q-1.953125 -0.609375 -3.234375 -1.96875q-1.28125 -1.375 -1.28125 -3.515625q0 -2.8125 2.25 -4.5625q2.265625 -1.7656231 5.59375 -1.7656231zm18.641155 5.874998q2.9375 0 4.953125 1.515625q2.015625 1.515625 2.1875 4.21875l-4.078125 0q-0.1875 -1.296875 -0.96875 -1.953125q-0.765625 -0.65625 -2.109375 -0.65625q-1.6875 0 -2.625 1.375q-0.921875 1.375 -0.921875 3.5625q0 2.171875 0.921875 3.484375q0.921875 1.296875 2.53125 1.296875q1.390625 0 2.25 -0.796875q0.859375 -0.796875 1.078125 -2.296875l4.0 0q-0.40625 3.0 -2.34375 4.625q-1.9375 1.609375 -4.953125 1.609375q-3.375 0 -5.515625 -2.171875q-2.140625 -2.171875 -2.140625 -5.609375q0 -3.6875 2.09375 -5.9375q2.109375 -2.265625 5.640625 -2.265625zm16.543884 0q3.375 0 5.0 1.109375q1.640625 1.09375 1.640625 3.09375l0 8.140625q0 0.90625 0.125 1.828125q0.125 0.921875 0.40625 1.390625l-4.21875 0q-0.109375 -0.34375 -0.1875 -0.703125q-0.078125 -0.375 -0.109375 -0.75q-0.875 0.90625 -2.171875 1.390625q-1.296875 0.484375 -2.9375 0.484375q-2.34375 0 -3.75 -1.1875q-1.40625 -1.1875 -1.40625 -3.375q0 -2.125 1.3125 -3.234375q1.328125 -1.125 4.8125 -1.515625q2.421875 -0.234375 3.1875 -0.59375q0.78125 -0.375 0.78125 -1.265625q0 -1.015625 -0.59375 -1.515625q-0.59375 -0.515625 -2.09375 -0.515625q-1.28125 0 -1.96875 0.546875q-0.6875 0.546875 -0.796875 1.734375l-4.171875 0q0.171875 -2.484375 2.046875 -3.765625q1.890625 -1.296875 5.09375 -1.296875zm-3.453125 11.25q0 0.90625 0.609375 1.421875q0.625 0.515625 1.953125 0.515625q1.671875 0 2.515625 -0.875q0.859375 -0.875 0.859375 -2.546875l0 -1.625q-0.375 0.296875 -0.984375 0.453125q-0.609375 0.15625 -2.203125 0.375q-1.40625 0.1875 -2.078125 0.75q-0.671875 0.546875 -0.671875 1.53125zm22.02826 -11.25q2.90625 0 4.21875 1.46875q1.3125 1.46875 1.3125 4.609375l0 9.484375l-4.171875 0l0 -8.6875q0 -1.78125 -0.609375 -2.6875q-0.609375 -0.90625 -2.046875 -0.90625q-1.734375 0 -2.484375 1.03125q-0.75 1.03125 -0.75 3.15625l0 8.09375l-4.15625 0l0 -15.171875l3.953125 0l0 2.125l0.078125 0q0.765625 -1.21875 1.984375 -1.859375q1.21875 -0.65625 2.671875 -0.65625z" fill-rule="nonzero"/><path fill="#000000" fill-opacity="0.0" d="m42.67979 71.76509l192.09448 0l0 38.771652l-192.09448 0z" fill-rule="evenodd"/><path fill="#000000" d="m55.30479 84.70322l0 11.421875l-2.515625 0l0 -11.421875l2.515625 0zm6.703125 2.921875q1.59375 0 2.2968712 0.8125q0.71875 0.796875 0.71875 2.515625l0 5.171875l-2.2656212 0l0 -4.75q0 -0.96875 -0.34375 -1.453125q-0.328125 -0.5 -1.109375 -0.5q-0.953125 0 -1.359375 0.5625q-0.40625 0.5625 -0.40625 1.71875l0 4.421875l-2.265625 0l0 -8.28125l2.15625 0l0 1.15625l0.046875 0q0.40625 -0.65625 1.0625 -1.015625q0.671875 -0.359375 1.46875 -0.359375zm9.406246 0q1.75 0 2.75 1.234375q1.0 1.234375 1.0 3.21875q0 1.828125 -0.984375 3.0625q-0.984375 1.21875 -2.640625 1.21875q-0.765625 0 -1.421875 -0.328125q-0.65625 -0.328125 -1.0625 -0.9375l-0.03125 0l0 3.953125l-2.265625 0l0 -11.203125l2.15625 0l0 1.0625l0.03125 0q0.40625 -0.65625 1.03125 -0.96875q0.625 -0.3125 1.4375 -0.3125zm-2.46875 4.390625q0 1.1875 0.5 1.90625q0.515625 0.71875 1.484375 0.71875q0.9375 0 1.453125 -0.6875q0.515625 -0.6875 0.515625 -1.9375q0 -1.1875 -0.515625 -1.921875q-0.5 -0.75 -1.484375 -0.75q-0.9375 0 -1.453125 0.703125q-0.5 0.703125 -0.5 1.96875zm9.8515625 -4.171875l0 4.75q0 0.9375 0.328125 1.453125q0.328125 0.5 1.125 0.5q0.9375 0 1.34375 -0.5625q0.421875 -0.5625 0.421875 -1.71875l0 -4.421875l2.265625 0l0 8.28125l-2.15625 0l0 -1.15625l-0.046875 0q-0.4375 0.6875 -1.125 1.046875q-0.671875 0.34375 -1.421875 0.34375q-1.53125 0 -2.265625 -0.78125q-0.734375 -0.796875 -0.734375 -2.546875l0 -5.1875l2.265625 0zm10.09375 -2.46875l0 2.46875l1.65625 0l0 1.53125l-1.65625 0l0 4.140625q0 0.515625 0.1875 0.71875q0.1875 0.1875 0.765625 0.1875q0.203125 0 0.375 -0.015625q0.1875 -0.015625 0.328125 -0.046875l0 1.78125q-0.28125 0.046875 -0.625 0.0625q-0.34375 0.015625 -0.6875 0.015625q-1.46875 0 -2.046875 -0.5q-0.578125 -0.515625 -0.578125 -1.421875l0 -4.921875l-1.375 0l0 -1.53125l1.375 0l0 -2.46875l2.28125 0z" fill-rule="nonzero"/><path fill="#d32360" d="m303.2152 116.71129l67.08664 0l0 67.08661l-67.08664 0z" fill-rule="evenodd"/><path fill="#ffffff" d="m325.06165 149.29959q1.078125 0 1.5625 -0.40625q0.5 -0.40625 0.5 -1.015625l0 -0.125q0 -0.703125 -0.46875 -1.125q-0.46875 -0.421875 -1.359375 -0.421875q-0.796875 0 -1.5 0.40625q-0.6875 0.390625 -1.171875 1.140625l-1.78125 -1.640625q0.375 -0.484375 0.8125 -0.875q0.453125 -0.40625 1.0 -0.6875q0.546875 -0.296875 1.21875 -0.453125q0.6875 -0.171875 1.546875 -0.171875q1.0625 0 1.921875 0.25q0.859375 0.234375 1.453125 0.703125q0.609375 0.453125 0.9375 1.09375q0.34375 0.625 0.34375 1.40625q0 0.625 -0.203125 1.125q-0.203125 0.5 -0.546875 0.875q-0.34375 0.375 -0.8125 0.609375q-0.453125 0.234375 -0.96875 0.328125l0 0.109375q1.1875 0.203125 1.984375 1.0q0.796875 0.78125 0.796875 2.125q0 0.875 -0.375 1.59375q-0.359375 0.703125 -1.03125 1.21875q-0.65625 0.5 -1.59375 0.765625q-0.9375 0.265625 -2.09375 0.265625q-1.0 0 -1.75 -0.203125q-0.75 -0.203125 -1.328125 -0.546875q-0.578125 -0.34375 -1.0 -0.796875q-0.421875 -0.46875 -0.734375 -0.953125l2.0625 -1.59375q0.4375 0.796875 1.078125 1.3125q0.640625 0.515625 1.71875 0.515625q1.015625 0 1.546875 -0.46875q0.546875 -0.46875 0.546875 -1.296875l0 -0.125q0 -0.796875 -0.625 -1.203125q-0.609375 -0.40625 -1.703125 -0.40625l-1.21875 0l0 -2.328125l1.234375 0zm11.693756 8.09375q-1.046875 0 -1.5 -0.453125q-0.453125 -0.453125 -0.453125 -1.09375l0 -0.65625q0 -0.625 0.453125 -1.078125q0.453125 -0.46875 1.5 -0.46875q1.046875 0 1.5 0.46875q0.46875 0.453125 0.46875 1.078125l0 0.65625q0 0.640625 -0.46875 1.09375q-0.453125 0.453125 -1.5 0.453125zm0 -6.328125q-1.046875 0 -1.5 -0.453125q-0.453125 -0.453125 -0.453125 -1.09375l0 -0.65625q0 -0.625 0.453125 -1.078125q0.453125 -0.46875 1.5 -0.46875q1.046875 0 1.5 0.46875q0.46875 0.453125 0.46875 1.078125l0 0.65625q0 0.640625 -0.46875 1.09375q-0.453125 0.453125 -1.5 0.453125zm11.928131 6.109375l0 -2.5l-5.859375 0l0 -2.390625l5.1875 -8.125l3.359375 0l0 8.34375l1.671875 0l0 2.171875l-1.671875 0l0 2.5l-2.6875 0zm-3.609375 -4.671875l3.609375 0l0 -5.453125l-0.171875 0l-3.4375 5.453125z" fill-rule="nonzero"/><path fill="#d32360" d="m384.47507 116.71129l67.08661 0l0 67.08661l-67.08661 0z" fill-rule="evenodd"/><path fill="#ffffff" d="m407.55588 157.17459l0 -2.5l-5.859375 0l0 -2.390625l5.1875 -8.125l3.359375 0l0 8.34375l1.671875 0l0 2.171875l-1.671875 0l0 2.5l-2.6875 0zm-3.609375 -4.671875l3.609375 0l0 -5.453125l-0.171875 0l-3.4375 5.453125zm14.068726 4.890625q-1.046875 0 -1.5 -0.453125q-0.45309448 -0.453125 -0.45309448 -1.09375l0 -0.65625q0 -0.625 0.45309448 -1.078125q0.453125 -0.46875 1.5 -0.46875q1.046875 0 1.5 0.46875q0.46875 0.453125 0.46875 1.078125l0 0.65625q0 0.640625 -0.46875 1.09375q-0.453125 0.453125 -1.5 0.453125zm0 -6.328125q-1.046875 0 -1.5 -0.453125q-0.45309448 -0.453125 -0.45309448 -1.09375l0 -0.65625q0 -0.625 0.45309448 -1.078125q0.453125 -0.46875 1.5 -0.46875q1.046875 0 1.5 0.46875q0.46875 0.453125 0.46875 1.078125l0 0.65625q0 0.640625 -0.46875 1.09375q-0.453125 0.453125 -1.5 0.453125zm15.396881 -4.46875l-6.03125 0l-0.296875 4.125l0.171875 0q0.203125 -0.453125 0.453125 -0.828125q0.265625 -0.390625 0.625 -0.65625q0.359375 -0.265625 0.8125 -0.40625q0.46875 -0.15625 1.078125 -0.15625q0.796875 0 1.515625 0.28125q0.71875 0.265625 1.265625 0.796875q0.546875 0.53125 0.859375 1.3125q0.328125 0.78125 0.328125 1.75q0 0.984375 -0.34375 1.828125q-0.328125 0.828125 -0.96875 1.453125q-0.640625 0.609375 -1.59375 0.953125q-0.953125 0.34375 -2.171875 0.34375q-0.953125 0 -1.703125 -0.203125q-0.734375 -0.203125 -1.3125 -0.546875q-0.5625 -0.34375 -0.984375 -0.796875q-0.421875 -0.46875 -0.71875 -0.953125l2.03125 -1.59375q0.234375 0.375 0.484375 0.71875q0.25 0.328125 0.578125 0.578125q0.328125 0.25 0.71875 0.390625q0.40625 0.140625 0.921875 0.140625q1.046875 0 1.578125 -0.5625q0.53125 -0.578125 0.53125 -1.53125l0 -0.15625q0 -0.90625 -0.546875 -1.421875q-0.53125 -0.53125 -1.484375 -0.53125q-0.78125 0 -1.296875 0.3125q-0.515625 0.296875 -0.765625 0.609375l-2.296875 -0.328125l0.484375 -7.359375l8.078125 0l0 2.4375z" fill-rule="nonzero"/><path fill="#d32360" d="m465.7349 116.71129l67.08664 0l0 67.08661l-67.08664 0z" fill-rule="evenodd"/><path fill="#ffffff" d="m492.28445 146.59647l-6.03125 0l-0.296875 4.125l0.171875 0q0.203125 -0.453125 0.453125 -0.828125q0.265625 -0.390625 0.625 -0.65625q0.359375 -0.265625 0.8125 -0.40625q0.46875 -0.15625 1.078125 -0.15625q0.796875 0 1.515625 0.28125q0.71875 0.265625 1.265625 0.796875q0.546875 0.53125 0.859375 1.3125q0.328125 0.78125 0.328125 1.75q0 0.984375 -0.34375 1.828125q-0.328125 0.828125 -0.96875 1.453125q-0.640625 0.609375 -1.59375 0.953125q-0.953125 0.34375 -2.171875 0.34375q-0.953125 0 -1.703125 -0.203125q-0.734375 -0.203125 -1.3125 -0.546875q-0.5625 -0.34375 -0.984375 -0.796875q-0.421875 -0.46875 -0.71875 -0.953125l2.03125 -1.59375q0.234375 0.375 0.484375 0.71875q0.25 0.328125 0.578125 0.578125q0.328125 0.25 0.71875 0.390625q0.40625 0.140625 0.921875 0.140625q1.046875 0 1.578125 -0.5625q0.53125 -0.578125 0.53125 -1.53125l0 -0.15625q0 -0.90625 -0.546875 -1.421875q-0.53125 -0.53125 -1.484375 -0.53125q-0.78125 0 -1.296875 0.3125q-0.515625 0.296875 -0.765625 0.609375l-2.296875 -0.328125l0.484375 -7.359375l8.078125 0l0 2.4375zm6.990631 10.796875q-1.046875 0 -1.5 -0.453125q-0.453125 -0.453125 -0.453125 -1.09375l0 -0.65625q0 -0.625 0.453125 -1.078125q0.453125 -0.46875 1.5 -0.46875q1.046875 0 1.5 0.46875q0.46875 0.453125 0.46875 1.078125l0 0.65625q0 0.640625 -0.46875 1.09375q-0.453125 0.453125 -1.5 0.453125zm0 -6.328125q-1.046875 0 -1.5 -0.453125q-0.453125 -0.453125 -0.453125 -1.09375l0 -0.65625q0 -0.625 0.453125 -1.078125q0.453125 -0.46875 1.5 -0.46875q1.046875 0 1.5 0.46875q0.46875 0.453125 0.46875 1.078125l0 0.65625q0 0.640625 -0.46875 1.09375q-0.453125 0.453125 -1.5 0.453125zm11.271881 6.328125q-1.171875 0 -2.09375 -0.359375q-0.921875 -0.359375 -1.5625 -1.03125q-0.640625 -0.6875 -0.984375 -1.640625q-0.328125 -0.953125 -0.328125 -2.125q0 -1.375 0.421875 -2.59375q0.4375 -1.21875 1.109375 -2.25q0.6875 -1.046875 1.53125 -1.859375q0.859375 -0.828125 1.703125 -1.375l3.8593445 0q-1.21875 0.828125 -2.1875 1.609375q-0.9530945 0.765625 -1.6718445 1.546875q-0.71875 0.78125 -1.171875 1.609375q-0.453125 0.8125 -0.65625 1.75l0.171875 0.0625q0.15625 -0.375 0.390625 -0.71875q0.25 -0.359375 0.609375 -0.625q0.359375 -0.28125 0.828125 -0.4375q0.484375 -0.171875 1.109375 -0.171875q0.8280945 0 1.5312195 0.296875q0.71875 0.28125 1.21875 0.8125q0.515625 0.53125 0.8125 1.28125q0.296875 0.734375 0.296875 1.671875q0 0.984375 -0.359375 1.828125q-0.34375 0.84375 -0.984375 1.453125q-0.640625 0.59375 -1.5625 0.9375q-0.9062195 0.328125 -2.0312195 0.328125zm-0.015625 -2.171875q1.0 0 1.5155945 -0.53125q0.53125 -0.53125 0.53125 -1.515625l0 -0.25q0 -0.96875 -0.53125 -1.484375q-0.5312195 -0.515625 -1.5155945 -0.515625q-0.953125 0 -1.5 0.515625q-0.53125 0.515625 -0.53125 1.484375l0 0.25q0 0.984375 0.5 1.515625q0.515625 0.53125 1.53125 0.53125z" fill-rule="nonzero"/><path fill="#cccccc" d="m50.67979 226.0971l490.55118 0l0 79.433075l-490.55118 0z" fill-rule="evenodd"/><path fill="#2874aa" d="m59.435696 232.27034l67.08661 0l0 67.086624l-67.08661 0z" fill-rule="evenodd"/><path fill="#ffffff" d="m81.78212 272.9524q-2.609375 0 -3.859375 -1.765625q-1.234375 -1.78125 -1.234375 -4.96875q0 -3.1875 1.234375 -4.953125q1.25 -1.78125 3.859375 -1.78125q2.609375 0 3.84375 1.78125q1.25 1.765625 1.25 4.953125q0 3.1875 -1.25 4.96875q-1.234375 1.765625 -3.84375 1.765625zm0 -2.203125q1.25 0 1.734375 -0.875q0.5 -0.875 0.5 -2.4375l0 -2.421875q0 -1.578125 -0.5 -2.453125q-0.484375 -0.875 -1.734375 -0.875q-1.25 0 -1.75 0.875q-0.484375 0.875 -0.484375 2.453125l0 2.421875q0 1.5625 0.484375 2.4375q0.5 0.875 1.75 0.875zm0 -3.421875q-0.65625 0 -0.90625 -0.265625q-0.25 -0.265625 -0.25 -0.640625l0 -0.40625q0 -0.375 0.25 -0.625q0.25 -0.265625 0.90625 -0.265625q0.65625 0 0.90625 0.265625q0.25 0.25 0.25 0.625l0 0.40625q0 0.375 -0.25 0.640625q-0.25 0.265625 -0.90625 0.265625zm11.193748 5.625q-1.046875 0 -1.5 -0.453125q-0.45311737 -0.453125 -0.45311737 -1.09375l0 -0.65625q0 -0.625 0.45311737 -1.078125q0.453125 -0.46875 1.5 -0.46875q1.046875 0 1.5 0.46875q0.46875 0.453125 0.46875 1.078125l0 0.65625q0 0.640625 -0.46875 1.09375q-0.453125 0.453125 -1.5 0.453125zm0 -6.328125q-1.046875 0 -1.5 -0.453125q-0.45311737 -0.453125 -0.45311737 -1.09375l0 -0.65625q0 -0.625 0.45311737 -1.078125q0.453125 -0.46875 1.5 -0.46875q1.046875 0 1.5 0.46875q0.46875 0.453125 0.46875 1.078125l0 0.65625q0 0.640625 -0.46875 1.09375q-0.453125 0.453125 -1.5 0.453125zm7.350006 6.109375l0 -2.25l3.515625 0l0 -8.734375l-0.171875 0l-2.65625 3.46875l-1.78125 -1.40625l3.109375 -4.09375l4.296875 0l0 10.765625l2.765625 0l0 2.25l-9.078125 0z" fill-rule="nonzero"/><path fill="#2874aa" d="m140.69554 232.27034l67.08661 0l0 67.086624l-67.08661 0z" fill-rule="evenodd"/><path fill="#ffffff" d="m163.04196 272.9524q-2.609375 0 -3.859375 -1.765625q-1.234375 -1.78125 -1.234375 -4.96875q0 -3.1875 1.234375 -4.953125q1.25 -1.78125 3.859375 -1.78125q2.609375 0 3.84375 1.78125q1.25 1.765625 1.25 4.953125q0 3.1875 -1.25 4.96875q-1.234375 1.765625 -3.84375 1.765625zm0 -2.203125q1.25 0 1.734375 -0.875q0.5 -0.875 0.5 -2.4375l0 -2.421875q0 -1.578125 -0.5 -2.453125q-0.484375 -0.875 -1.734375 -0.875q-1.25 0 -1.75 0.875q-0.484375 0.875 -0.484375 2.453125l0 2.421875q0 1.5625 0.484375 2.4375q0.5 0.875 1.75 0.875zm0 -3.421875q-0.65625 0 -0.90625 -0.265625q-0.25 -0.265625 -0.25 -0.640625l0 -0.40625q0 -0.375 0.25 -0.625q0.25 -0.265625 0.90625 -0.265625q0.65625 0 0.90625 0.265625q0.25 0.25 0.25 0.625l0 0.40625q0 0.375 -0.25 0.640625q-0.25 0.265625 -0.90625 0.265625zm11.193756 5.625q-1.046875 0 -1.5 -0.453125q-0.453125 -0.453125 -0.453125 -1.09375l0 -0.65625q0 -0.625 0.453125 -1.078125q0.453125 -0.46875 1.5 -0.46875q1.046875 0 1.5 0.46875q0.46875 0.453125 0.46875 1.078125l0 0.65625q0 0.640625 -0.46875 1.09375q-0.453125 0.453125 -1.5 0.453125zm0 -6.328125q-1.046875 0 -1.5 -0.453125q-0.453125 -0.453125 -0.453125 -1.09375l0 -0.65625q0 -0.625 0.453125 -1.078125q0.453125 -0.46875 1.5 -0.46875q1.046875 0 1.5 0.46875q0.46875 0.453125 0.46875 1.078125l0 0.65625q0 0.640625 -0.46875 1.09375q-0.453125 0.453125 -1.5 0.453125zm15.959381 6.109375l-9.375 0l0 -2.5625l4.109375 -3.40625q1.0625 -0.921875 1.53125 -1.59375q0.46875 -0.671875 0.46875 -1.40625l0 -0.1875q0 -0.828125 -0.484375 -1.25q-0.484375 -0.421875 -1.3125 -0.421875q-0.9375 0 -1.4375 0.546875q-0.5 0.546875 -0.703125 1.28125l-2.453125 -0.921875q0.234375 -0.671875 0.625 -1.28125q0.390625 -0.609375 0.984375 -1.046875q0.609375 -0.453125 1.40625 -0.71875q0.8125 -0.28125 1.859375 -0.28125q1.0625 0 1.90625 0.296875q0.84375 0.296875 1.421875 0.828125q0.578125 0.515625 0.875 1.234375q0.296875 0.71875 0.296875 1.5625q0 0.828125 -0.28125 1.515625q-0.265625 0.671875 -0.75 1.265625q-0.46875 0.59375 -1.109375 1.15625q-0.640625 0.5625 -1.375 1.125l-2.484375 1.921875l6.28125 0l0 2.34375z" fill-rule="nonzero"/><path fill="#2874aa" d="m221.95538 232.27034l67.08661 0l0 67.086624l-67.08661 0z" fill-rule="evenodd"/><path fill="#ffffff" d="m244.3018 272.9524q-2.609375 0 -3.859375 -1.765625q-1.234375 -1.78125 -1.234375 -4.96875q0 -3.1875 1.234375 -4.953125q1.25 -1.78125 3.859375 -1.78125q2.609375 0 3.84375 1.78125q1.25 1.765625 1.25 4.953125q0 3.1875 -1.25 4.96875q-1.234375 1.765625 -3.84375 1.765625zm0 -2.203125q1.25 0 1.734375 -0.875q0.5 -0.875 0.5 -2.4375l0 -2.421875q0 -1.578125 -0.5 -2.453125q-0.484375 -0.875 -1.734375 -0.875q-1.25 0 -1.75 0.875q-0.484375 0.875 -0.484375 2.453125l0 2.421875q0 1.5625 0.484375 2.4375q0.5 0.875 1.75 0.875zm0 -3.421875q-0.65625 0 -0.90625 -0.265625q-0.25 -0.265625 -0.25 -0.640625l0 -0.40625q0 -0.375 0.25 -0.625q0.25 -0.265625 0.90625 -0.265625q0.65625 0 0.90625 0.265625q0.25 0.25 0.25 0.625l0 0.40625q0 0.375 -0.25 0.640625q-0.25 0.265625 -0.90625 0.265625zm11.193756 5.625q-1.046875 0 -1.5 -0.453125q-0.453125 -0.453125 -0.453125 -1.09375l0 -0.65625q0 -0.625 0.453125 -1.078125q0.453125 -0.46875 1.5 -0.46875q1.0468597 0 1.4999847 0.46875q0.46875 0.453125 0.46875 1.078125l0 0.65625q0 0.640625 -0.46875 1.09375q-0.453125 0.453125 -1.4999847 0.453125zm0 -6.328125q-1.046875 0 -1.5 -0.453125q-0.453125 -0.453125 -0.453125 -1.09375l0 -0.65625q0 -0.625 0.453125 -1.078125q0.453125 -0.46875 1.5 -0.46875q1.0468597 0 1.4999847 0.46875q0.46875 0.453125 0.46875 1.078125l0 0.65625q0 0.640625 -0.46875 1.09375q-0.453125 0.453125 -1.4999847 0.453125zm10.693741 -1.765625q1.078125 0 1.5625 -0.40625q0.5 -0.40625 0.5 -1.015625l0 -0.125q0 -0.703125 -0.46875 -1.125q-0.46875 -0.421875 -1.359375 -0.421875q-0.796875 0 -1.5 0.40625q-0.6875 0.390625 -1.171875 1.140625l-1.78125 -1.640625q0.375 -0.484375 0.8125 -0.875q0.453125 -0.40625 1.0 -0.6875q0.546875 -0.296875 1.21875 -0.453125q0.6875 -0.171875 1.546875 -0.171875q1.0625 0 1.921875 0.25q0.859375 0.234375 1.453125 0.703125q0.609375 0.453125 0.9375 1.09375q0.34375 0.625 0.34375 1.40625q0 0.625 -0.203125 1.125q-0.203125 0.5 -0.546875 0.875q-0.34375 0.375 -0.8125 0.609375q-0.453125 0.234375 -0.96875 0.328125l0 0.109375q1.1875 0.203125 1.984375 1.0q0.796875 0.78125 0.796875 2.125q0 0.875 -0.375 1.59375q-0.359375 0.703125 -1.03125 1.21875q-0.65625 0.5 -1.59375 0.765625q-0.9375 0.265625 -2.09375 0.265625q-1.0 0 -1.75 -0.203125q-0.75 -0.203125 -1.328125 -0.546875q-0.578125 -0.34375 -1.0 -0.796875q-0.421875 -0.46875 -0.734375 -0.953125l2.0625 -1.59375q0.4375 0.796875 1.078125 1.3125q0.640625 0.515625 1.71875 0.515625q1.015625 0 1.546875 -0.46875q0.546875 -0.46875 0.546875 -1.296875l0 -0.125q0 -0.796875 -0.625 -1.203125q-0.609375 -0.40625 -1.703125 -0.40625l-1.21875 0l0 -2.328125l1.234375 0z" fill-rule="nonzero"/><path fill="#2874aa" d="m303.2152 232.27034l67.08664 0l0 67.086624l-67.08664 0z" fill-rule="evenodd"/><path fill="#ffffff" d="m325.56165 272.9524q-2.609375 0 -3.859375 -1.765625q-1.234375 -1.78125 -1.234375 -4.96875q0 -3.1875 1.234375 -4.953125q1.25 -1.78125 3.859375 -1.78125q2.609375 0 3.84375 1.78125q1.25 1.765625 1.25 4.953125q0 3.1875 -1.25 4.96875q-1.234375 1.765625 -3.84375 1.765625zm0 -2.203125q1.25 0 1.734375 -0.875q0.5 -0.875 0.5 -2.4375l0 -2.421875q0 -1.578125 -0.5 -2.453125q-0.484375 -0.875 -1.734375 -0.875q-1.25 0 -1.75 0.875q-0.484375 0.875 -0.484375 2.453125l0 2.421875q0 1.5625 0.484375 2.4375q0.5 0.875 1.75 0.875zm0 -3.421875q-0.65625 0 -0.90625 -0.265625q-0.25 -0.265625 -0.25 -0.640625l0 -0.40625q0 -0.375 0.25 -0.625q0.25 -0.265625 0.90625 -0.265625q0.65625 0 0.90625 0.265625q0.25 0.25 0.25 0.625l0 0.40625q0 0.375 -0.25 0.640625q-0.25 0.265625 -0.90625 0.265625zm11.193756 5.625q-1.046875 0 -1.5 -0.453125q-0.453125 -0.453125 -0.453125 -1.09375l0 -0.65625q0 -0.625 0.453125 -1.078125q0.453125 -0.46875 1.5 -0.46875q1.046875 0 1.5 0.46875q0.46875 0.453125 0.46875 1.078125l0 0.65625q0 0.640625 -0.46875 1.09375q-0.453125 0.453125 -1.5 0.453125zm0 -6.328125q-1.046875 0 -1.5 -0.453125q-0.453125 -0.453125 -0.453125 -1.09375l0 -0.65625q0 -0.625 0.453125 -1.078125q0.453125 -0.46875 1.5 -0.46875q1.046875 0 1.5 0.46875q0.46875 0.453125 0.46875 1.078125l0 0.65625q0 0.640625 -0.46875 1.09375q-0.453125 0.453125 -1.5 0.453125zm11.928131 6.109375l0 -2.5l-5.859375 0l0 -2.390625l5.1875 -8.125l3.359375 0l0 8.34375l1.671875 0l0 2.171875l-1.671875 0l0 2.5l-2.6875 0zm-3.609375 -4.671875l3.609375 0l0 -5.453125l-0.171875 0l-3.4375 5.453125z" fill-rule="nonzero"/><path fill="#2874aa" d="m384.47507 232.27034l67.08661 0l0 67.086624l-67.08661 0z" fill-rule="evenodd"/><path fill="#ffffff" d="m406.8215 272.9524q-2.609375 0 -3.859375 -1.765625q-1.234375 -1.78125 -1.234375 -4.96875q0 -3.1875 1.234375 -4.953125q1.25 -1.78125 3.859375 -1.78125q2.609375 0 3.84375 1.78125q1.25 1.765625 1.25 4.953125q0 3.1875 -1.25 4.96875q-1.234375 1.765625 -3.84375 1.765625zm0 -2.203125q1.25 0 1.734375 -0.875q0.5 -0.875 0.5 -2.4375l0 -2.421875q0 -1.578125 -0.5 -2.453125q-0.484375 -0.875 -1.734375 -0.875q-1.25 0 -1.75 0.875q-0.484375 0.875 -0.484375 2.453125l0 2.421875q0 1.5625 0.484375 2.4375q0.5 0.875 1.75 0.875zm0 -3.421875q-0.65625 0 -0.90625 -0.265625q-0.25 -0.265625 -0.25 -0.640625l0 -0.40625q0 -0.375 0.25 -0.625q0.25 -0.265625 0.90625 -0.265625q0.65625 0 0.90625 0.265625q0.25 0.25 0.25 0.625l0 0.40625q0 0.375 -0.25 0.640625q-0.25 0.265625 -0.90625 0.265625zm11.193726 5.625q-1.046875 0 -1.5 -0.453125q-0.45309448 -0.453125 -0.45309448 -1.09375l0 -0.65625q0 -0.625 0.45309448 -1.078125q0.453125 -0.46875 1.5 -0.46875q1.046875 0 1.5 0.46875q0.46875 0.453125 0.46875 1.078125l0 0.65625q0 0.640625 -0.46875 1.09375q-0.453125 0.453125 -1.5 0.453125zm0 -6.328125q-1.046875 0 -1.5 -0.453125q-0.45309448 -0.453125 -0.45309448 -1.09375l0 -0.65625q0 -0.625 0.45309448 -1.078125q0.453125 -0.46875 1.5 -0.46875q1.046875 0 1.5 0.46875q0.46875 0.453125 0.46875 1.078125l0 0.65625q0 0.640625 -0.46875 1.09375q-0.453125 0.453125 -1.5 0.453125zm15.396881 -4.46875l-6.03125 0l-0.296875 4.125l0.171875 0q0.203125 -0.453125 0.453125 -0.828125q0.265625 -0.390625 0.625 -0.65625q0.359375 -0.265625 0.8125 -0.40625q0.46875 -0.15625 1.078125 -0.15625q0.796875 0 1.515625 0.28125q0.71875 0.265625 1.265625 0.796875q0.546875 0.53125 0.859375 1.3125q0.328125 0.78125 0.328125 1.75q0 0.984375 -0.34375 1.828125q-0.328125 0.828125 -0.96875 1.453125q-0.640625 0.609375 -1.59375 0.953125q-0.953125 0.34375 -2.171875 0.34375q-0.953125 0 -1.703125 -0.203125q-0.734375 -0.203125 -1.3125 -0.546875q-0.5625 -0.34375 -0.984375 -0.796875q-0.421875 -0.46875 -0.71875 -0.953125l2.03125 -1.59375q0.234375 0.375 0.484375 0.71875q0.25 0.328125 0.578125 0.578125q0.328125 0.25 0.71875 0.390625q0.40625 0.140625 0.921875 0.140625q1.046875 0 1.578125 -0.5625q0.53125 -0.578125 0.53125 -1.53125l0 -0.15625q0 -0.90625 -0.546875 -1.421875q-0.53125 -0.53125 -1.484375 -0.53125q-0.78125 0 -1.296875 0.3125q-0.515625 0.296875 -0.765625 0.609375l-2.296875 -0.328125l0.484375 -7.359375l8.078125 0l0 2.4375z" fill-rule="nonzero"/><path fill="#2874aa" d="m465.7349 232.27034l67.08664 0l0 67.086624l-67.08664 0z" fill-rule="evenodd"/><path fill="#ffffff" d="m488.08133 272.9524q-2.609375 0 -3.859375 -1.765625q-1.234375 -1.78125 -1.234375 -4.96875q0 -3.1875 1.234375 -4.953125q1.25 -1.78125 3.859375 -1.78125q2.609375 0 3.84375 1.78125q1.25 1.765625 1.25 4.953125q0 3.1875 -1.25 4.96875q-1.234375 1.765625 -3.84375 1.765625zm0 -2.203125q1.25 0 1.734375 -0.875q0.5 -0.875 0.5 -2.4375l0 -2.421875q0 -1.578125 -0.5 -2.453125q-0.484375 -0.875 -1.734375 -0.875q-1.25 0 -1.75 0.875q-0.484375 0.875 -0.484375 2.453125l0 2.421875q0 1.5625 0.484375 2.4375q0.5 0.875 1.75 0.875zm0 -3.421875q-0.65625 0 -0.90625 -0.265625q-0.25 -0.265625 -0.25 -0.640625l0 -0.40625q0 -0.375 0.25 -0.625q0.25 -0.265625 0.90625 -0.265625q0.65625 0 0.90625 0.265625q0.25 0.25 0.25 0.625l0 0.40625q0 0.375 -0.25 0.640625q-0.25 0.265625 -0.90625 0.265625zm11.193756 5.625q-1.046875 0 -1.5 -0.453125q-0.453125 -0.453125 -0.453125 -1.09375l0 -0.65625q0 -0.625 0.453125 -1.078125q0.453125 -0.46875 1.5 -0.46875q1.046875 0 1.5 0.46875q0.46875 0.453125 0.46875 1.078125l0 0.65625q0 0.640625 -0.46875 1.09375q-0.453125 0.453125 -1.5 0.453125zm0 -6.328125q-1.046875 0 -1.5 -0.453125q-0.453125 -0.453125 -0.453125 -1.09375l0 -0.65625q0 -0.625 0.453125 -1.078125q0.453125 -0.46875 1.5 -0.46875q1.046875 0 1.5 0.46875q0.46875 0.453125 0.46875 1.078125l0 0.65625q0 0.640625 -0.46875 1.09375q-0.453125 0.453125 -1.5 0.453125zm11.271881 6.328125q-1.171875 0 -2.09375 -0.359375q-0.921875 -0.359375 -1.5625 -1.03125q-0.640625 -0.6875 -0.984375 -1.640625q-0.328125 -0.953125 -0.328125 -2.125q0 -1.375 0.421875 -2.59375q0.4375 -1.21875 1.109375 -2.25q0.6875 -1.046875 1.53125 -1.859375q0.859375 -0.828125 1.703125 -1.375l3.8593445 0q-1.21875 0.828125 -2.1875 1.609375q-0.9530945 0.765625 -1.6718445 1.546875q-0.71875 0.78125 -1.171875 1.609375q-0.453125 0.8125 -0.65625 1.75l0.171875 0.0625q0.15625 -0.375 0.390625 -0.71875q0.25 -0.359375 0.609375 -0.625q0.359375 -0.28125 0.828125 -0.4375q0.484375 -0.171875 1.109375 -0.171875q0.8280945 0 1.5312195 0.296875q0.71875 0.28125 1.21875 0.8125q0.515625 0.53125 0.8125 1.28125q0.296875 0.734375 0.296875 1.671875q0 0.984375 -0.359375 1.828125q-0.34375 0.84375 -0.984375 1.453125q-0.640625 0.59375 -1.5625 0.9375q-0.9062195 0.328125 -2.0312195 0.328125zm-0.015625 -2.171875q1.0 0 1.5155945 -0.53125q0.53125 -0.53125 0.53125 -1.515625l0 -0.25q0 -0.96875 -0.53125 -1.484375q-0.5312195 -0.515625 -1.5155945 -0.515625q-0.953125 0 -1.5 0.515625q-0.53125 0.515625 -0.53125 1.484375l0 0.25q0 0.984375 0.5 1.515625q0.515625 0.53125 1.53125 0.53125z" fill-rule="nonzero"/><path fill="#000000" fill-opacity="0.0" d="m42.67979 305.52887l192.09448 0l0 38.771667l-192.09448 0z" fill-rule="evenodd"/><path fill="#000000" d="m57.914165 318.18576q2.546875 0 4.078125 1.71875q1.53125 1.703125 1.53125 4.3125q0 2.5625 -1.546875 4.265625q-1.53125 1.6875 -4.0625 1.6875q-1.65625 0 -2.9375 -0.765625q-1.28125 -0.765625 -1.984375 -2.125q-0.703125 -1.375 -0.703125 -3.0625q0 -2.640625 1.546875 -4.328125q1.546875 -1.703125 4.078125 -1.703125zm-3.109375 6.03125q0 1.6875 0.796875 2.765625q0.8125 1.0625 2.3125 1.0625q1.46875 0 2.28125 -1.046875q0.8125 -1.0625 0.8125 -2.78125q0 -1.796875 -0.828125 -2.859375q-0.8125 -1.0625 -2.28125 -1.0625q-1.46875 0 -2.28125 1.078125q-0.8125 1.0625 -0.8125 2.84375zm12.460934 -2.609375l0 4.75q0 0.9375 0.328125 1.453125q0.328125 0.5 1.125 0.5q0.9375 0 1.34375 -0.5625q0.421875 -0.5625 0.421875 -1.71875l0 -4.421875l2.265625 0l0 8.28125l-2.15625 0l0 -1.15625l-0.046875 0q-0.4375 0.6875 -1.125 1.046875q-0.671875 0.34375 -1.421875 0.34375q-1.53125 0 -2.265625 -0.78125q-0.734375 -0.796875 -0.734375 -2.546875l0 -5.1875l2.265625 0zm10.09375 -2.46875l0 2.46875l1.65625 0l0 1.53125l-1.65625 0l0 4.140625q0 0.515625 0.1875 0.71875q0.1875 0.1875 0.765625 0.1875q0.203125 0 0.375 -0.015625q0.1875 -0.015625 0.328125 -0.046875l0 1.78125q-0.28125 0.046875 -0.625 0.0625q-0.34375 0.015625 -0.6875 0.015625q-1.46875 0 -2.046875 -0.5q-0.578125 -0.515625 -0.578125 -1.421875l0 -4.921875l-1.375 0l0 -1.53125l1.375 0l0 -2.46875l2.28125 0zm7.4140625 2.25q1.75 0 2.75 1.234375q1.0 1.234375 1.0 3.21875q0 1.828125 -0.984375 3.0625q-0.984375 1.21875 -2.640625 1.21875q-0.765625 0 -1.421875 -0.328125q-0.65625 -0.328125 -1.0625 -0.9375l-0.03125 0l0 3.953125l-2.265625 0l0 -11.203125l2.15625 0l0 1.0625l0.03125 0q0.40625 -0.65625 1.03125 -0.96875q0.625 -0.3125 1.4375 -0.3125zm-2.46875 4.390625q0 1.1875 0.5 1.90625q0.515625 0.71875 1.484375 0.71875q0.9375 0 1.453125 -0.6875q0.515625 -0.6875 0.515625 -1.9375q0 -1.1875 -0.515625 -1.921875q-0.5 -0.75 -1.484375 -0.75q-0.9375 0 -1.453125 0.703125q-0.5 0.703125 -0.5 1.96875zm9.8515625 -4.171875l0 4.75q0 0.9375 0.328125 1.453125q0.328125 0.5 1.125 0.5q0.9375 0 1.34375 -0.5625q0.421875 -0.5625 0.421875 -1.71875l0 -4.421875l2.265625 0l0 8.28125l-2.15625 0l0 -1.15625l-0.046875 0q-0.4375 0.6875 -1.125 1.046875q-0.671875 0.34375 -1.421875 0.34375q-1.53125 0 -2.265625 -0.78125q-0.734375 -0.796875 -0.734375 -2.546875l0 -5.1875l2.265625 0zm10.09375 -2.46875l0 2.46875l1.65625 0l0 1.53125l-1.65625 0l0 4.140625q0 0.515625 0.1875 0.71875q0.1875 0.1875 0.765625 0.1875q0.203125 0 0.375 -0.015625q0.1875 -0.015625 0.328125 -0.046875l0 1.78125q-0.28125 0.046875 -0.625 0.0625q-0.34375 0.015625 -0.6875 0.015625q-1.46875 0 -2.046875 -0.5q-0.578125 -0.515625 -0.578125 -1.421875l0 -4.921875l-1.375 0l0 -1.53125l1.375 0l0 -2.46875l2.28125 0z" fill-rule="nonzero"/><path fill="#000000" fill-opacity="0.0" d="m572.76904 355.19946l-552.62994 0" fill-rule="evenodd"/><path stroke="#000000" stroke-width="1.0" stroke-linejoin="round" stroke-linecap="butt" d="m572.76904 355.19946l-552.62994 0" fill-rule="evenodd"/><path fill="#000000" fill-opacity="0.0" d="m42.67979 373.31497l447.14963 0l0 54.929108l-447.14963 0z" fill-rule="evenodd"/><path fill="#000000" d="m58.289165 389.53748l8.734371 14.046875l0.046875 0l0 -14.046875l4.3125 0l0 20.9375l-4.59375 0l-8.718746 -14.015625l-0.0625 0l0 14.015625l-4.3125 0l0 -20.9375l4.59375 0zm24.082073 5.375q3.5625 0 5.703125 2.203125q2.15625 2.1875 2.15625 5.796875q0 3.625 -2.171875 5.8125q-2.171875 2.171875 -5.6875 2.171875q-3.53125 0 -5.6875 -2.1875q-2.15625 -2.203125 -2.15625 -5.796875q0 -3.59375 2.125 -5.796875q2.125 -2.203125 5.71875 -2.203125zm-3.671875 8.0q0 2.390625 0.984375 3.625q0.984375 1.21875 2.6875 1.21875q1.765625 0 2.71875 -1.265625q0.96875 -1.265625 0.96875 -3.578125q0 -2.265625 -0.9375 -3.5625q-0.921875 -1.3125 -2.78125 -1.3125q-1.671875 0 -2.65625 1.21875q-0.984375 1.203125 -0.984375 3.65625zm19.49292 -12.140625l0 4.53125l3.046875 0l0 2.796875l-3.046875 0l0 7.609375q0 0.921875 0.34375 1.296875q0.359375 0.359375 1.421875 0.359375q0.359375 0 0.6875 -0.03125q0.328125 -0.03125 0.59375 -0.078125l0 3.25q-0.515625 0.078125 -1.15625 0.109375q-0.625 0.03125 -1.25 0.03125q-2.703125 0 -3.765625 -0.921875q-1.046875 -0.921875 -1.046875 -2.59375l0 -9.03125l-2.515625 0l0 -2.796875l2.515625 0l0 -4.53125l4.171875 0zm12.012497 4.140625q3.375 0 5.0 1.109375q1.640625 1.09375 1.640625 3.09375l0 8.140625q0 0.90625 0.125 1.828125q0.125 0.921875 0.40625 1.390625l-4.21875 0q-0.109375 -0.34375 -0.1875 -0.703125q-0.078125 -0.375 -0.109375 -0.75q-0.875 0.90625 -2.171875 1.390625q-1.296875 0.484375 -2.9375 0.484375q-2.34375 0 -3.75 -1.1875q-1.40625 -1.1875 -1.40625 -3.375q0 -2.125 1.3125 -3.234375q1.328125 -1.125 4.8125 -1.515625q2.421875 -0.234375 3.1875 -0.59375q0.78125 -0.375 0.78125 -1.265625q0 -1.015625 -0.59375 -1.515625q-0.59375 -0.515625 -2.09375 -0.515625q-1.28125 0 -1.96875 0.546875q-0.6875 0.546875 -0.796875 1.734375l-4.171875 0q0.171875 -2.484375 2.046875 -3.765625q1.890625 -1.296875 5.09375 -1.296875zm-3.453125 11.25q0 0.90625 0.609375 1.421875q0.625 0.515625 1.953125 0.515625q1.671875 0 2.515625 -0.875q0.859375 -0.875 0.859375 -2.546875l0 -1.625q-0.375 0.296875 -0.984375 0.453125q-0.609375 0.15625 -2.203125 0.375q-1.40625 0.1875 -2.078125 0.75q-0.671875 0.546875 -0.671875 1.53125zm18.606384 -15.390625l0 4.53125l3.0468826 0l0 2.796875l-3.0468826 0l0 7.609375q0 0.921875 0.34375 1.296875q0.359375 0.359375 1.421875 0.359375q0.359375 0 0.6875 -0.03125q0.32813263 -0.03125 0.5937576 -0.078125l0 3.25q-0.5156326 0.078125 -1.1562576 0.109375q-0.625 0.03125 -1.25 0.03125q-2.703125 0 -3.765625 -0.921875q-1.046875 -0.921875 -1.046875 -2.59375l0 -9.03125l-2.515625 0l0 -2.796875l2.515625 0l0 -4.53125l4.171875 0zm9.34063 -1.234375l0 3.421875l-4.171875 0l0 -3.421875l4.171875 0zm0 5.765625l0 15.171875l-4.171875 0l0 -15.171875l4.171875 0zm10.639282 -0.390625q3.5625 0 5.703125 2.203125q2.15625 2.1875 2.15625 5.796875q0 3.625 -2.171875 5.8125q-2.171875 2.171875 -5.6875 2.171875q-3.53125 0 -5.6875 -2.1875q-2.15625 -2.203125 -2.15625 -5.796875q0 -3.59375 2.125 -5.796875q2.125 -2.203125 5.71875 -2.203125zm-3.671875 8.0q0 2.390625 0.984375 3.625q0.984375 1.21875 2.6875 1.21875q1.765625 0 2.71875 -1.265625q0.96875 -1.265625 0.96875 -3.578125q0 -2.265625 -0.9375 -3.5625q-0.921875 -1.3125 -2.78125 -1.3125q-1.671875 0 -2.65625 1.21875q-0.984375 1.203125 -0.984375 3.65625zm22.914795 -8.0q2.90625 0 4.21875 1.46875q1.3125 1.46875 1.3125 4.609375l0 9.484375l-4.171875 0l0 -8.6875q0 -1.78125 -0.609375 -2.6875q-0.609375 -0.90625 -2.046875 -0.90625q-1.734375 0 -2.484375 1.03125q-0.75 1.03125 -0.75 3.15625l0 8.09375l-4.15625 0l0 -15.171875l3.953125 0l0 2.125l0.078125 0q0.765625 -1.21875 1.984375 -1.859375q1.21875 -0.65625 2.671875 -0.65625zm13.494308 0.671875l0 4.515625l-4.59375 0l0 -4.515625l4.59375 0zm0 10.375l0 4.515625l-4.59375 0l0 -4.515625l4.59375 0z" fill-rule="nonzero"/><path fill="#434343" d="m57.02887 434.6273l67.08662 0l0 67.08661l-67.08662 0z" fill-rule="evenodd"/><path fill="#ffffff" d="m71.971275 461.74686q0.609375 0 1.0625 0.4375q0.453125 0.4375 0.453125 1.078125q0 0.65625 -0.453125 1.078125q-0.453125 0.421875 -1.0625 0.421875q-0.625 0 -1.078125 -0.421875q-0.4375 -0.421875 -0.4375 -1.078125q0 -0.625 0.4375 -1.0625q0.453125 -0.453125 1.078125 -0.453125zm-2.953125 5.78125l-0.4375 0l-0.046875 -1.015625q2.328125 -0.265625 4.328125 -0.65625l-1.796875 6.65625q-0.140625 0.46875 -0.140625 0.765625q0 0.078125 0.015625 0.078125q0.28125 0 1.234375 -1.4375l0.828125 0.578125q-1.640625 2.828125 -3.328125 2.828125q-0.765625 0 -1.203125 -0.4375q-0.421875 -0.453125 -0.421875 -1.21875q0 -0.921875 0.265625 -1.359375l0.96875 -3.4375q0.21875 -0.796875 0.21875 -1.109375q0 -0.234375 -0.484375 -0.234375z" fill-rule="nonzero"/><path fill="#ffffff" d="m90.79223 475.30936q-1.046875 0 -1.5 -0.453125q-0.453125 -0.453125 -0.453125 -1.09375l0 -0.65625q0 -0.625 0.453125 -1.078125q0.453125 -0.46875 1.5 -0.46875q1.046875 0 1.5 0.46875q0.46875 0.453125 0.46875 1.078125l0 0.65625q0 0.640625 -0.46875 1.09375q-0.453125 0.453125 -1.5 0.453125zm0 -6.328125q-1.046875 0 -1.5 -0.453125q-0.453125 -0.453125 -0.453125 -1.09375l0 -0.65625q0 -0.625 0.453125 -1.078125q0.453125 -0.46875 1.5 -0.46875q1.046875 0 1.5 0.46875q0.46875 0.453125 0.46875 1.078125l0 0.65625q0 0.640625 -0.46875 1.09375q-0.453125 0.453125 -1.5 0.453125z" fill-rule="nonzero"/><path fill="#ffffff" d="m109.164116 467.74686q0 -0.21875 -0.5 -0.21875l-0.421875 0l-0.046875 -1.015625q2.3125 -0.265625 4.3125 -0.65625l-2.09375 8.125q-0.640625 2.515625 -1.65625 3.765625q-1.0 1.25 -2.71875 1.25q-0.9375 0 -1.546875 -0.5q-0.625 -0.484375 -0.625 -1.28125q0 -0.59375 0.34375 -0.96875q0.34375 -0.359375 0.890625 -0.359375q0.53125 0 0.875 0.3125q0.328125 0.328125 0.328125 0.828125q0 0.4375 -0.15625 0.609375q-0.171875 0.1875 -0.171875 0.234375q-0.078125 0 0.09375 -0.078125q0.3125 0 0.546875 -0.421875q0.234375 -0.40625 0.5 -1.453125l1.984375 -7.75l0.0625 -0.421875zm2.46875 -6.0q0.609375 0 1.0625 0.4375q0.453125 0.4375 0.453125 1.078125q0 0.65625 -0.453125 1.078125q-0.453125 0.421875 -1.0625 0.421875q-0.625 0 -1.078125 -0.421875q-0.453125 -0.421875 -0.453125 -1.078125q0 -0.640625 0.453125 -1.078125q0.453125 -0.4375 1.078125 -0.4375z" fill-rule="nonzero"/><path fill="#000000" fill-opacity="0.0" d="m131.16937 434.6273l417.10236 0l0 67.08661l-417.10236 0z" fill-rule="evenodd"/><path fill="#000000" d="m141.65375 468.05435l0 -2.84375l11.421875 0l0 2.84375l-11.421875 0zm0 5.515625l0 -2.828125l11.421875 0l0 2.828125l-11.421875 0zm27.862427 3.140625l4.640625 -6.28125l-4.328125 -6.109375l4.0625 0l1.3125 2.0l1.015625 1.609375l0.1875 0l1.03125 -1.609375l1.34375 -2.0l3.71875 0l-4.3125 5.90625l4.625 6.484375l-4.078125 0l-1.5625 -2.328125l-1.078125 -1.65625l-0.1875 0l-1.0625 1.65625l-1.578125 2.328125l-3.75 0zm18.243713 3.3125l0 -21.546875l7.78125 0l0 2.375l-4.921875 0l0 16.796875l4.921875 0l0 2.375l-7.78125 0z" fill-rule="nonzero"/><path fill="#000000" d="m202.84735 459.5231q0.8125 0 1.390625 0.5625q0.578125 0.5625 0.578125 1.390625q0 0.828125 -0.578125 1.390625q-0.578125 0.5625 -1.390625 0.5625q-0.828125 0 -1.390625 -0.5625q-0.5625 -0.5625 -0.5625 -1.390625q0 -0.828125 0.5625 -1.390625q0.5625 -0.5625 1.390625 -0.5625zm-3.78125 7.453125l-0.59375 0l-0.046875 -1.3125q3.0 -0.359375 5.59375 -0.875l-2.328125 8.609375q-0.171875 0.578125 -0.171875 0.96875q0 0.078125 0.015625 0.078125q0.34375 0 1.5625 -1.84375l1.09375 0.734375q-2.109375 3.671875 -4.28125 3.671875q-1.0 0 -1.5625 -0.578125q-0.546875 -0.578125 -0.546875 -1.5625q0 -1.1875 0.34375 -1.75l1.21875 -4.421875q0.3125 -1.03125 0.3125 -1.4375q0 -0.28125 -0.609375 -0.28125z" fill-rule="nonzero"/><path fill="#000000" d="m215.47235 458.47623l0 21.546875l-7.78125 0l0 -2.375l4.921875 0l0 -16.796875l-4.921875 0l0 -2.375l7.78125 0zm24.440552 16.75l0 -4.421875l-4.171875 0l0 -2.828125l4.171875 0l0 -4.421875l3.078125 0l0 4.421875l4.171875 0l0 2.828125l-4.171875 0l0 4.421875l-3.078125 0zm23.690552 1.484375l4.640625 -6.28125l-4.328125 -6.109375l4.0625 0l1.3125 2.0l1.015625 1.609375l0.1875 0l1.03125 -1.609375l1.34375 -2.0l3.71875 0l-4.3125 5.90625l4.625 6.484375l-4.078125 0l-1.5625 -2.328125l-1.078125 -1.65625l-0.1875 0l-1.0625 1.65625l-1.578125 2.328125l-3.75 0zm18.243713 3.3125l0 -21.546875l7.78125 0l0 2.375l-4.921875 0l0 16.796875l4.921875 0l0 2.375l-7.78125 0z" fill-rule="nonzero"/><path fill="#000000" d="m296.93463 459.5231q0.8125 0 1.390625 0.5625q0.578125 0.5625 0.578125 1.390625q0 0.828125 -0.578125 1.390625q-0.578125 0.5625 -1.390625 0.5625q-0.828125 0 -1.390625 -0.5625q-0.5625 -0.5625 -0.5625 -1.390625q0 -0.828125 0.5625 -1.390625q0.5625 -0.5625 1.390625 -0.5625zm-3.78125 7.453125l-0.59375 0l-0.046875 -1.3125q3.0 -0.359375 5.59375 -0.875l-2.328125 8.609375q-0.171875 0.578125 -0.171875 0.96875q0 0.078125 0.015625 0.078125q0.34375 0 1.5625 -1.84375l1.09375 0.734375q-2.109375 3.671875 -4.28125 3.671875q-1.0 0 -1.5625 -0.578125q-0.546875 -0.578125 -0.546875 -1.5625q0 -1.1875 0.34375 -1.75l1.21875 -4.421875q0.3125 -1.03125 0.3125 -1.4375q0 -0.28125 -0.609375 -0.28125z" fill-rule="nonzero"/><path fill="#000000" d="m305.20026 475.22623l0 -4.421875l-4.171875 0l0 -2.828125l4.171875 0l0 -4.421875l3.078125 0l0 4.421875l4.171875 0l0 2.828125l-4.171875 0l0 4.421875l-3.078125 0zm10.993713 1.484375l0 -2.90625l4.515625 0l0 -11.234375l-0.21875 0l-3.40625 4.46875l-2.296875 -1.796875l4.0 -5.28125l5.53125 0l0 13.84375l3.546875 0l0 2.90625l-11.671875 0zm22.165588 -18.234375l0 21.546875l-7.78125 0l0 -2.375l4.921875 0l0 -16.796875l-4.921875 0l0 -2.375l7.78125 0zm24.440552 16.75l0 -4.421875l-4.171875 0l0 -2.828125l4.171875 0l0 -4.421875l3.078125 0l0 4.421875l4.171875 0l0 2.828125l-4.171875 0l0 4.421875l-3.078125 0zm25.596802 1.65625q-0.921875 0 -1.34375 -0.375q-0.40625 -0.390625 -0.40625 -0.921875l0 -1.109375q0 -0.53125 0.40625 -0.90625q0.421875 -0.390625 1.34375 -0.390625q0.859375 0 1.28125 0.390625q0.4375 0.375 0.4375 0.90625l0 1.109375q0 0.53125 -0.4375 0.921875q-0.421875 0.375 -1.28125 0.375zm4.75 0q-0.890625 0 -1.328125 -0.375q-0.421875 -0.390625 -0.421875 -0.921875l0 -1.109375q0 -0.53125 0.421875 -0.90625q0.4375 -0.390625 1.328125 -0.390625q0.890625 0 1.3125 0.390625q0.4375 0.375 0.4375 0.90625l0 1.109375q0 0.53125 -0.4375 0.921875q-0.421875 0.375 -1.3125 0.375zm4.75 0q-0.859375 0 -1.296875 -0.375q-0.4375 -0.390625 -0.4375 -0.921875l0 -1.109375q0 -0.53125 0.4375 -0.90625q0.4375 -0.390625 1.296875 -0.390625q0.890625 0 1.3125 0.390625q0.4375 0.375 0.4375 0.90625l0 1.109375q0 0.53125 -0.4375 0.921875q-0.421875 0.375 -1.3125 0.375zm22.503052 -1.65625l0 -4.421875l-4.171875 0l0 -2.828125l4.171875 0l0 -4.421875l3.078125 0l0 4.421875l4.171875 0l0 2.828125l-4.171875 0l0 4.421875l-3.078125 0zm23.690552 1.484375l4.640625 -6.28125l-4.328125 -6.109375l4.0625 0l1.3125 2.0l1.015625 1.609375l0.1875 0l1.03125 -1.609375l1.34375 -2.0l3.71875 0l-4.3125 5.90625l4.625 6.484375l-4.078125 0l-1.5625 -2.328125l-1.078125 -1.65625l-0.1875 0l-1.0625 1.65625l-1.578125 2.328125l-3.75 0zm18.243713 3.3125l0 -21.546875l7.78125 0l0 2.375l-4.921875 0l0 16.796875l4.921875 0l0 2.375l-7.78125 0z" fill-rule="nonzero"/><path fill="#000000" d="m478.38416 467.22623q0 -0.25 -0.640625 -0.25l-0.5625 0l-0.0625 -1.3125q2.984375 -0.359375 5.578125 -0.875l-2.6875 10.484375q-0.8125 3.234375 -2.125 4.84375q-1.3125 1.609375 -3.53125 1.609375q-1.203125 0 -2.0 -0.640625q-0.796875 -0.625 -0.796875 -1.65625q0 -0.78125 0.453125 -1.25q0.4375 -0.453125 1.15625 -0.453125q0.65625 0 1.109375 0.40625q0.4375 0.421875 0.4375 1.0625q0 0.546875 -0.203125 0.78125q-0.21875 0.234375 -0.21875 0.296875q-0.109375 0 0.109375 -0.109375q0.375 0 0.6875 -0.53125q0.3125 -0.53125 0.640625 -1.875l2.5625 -9.96875l0.09375 -0.5625zm3.1875 -7.703125q0.796875 0 1.375 0.5625q0.578125 0.5625 0.578125 1.390625q0 0.828125 -0.578125 1.390625q-0.578125 0.5625 -1.375 0.5625q-0.84375 0 -1.421875 -0.5625q-0.578125 -0.5625 -0.578125 -1.390625q0 -0.828125 0.578125 -1.390625q0.578125 -0.5625 1.421875 -0.5625z" fill-rule="nonzero"/><path fill="#000000" d="m486.80994 471.10123l0 -3.421875l7.6875 0l0 3.421875l-7.6875 0zm13.290588 5.609375l0 -2.90625l4.515625 0l0 -11.234375l-0.21875 0l-3.40625 4.46875l-2.296875 -1.796875l4.0 -5.28125l5.53125 0l0 13.84375l3.546875 0l0 2.90625l-11.671875 0zm22.165588 -18.234375l0 21.546875l-7.78125 0l0 -2.375l4.921875 0l0 -16.796875l-4.921875 0l0 -2.375l7.78125 0z" fill-rule="nonzero"/></g></svg>