<svg version="1.1" viewBox="0.0 0.0 894.7217847769028 542.0551181102362" fill="none" stroke="none" stroke-linecap="square" stroke-miterlimit="10" xmlns:xlink="http://www.w3.org/1999/xlink" xmlns="http://www.w3.org/2000/svg"><clipPath id="p.0"><path d="m0 0l894.7218 0l0 542.0551l-894.7218 0l0 -542.0551z" clip-rule="nonzero"/></clipPath><g clip-path="url(#p.0)"><path fill="#ffffff" d="m0 0l894.7218 0l0 542.0551l-894.7218 0z" fill-rule="evenodd"/><path fill="#cccccc" d="m559.0803 303.18698l-7.085449 -26.462677l8.393677 4.8425293l62.203552 -107.56883l16.787415 9.685043l-62.203552 107.56882l8.393677 4.8425293z" fill-rule="evenodd"/><path fill="#cccccc" d="m334.9858 303.18698l7.085449 -26.462677l-8.393707 4.8425293l-62.203552 -107.56883l-16.787415 9.685043l62.203552 107.56882l-8.393677 4.8425293z" fill-rule="evenodd"/><path fill="#cccccc" d="m443.08542 304.83932l19.373047 -19.385834l-9.692902 0l-0.081726074 -124.236206l-19.385834 0l0.081726074 124.236206l-9.692902 0z" fill-rule="evenodd"/><path fill="#cccccc" d="m31.480314 122.115486l247.1181 0l0 79.43307l-247.1181 0z" fill-rule="evenodd"/><path fill="#cc9f26" d="m40.23622 128.28871l67.08662 0l0 67.086624l-67.08662 0z" fill-rule="evenodd"/><path fill="#ffffff" d="m62.58264 168.97076q-2.609375 0 -3.859375 -1.765625q-1.234375 -1.78125 -1.234375 -4.96875q0 -3.1875 1.234375 -4.953125q1.25 -1.78125 3.859375 -1.78125q2.609375 0 3.84375 1.78125q1.25 1.765625 1.25 4.953125q0 3.1875 -1.25 4.96875q-1.234375 1.765625 -3.84375 1.765625zm0 -2.203125q1.25 0 1.734375 -0.875q0.5 -0.875 0.5 -2.4375l0 -2.421875q0 -1.578125 -0.5 -2.453125q-0.484375 -0.875 -1.734375 -0.875q-1.25 0 -1.75 0.875q-0.484375 0.875 -0.484375 2.453125l0 2.421875q0 1.5625 0.484375 2.4375q0.5 0.875 1.75 0.875zm0 -3.421875q-0.65625 0 -0.90625 -0.265625q-0.25 -0.265625 -0.25 -0.640625l0 -0.40625q0 -0.375 0.25 -0.625q0.25 -0.265625 0.90625 -0.265625q0.65625 0 0.90625 0.265625q0.25 0.25 0.25 0.625l0 0.40625q0 0.375 -0.25 0.640625q-0.25 0.265625 -0.90625 0.265625zm11.193756 5.625q-1.046875 0 -1.5 -0.453125q-0.453125 -0.453125 -0.453125 -1.09375l0 -0.65625q0 -0.625 0.453125 -1.078125q0.453125 -0.46875 1.5 -0.46875q1.046875 0 1.5 0.46875q0.46875 0.453125 0.46875 1.078125l0 0.65625q0 0.640625 -0.46875 1.09375q-0.453125 0.453125 -1.5 0.453125zm0 -6.328125q-1.046875 0 -1.5 -0.453125q-0.453125 -0.453125 -0.453125 -1.09375l0 -0.65625q0 -0.625 0.453125 -1.078125q0.453125 -0.46875 1.5 -0.46875q1.046875 0 1.5 0.46875q0.46875 0.453125 0.46875 1.078125l0 0.65625q0 0.640625 -0.46875 1.09375q-0.453125 0.453125 -1.5 0.453125zm7.350006 6.109375l0 -2.25l3.515625 0l0 -8.734375l-0.171875 0l-2.65625 3.46875l-1.78125 -1.40625l3.109375 -4.09375l4.296875 0l0 10.765625l2.765625 0l0 2.25l-9.078125 0z" fill-rule="nonzero"/><path fill="#cc9f26" d="m121.49606 128.28871l67.08661 0l0 67.086624l-67.08661 0z" fill-rule="evenodd"/><path fill="#ffffff" d="m143.84248 168.97076q-2.609375 0 -3.859375 -1.765625q-1.234375 -1.78125 -1.234375 -4.96875q0 -3.1875 1.234375 -4.953125q1.25 -1.78125 3.859375 -1.78125q2.609375 0 3.84375 1.78125q1.25 1.765625 1.25 4.953125q0 3.1875 -1.25 4.96875q-1.234375 1.765625 -3.84375 1.765625zm0 -2.203125q1.25 0 1.734375 -0.875q0.5 -0.875 0.5 -2.4375l0 -2.421875q0 -1.578125 -0.5 -2.453125q-0.484375 -0.875 -1.734375 -0.875q-1.25 0 -1.75 0.875q-0.484375 0.875 -0.484375 2.453125l0 2.421875q0 1.5625 0.484375 2.4375q0.5 0.875 1.75 0.875zm0 -3.421875q-0.65625 0 -0.90625 -0.265625q-0.25 -0.265625 -0.25 -0.640625l0 -0.40625q0 -0.375 0.25 -0.625q0.25 -0.265625 0.90625 -0.265625q0.65625 0 0.90625 0.265625q0.25 0.25 0.25 0.625l0 0.40625q0 0.375 -0.25 0.640625q-0.25 0.265625 -0.90625 0.265625zm11.193756 5.625q-1.046875 0 -1.5 -0.453125q-0.453125 -0.453125 -0.453125 -1.09375l0 -0.65625q0 -0.625 0.453125 -1.078125q0.453125 -0.46875 1.5 -0.46875q1.046875 0 1.5 0.46875q0.46875 0.453125 0.46875 1.078125l0 0.65625q0 0.640625 -0.46875 1.09375q-0.453125 0.453125 -1.5 0.453125zm0 -6.328125q-1.046875 0 -1.5 -0.453125q-0.453125 -0.453125 -0.453125 -1.09375l0 -0.65625q0 -0.625 0.453125 -1.078125q0.453125 -0.46875 1.5 -0.46875q1.046875 0 1.5 0.46875q0.46875 0.453125 0.46875 1.078125l0 0.65625q0 0.640625 -0.46875 1.09375q-0.453125 0.453125 -1.5 0.453125zm15.959381 6.109375l-9.375 0l0 -2.5625l4.109375 -3.40625q1.0625 -0.921875 1.53125 -1.59375q0.46875 -0.671875 0.46875 -1.40625l0 -0.1875q0 -0.828125 -0.484375 -1.25q-0.484375 -0.421875 -1.3125 -0.421875q-0.9375 0 -1.4375 0.546875q-0.5 0.546875 -0.703125 1.28125l-2.453125 -0.921875q0.234375 -0.671875 0.625 -1.28125q0.390625 -0.609375 0.984375 -1.046875q0.609375 -0.453125 1.40625 -0.71875q0.8125 -0.28125 1.859375 -0.28125q1.0625 0 1.90625 0.296875q0.84375 0.296875 1.421875 0.828125q0.578125 0.515625 0.875 1.234375q0.296875 0.71875 0.296875 1.5625q0 0.828125 -0.28125 1.515625q-0.265625 0.671875 -0.75 1.265625q-0.46875 0.59375 -1.109375 1.15625q-0.640625 0.5625 -1.375 1.125l-2.484375 1.921875l6.28125 0l0 2.34375z" fill-rule="nonzero"/><path fill="#cc9f26" d="m202.7559 128.28871l67.086624 0l0 67.086624l-67.086624 0z" fill-rule="evenodd"/><path fill="#ffffff" d="m225.10233 168.97076q-2.609375 0 -3.859375 -1.765625q-1.234375 -1.78125 -1.234375 -4.96875q0 -3.1875 1.234375 -4.953125q1.25 -1.78125 3.859375 -1.78125q2.609375 0 3.84375 1.78125q1.25 1.765625 1.25 4.953125q0 3.1875 -1.25 4.96875q-1.234375 1.765625 -3.84375 1.765625zm0 -2.203125q1.25 0 1.734375 -0.875q0.5 -0.875 0.5 -2.4375l0 -2.421875q0 -1.578125 -0.5 -2.453125q-0.484375 -0.875 -1.734375 -0.875q-1.25 0 -1.75 0.875q-0.484375 0.875 -0.484375 2.453125l0 2.421875q0 1.5625 0.484375 2.4375q0.5 0.875 1.75 0.875zm0 -3.421875q-0.65625 0 -0.90625 -0.265625q-0.25 -0.265625 -0.25 -0.640625l0 -0.40625q0 -0.375 0.25 -0.625q0.25 -0.265625 0.90625 -0.265625q0.65625 0 0.90625 0.265625q0.25 0.25 0.25 0.625l0 0.40625q0 0.375 -0.25 0.640625q-0.25 0.265625 -0.90625 0.265625zm11.193756 5.625q-1.046875 0 -1.5 -0.453125q-0.453125 -0.453125 -0.453125 -1.09375l0 -0.65625q0 -0.625 0.453125 -1.078125q0.453125 -0.46875 1.5 -0.46875q1.046875 0 1.5 0.46875q0.46875 0.453125 0.46875 1.078125l0 0.65625q0 0.640625 -0.46875 1.09375q-0.453125 0.453125 -1.5 0.453125zm0 -6.328125q-1.046875 0 -1.5 -0.453125q-0.453125 -0.453125 -0.453125 -1.09375l0 -0.65625q0 -0.625 0.453125 -1.078125q0.453125 -0.46875 1.5 -0.46875q1.046875 0 1.5 0.46875q0.46875 0.453125 0.46875 1.078125l0 0.65625q0 0.640625 -0.46875 1.09375q-0.453125 0.453125 -1.5 0.453125zm10.693756 -1.765625q1.078125 0 1.5625 -0.40625q0.5 -0.40625 0.5 -1.015625l0 -0.125q0 -0.703125 -0.46875 -1.125q-0.46875 -0.421875 -1.359375 -0.421875q-0.796875 0 -1.5 0.40625q-0.6875 0.390625 -1.171875 1.140625l-1.78125 -1.640625q0.375 -0.484375 0.8125 -0.875q0.453125 -0.40625 1.0 -0.6875q0.546875 -0.296875 1.21875 -0.453125q0.6875 -0.171875 1.546875 -0.171875q1.0625 0 1.921875 0.25q0.859375 0.234375 1.453125 0.703125q0.609375 0.453125 0.9375 1.09375q0.34375 0.625 0.34375 1.40625q0 0.625 -0.203125 1.125q-0.203125 0.5 -0.546875 0.875q-0.34375 0.375 -0.8125 0.609375q-0.453125 0.234375 -0.96875 0.328125l0 0.109375q1.1875 0.203125 1.984375 1.0q0.796875 0.78125 0.796875 2.125q0 0.875 -0.375 1.59375q-0.359375 0.703125 -1.03125 1.21875q-0.65625 0.5 -1.59375 0.765625q-0.9375 0.265625 -2.09375 0.265625q-1.0 0 -1.75 -0.203125q-0.75 -0.203125 -1.328125 -0.546875q-0.578125 -0.34375 -1.0 -0.796875q-0.421875 -0.46875 -0.734375 -0.953125l2.0625 -1.59375q0.4375 0.796875 1.078125 1.3125q0.640625 0.515625 1.71875 0.515625q1.015625 0 1.546875 -0.46875q0.546875 -0.46875 0.546875 -1.296875l0 -0.125q0 -0.796875 -0.625 -1.203125q-0.609375 -0.40625 -1.703125 -0.40625l-1.21875 0l0 -2.328125l1.234375 0z" fill-rule="nonzero"/><path fill="#cccccc" d="m319.48032 122.115486l247.11813 0l0 79.43307l-247.11813 0z" fill-rule="evenodd"/><path fill="#cc9f26" d="m328.2362 128.28871l67.08664 0l0 67.086624l-67.08664 0z" fill-rule="evenodd"/><path fill="#ffffff" d="m350.08264 160.87701q1.078125 0 1.5625 -0.40625q0.5 -0.40625 0.5 -1.015625l0 -0.125q0 -0.703125 -0.46875 -1.125q-0.46875 -0.421875 -1.359375 -0.421875q-0.796875 0 -1.5 0.40625q-0.6875 0.390625 -1.171875 1.140625l-1.78125 -1.640625q0.375 -0.484375 0.8125 -0.875q0.453125 -0.40625 1.0 -0.6875q0.546875 -0.296875 1.21875 -0.453125q0.6875 -0.171875 1.546875 -0.171875q1.0625 0 1.921875 0.25q0.859375 0.234375 1.453125 0.703125q0.609375 0.453125 0.9375 1.09375q0.34375 0.625 0.34375 1.40625q0 0.625 -0.203125 1.125q-0.203125 0.5 -0.546875 0.875q-0.34375 0.375 -0.8125 0.609375q-0.453125 0.234375 -0.96875 0.328125l0 0.109375q1.1875 0.203125 1.984375 1.0q0.796875 0.78125 0.796875 2.125q0 0.875 -0.375 1.59375q-0.359375 0.703125 -1.03125 1.21875q-0.65625 0.5 -1.59375 0.765625q-0.9375 0.265625 -2.09375 0.265625q-1.0 0 -1.75 -0.203125q-0.75 -0.203125 -1.328125 -0.546875q-0.578125 -0.34375 -1.0 -0.796875q-0.421875 -0.46875 -0.734375 -0.953125l2.0625 -1.59375q0.4375 0.796875 1.078125 1.3125q0.640625 0.515625 1.71875 0.515625q1.015625 0 1.546875 -0.46875q0.546875 -0.46875 0.546875 -1.296875l0 -0.125q0 -0.796875 -0.625 -1.203125q-0.609375 -0.40625 -1.703125 -0.40625l-1.21875 0l0 -2.328125l1.234375 0zm11.693756 8.09375q-1.046875 0 -1.5 -0.453125q-0.453125 -0.453125 -0.453125 -1.09375l0 -0.65625q0 -0.625 0.453125 -1.078125q0.453125 -0.46875 1.5 -0.46875q1.046875 0 1.5 0.46875q0.46875 0.453125 0.46875 1.078125l0 0.65625q0 0.640625 -0.46875 1.09375q-0.453125 0.453125 -1.5 0.453125zm0 -6.328125q-1.046875 0 -1.5 -0.453125q-0.453125 -0.453125 -0.453125 -1.09375l0 -0.65625q0 -0.625 0.453125 -1.078125q0.453125 -0.46875 1.5 -0.46875q1.046875 0 1.5 0.46875q0.46875 0.453125 0.46875 1.078125l0 0.65625q0 0.640625 -0.46875 1.09375q-0.453125 0.453125 -1.5 0.453125zm11.928131 6.109375l0 -2.5l-5.859375 0l0 -2.390625l5.1875 -8.125l3.359375 0l0 8.34375l1.671875 0l0 2.171875l-1.671875 0l0 2.5l-2.6875 0zm-3.609375 -4.671875l3.609375 0l0 -5.453125l-0.171875 0l-3.4375 5.453125z" fill-rule="nonzero"/><path fill="#cc9f26" d="m409.49606 128.28871l67.08661 0l0 67.086624l-67.08661 0z" fill-rule="evenodd"/><path fill="#ffffff" d="m431.3425 160.87701q1.078125 0 1.5625 -0.40625q0.5 -0.40625 0.5 -1.015625l0 -0.125q0 -0.703125 -0.46875 -1.125q-0.46875 -0.421875 -1.359375 -0.421875q-0.796875 0 -1.5 0.40625q-0.6875 0.390625 -1.171875 1.140625l-1.78125 -1.640625q0.375 -0.484375 0.8125 -0.875q0.453125 -0.40625 1.0 -0.6875q0.546875 -0.296875 1.21875 -0.453125q0.6875 -0.171875 1.546875 -0.171875q1.0625 0 1.921875 0.25q0.859375 0.234375 1.453125 0.703125q0.609375 0.453125 0.9375 1.09375q0.34375 0.625 0.34375 1.40625q0 0.625 -0.203125 1.125q-0.203125 0.5 -0.546875 0.875q-0.34375 0.375 -0.8125 0.609375q-0.453125 0.234375 -0.96875 0.328125l0 0.109375q1.1875 0.203125 1.984375 1.0q0.796875 0.78125 0.796875 2.125q0 0.875 -0.375 1.59375q-0.359375 0.703125 -1.03125 1.21875q-0.65625 0.5 -1.59375 0.765625q-0.9375 0.265625 -2.09375 0.265625q-1.0 0 -1.75 -0.203125q-0.75 -0.203125 -1.328125 -0.546875q-0.578125 -0.34375 -1.0 -0.796875q-0.421875 -0.46875 -0.734375 -0.953125l2.0625 -1.59375q0.4375 0.796875 1.078125 1.3125q0.640625 0.515625 1.71875 0.515625q1.015625 0 1.546875 -0.46875q0.546875 -0.46875 0.546875 -1.296875l0 -0.125q0 -0.796875 -0.625 -1.203125q-0.609375 -0.40625 -1.703125 -0.40625l-1.21875 0l0 -2.328125l1.234375 0zm11.693726 8.09375q-1.046875 0 -1.5 -0.453125q-0.45309448 -0.453125 -0.45309448 -1.09375l0 -0.65625q0 -0.625 0.45309448 -1.078125q0.453125 -0.46875 1.5 -0.46875q1.046875 0 1.5 0.46875q0.46875 0.453125 0.46875 1.078125l0 0.65625q0 0.640625 -0.46875 1.09375q-0.453125 0.453125 -1.5 0.453125zm0 -6.328125q-1.046875 0 -1.5 -0.453125q-0.45309448 -0.453125 -0.45309448 -1.09375l0 -0.65625q0 -0.625 0.45309448 -1.078125q0.453125 -0.46875 1.5 -0.46875q1.046875 0 1.5 0.46875q0.46875 0.453125 0.46875 1.078125l0 0.65625q0 0.640625 -0.46875 1.09375q-0.453125 0.453125 -1.5 0.453125zm15.396881 -4.46875l-6.03125 0l-0.296875 4.125l0.171875 0q0.203125 -0.453125 0.453125 -0.828125q0.265625 -0.390625 0.625 -0.65625q0.359375 -0.265625 0.8125 -0.40625q0.46875 -0.15625 1.078125 -0.15625q0.796875 0 1.515625 0.28125q0.71875 0.265625 1.265625 0.796875q0.546875 0.53125 0.859375 1.3125q0.328125 0.78125 0.328125 1.75q0 0.984375 -0.34375 1.828125q-0.328125 0.828125 -0.96875 1.453125q-0.640625 0.609375 -1.59375 0.953125q-0.953125 0.34375 -2.171875 0.34375q-0.953125 0 -1.703125 -0.203125q-0.734375 -0.203125 -1.3125 -0.546875q-0.5625 -0.34375 -0.984375 -0.796875q-0.421875 -0.46875 -0.71875 -0.953125l2.03125 -1.59375q0.234375 0.375 0.484375 0.71875q0.25 0.328125 0.578125 0.578125q0.328125 0.25 0.71875 0.390625q0.40625 0.140625 0.921875 0.140625q1.046875 0 1.578125 -0.5625q0.53125 -0.578125 0.53125 -1.53125l0 -0.15625q0 -0.90625 -0.546875 -1.421875q-0.53125 -0.53125 -1.484375 -0.53125q-0.78125 0 -1.296875 0.3125q-0.515625 0.296875 -0.765625 0.609375l-2.296875 -0.328125l0.484375 -7.359375l8.078125 0l0 2.4375z" fill-rule="nonzero"/><path fill="#cc9f26" d="m490.75592 128.28871l67.08661 0l0 67.086624l-67.08661 0z" fill-rule="evenodd"/><path fill="#ffffff" d="m512.60236 160.87701q1.078125 0 1.5625 -0.40625q0.5 -0.40625 0.5 -1.015625l0 -0.125q0 -0.703125 -0.46875 -1.125q-0.46875 -0.421875 -1.359375 -0.421875q-0.796875 0 -1.5000305 0.40625q-0.6875 0.390625 -1.171875 1.140625l-1.78125 -1.640625q0.375 -0.484375 0.8125 -0.875q0.453125 -0.40625 1.0 -0.6875q0.546875 -0.296875 1.21875 -0.453125q0.6875305 -0.171875 1.5469055 -0.171875q1.0625 0 1.921875 0.25q0.859375 0.234375 1.453125 0.703125q0.609375 0.453125 0.9375 1.09375q0.34375 0.625 0.34375 1.40625q0 0.625 -0.203125 1.125q-0.203125 0.5 -0.546875 0.875q-0.34375 0.375 -0.8125 0.609375q-0.453125 0.234375 -0.96875 0.328125l0 0.109375q1.1875 0.203125 1.984375 1.0q0.796875 0.78125 0.796875 2.125q0 0.875 -0.375 1.59375q-0.359375 0.703125 -1.03125 1.21875q-0.65625 0.5 -1.59375 0.765625q-0.9375 0.265625 -2.09375 0.265625q-1.0000305 0 -1.7500305 -0.203125q-0.75 -0.203125 -1.328125 -0.546875q-0.578125 -0.34375 -1.0 -0.796875q-0.421875 -0.46875 -0.734375 -0.953125l2.0625 -1.59375q0.4375 0.796875 1.078125 1.3125q0.640625 0.515625 1.7187805 0.515625q1.015625 0 1.546875 -0.46875q0.546875 -0.46875 0.546875 -1.296875l0 -0.125q0 -0.796875 -0.625 -1.203125q-0.609375 -0.40625 -1.703125 -0.40625l-1.2187805 0l0 -2.328125l1.2344055 0zm11.693726 8.09375q-1.046875 0 -1.5 -0.453125q-0.453125 -0.453125 -0.453125 -1.09375l0 -0.65625q0 -0.625 0.453125 -1.078125q0.453125 -0.46875 1.5 -0.46875q1.046875 0 1.5 0.46875q0.46875 0.453125 0.46875 1.078125l0 0.65625q0 0.640625 -0.46875 1.09375q-0.453125 0.453125 -1.5 0.453125zm0 -6.328125q-1.046875 0 -1.5 -0.453125q-0.453125 -0.453125 -0.453125 -1.09375l0 -0.65625q0 -0.625 0.453125 -1.078125q0.453125 -0.46875 1.5 -0.46875q1.046875 0 1.5 0.46875q0.46875 0.453125 0.46875 1.078125l0 0.65625q0 0.640625 -0.46875 1.09375q-0.453125 0.453125 -1.5 0.453125zm11.271912 6.328125q-1.171875 0 -2.09375 -0.359375q-0.921875 -0.359375 -1.5625 -1.03125q-0.640625 -0.6875 -0.984375 -1.640625q-0.328125 -0.953125 -0.328125 -2.125q0 -1.375 0.421875 -2.59375q0.4375 -1.21875 1.109375 -2.25q0.6875 -1.046875 1.53125 -1.859375q0.859375 -0.828125 1.703125 -1.375l3.859375 0q-1.21875 0.828125 -2.1875 1.609375q-0.953125 0.765625 -1.671875 1.546875q-0.71875 0.78125 -1.171875 1.609375q-0.453125 0.8125 -0.65625 1.75l0.171875 0.0625q0.15625 -0.375 0.390625 -0.71875q0.25 -0.359375 0.609375 -0.625q0.359375 -0.28125 0.828125 -0.4375q0.484375 -0.171875 1.109375 -0.171875q0.828125 0 1.53125 0.296875q0.71875 0.28125 1.21875 0.8125q0.515625 0.53125 0.8125 1.28125q0.296875 0.734375 0.296875 1.671875q0 0.984375 -0.359375 1.828125q-0.34375 0.84375 -0.984375 1.453125q-0.640625 0.59375 -1.5625 0.9375q-0.90625 0.328125 -2.03125 0.328125zm-0.015625 -2.171875q1.0 0 1.515625 -0.53125q0.53125 -0.53125 0.53125 -1.515625l0 -0.25q0 -0.96875 -0.53125 -1.484375q-0.53125 -0.515625 -1.515625 -0.515625q-0.953125 0 -1.5 0.515625q-0.53125 0.515625 -0.53125 1.484375l0 0.25q0 0.984375 0.5 1.515625q0.515625 0.53125 1.53125 0.53125z" fill-rule="nonzero"/><path fill="#000000" fill-opacity="0.0" d="m23.480314 23.425198l447.1496 0l0 54.929134l-447.1496 0z" fill-rule="evenodd"/><path fill="#000000" d="m39.105316 39.647697l0 8.03125l8.484375 0l0 -8.03125l4.59375 0l0 20.9375l-4.59375 0l0 -9.03125l-8.484375 0l0 9.03125l-4.609375 0l0 -20.9375l4.609375 0zm20.988327 0l0 3.421875l-4.171875 0l0 -3.421875l4.171875 0zm0 5.765625l0 15.171875l-4.171875 0l0 -15.171875l4.171875 0zm10.279907 -0.390625q3.359375 0 5.375 2.3125q2.015625 2.3125 2.015625 5.90625l-0.03125 0.765625l-10.9375 0q0.078125 1.96875 1.015625 2.921875q0.9375 0.9375 2.6875 0.9375q1.140625 0 2.09375 -0.578125q0.953125 -0.578125 1.21875 -1.40625l3.65625 0q-0.84375 2.578125 -2.609375 3.859375q-1.75 1.265625 -4.484375 1.265625q-3.515625 0 -5.640625 -2.21875q-2.109375 -2.234375 -2.109375 -5.765625q0 -3.390625 2.171875 -5.6875q2.171875 -2.3125 5.578125 -2.3125zm-3.578125 6.359375l6.765625 0q-0.296875 -1.6875 -1.078125 -2.453125q-0.78125 -0.78125 -2.25 -0.78125q-1.515625 0 -2.40625 0.859375q-0.890625 0.859375 -1.03125 2.375zm22.24701 -6.359375q0.28125 0 0.5 0.03125q0.234375 0.03125 0.4375 0.109375l0 3.859375q-0.359375 -0.0625 -0.703125 -0.09375q-0.328125 -0.046875 -0.796875 -0.046875q-2.09375 0 -3.109375 1.296875q-1.0 1.28125 -1.0 3.453125l0 6.953125l-4.15625 0l0 -15.171875l3.953125 0l0 2.828125l0.046875 0q0.671875 -1.484375 1.96875 -2.34375q1.3125 -0.875 2.859375 -0.875zm9.09433 0q3.375 0 5.0 1.109375q1.640625 1.09375 1.640625 3.09375l0 8.140625q0 0.90625 0.125 1.828125q0.125 0.921875 0.40625 1.390625l-4.21875 0q-0.109375 -0.34375 -0.1875 -0.703125q-0.078125 -0.375 -0.109375 -0.75q-0.875 0.90625 -2.171875 1.390625q-1.296875 0.484375 -2.9375 0.484375q-2.34375 0 -3.75 -1.1875q-1.40625 -1.1875 -1.40625 -3.375q0 -2.125 1.3125 -3.234375q1.328125 -1.125 4.8125 -1.515625q2.421875 -0.234375 3.1875 -0.59375q0.78125 -0.375 0.78125 -1.265625q0 -1.015625 -0.59375 -1.515625q-0.59375 -0.515625 -2.09375 -0.515625q-1.28125 0 -1.96875 0.546875q-0.6875 0.546875 -0.796875 1.734375l-4.171875 0q0.171875 -2.484375 2.046875 -3.765625q1.890625 -1.296875 5.09375 -1.296875zm-3.453125 11.25q0 0.90625 0.609375 1.421875q0.625 0.515625 1.953125 0.515625q1.671875 0 2.515625 -0.875q0.859375 -0.875 0.859375 -2.546875l0 -1.625q-0.375 0.296875 -0.984375 0.453125q-0.609375 0.15625 -2.203125 0.375q-1.40625 0.1875 -2.078125 0.75q-0.671875 0.546875 -0.671875 1.53125zm22.168884 -11.25q0.28125 0 0.5 0.03125q0.234375 0.03125 0.4375 0.109375l0 3.859375q-0.359375 -0.0625 -0.703125 -0.09375q-0.328125 -0.046875 -0.796875 -0.046875q-2.09375 0 -3.109375 1.296875q-1.0 1.28125 -1.0 3.453125l0 6.953125l-4.15625 0l0 -15.171875l3.953125 0l0 2.828125l0.046875 0q0.671875 -1.484375 1.96875 -2.34375q1.3125 -0.875 2.859375 -0.875zm9.606049 0q2.9375 0 4.953125 1.515625q2.015625 1.515625 2.1875 4.21875l-4.078125 0q-0.1875 -1.296875 -0.96875 -1.953125q-0.765625 -0.65625 -2.109375 -0.65625q-1.6875 0 -2.625 1.375q-0.921875 1.375 -0.921875 3.5625q0 2.171875 0.921875 3.484375q0.921875 1.296875 2.53125 1.296875q1.390625 0 2.25 -0.796875q0.859375 -0.796875 1.078125 -2.296875l4.0 0q-0.40625 3.0 -2.34375 4.625q-1.9375 1.609375 -4.953125 1.609375q-3.375 0 -5.515625 -2.171875q-2.140625 -2.171875 -2.140625 -5.609375q0 -3.6875 2.09375 -5.9375q2.109375 -2.265625 5.640625 -2.265625zm13.747009 -5.375l0 7.890625l0.09375 0q0.65625 -1.125 1.859375 -1.8125q1.21875 -0.703125 2.59375 -0.703125q2.890625 0 4.203125 1.484375q1.3125 1.46875 1.3125 4.59375l0 9.484375l-4.171875 0l0 -8.6875q0 -1.78125 -0.609375 -2.6875q-0.609375 -0.90625 -2.046875 -0.90625q-1.734375 0 -2.484375 1.03125q-0.75 1.03125 -0.75 3.15625l0 8.09375l-4.15625 0l0 -20.9375l4.15625 0zm17.509933 0l0 3.421875l-4.171875 0l0 -3.421875l4.171875 0zm0 5.765625l0 15.171875l-4.171875 0l0 -15.171875l4.171875 0zm10.529907 -0.390625q2.9375 0 4.953125 1.515625q2.015625 1.515625 2.1875 4.21875l-4.078125 0q-0.1875 -1.296875 -0.96875 -1.953125q-0.765625 -0.65625 -2.109375 -0.65625q-1.6875 0 -2.625 1.375q-0.921875 1.375 -0.921875 3.5625q0 2.171875 0.921875 3.484375q0.921875 1.296875 2.53125 1.296875q1.390625 0 2.25 -0.796875q0.859375 -0.796875 1.078125 -2.296875l4.0 0q-0.40625 3.0 -2.34375 4.625q-1.9375 1.609375 -4.953125 1.609375q-3.375 0 -5.515625 -2.171875q-2.140625 -2.171875 -2.140625 -5.609375q0 -3.6875 2.09375 -5.9375q2.109375 -2.265625 5.640625 -2.265625zm16.543884 0q3.375 0 5.0 1.109375q1.640625 1.09375 1.640625 3.09375l0 8.140625q0 0.90625 0.125 1.828125q0.125 0.921875 0.40625 1.390625l-4.21875 0q-0.109375 -0.34375 -0.1875 -0.703125q-0.078125 -0.375 -0.109375 -0.75q-0.875 0.90625 -2.171875 1.390625q-1.296875 0.484375 -2.9375 0.484375q-2.34375 0 -3.75 -1.1875q-1.40625 -1.1875 -1.40625 -3.375q0 -2.125 1.3125 -3.234375q1.328125 -1.125 4.8125 -1.515625q2.421875 -0.234375 3.1875 -0.59375q0.78125 -0.375 0.78125 -1.265625q0 -1.015625 -0.59375 -1.515625q-0.59375 -0.515625 -2.09375 -0.515625q-1.28125 0 -1.96875 0.546875q-0.6875 0.546875 -0.796875 1.734375l-4.171875 0q0.171875 -2.484375 2.046875 -3.765625q1.890625 -1.296875 5.09375 -1.296875zm-3.453125 11.25q0 0.90625 0.609375 1.421875q0.625 0.515625 1.953125 0.515625q1.671875 0 2.515625 -0.875q0.859375 -0.875 0.859375 -2.546875l0 -1.625q-0.375 0.296875 -0.984375 0.453125q-0.609375 0.15625 -2.203125 0.375q-1.40625 0.1875 -2.078125 0.75q-0.671875 0.546875 -0.671875 1.53125zm17.62201 -16.625l0 20.9375l-4.171875 0l0 -20.9375l4.171875 0zm19.068832 -0.5q3.796875 0 6.078125 1.765625q2.296875 1.75 2.296875 4.984375l-4.453125 0q-0.09375 -1.578125 -1.078125 -2.375q-0.96875 -0.796875 -3.03125 -0.796875q-1.40625 0 -2.296875 0.625q-0.890625 0.609375 -0.890625 1.75q0 0.796875 0.375 1.1875q0.375 0.375 1.515625 0.796875q1.15625 0.421875 5.03125 1.34375q2.609375 0.625 4.0625 2.140625q1.46875 1.5 1.46875 3.796875q0 3.046875 -2.28125 4.890625q-2.265625 1.828125 -6.40625 1.828125q-3.953125 0 -6.453125 -1.9375q-2.484375 -1.953125 -2.484375 -5.390625l0 -0.125l4.453125 0q0.03125 1.953125 1.296875 2.921875q1.28125 0.953125 3.34375 0.953125q1.859375 0 2.96875 -0.671875q1.109375 -0.6875 1.109375 -1.9375q0 -1.015625 -0.859375 -1.65625q-0.84375 -0.65625 -2.71875 -1.140625q-2.40625 -0.53125 -4.375 -1.140625q-1.953125 -0.609375 -3.234375 -1.96875q-1.28125 -1.375 -1.28125 -3.515625q0 -2.8125 2.25 -4.5625q2.265625 -1.765625 5.59375 -1.765625zm18.64116 5.875q2.9375 0 4.953125 1.515625q2.015625 1.515625 2.1875 4.21875l-4.078125 0q-0.1875 -1.296875 -0.96875 -1.953125q-0.765625 -0.65625 -2.109375 -0.65625q-1.6875 0 -2.625 1.375q-0.921875 1.375 -0.921875 3.5625q0 2.171875 0.921875 3.484375q0.921875 1.296875 2.53125 1.296875q1.390625 0 2.25 -0.796875q0.859375 -0.796875 1.078125 -2.296875l4.0 0q-0.40625 3.0 -2.34375 4.625q-1.9375 1.609375 -4.953125 1.609375q-3.375 0 -5.515625 -2.171875q-2.140625 -2.171875 -2.140625 -5.609375q0 -3.6875 2.09375 -5.9375q2.109375 -2.265625 5.640625 -2.265625zm16.543884 0q3.375 0 5.0 1.109375q1.640625 1.09375 1.640625 3.09375l0 8.140625q0 0.90625 0.125 1.828125q0.125 0.921875 0.40625 1.390625l-4.21875 0q-0.109375 -0.34375 -0.1875 -0.703125q-0.078125 -0.375 -0.109375 -0.75q-0.875 0.90625 -2.171875 1.390625q-1.296875 0.484375 -2.9375 0.484375q-2.34375 0 -3.75 -1.1875q-1.40625 -1.1875 -1.40625 -3.375q0 -2.125 1.3125 -3.234375q1.328125 -1.125 4.8125 -1.515625q2.421875 -0.234375 3.1875 -0.59375q0.78125 -0.375 0.78125 -1.265625q0 -1.015625 -0.59375 -1.515625q-0.59375 -0.515625 -2.09375 -0.515625q-1.28125 0 -1.96875 0.546875q-0.6875 0.546875 -0.796875 1.734375l-4.171875 0q0.171875 -2.484375 2.046875 -3.765625q1.890625 -1.296875 5.09375 -1.296875zm-3.453125 11.25q0 0.90625 0.609375 1.421875q0.625 0.515625 1.953125 0.515625q1.671875 0 2.515625 -0.875q0.859375 -0.875 0.859375 -2.546875l0 -1.625q-0.375 0.296875 -0.984375 0.453125q-0.609375 0.15625 -2.203125 0.375q-1.40625 0.1875 -2.078125 0.75q-0.671875 0.546875 -0.671875 1.53125zm22.02826 -11.25q2.90625 0 4.21875 1.46875q1.3125 1.46875 1.3125 4.609375l0 9.484375l-4.171875 0l0 -8.6875q0 -1.78125 -0.609375 -2.6875q-0.609375 -0.90625 -2.046875 -0.90625q-1.734375 0 -2.484375 1.03125q-0.75 1.03125 -0.75 3.15625l0 8.09375l-4.15625 0l0 -15.171875l3.953125 0l0 2.125l0.078125 0q0.765625 -1.21875 1.984375 -1.859375q1.21875 -0.65625 2.671875 -0.65625z" fill-rule="nonzero"/><path fill="#000000" fill-opacity="0.0" d="m23.480314 87.791336l192.09448 0l0 38.77166l-192.09448 0z" fill-rule="evenodd"/><path fill="#000000" d="m37.52719 100.44821q2.0625 0 3.3125 0.96875q1.25 0.953125 1.25 2.71875l-2.421875 0q-0.0625 -0.859375 -0.59375 -1.296875q-0.53125 -0.4375 -1.65625 -0.4375q-0.765625 0 -1.25 0.34375q-0.484375 0.328125 -0.484375 0.953125q0 0.4375 0.203125 0.65625q0.203125 0.203125 0.828125 0.4375q0.625 0.21875 2.75 0.71875q1.421875 0.34375 2.21875 1.171875q0.796875 0.8125 0.796875 2.078125q0 1.65625 -1.25 2.671875q-1.234375 1.0 -3.5 1.0q-2.15625 0 -3.515625 -1.0625q-1.359375 -1.078125 -1.359375 -2.953125l0 -0.0625l2.4375 0q0.015625 1.0625 0.703125 1.59375q0.703125 0.515625 1.828125 0.515625q1.015625 0 1.609375 -0.359375q0.609375 -0.375 0.609375 -1.0625q0 -0.546875 -0.46875 -0.90625q-0.453125 -0.359375 -1.484375 -0.609375q-1.3125 -0.296875 -2.390625 -0.625q-1.0625 -0.34375 -1.765625 -1.078125q-0.6875 -0.75 -0.6875 -1.921875q0 -1.53125 1.21875 -2.484375q1.234375 -0.96875 3.0625 -0.96875zm10.0234375 3.203125q1.84375 0 2.9375 1.265625q1.09375 1.265625 1.09375 3.21875l-0.015625 0.421875l-5.96875 0q0.046875 1.078125 0.5625 1.59375q0.515625 0.515625 1.46875 0.515625q0.609375 0 1.125 -0.3125q0.53125 -0.328125 0.671875 -0.765625l2.0 0q-0.453125 1.40625 -1.421875 2.109375q-0.953125 0.6875 -2.453125 0.6875q-1.90625 0 -3.0625 -1.21875q-1.15625 -1.21875 -1.15625 -3.140625q0 -1.859375 1.171875 -3.109375q1.1875 -1.265625 3.046875 -1.265625zm-1.953125 3.46875l3.703125 0q-0.171875 -0.90625 -0.59375 -1.328125q-0.421875 -0.421875 -1.234375 -0.421875q-0.828125 0 -1.3125 0.46875q-0.484375 0.46875 -0.5625 1.28125zm10.609375 -3.46875q0.90625 0 1.5 0.34375q0.59375 0.328125 0.96875 0.984375l0.03125 0l0 -1.109375l2.15625 0l0 7.8125q0 1.671875 -1.0625 2.640625q-1.046875 0.96875 -3.203125 0.96875q-1.46875 0 -2.515625 -0.703125q-1.046875 -0.703125 -1.140625 -1.953125l2.25 0q0.15625 0.59375 0.59375 0.859375q0.4375 0.28125 1.09375 0.28125q0.875 0 1.34375 -0.53125q0.484375 -0.53125 0.484375 -1.46875l0 -1.15625l-0.03125 0q-0.328125 0.609375 -0.984375 0.953125q-0.65625 0.328125 -1.5 0.328125q-1.671875 0 -2.609375 -1.109375q-0.921875 -1.109375 -0.921875 -3.046875q0 -1.75 0.96875 -2.921875q0.984375 -1.171875 2.578125 -1.171875zm-1.265625 4.0625q0 1.171875 0.46875 1.828125q0.484375 0.65625 1.359375 0.65625q0.90625 0 1.421875 -0.65625q0.515625 -0.65625 0.515625 -1.640625q0 -1.21875 -0.5 -1.875q-0.484375 -0.65625 -1.4375 -0.65625q-0.84375 0 -1.34375 0.640625q-0.484375 0.640625 -0.484375 1.703125zm12.5234375 -4.0625q0.921875 0 1.515625 0.359375q0.609375 0.359375 0.890625 1.015625q0.46875 -0.65625 1.109375 -1.015625q0.640625 -0.359375 1.40625 -0.359375q1.5 0 2.25 0.765625q0.765625 0.765625 0.765625 2.125l0 5.609375l-2.28125 0l0 -4.78125q0 -1.140625 -0.328125 -1.53125q-0.328125 -0.390625 -1.0625 -0.390625q-0.765625 0 -1.140625 0.515625q-0.375 0.515625 -0.375 1.5l0 4.6875l-2.28125 0l0 -5.09375q0 -0.828125 -0.3125 -1.21875q-0.3125 -0.390625 -1.046875 -0.390625q-0.65625 0 -1.109375 0.5q-0.4375 0.5 -0.4375 1.34375l0 4.859375l-2.265625 0l0 -8.28125l2.140625 0l0 1.125l0.03125 0q0.484375 -0.671875 1.109375 -1.0q0.640625 -0.34375 1.421875 -0.34375zm13.5390625 0q1.84375 0 2.9375 1.265625q1.09375 1.265625 1.09375 3.21875l-0.015625 0.421875l-5.96875 0q0.046875 1.078125 0.5625 1.59375q0.515625 0.515625 1.46875 0.515625q0.609375 0 1.125 -0.3125q0.53125 -0.328125 0.671875 -0.765625l2.0 0q-0.453125 1.40625 -1.421875 2.109375q-0.953125 0.6875 -2.453125 0.6875q-1.90625 0 -3.0625 -1.21875q-1.15625 -1.21875 -1.15625 -3.140625q0 -1.859375 1.171875 -3.109375q1.1875 -1.265625 3.046875 -1.265625zm-1.953125 3.46875l3.703125 0q-0.171875 -0.90625 -0.59375 -1.328125q-0.421875 -0.421875 -1.234375 -0.421875q-0.828125 0 -1.3125 0.46875q-0.484375 0.46875 -0.5625 1.28125zm12.0625 -3.46875q1.59375 0 2.296875 0.8125q0.71875 0.796875 0.71875 2.515625l0 5.171875l-2.265625 0l0 -4.75q0 -0.96875 -0.34375 -1.453125q-0.328125 -0.5 -1.109375 -0.5q-0.953125 0 -1.359375 0.5625q-0.40625 0.5625 -0.40625 1.71875l0 4.421875l-2.265625 0l0 -8.28125l2.15625 0l0 1.15625l0.046875 0q0.40625 -0.65625 1.0625 -1.015625q0.671875 -0.359375 1.46875 -0.359375zm7.625 -2.25l0 2.46875l1.65625 0l0 1.53125l-1.65625 0l0 4.140625q0 0.515625 0.1875 0.71875q0.1875 0.1875 0.765625 0.1875q0.203125 0 0.375 -0.015625q0.1875 -0.015625 0.328125 -0.046875l0 1.78125q-0.28125 0.046875 -0.625 0.0625q-0.34375 0.015625 -0.6875 0.015625q-1.46875 0 -2.046875 -0.5q-0.578125 -0.515625 -0.578125 -1.421875l0 -4.921875l-1.375 0l0 -1.53125l1.375 0l0 -2.46875l2.28125 0zm12.609375 -0.453125l0 11.203125l-2.28125 0l0 -7.265625l-2.8125 0l0 -1.71875l0.15625 0q1.375 0 2.15625 -0.5625q0.796875 -0.5625 0.96875 -1.65625l1.8125 0z" fill-rule="nonzero"/><path fill="#000000" fill-opacity="0.0" d="m311.48032 87.791336l192.09448 0l0 38.77166l-192.09448 0z" fill-rule="evenodd"/><path fill="#000000" d="m325.5272 100.44821q2.0625 0 3.3125 0.96875q1.25 0.953125 1.25 2.71875l-2.421875 0q-0.0625 -0.859375 -0.59375 -1.296875q-0.53125 -0.4375 -1.65625 -0.4375q-0.765625 0 -1.25 0.34375q-0.484375 0.328125 -0.484375 0.953125q0 0.4375 0.203125 0.65625q0.203125 0.203125 0.828125 0.4375q0.625 0.21875 2.75 0.71875q1.421875 0.34375 2.21875 1.171875q0.796875 0.8125 0.796875 2.078125q0 1.65625 -1.25 2.671875q-1.234375 1.0 -3.5 1.0q-2.15625 0 -3.515625 -1.0625q-1.359375 -1.078125 -1.359375 -2.953125l0 -0.0625l2.4375 0q0.015625 1.0625 0.703125 1.59375q0.703125 0.515625 1.828125 0.515625q1.015625 0 1.609375 -0.359375q0.609375 -0.375 0.609375 -1.0625q0 -0.546875 -0.46875 -0.90625q-0.453125 -0.359375 -1.484375 -0.609375q-1.3125 -0.296875 -2.390625 -0.625q-1.0625 -0.34375 -1.765625 -1.078125q-0.6875 -0.75 -0.6875 -1.921875q0 -1.53125 1.21875 -2.484375q1.234375 -0.96875 3.0625 -0.96875zm10.0234375 3.203125q1.84375 0 2.9375 1.265625q1.09375 1.265625 1.09375 3.21875l-0.015625 0.421875l-5.96875 0q0.046875 1.078125 0.5625 1.59375q0.515625 0.515625 1.46875 0.515625q0.609375 0 1.125 -0.3125q0.53125 -0.328125 0.671875 -0.765625l2.0 0q-0.453125 1.40625 -1.421875 2.109375q-0.953125 0.6875 -2.453125 0.6875q-1.90625 0 -3.0625 -1.21875q-1.15625 -1.21875 -1.15625 -3.140625q0 -1.859375 1.171875 -3.109375q1.1875 -1.265625 3.046875 -1.265625zm-1.953125 3.46875l3.703125 0q-0.171875 -0.90625 -0.59375 -1.328125q-0.421875 -0.421875 -1.234375 -0.421875q-0.828125 0 -1.3125 0.46875q-0.484375 0.46875 -0.5625 1.28125zm10.609375 -3.46875q0.90625 0 1.5 0.34375q0.59375 0.328125 0.96875 0.984375l0.03125 0l0 -1.109375l2.15625 0l0 7.8125q0 1.671875 -1.0625 2.640625q-1.046875 0.96875 -3.203125 0.96875q-1.46875 0 -2.515625 -0.703125q-1.046875 -0.703125 -1.140625 -1.953125l2.25 0q0.15625 0.59375 0.59375 0.859375q0.4375 0.28125 1.09375 0.28125q0.875 0 1.34375 -0.53125q0.484375 -0.53125 0.484375 -1.46875l0 -1.15625l-0.03125 0q-0.328125 0.609375 -0.984375 0.953125q-0.65625 0.328125 -1.5 0.328125q-1.671875 0 -2.609375 -1.109375q-0.921875 -1.109375 -0.921875 -3.046875q0 -1.75 0.96875 -2.921875q0.984375 -1.171875 2.578125 -1.171875zm-1.265625 4.0625q0 1.171875 0.46875 1.828125q0.484375 0.65625 1.359375 0.65625q0.90625 0 1.421875 -0.65625q0.515625 -0.65625 0.515625 -1.640625q0 -1.21875 -0.5 -1.875q-0.484375 -0.65625 -1.4375 -0.65625q-0.84375 0 -1.34375 0.640625q-0.484375 0.640625 -0.484375 1.703125zm12.5234375 -4.0625q0.921875 0 1.515625 0.359375q0.609375 0.359375 0.890625 1.015625q0.46875 -0.65625 1.109375 -1.015625q0.640625 -0.359375 1.40625 -0.359375q1.5 0 2.25 0.765625q0.765625 0.765625 0.765625 2.125l0 5.609375l-2.28125 0l0 -4.78125q0 -1.140625 -0.328125 -1.53125q-0.328125 -0.390625 -1.0625 -0.390625q-0.765625 0 -1.140625 0.515625q-0.375 0.515625 -0.375 1.5l0 4.6875l-2.28125 0l0 -5.09375q0 -0.828125 -0.3125 -1.21875q-0.3125 -0.390625 -1.046875 -0.390625q-0.65625 0 -1.109375 0.5q-0.4375 0.5 -0.4375 1.34375l0 4.859375l-2.265625 0l0 -8.28125l2.140625 0l0 1.125l0.03125 0q0.484375 -0.671875 1.109375 -1.0q0.640625 -0.34375 1.421875 -0.34375zm13.5390625 0q1.84375 0 2.9375 1.265625q1.09375 1.265625 1.09375 3.21875l-0.015625 0.421875l-5.96875 0q0.046875 1.078125 0.5625 1.59375q0.515625 0.515625 1.46875 0.515625q0.609375 0 1.125 -0.3125q0.53125 -0.328125 0.671875 -0.765625l2.0 0q-0.453125 1.40625 -1.421875 2.109375q-0.953125 0.6875 -2.453125 0.6875q-1.90625 0 -3.0625 -1.21875q-1.15625 -1.21875 -1.15625 -3.140625q0 -1.859375 1.171875 -3.109375q1.1875 -1.265625 3.046875 -1.265625zm-1.953125 3.46875l3.703125 0q-0.171875 -0.90625 -0.59375 -1.328125q-0.421875 -0.421875 -1.234375 -0.421875q-0.828125 0 -1.3125 0.46875q-0.484375 0.46875 -0.5625 1.28125zm12.0625 -3.46875q1.59375 0 2.296875 0.8125q0.71875 0.796875 0.71875 2.515625l0 5.171875l-2.265625 0l0 -4.75q0 -0.96875 -0.34375 -1.453125q-0.328125 -0.5 -1.109375 -0.5q-0.953125 0 -1.359375 0.5625q-0.40625 0.5625 -0.40625 1.71875l0 4.421875l-2.265625 0l0 -8.28125l2.15625 0l0 1.15625l0.046875 0q0.40625 -0.65625 1.0625 -1.015625q0.671875 -0.359375 1.46875 -0.359375zm7.625 -2.25l0 2.46875l1.65625 0l0 1.53125l-1.65625 0l0 4.140625q0 0.515625 0.1875 0.71875q0.1875 0.1875 0.765625 0.1875q0.203125 0 0.375 -0.015625q0.1875 -0.015625 0.328125 -0.046875l0 1.78125q-0.28125 0.046875 -0.625 0.0625q-0.34375 0.015625 -0.6875 0.015625q-1.46875 0 -2.046875 -0.5q-0.578125 -0.515625 -0.578125 -1.421875l0 -4.921875l-1.375 0l0 -1.53125l1.375 0l0 -2.46875l2.28125 0zm10.984375 -0.671875q1.640625 0 2.734375 0.984375q1.109375 0.96875 1.109375 2.515625q0 1.078125 -0.515625 1.9375q-0.515625 0.859375 -2.171875 1.90625q-1.140625 0.734375 -1.6875 1.21875q-0.546875 0.46875 -0.859375 0.90625l5.296875 0l0 1.953125l-8.21875 0q0 -1.109375 0.390625 -1.96875q0.390625 -0.859375 1.125 -1.53125q0.75 -0.671875 2.828125 -2.0625q0.796875 -0.515625 1.171875 -1.046875q0.375 -0.53125 0.375 -1.140625q0 -0.75 -0.46875 -1.234375q-0.453125 -0.484375 -1.21875 -0.484375q-0.84375 0 -1.296875 0.6875q-0.453125 0.6875 -0.484375 1.875l-2.171875 0l0 -0.203125q0 -1.953125 1.109375 -3.125q1.109375 -1.1875 2.953125 -1.1875z" fill-rule="nonzero"/><path fill="#cccccc" d="m615.4803 122.115486l247.11816 0l0 79.43307l-247.11816 0z" fill-rule="evenodd"/><path fill="#cc9f26" d="m624.2362 128.28871l67.08661 0l0 67.086624l-67.08661 0z" fill-rule="evenodd"/><path fill="#ffffff" d="m646.66077 168.97076q-1.171875 0 -2.09375 -0.359375q-0.921875 -0.359375 -1.5625 -1.03125q-0.640625 -0.6875 -0.984375 -1.640625q-0.328125 -0.953125 -0.328125 -2.125q0 -1.375 0.421875 -2.59375q0.4375 -1.21875 1.109375 -2.25q0.6875 -1.046875 1.53125 -1.859375q0.859375 -0.828125 1.703125 -1.375l3.859375 0q-1.21875 0.828125 -2.1875 1.609375q-0.953125 0.765625 -1.671875 1.546875q-0.71875 0.78125 -1.171875 1.609375q-0.453125 0.8125 -0.65625 1.75l0.171875 0.0625q0.15625 -0.375 0.390625 -0.71875q0.25 -0.359375 0.609375 -0.625q0.359375 -0.28125 0.828125 -0.4375q0.484375 -0.171875 1.109375 -0.171875q0.828125 0 1.53125 0.296875q0.71875 0.28125 1.21875 0.8125q0.515625 0.53125 0.8125 1.28125q0.296875 0.734375 0.296875 1.671875q0 0.984375 -0.359375 1.828125q-0.34375 0.84375 -0.984375 1.453125q-0.640625 0.59375 -1.5625 0.9375q-0.90625 0.328125 -2.03125 0.328125zm-0.015625 -2.171875q1.0 0 1.515625 -0.53125q0.53125 -0.53125 0.53125 -1.515625l0 -0.25q0 -0.96875 -0.53125 -1.484375q-0.53125 -0.515625 -1.515625 -0.515625q-0.953125 0 -1.5 0.515625q-0.53125 0.515625 -0.53125 1.484375l0 0.25q0 0.984375 0.5 1.515625q0.515625 0.53125 1.53125 0.53125zm11.131226 2.171875q-1.046875 0 -1.5 -0.453125q-0.45306396 -0.453125 -0.45306396 -1.09375l0 -0.65625q0 -0.625 0.45306396 -1.078125q0.453125 -0.46875 1.5 -0.46875q1.046875 0 1.5 0.46875q0.46875 0.453125 0.46875 1.078125l0 0.65625q0 0.640625 -0.46875 1.09375q-0.453125 0.453125 -1.5 0.453125zm0 -6.328125q-1.046875 0 -1.5 -0.453125q-0.45306396 -0.453125 -0.45306396 -1.09375l0 -0.65625q0 -0.625 0.45306396 -1.078125q0.453125 -0.46875 1.5 -0.46875q1.046875 0 1.5 0.46875q0.46875 0.453125 0.46875 1.078125l0 0.65625q0 0.640625 -0.46875 1.09375q-0.453125 0.453125 -1.5 0.453125zm8.662537 6.109375l4.46875 -10.75l-4.203125 0l0 2.375l-2.375 0l0 -4.640625l9.359375 0l0 2.421875l-4.3125 10.59375l-2.9375 0z" fill-rule="nonzero"/><path fill="#cc9f26" d="m705.49603 128.28871l67.08667 0l0 67.086624l-67.08667 0z" fill-rule="evenodd"/><path fill="#ffffff" d="m727.9206 168.97076q-1.171875 0 -2.09375 -0.359375q-0.921875 -0.359375 -1.5625 -1.03125q-0.640625 -0.6875 -0.984375 -1.640625q-0.328125 -0.953125 -0.328125 -2.125q0 -1.375 0.421875 -2.59375q0.4375 -1.21875 1.109375 -2.25q0.6875 -1.046875 1.53125 -1.859375q0.859375 -0.828125 1.703125 -1.375l3.859375 0q-1.21875 0.828125 -2.1875 1.609375q-0.953125 0.765625 -1.671875 1.546875q-0.71875 0.78125 -1.171875 1.609375q-0.453125 0.8125 -0.65625 1.75l0.171875 0.0625q0.15625 -0.375 0.390625 -0.71875q0.25 -0.359375 0.609375 -0.625q0.359375 -0.28125 0.828125 -0.4375q0.484375 -0.171875 1.109375 -0.171875q0.828125 0 1.53125 0.296875q0.71875 0.28125 1.21875 0.8125q0.515625 0.53125 0.8125 1.28125q0.296875 0.734375 0.296875 1.671875q0 0.984375 -0.359375 1.828125q-0.34375 0.84375 -0.984375 1.453125q-0.640625 0.59375 -1.5625 0.9375q-0.90625 0.328125 -2.03125 0.328125zm-0.015625 -2.171875q1.0 0 1.515625 -0.53125q0.53125 -0.53125 0.53125 -1.515625l0 -0.25q0 -0.96875 -0.53125 -1.484375q-0.53125 -0.515625 -1.515625 -0.515625q-0.953125 0 -1.5 0.515625q-0.53125 0.515625 -0.53125 1.484375l0 0.25q0 0.984375 0.5 1.515625q0.515625 0.53125 1.53125 0.53125zm11.131287 2.171875q-1.046875 0 -1.5 -0.453125q-0.453125 -0.453125 -0.453125 -1.09375l0 -0.65625q0 -0.625 0.453125 -1.078125q0.453125 -0.46875 1.5 -0.46875q1.046875 0 1.5 0.46875q0.46875 0.453125 0.46875 1.078125l0 0.65625q0 0.640625 -0.46875 1.09375q-0.453125 0.453125 -1.5 0.453125zm0 -6.328125q-1.046875 0 -1.5 -0.453125q-0.453125 -0.453125 -0.453125 -1.09375l0 -0.65625q0 -0.625 0.453125 -1.078125q0.453125 -0.46875 1.5 -0.46875q1.046875 0 1.5 0.46875q0.46875 0.453125 0.46875 1.078125l0 0.65625q0 0.640625 -0.46875 1.09375q-0.453125 0.453125 -1.5 0.453125zm11.193726 6.328125q-1.171875 0 -2.09375 -0.28125q-0.90625 -0.296875 -1.546875 -0.796875q-0.625 -0.5 -0.953125 -1.203125q-0.328125 -0.703125 -0.328125 -1.515625q0 -1.265625 0.71875 -2.046875q0.734375 -0.78125 1.875 -1.09375l0 -0.140625q-0.96875 -0.359375 -1.59375 -1.078125q-0.609375 -0.734375 -0.609375 -1.875q0 -0.75 0.296875 -1.375q0.296875 -0.640625 0.875 -1.09375q0.578125 -0.46875 1.421875 -0.71875q0.84375 -0.25 1.9375 -0.25q1.078125 0 1.921875 0.25q0.859375 0.25 1.4375 0.71875q0.578125 0.453125 0.875 1.09375q0.296875 0.625 0.296875 1.375q0 1.140625 -0.609375 1.875q-0.609375 0.71875 -1.59375 1.078125l0 0.140625q1.140625 0.3125 1.859375 1.09375q0.734375 0.78125 0.734375 2.046875q0 0.8125 -0.328125 1.515625q-0.3125 0.703125 -0.953125 1.203125q-0.640625 0.5 -1.5625 0.796875q-0.90625 0.28125 -2.078125 0.28125zm0 -2.140625q0.96875 0 1.484375 -0.4375q0.515625 -0.453125 0.515625 -1.21875l0 -0.375q0 -0.78125 -0.515625 -1.21875q-0.5 -0.4375 -1.484375 -0.4375q-0.984375 0 -1.5 0.4375q-0.5 0.4375 -0.5 1.21875l0 0.375q0 0.765625 0.515625 1.21875q0.515625 0.4375 1.484375 0.4375zm0 -5.75q0.9375 0 1.421875 -0.421875q0.484375 -0.4375 0.484375 -1.15625l0 -0.28125q0 -0.734375 -0.5 -1.140625q-0.484375 -0.421875 -1.40625 -0.421875q-0.90625 0 -1.40625 0.421875q-0.5 0.40625 -0.5 1.140625l0 0.28125q0 0.71875 0.484375 1.15625q0.5 0.421875 1.421875 0.421875z" fill-rule="nonzero"/><path fill="#cc9f26" d="m786.7559 128.28871l67.08661 0l0 67.086624l-67.08661 0z" fill-rule="evenodd"/><path fill="#ffffff" d="m809.1805 168.97076q-1.171875 0 -2.09375 -0.359375q-0.921875 -0.359375 -1.5625 -1.03125q-0.640625 -0.6875 -0.984375 -1.640625q-0.328125 -0.953125 -0.328125 -2.125q0 -1.375 0.421875 -2.59375q0.4375 -1.21875 1.109375 -2.25q0.6875 -1.046875 1.53125 -1.859375q0.859375 -0.828125 1.703125 -1.375l3.859375 0q-1.21875 0.828125 -2.1875 1.609375q-0.953125 0.765625 -1.671875 1.546875q-0.71875 0.78125 -1.171875 1.609375q-0.453125 0.8125 -0.65625 1.75l0.171875 0.0625q0.15625 -0.375 0.390625 -0.71875q0.25 -0.359375 0.609375 -0.625q0.359375 -0.28125 0.828125 -0.4375q0.484375 -0.171875 1.109375 -0.171875q0.828125 0 1.53125 0.296875q0.71875 0.28125 1.21875 0.8125q0.515625 0.53125 0.8125 1.28125q0.296875 0.734375 0.296875 1.671875q0 0.984375 -0.359375 1.828125q-0.34375 0.84375 -0.984375 1.453125q-0.640625 0.59375 -1.5625 0.9375q-0.90625 0.328125 -2.03125 0.328125zm-0.015625 -2.171875q1.0 0 1.515625 -0.53125q0.53125 -0.53125 0.53125 -1.515625l0 -0.25q0 -0.96875 -0.53125 -1.484375q-0.53125 -0.515625 -1.515625 -0.515625q-0.953125 0 -1.5 0.515625q-0.53125 0.515625 -0.53125 1.484375l0 0.25q0 0.984375 0.5 1.515625q0.515625 0.53125 1.53125 0.53125zm11.131226 2.171875q-1.046875 0 -1.5 -0.453125q-0.453125 -0.453125 -0.453125 -1.09375l0 -0.65625q0 -0.625 0.453125 -1.078125q0.453125 -0.46875 1.5 -0.46875q1.046875 0 1.5 0.46875q0.46875 0.453125 0.46875 1.078125l0 0.65625q0 0.640625 -0.46875 1.09375q-0.453125 0.453125 -1.5 0.453125zm0 -6.328125q-1.046875 0 -1.5 -0.453125q-0.453125 -0.453125 -0.453125 -1.09375l0 -0.65625q0 -0.625 0.453125 -1.078125q0.453125 -0.46875 1.5 -0.46875q1.046875 0 1.5 0.46875q0.46875 0.453125 0.46875 1.078125l0 0.65625q0 0.640625 -0.46875 1.09375q-0.453125 0.453125 -1.5 0.453125zm16.084412 -1.96875q0 1.375 -0.4375 2.59375q-0.421875 1.21875 -1.109375 2.25q-0.671875 1.03125 -1.53125 1.859375q-0.84375 0.8125 -1.671875 1.375l-3.875 0q1.21875 -0.84375 2.171875 -1.609375q0.96875 -0.78125 1.6875 -1.546875q0.71875 -0.78125 1.171875 -1.59375q0.453125 -0.828125 0.671875 -1.78125l-0.171875 -0.046875q-0.171875 0.359375 -0.421875 0.71875q-0.25 0.359375 -0.59375 0.625q-0.34375 0.265625 -0.828125 0.4375q-0.46875 0.171875 -1.109375 0.171875q-0.8125 0 -1.53125 -0.28125q-0.703125 -0.296875 -1.21875 -0.828125q-0.515625 -0.53125 -0.8125 -1.28125q-0.296875 -0.75 -0.296875 -1.671875q0 -1.0 0.34375 -1.828125q0.359375 -0.84375 1.0 -1.453125q0.65625 -0.609375 1.5625 -0.9375q0.921875 -0.34375 2.03125 -0.34375q1.1875 0 2.109375 0.375q0.921875 0.359375 1.546875 1.046875q0.640625 0.671875 0.96875 1.625q0.34375 0.953125 0.34375 2.125zm-4.9375 1.3125q0.953125 0 1.484375 -0.515625q0.546875 -0.515625 0.546875 -1.484375l0 -0.265625q0 -0.96875 -0.515625 -1.5q-0.515625 -0.53125 -1.515625 -0.53125q-1.015625 0 -1.546875 0.53125q-0.515625 0.53125 -0.515625 1.5l0 0.265625q0 0.96875 0.53125 1.484375q0.53125 0.515625 1.53125 0.515625z" fill-rule="nonzero"/><path fill="#000000" fill-opacity="0.0" d="m607.4803 87.791336l192.09454 0l0 38.77166l-192.09454 0z" fill-rule="evenodd"/><path fill="#000000" d="m621.52716 100.44821q2.0625 0 3.3125 0.96875q1.25 0.953125 1.25 2.71875l-2.421875 0q-0.0625 -0.859375 -0.59375 -1.296875q-0.53125 -0.4375 -1.65625 -0.4375q-0.765625 0 -1.25 0.34375q-0.484375 0.328125 -0.484375 0.953125q0 0.4375 0.203125 0.65625q0.203125 0.203125 0.828125 0.4375q0.625 0.21875 2.75 0.71875q1.421875 0.34375 2.21875 1.171875q0.796875 0.8125 0.796875 2.078125q0 1.65625 -1.25 2.671875q-1.234375 1.0 -3.5 1.0q-2.15625 0 -3.515625 -1.0625q-1.359375 -1.078125 -1.359375 -2.953125l0 -0.0625l2.4375 0q0.015625 1.0625 0.703125 1.59375q0.703125 0.515625 1.828125 0.515625q1.015625 0 1.609375 -0.359375q0.609375 -0.375 0.609375 -1.0625q0 -0.546875 -0.46875 -0.90625q-0.453125 -0.359375 -1.484375 -0.609375q-1.3125 -0.296875 -2.390625 -0.625q-1.0625 -0.34375 -1.765625 -1.078125q-0.6875 -0.75 -0.6875 -1.921875q0 -1.53125 1.21875 -2.484375q1.234375 -0.96875 3.0625 -0.96875zm10.0234375 3.203125q1.84375 0 2.9375 1.265625q1.09375 1.265625 1.09375 3.21875l-0.015625 0.421875l-5.96875 0q0.046875 1.078125 0.5625 1.59375q0.515625 0.515625 1.46875 0.515625q0.609375 0 1.125 -0.3125q0.53125 -0.328125 0.671875 -0.765625l2.0 0q-0.453125 1.40625 -1.421875 2.109375q-0.953125 0.6875 -2.453125 0.6875q-1.90625 0 -3.0625 -1.21875q-1.15625 -1.21875 -1.15625 -3.140625q0 -1.859375 1.171875 -3.109375q1.1875 -1.265625 3.046875 -1.265625zm-1.953125 3.46875l3.703125 0q-0.171875 -0.90625 -0.59375 -1.328125q-0.421875 -0.421875 -1.234375 -0.421875q-0.828125 0 -1.3125 0.46875q-0.484375 0.46875 -0.5625 1.28125zm10.609375 -3.46875q0.90625 0 1.5 0.34375q0.59375 0.328125 0.96875 0.984375l0.03125 0l0 -1.109375l2.15625 0l0 7.8125q0 1.671875 -1.0625 2.640625q-1.046875 0.96875 -3.203125 0.96875q-1.46875 0 -2.515625 -0.703125q-1.046875 -0.703125 -1.140625 -1.953125l2.25 0q0.15625 0.59375 0.59375 0.859375q0.4375 0.28125 1.09375 0.28125q0.875 0 1.34375 -0.53125q0.484375 -0.53125 0.484375 -1.46875l0 -1.15625l-0.03125 0q-0.328125 0.609375 -0.984375 0.953125q-0.65625 0.328125 -1.5 0.328125q-1.671875 0 -2.609375 -1.109375q-0.921875 -1.109375 -0.921875 -3.046875q0 -1.75 0.96875 -2.921875q0.984375 -1.171875 2.578125 -1.171875zm-1.265625 4.0625q0 1.171875 0.46875 1.828125q0.484375 0.65625 1.359375 0.65625q0.90625 0 1.421875 -0.65625q0.515625 -0.65625 0.515625 -1.640625q0 -1.21875 -0.5 -1.875q-0.484375 -0.65625 -1.4375 -0.65625q-0.84375 0 -1.34375 0.640625q-0.484375 0.640625 -0.484375 1.703125zm12.5234375 -4.0625q0.921875 0 1.515625 0.359375q0.609375 0.359375 0.890625 1.015625q0.46875 -0.65625 1.109375 -1.015625q0.640625 -0.359375 1.40625 -0.359375q1.5 0 2.25 0.765625q0.765625 0.765625 0.765625 2.125l0 5.609375l-2.28125 0l0 -4.78125q0 -1.140625 -0.328125 -1.53125q-0.328125 -0.390625 -1.0625 -0.390625q-0.765625 0 -1.140625 0.515625q-0.375 0.515625 -0.375 1.5l0 4.6875l-2.28125 0l0 -5.09375q0 -0.828125 -0.3125 -1.21875q-0.3125 -0.390625 -1.046875 -0.390625q-0.65625 0 -1.109375 0.5q-0.4375 0.5 -0.4375 1.34375l0 4.859375l-2.265625 0l0 -8.28125l2.140625 0l0 1.125l0.03125 0q0.484375 -0.671875 1.109375 -1.0q0.640625 -0.34375 1.421875 -0.34375zm13.5390625 0q1.84375 0 2.9375 1.265625q1.09375 1.265625 1.09375 3.21875l-0.015625 0.421875l-5.96875 0q0.046875 1.078125 0.5625 1.59375q0.515625 0.515625 1.46875 0.515625q0.609375 0 1.125 -0.3125q0.53125 -0.328125 0.671875 -0.765625l2.0 0q-0.453125 1.40625 -1.421875 2.109375q-0.953125 0.6875 -2.453125 0.6875q-1.90625 0 -3.0625 -1.21875q-1.15625 -1.21875 -1.15625 -3.140625q0 -1.859375 1.171875 -3.109375q1.1875 -1.265625 3.046875 -1.265625zm-1.953125 3.46875l3.703125 0q-0.171875 -0.90625 -0.59375 -1.328125q-0.421875 -0.421875 -1.234375 -0.421875q-0.828125 0 -1.3125 0.46875q-0.484375 0.46875 -0.5625 1.28125zm12.0625 -3.46875q1.59375 0 2.296875 0.8125q0.71875 0.796875 0.71875 2.515625l0 5.171875l-2.265625 0l0 -4.75q0 -0.96875 -0.34375 -1.453125q-0.328125 -0.5 -1.109375 -0.5q-0.953125 0 -1.359375 0.5625q-0.40625 0.5625 -0.40625 1.71875l0 4.421875l-2.265625 0l0 -8.28125l2.15625 0l0 1.15625l0.046875 0q0.40625 -0.65625 1.0625 -1.015625q0.671875 -0.359375 1.46875 -0.359375zm7.625 -2.25l0 2.46875l1.65625 0l0 1.53125l-1.65625 0l0 4.140625q0 0.515625 0.1875 0.71875q0.1875 0.1875 0.765625 0.1875q0.203125 0 0.375 -0.015625q0.1875 -0.015625 0.328125 -0.046875l0 1.78125q-0.28125 0.046875 -0.625 0.0625q-0.34375 0.015625 -0.6875 0.015625q-1.46875 0 -2.046875 -0.5q-0.578125 -0.515625 -0.578125 -1.421875l0 -4.921875l-1.375 0l0 -1.53125l1.375 0l0 -2.46875l2.28125 0zm10.75 -0.671875q1.515625 0 2.640625 0.890625q1.125 0.875 1.125 2.203125q0 0.8125 -0.40625 1.4375q-0.390625 0.609375 -1.171875 0.859375l0 0.03125q0.9375 0.21875 1.453125 0.921875q0.53125 0.6875 0.53125 1.625q0 1.640625 -1.203125 2.671875q-1.203125 1.015625 -2.953125 1.015625q-1.890625 0 -3.03125 -1.078125q-1.125 -1.078125 -1.125 -2.890625l0 -0.125l2.15625 0q0.046875 1.046875 0.5625 1.625q0.515625 0.578125 1.40625 0.578125q0.8125 0 1.3125 -0.5q0.515625 -0.5 0.515625 -1.25q0 -0.84375 -0.5 -1.25q-0.5 -0.421875 -1.859375 -0.421875l-0.234375 0l0 -1.59375l0.375 0.015625q0.96875 0 1.484375 -0.359375q0.515625 -0.375 0.515625 -1.046875q0 -0.671875 -0.453125 -1.078125q-0.4375 -0.421875 -1.125 -0.421875q-0.765625 0 -1.25 0.515625q-0.46875 0.5 -0.484375 1.484375l-2.15625 0q0.0625 -1.765625 1.109375 -2.8125q1.0625 -1.046875 2.765625 -1.046875z" fill-rule="nonzero"/><path fill="#cccccc" d="m319.48032 306.11548l247.11813 0l0 79.433075l-247.11813 0z" fill-rule="evenodd"/><path fill="#cc9f26" d="m328.2362 312.28873l67.08664 0l0 67.08661l-67.08664 0z" fill-rule="evenodd"/><path fill="#ffffff" d="m350.58264 352.97076q-2.609375 0 -3.859375 -1.765625q-1.234375 -1.78125 -1.234375 -4.96875q0 -3.1875 1.234375 -4.953125q1.25 -1.78125 3.859375 -1.78125q2.609375 0 3.84375 1.78125q1.25 1.765625 1.25 4.953125q0 3.1875 -1.25 4.96875q-1.234375 1.765625 -3.84375 1.765625zm0 -2.203125q1.25 0 1.734375 -0.875q0.5 -0.875 0.5 -2.4375l0 -2.421875q0 -1.578125 -0.5 -2.453125q-0.484375 -0.875 -1.734375 -0.875q-1.25 0 -1.75 0.875q-0.484375 0.875 -0.484375 2.453125l0 2.421875q0 1.5625 0.484375 2.4375q0.5 0.875 1.75 0.875zm0 -3.421875q-0.65625 0 -0.90625 -0.265625q-0.25 -0.265625 -0.25 -0.640625l0 -0.40625q0 -0.375 0.25 -0.625q0.25 -0.265625 0.90625 -0.265625q0.65625 0 0.90625 0.265625q0.25 0.25 0.25 0.625l0 0.40625q0 0.375 -0.25 0.640625q-0.25 0.265625 -0.90625 0.265625zm11.193756 5.625q-1.046875 0 -1.5 -0.453125q-0.453125 -0.453125 -0.453125 -1.09375l0 -0.65625q0 -0.625 0.453125 -1.078125q0.453125 -0.46875 1.5 -0.46875q1.046875 0 1.5 0.46875q0.46875 0.453125 0.46875 1.078125l0 0.65625q0 0.640625 -0.46875 1.09375q-0.453125 0.453125 -1.5 0.453125zm0 -6.328125q-1.046875 0 -1.5 -0.453125q-0.453125 -0.453125 -0.453125 -1.09375l0 -0.65625q0 -0.625 0.453125 -1.078125q0.453125 -0.46875 1.5 -0.46875q1.046875 0 1.5 0.46875q0.46875 0.453125 0.46875 1.078125l0 0.65625q0 0.640625 -0.46875 1.09375q-0.453125 0.453125 -1.5 0.453125zm10.693756 -1.765625q1.078125 0 1.5625 -0.40625q0.5 -0.40625 0.5 -1.015625l0 -0.125q0 -0.703125 -0.46875 -1.125q-0.46875 -0.421875 -1.359375 -0.421875q-0.796875 0 -1.5 0.40625q-0.6875 0.390625 -1.171875 1.140625l-1.78125 -1.640625q0.375 -0.484375 0.8125 -0.875q0.453125 -0.40625 1.0 -0.6875q0.546875 -0.296875 1.21875 -0.453125q0.6875 -0.171875 1.546875 -0.171875q1.0625 0 1.921875 0.25q0.859375 0.234375 1.453125 0.703125q0.609375 0.453125 0.9375 1.09375q0.34375 0.625 0.34375 1.40625q0 0.625 -0.203125 1.125q-0.203125 0.5 -0.546875 0.875q-0.34375 0.375 -0.8125 0.609375q-0.453125 0.234375 -0.96875 0.328125l0 0.109375q1.1875 0.203125 1.984375 1.0q0.796875 0.78125 0.796875 2.125q0 0.875 -0.375 1.59375q-0.359375 0.703125 -1.03125 1.21875q-0.65625 0.5 -1.59375 0.765625q-0.9375 0.265625 -2.09375 0.265625q-1.0 0 -1.75 -0.203125q-0.75 -0.203125 -1.328125 -0.546875q-0.578125 -0.34375 -1.0 -0.796875q-0.421875 -0.46875 -0.734375 -0.953125l2.0625 -1.59375q0.4375 0.796875 1.078125 1.3125q0.640625 0.515625 1.71875 0.515625q1.015625 0 1.546875 -0.46875q0.546875 -0.46875 0.546875 -1.296875l0 -0.125q0 -0.796875 -0.625 -1.203125q-0.609375 -0.40625 -1.703125 -0.40625l-1.21875 0l0 -2.328125l1.234375 0z" fill-rule="nonzero"/><path fill="#cc9f26" d="m409.49606 312.28873l67.08661 0l0 67.08661l-67.08661 0z" fill-rule="evenodd"/><path fill="#ffffff" d="m431.3425 344.877q1.078125 0 1.5625 -0.40625q0.5 -0.40625 0.5 -1.015625l0 -0.125q0 -0.703125 -0.46875 -1.125q-0.46875 -0.421875 -1.359375 -0.421875q-0.796875 0 -1.5 0.40625q-0.6875 0.390625 -1.171875 1.140625l-1.78125 -1.640625q0.375 -0.484375 0.8125 -0.875q0.453125 -0.40625 1.0 -0.6875q0.546875 -0.296875 1.21875 -0.453125q0.6875 -0.171875 1.546875 -0.171875q1.0625 0 1.921875 0.25q0.859375 0.234375 1.453125 0.703125q0.609375 0.453125 0.9375 1.09375q0.34375 0.625 0.34375 1.40625q0 0.625 -0.203125 1.125q-0.203125 0.5 -0.546875 0.875q-0.34375 0.375 -0.8125 0.609375q-0.453125 0.234375 -0.96875 0.328125l0 0.109375q1.1875 0.203125 1.984375 1.0q0.796875 0.78125 0.796875 2.125q0 0.875 -0.375 1.59375q-0.359375 0.703125 -1.03125 1.21875q-0.65625 0.5 -1.59375 0.765625q-0.9375 0.265625 -2.09375 0.265625q-1.0 0 -1.75 -0.203125q-0.75 -0.203125 -1.328125 -0.546875q-0.578125 -0.34375 -1.0 -0.796875q-0.421875 -0.46875 -0.734375 -0.953125l2.0625 -1.59375q0.4375 0.796875 1.078125 1.3125q0.640625 0.515625 1.71875 0.515625q1.015625 0 1.546875 -0.46875q0.546875 -0.46875 0.546875 -1.296875l0 -0.125q0 -0.796875 -0.625 -1.203125q-0.609375 -0.40625 -1.703125 -0.40625l-1.21875 0l0 -2.328125l1.234375 0zm11.693726 8.09375q-1.046875 0 -1.5 -0.453125q-0.45309448 -0.453125 -0.45309448 -1.09375l0 -0.65625q0 -0.625 0.45309448 -1.078125q0.453125 -0.46875 1.5 -0.46875q1.046875 0 1.5 0.46875q0.46875 0.453125 0.46875 1.078125l0 0.65625q0 0.640625 -0.46875 1.09375q-0.453125 0.453125 -1.5 0.453125zm0 -6.328125q-1.046875 0 -1.5 -0.453125q-0.45309448 -0.453125 -0.45309448 -1.09375l0 -0.65625q0 -0.625 0.45309448 -1.078125q0.453125 -0.46875 1.5 -0.46875q1.046875 0 1.5 0.46875q0.46875 0.453125 0.46875 1.078125l0 0.65625q0 0.640625 -0.46875 1.09375q-0.453125 0.453125 -1.5 0.453125zm11.271881 6.328125q-1.171875 0 -2.09375 -0.359375q-0.921875 -0.359375 -1.5625 -1.03125q-0.640625 -0.6875 -0.984375 -1.640625q-0.328125 -0.953125 -0.328125 -2.125q0 -1.375 0.421875 -2.59375q0.4375 -1.21875 1.109375 -2.25q0.6875 -1.046875 1.53125 -1.859375q0.859375 -0.828125 1.703125 -1.375l3.859375 0q-1.21875 0.828125 -2.1875 1.609375q-0.953125 0.765625 -1.671875 1.546875q-0.71875 0.78125 -1.171875 1.609375q-0.453125 0.8125 -0.65625 1.75l0.171875 0.0625q0.15625 -0.375 0.390625 -0.71875q0.25 -0.359375 0.609375 -0.625q0.359375 -0.28125 0.828125 -0.4375q0.484375 -0.171875 1.109375 -0.171875q0.828125 0 1.53125 0.296875q0.71875 0.28125 1.21875 0.8125q0.515625 0.53125 0.8125 1.28125q0.296875 0.734375 0.296875 1.671875q0 0.984375 -0.359375 1.828125q-0.34375 0.84375 -0.984375 1.453125q-0.640625 0.59375 -1.5625 0.9375q-0.90625 0.328125 -2.03125 0.328125zm-0.015625 -2.171875q1.0 0 1.515625 -0.53125q0.53125 -0.53125 0.53125 -1.515625l0 -0.25q0 -0.96875 -0.53125 -1.484375q-0.53125 -0.515625 -1.515625 -0.515625q-0.953125 0 -1.5 0.515625q-0.53125 0.515625 -0.53125 1.484375l0 0.25q0 0.984375 0.5 1.515625q0.515625 0.53125 1.53125 0.53125z" fill-rule="nonzero"/><path fill="#cc9f26" d="m490.75592 312.28873l67.08661 0l0 67.08661l-67.08661 0z" fill-rule="evenodd"/><path fill="#ffffff" d="m513.1805 352.97076q-1.171875 0 -2.0937805 -0.359375q-0.921875 -0.359375 -1.5625 -1.03125q-0.640625 -0.6875 -0.984375 -1.640625q-0.328125 -0.953125 -0.328125 -2.125q0 -1.375 0.421875 -2.59375q0.4375 -1.21875 1.109375 -2.25q0.6875 -1.046875 1.53125 -1.859375q0.8594055 -0.828125 1.7031555 -1.375l3.859375 0q-1.21875 0.828125 -2.1875 1.609375q-0.953125 0.765625 -1.671875 1.546875q-0.71875 0.78125 -1.1719055 1.609375q-0.453125 0.8125 -0.65625 1.75l0.171875 0.0625q0.15625 -0.375 0.390625 -0.71875q0.25 -0.359375 0.6094055 -0.625q0.359375 -0.28125 0.828125 -0.4375q0.484375 -0.171875 1.109375 -0.171875q0.828125 0 1.53125 0.296875q0.71875 0.28125 1.21875 0.8125q0.515625 0.53125 0.8125 1.28125q0.296875 0.734375 0.296875 1.671875q0 0.984375 -0.359375 1.828125q-0.34375 0.84375 -0.984375 1.453125q-0.640625 0.59375 -1.5625 0.9375q-0.90625 0.328125 -2.03125 0.328125zm-0.015625 -2.171875q1.0 0 1.515625 -0.53125q0.53125 -0.53125 0.53125 -1.515625l0 -0.25q0 -0.96875 -0.53125 -1.484375q-0.53125 -0.515625 -1.515625 -0.515625q-0.953125 0 -1.5000305 0.515625q-0.53125 0.515625 -0.53125 1.484375l0 0.25q0 0.984375 0.5 1.515625q0.5156555 0.53125 1.5312805 0.53125zm11.131226 2.171875q-1.046875 0 -1.5 -0.453125q-0.453125 -0.453125 -0.453125 -1.09375l0 -0.65625q0 -0.625 0.453125 -1.078125q0.453125 -0.46875 1.5 -0.46875q1.046875 0 1.5 0.46875q0.46875 0.453125 0.46875 1.078125l0 0.65625q0 0.640625 -0.46875 1.09375q-0.453125 0.453125 -1.5 0.453125zm0 -6.328125q-1.046875 0 -1.5 -0.453125q-0.453125 -0.453125 -0.453125 -1.09375l0 -0.65625q0 -0.625 0.453125 -1.078125q0.453125 -0.46875 1.5 -0.46875q1.046875 0 1.5 0.46875q0.46875 0.453125 0.46875 1.078125l0 0.65625q0 0.640625 -0.46875 1.09375q-0.453125 0.453125 -1.5 0.453125zm16.084412 -1.96875q0 1.375 -0.4375 2.59375q-0.421875 1.21875 -1.109375 2.25q-0.671875 1.03125 -1.53125 1.859375q-0.84375 0.8125 -1.671875 1.375l-3.875 0q1.21875 -0.84375 2.171875 -1.609375q0.96875 -0.78125 1.6875 -1.546875q0.71875 -0.78125 1.171875 -1.59375q0.453125 -0.828125 0.671875 -1.78125l-0.171875 -0.046875q-0.171875 0.359375 -0.421875 0.71875q-0.25 0.359375 -0.59375 0.625q-0.34375 0.265625 -0.828125 0.4375q-0.46875 0.171875 -1.109375 0.171875q-0.8125 0 -1.53125 -0.28125q-0.703125 -0.296875 -1.21875 -0.828125q-0.515625 -0.53125 -0.8125 -1.28125q-0.296875 -0.75 -0.296875 -1.671875q0 -1.0 0.34375 -1.828125q0.359375 -0.84375 1.0 -1.453125q0.65625 -0.609375 1.5625 -0.9375q0.921875 -0.34375 2.03125 -0.34375q1.1875 0 2.109375 0.375q0.921875 0.359375 1.546875 1.046875q0.640625 0.671875 0.96875 1.625q0.34375 0.953125 0.34375 2.125zm-4.9375 1.3125q0.953125 0 1.484375 -0.515625q0.546875 -0.515625 0.546875 -1.484375l0 -0.265625q0 -0.96875 -0.515625 -1.5q-0.515625 -0.53125 -1.515625 -0.53125q-1.015625 0 -1.546875 0.53125q-0.515625 0.53125 -0.515625 1.5l0 0.265625q0 0.96875 0.53125 1.484375q0.53125 0.515625 1.53125 0.515625z" fill-rule="nonzero"/><path fill="#000000" fill-opacity="0.0" d="m223.00787 386.44604l192.09448 0l0 38.771667l-192.09448 0z" fill-rule="evenodd"/><path fill="#000000" d="m325.5711 399.3842l0 9.3125l5.5625 0l0 2.109375l-8.078125 0l0 -11.421875l2.515625 0zm10.4609375 2.921875q1.9375 0 3.109375 1.203125q1.171875 1.203125 1.171875 3.171875q0 1.96875 -1.1875 3.171875q-1.171875 1.1875 -3.09375 1.1875q-1.921875 0 -3.109375 -1.203125q-1.171875 -1.203125 -1.171875 -3.15625q0 -1.96875 1.15625 -3.171875q1.15625 -1.203125 3.125 -1.203125zm-2.0 4.375q0 1.296875 0.53125 1.96875q0.53125 0.671875 1.46875 0.671875q0.96875 0 1.484375 -0.6875q0.53125 -0.703125 0.53125 -1.953125q0 -1.234375 -0.515625 -1.9375q-0.5 -0.71875 -1.515625 -0.71875q-0.921875 0 -1.453125 0.65625q-0.53125 0.65625 -0.53125 2.0zm11.7109375 -4.375q1.609375 0 2.703125 0.828125q1.09375 0.828125 1.1875 2.3125l-2.21875 0q-0.109375 -0.71875 -0.53125 -1.0625q-0.421875 -0.359375 -1.15625 -0.359375q-0.90625 0 -1.421875 0.75q-0.5 0.75 -0.5 1.9375q0 1.1875 0.5 1.90625q0.5 0.703125 1.375 0.703125q0.765625 0 1.234375 -0.4375q0.46875 -0.4375 0.578125 -1.25l2.1875 0q-0.21875 1.640625 -1.28125 2.53125q-1.046875 0.875 -2.703125 0.875q-1.84375 0 -3.015625 -1.1875q-1.15625 -1.1875 -1.15625 -3.0625q0 -2.015625 1.140625 -3.25q1.15625 -1.234375 3.078125 -1.234375zm9.03125 0q1.828125 0 2.71875 0.609375q0.90625 0.59375 0.90625 1.6875l0 4.4375q0 0.5 0.0625 1.0q0.0625 0.5 0.21875 0.765625l-2.296875 0q-0.0625 -0.1875 -0.109375 -0.390625q-0.046875 -0.203125 -0.0625 -0.40625q-0.46875 0.5 -1.1875 0.765625q-0.703125 0.265625 -1.59375 0.265625q-1.28125 0 -2.046875 -0.640625q-0.765625 -0.65625 -0.765625 -1.859375q0 -1.15625 0.71875 -1.765625q0.71875 -0.609375 2.625 -0.828125q1.3125 -0.125 1.734375 -0.3125q0.421875 -0.203125 0.421875 -0.703125q0 -0.546875 -0.328125 -0.828125q-0.3125 -0.28125 -1.125 -0.28125q-0.703125 0 -1.078125 0.3125q-0.375 0.296875 -0.4375 0.9375l-2.28125 0q0.09375 -1.359375 1.125 -2.0625q1.03125 -0.703125 2.78125 -0.703125zm-1.890625 6.140625q0 0.5 0.328125 0.78125q0.34375 0.28125 1.078125 0.28125q0.90625 0 1.359375 -0.46875q0.46875 -0.484375 0.46875 -1.40625l0 -0.875q-0.203125 0.15625 -0.53125 0.25q-0.328125 0.078125 -1.203125 0.203125q-0.765625 0.09375 -1.140625 0.40625q-0.359375 0.296875 -0.359375 0.828125zm9.609375 -9.0625l0 11.421875l-2.265625 0l0 -11.421875l2.265625 0zm10.4140625 -0.28125q2.0625 0 3.3125 0.96875q1.25 0.953125 1.25 2.71875l-2.421875 0q-0.0625 -0.859375 -0.59375 -1.296875q-0.53125 -0.4375 -1.65625 -0.4375q-0.765625 0 -1.25 0.34375q-0.484375 0.328125 -0.484375 0.953125q0 0.4375 0.203125 0.65625q0.203125 0.203125 0.828125 0.4375q0.625 0.21875 2.75 0.71875q1.421875 0.34375 2.21875 1.171875q0.796875 0.8125 0.796875 2.078125q0 1.65625 -1.25 2.671875q-1.234375 1.0 -3.5 1.0q-2.15625 0 -3.515625 -1.0625q-1.359375 -1.078125 -1.359375 -2.953125l0 -0.0625l2.4375 0q0.015625 1.0625 0.703125 1.59375q0.703125 0.515625 1.828125 0.515625q1.015625 0 1.609375 -0.359375q0.609375 -0.375 0.609375 -1.0625q0 -0.546875 -0.46875 -0.90625q-0.453125 -0.359375 -1.484375 -0.609375q-1.3125 -0.296875 -2.390625 -0.625q-1.0625 -0.34375 -1.765625 -1.078125q-0.6875 -0.75 -0.6875 -1.921875q0 -1.53125 1.21875 -2.484375q1.234375 -0.96875 3.0625 -0.96875zm10.1640625 3.203125q1.609375 0 2.703125 0.828125q1.09375 0.828125 1.1875 2.3125l-2.21875 0q-0.109375 -0.71875 -0.53125 -1.0625q-0.421875 -0.359375 -1.15625 -0.359375q-0.90625 0 -1.421875 0.75q-0.5 0.75 -0.5 1.9375q0 1.1875 0.5 1.90625q0.5 0.703125 1.375 0.703125q0.765625 0 1.234375 -0.4375q0.46875 -0.4375 0.578125 -1.25l2.1875 0q-0.21875 1.640625 -1.28125 2.53125q-1.046875 0.875 -2.703125 0.875q-1.84375 0 -3.015625 -1.1875q-1.15625 -1.1875 -1.15625 -3.0625q0 -2.015625 1.140625 -3.25q1.15625 -1.234375 3.078125 -1.234375zm9.03125 0q1.828125 0 2.71875 0.609375q0.90625 0.59375 0.90625 1.6875l0 4.4375q0 0.5 0.0625 1.0q0.0625 0.5 0.21875 0.765625l-2.296875 0q-0.0625 -0.1875 -0.109375 -0.390625q-0.046875 -0.203125 -0.0625 -0.40625q-0.46875 0.5 -1.1875 0.765625q-0.703125 0.265625 -1.59375 0.265625q-1.28125 0 -2.046875 -0.640625q-0.765625 -0.65625 -0.765625 -1.859375q0 -1.15625 0.71875 -1.765625q0.71875 -0.609375 2.625 -0.828125q1.3125 -0.125 1.734375 -0.3125q0.421875 -0.203125 0.421875 -0.703125q0 -0.546875 -0.328125 -0.828125q-0.3125 -0.28125 -1.125 -0.28125q-0.703125 0 -1.078125 0.3125q-0.375 0.296875 -0.4375 0.9375l-2.28125 0q0.09375 -1.359375 1.125 -2.0625q1.03125 -0.703125 2.78125 -0.703125zm-1.890625 6.140625q0 0.5 0.328125 0.78125q0.34375 0.28125 1.078125 0.28125q0.90625 0 1.359375 -0.46875q0.46875 -0.484375 0.46875 -1.40625l0 -0.875q-0.203125 0.15625 -0.53125 0.25q-0.328125 0.078125 -1.203125 0.203125q-0.765625 0.09375 -1.140625 0.40625q-0.359375 0.296875 -0.359375 0.828125zm12.015625 -6.140625q1.59375 0 2.296875 0.8125q0.71875 0.796875 0.71875 2.515625l0 5.171875l-2.265625 0l0 -4.75q0 -0.96875 -0.34375 -1.453125q-0.328125 -0.5 -1.109375 -0.5q-0.953125 0 -1.359375 0.5625q-0.40625 0.5625 -0.40625 1.71875l0 4.421875l-2.265625 0l0 -8.28125l2.15625 0l0 1.15625l0.046875 0q0.40625 -0.65625 1.0625 -1.015625q0.671875 -0.359375 1.46875 -0.359375z" fill-rule="nonzero"/><path fill="#cccccc" d="m413.98425 405.00262l14.527557 0l0 -20.015747l29.055115 0l0 20.015747l14.527557 0l-29.055115 20.015778z" fill-rule="evenodd"/><path fill="#cccccc" d="m319.48032 426.11548l247.11813 0l0 79.433075l-247.11813 0z" fill-rule="evenodd"/><path fill="#208020" d="m328.2362 432.28873l67.08664 0l0 67.08661l-67.08664 0z" fill-rule="evenodd"/><path fill="#ffffff" d="m350.58264 472.97076q-2.609375 0 -3.859375 -1.765625q-1.234375 -1.78125 -1.234375 -4.96875q0 -3.1875 1.234375 -4.953125q1.25 -1.78125 3.859375 -1.78125q2.609375 0 3.84375 1.78125q1.25 1.765625 1.25 4.953125q0 3.1875 -1.25 4.96875q-1.234375 1.765625 -3.84375 1.765625zm0 -2.203125q1.25 0 1.734375 -0.875q0.5 -0.875 0.5 -2.4375l0 -2.421875q0 -1.578125 -0.5 -2.453125q-0.484375 -0.875 -1.734375 -0.875q-1.25 0 -1.75 0.875q-0.484375 0.875 -0.484375 2.453125l0 2.421875q0 1.5625 0.484375 2.4375q0.5 0.875 1.75 0.875zm0 -3.421875q-0.65625 0 -0.90625 -0.265625q-0.25 -0.265625 -0.25 -0.640625l0 -0.40625q0 -0.375 0.25 -0.625q0.25 -0.265625 0.90625 -0.265625q0.65625 0 0.90625 0.265625q0.25 0.25 0.25 0.625l0 0.40625q0 0.375 -0.25 0.640625q-0.25 0.265625 -0.90625 0.265625zm11.193756 5.625q-1.046875 0 -1.5 -0.453125q-0.453125 -0.453125 -0.453125 -1.09375l0 -0.65625q0 -0.625 0.453125 -1.078125q0.453125 -0.46875 1.5 -0.46875q1.046875 0 1.5 0.46875q0.46875 0.453125 0.46875 1.078125l0 0.65625q0 0.640625 -0.46875 1.09375q-0.453125 0.453125 -1.5 0.453125zm0 -6.328125q-1.046875 0 -1.5 -0.453125q-0.453125 -0.453125 -0.453125 -1.09375l0 -0.65625q0 -0.625 0.453125 -1.078125q0.453125 -0.46875 1.5 -0.46875q1.046875 0 1.5 0.46875q0.46875 0.453125 0.46875 1.078125l0 0.65625q0 0.640625 -0.46875 1.09375q-0.453125 0.453125 -1.5 0.453125zm10.693756 -1.765625q1.078125 0 1.5625 -0.40625q0.5 -0.40625 0.5 -1.015625l0 -0.125q0 -0.703125 -0.46875 -1.125q-0.46875 -0.421875 -1.359375 -0.421875q-0.796875 0 -1.5 0.40625q-0.6875 0.390625 -1.171875 1.140625l-1.78125 -1.640625q0.375 -0.484375 0.8125 -0.875q0.453125 -0.40625 1.0 -0.6875q0.546875 -0.296875 1.21875 -0.453125q0.6875 -0.171875 1.546875 -0.171875q1.0625 0 1.921875 0.25q0.859375 0.234375 1.453125 0.703125q0.609375 0.453125 0.9375 1.09375q0.34375 0.625 0.34375 1.40625q0 0.625 -0.203125 1.125q-0.203125 0.5 -0.546875 0.875q-0.34375 0.375 -0.8125 0.609375q-0.453125 0.234375 -0.96875 0.328125l0 0.109375q1.1875 0.203125 1.984375 1.0q0.796875 0.78125 0.796875 2.125q0 0.875 -0.375 1.59375q-0.359375 0.703125 -1.03125 1.21875q-0.65625 0.5 -1.59375 0.765625q-0.9375 0.265625 -2.09375 0.265625q-1.0 0 -1.75 -0.203125q-0.75 -0.203125 -1.328125 -0.546875q-0.578125 -0.34375 -1.0 -0.796875q-0.421875 -0.46875 -0.734375 -0.953125l2.0625 -1.59375q0.4375 0.796875 1.078125 1.3125q0.640625 0.515625 1.71875 0.515625q1.015625 0 1.546875 -0.46875q0.546875 -0.46875 0.546875 -1.296875l0 -0.125q0 -0.796875 -0.625 -1.203125q-0.609375 -0.40625 -1.703125 -0.40625l-1.21875 0l0 -2.328125l1.234375 0z" fill-rule="nonzero"/><path fill="#208020" d="m409.49606 432.28873l67.08661 0l0 67.08661l-67.08661 0z" fill-rule="evenodd"/><path fill="#ffffff" d="m431.8425 472.97076q-2.609375 0 -3.859375 -1.765625q-1.234375 -1.78125 -1.234375 -4.96875q0 -3.1875 1.234375 -4.953125q1.25 -1.78125 3.859375 -1.78125q2.609375 0 3.84375 1.78125q1.25 1.765625 1.25 4.953125q0 3.1875 -1.25 4.96875q-1.234375 1.765625 -3.84375 1.765625zm0 -2.203125q1.25 0 1.734375 -0.875q0.5 -0.875 0.5 -2.4375l0 -2.421875q0 -1.578125 -0.5 -2.453125q-0.484375 -0.875 -1.734375 -0.875q-1.25 0 -1.75 0.875q-0.484375 0.875 -0.484375 2.453125l0 2.421875q0 1.5625 0.484375 2.4375q0.5 0.875 1.75 0.875zm0 -3.421875q-0.65625 0 -0.90625 -0.265625q-0.25 -0.265625 -0.25 -0.640625l0 -0.40625q0 -0.375 0.25 -0.625q0.25 -0.265625 0.90625 -0.265625q0.65625 0 0.90625 0.265625q0.25 0.25 0.25 0.625l0 0.40625q0 0.375 -0.25 0.640625q-0.25 0.265625 -0.90625 0.265625zm11.193726 5.625q-1.046875 0 -1.5 -0.453125q-0.45309448 -0.453125 -0.45309448 -1.09375l0 -0.65625q0 -0.625 0.45309448 -1.078125q0.453125 -0.46875 1.5 -0.46875q1.046875 0 1.5 0.46875q0.46875 0.453125 0.46875 1.078125l0 0.65625q0 0.640625 -0.46875 1.09375q-0.453125 0.453125 -1.5 0.453125zm0 -6.328125q-1.046875 0 -1.5 -0.453125q-0.45309448 -0.453125 -0.45309448 -1.09375l0 -0.65625q0 -0.625 0.45309448 -1.078125q0.453125 -0.46875 1.5 -0.46875q1.046875 0 1.5 0.46875q0.46875 0.453125 0.46875 1.078125l0 0.65625q0 0.640625 -0.46875 1.09375q-0.453125 0.453125 -1.5 0.453125zm11.271881 6.328125q-1.171875 0 -2.09375 -0.359375q-0.921875 -0.359375 -1.5625 -1.03125q-0.640625 -0.6875 -0.984375 -1.640625q-0.328125 -0.953125 -0.328125 -2.125q0 -1.375 0.421875 -2.59375q0.4375 -1.21875 1.109375 -2.25q0.6875 -1.046875 1.53125 -1.859375q0.859375 -0.828125 1.703125 -1.375l3.859375 0q-1.21875 0.828125 -2.1875 1.609375q-0.953125 0.765625 -1.671875 1.546875q-0.71875 0.78125 -1.171875 1.609375q-0.453125 0.8125 -0.65625 1.75l0.171875 0.0625q0.15625 -0.375 0.390625 -0.71875q0.25 -0.359375 0.609375 -0.625q0.359375 -0.28125 0.828125 -0.4375q0.484375 -0.171875 1.109375 -0.171875q0.828125 0 1.53125 0.296875q0.71875 0.28125 1.21875 0.8125q0.515625 0.53125 0.8125 1.28125q0.296875 0.734375 0.296875 1.671875q0 0.984375 -0.359375 1.828125q-0.34375 0.84375 -0.984375 1.453125q-0.640625 0.59375 -1.5625 0.9375q-0.90625 0.328125 -2.03125 0.328125zm-0.015625 -2.171875q1.0 0 1.515625 -0.53125q0.53125 -0.53125 0.53125 -1.515625l0 -0.25q0 -0.96875 -0.53125 -1.484375q-0.53125 -0.515625 -1.515625 -0.515625q-0.953125 0 -1.5 0.515625q-0.53125 0.515625 -0.53125 1.484375l0 0.25q0 0.984375 0.5 1.515625q0.515625 0.53125 1.53125 0.53125z" fill-rule="nonzero"/><path fill="#208020" d="m490.75592 432.28873l67.08661 0l0 67.08661l-67.08661 0z" fill-rule="evenodd"/><path fill="#ffffff" d="m513.10236 472.97076q-2.6094055 0 -3.8594055 -1.765625q-1.234375 -1.78125 -1.234375 -4.96875q0 -3.1875 1.234375 -4.953125q1.25 -1.78125 3.8594055 -1.78125q2.609375 0 3.84375 1.78125q1.25 1.765625 1.25 4.953125q0 3.1875 -1.25 4.96875q-1.234375 1.765625 -3.84375 1.765625zm0 -2.203125q1.25 0 1.734375 -0.875q0.5 -0.875 0.5 -2.4375l0 -2.421875q0 -1.578125 -0.5 -2.453125q-0.484375 -0.875 -1.734375 -0.875q-1.2500305 0 -1.7500305 0.875q-0.484375 0.875 -0.484375 2.453125l0 2.421875q0 1.5625 0.484375 2.4375q0.5 0.875 1.7500305 0.875zm0 -3.421875q-0.65625 0 -0.90625 -0.265625q-0.25003052 -0.265625 -0.25003052 -0.640625l0 -0.40625q0 -0.375 0.25003052 -0.625q0.25 -0.265625 0.90625 -0.265625q0.65625 0 0.90625 0.265625q0.25 0.25 0.25 0.625l0 0.40625q0 0.375 -0.25 0.640625q-0.25 0.265625 -0.90625 0.265625zm11.193726 5.625q-1.046875 0 -1.5 -0.453125q-0.453125 -0.453125 -0.453125 -1.09375l0 -0.65625q0 -0.625 0.453125 -1.078125q0.453125 -0.46875 1.5 -0.46875q1.046875 0 1.5 0.46875q0.46875 0.453125 0.46875 1.078125l0 0.65625q0 0.640625 -0.46875 1.09375q-0.453125 0.453125 -1.5 0.453125zm0 -6.328125q-1.046875 0 -1.5 -0.453125q-0.453125 -0.453125 -0.453125 -1.09375l0 -0.65625q0 -0.625 0.453125 -1.078125q0.453125 -0.46875 1.5 -0.46875q1.046875 0 1.5 0.46875q0.46875 0.453125 0.46875 1.078125l0 0.65625q0 0.640625 -0.46875 1.09375q-0.453125 0.453125 -1.5 0.453125zm16.084412 -1.96875q0 1.375 -0.4375 2.59375q-0.421875 1.21875 -1.109375 2.25q-0.671875 1.03125 -1.53125 1.859375q-0.84375 0.8125 -1.671875 1.375l-3.875 0q1.21875 -0.84375 2.171875 -1.609375q0.96875 -0.78125 1.6875 -1.546875q0.71875 -0.78125 1.171875 -1.59375q0.453125 -0.828125 0.671875 -1.78125l-0.171875 -0.046875q-0.171875 0.359375 -0.421875 0.71875q-0.25 0.359375 -0.59375 0.625q-0.34375 0.265625 -0.828125 0.4375q-0.46875 0.171875 -1.109375 0.171875q-0.8125 0 -1.53125 -0.28125q-0.703125 -0.296875 -1.21875 -0.828125q-0.515625 -0.53125 -0.8125 -1.28125q-0.296875 -0.75 -0.296875 -1.671875q0 -1.0 0.34375 -1.828125q0.359375 -0.84375 1.0 -1.453125q0.65625 -0.609375 1.5625 -0.9375q0.921875 -0.34375 2.03125 -0.34375q1.1875 0 2.109375 0.375q0.921875 0.359375 1.546875 1.046875q0.640625 0.671875 0.96875 1.625q0.34375 0.953125 0.34375 2.125zm-4.9375 1.3125q0.953125 0 1.484375 -0.515625q0.546875 -0.515625 0.546875 -1.484375l0 -0.265625q0 -0.96875 -0.515625 -1.5q-0.515625 -0.53125 -1.515625 -0.53125q-1.015625 0 -1.546875 0.53125q-0.515625 0.53125 -0.515625 1.5l0 0.265625q0 0.96875 0.53125 1.484375q0.53125 0.515625 1.53125 0.515625z" fill-rule="nonzero"/></g></svg>