<svg version="1.1" viewBox="0.0 0.0 573.9291338582677 442.498687664042" fill="none" stroke="none" stroke-linecap="square" stroke-miterlimit="10" xmlns:xlink="http://www.w3.org/1999/xlink" xmlns="http://www.w3.org/2000/svg"><clipPath id="p.0"><path d="m0 0l573.92914 0l0 442.4987l-573.92914 0l0 -442.4987z" clip-rule="nonzero"/></clipPath><g clip-path="url(#p.0)"><path fill="#ffffff" d="m0 0l573.92914 0l0 442.4987l-573.92914 0z" fill-rule="evenodd"/><path fill="#000000" fill-opacity="0.0" d="m15.98294 10.643044l447.1496 0l0 54.92914l-447.1496 0z" fill-rule="evenodd"/><path fill="#000000" d="m31.607939 26.865545l0 17.078123l10.218752 0l0 3.859375l-14.828127 0l0 -20.937498l4.609375 0zm19.183107 5.374998q3.5625 0 5.703125 2.203125q2.15625 2.1875 2.15625 5.796875q0 3.625 -2.171875 5.8125q-2.171875 2.171875 -5.6875 2.171875q-3.53125 0 -5.6875 -2.1875q-2.15625 -2.203125 -2.15625 -5.796875q0 -3.59375 2.125 -5.796875q2.125 -2.203125 5.71875 -2.203125zm-3.671875 8.0q0 2.390625 0.984375 3.625q0.984375 1.21875 2.6875 1.21875q1.765625 0 2.71875 -1.265625q0.96875 -1.265625 0.96875 -3.578125q0 -2.265625 -0.9375 -3.5625q-0.921875 -1.3125 -2.78125 -1.3125q-1.671875 0 -2.65625 1.21875q-0.984375 1.203125 -0.984375 3.65625zm21.477295 -8.0q2.9375 0 4.953125 1.515625q2.015625 1.515625 2.1875 4.21875l-4.078125 0q-0.1875 -1.296875 -0.96875 -1.953125q-0.765625 -0.65625 -2.109375 -0.65625q-1.6875 0 -2.625 1.375q-0.921875 1.375 -0.921875 3.5625q0 2.171875 0.921875 3.484375q0.921875 1.296875 2.53125 1.296875q1.390625 0 2.25 -0.796875q0.859375 -0.796875 1.078125 -2.296875l4.0 0q-0.40625 3.0 -2.34375 4.625q-1.9375 1.609375 -4.953125 1.609375q-3.375 0 -5.515625 -2.171875q-2.140625 -2.171875 -2.140625 -5.609375q0 -3.6875 2.09375 -5.9375q2.109375 -2.265625 5.640625 -2.265625zm16.543884 0q3.375 0 5.0 1.109375q1.640625 1.09375 1.640625 3.09375l0 8.140625q0 0.90625 0.125 1.828125q0.125 0.921875 0.40625 1.390625l-4.21875 0q-0.109375 -0.34375 -0.1875 -0.703125q-0.078125 -0.375 -0.109375 -0.75q-0.875 0.90625 -2.171875 1.390625q-1.296875 0.484375 -2.9375 0.484375q-2.34375 0 -3.75 -1.1875q-1.40625 -1.1875 -1.40625 -3.375q0 -2.125 1.3125 -3.234375q1.328125 -1.125 4.8125 -1.515625q2.421875 -0.234375 3.1875 -0.59375q0.78125 -0.375 0.78125 -1.265625q0 -1.015625 -0.59375 -1.515625q-0.59375 -0.515625 -2.09375 -0.515625q-1.28125 0 -1.96875 0.546875q-0.6875 0.546875 -0.796875 1.734375l-4.171875 0q0.171875 -2.484375 2.046875 -3.765625q1.890625 -1.296875 5.09375 -1.296875zm-3.453125 11.25q0 0.90625 0.609375 1.421875q0.625 0.515625 1.953125 0.515625q1.671875 0 2.515625 -0.875q0.859375 -0.875 0.859375 -2.546875l0 -1.625q-0.375 0.296875 -0.984375 0.453125q-0.609375 0.15625 -2.203125 0.375q-1.40625 0.1875 -2.078125 0.75q-0.671875 0.546875 -0.671875 1.53125zm17.62201 -16.624998l0 20.937498l-4.171875 0l0 -20.937498l4.171875 0zm19.068832 -0.5q3.796875 0 6.078125 1.765625q2.296875 1.75 2.296875 4.984373l-4.453125 0q-0.09375 -1.5781231 -1.078125 -2.374998q-0.96875 -0.796875 -3.03125 -0.796875q-1.40625 0 -2.296875 0.625q-0.890625 0.609375 -0.890625 1.7499981q0 0.796875 0.375 1.1875q0.375 0.375 1.515625 0.796875q1.15625 0.421875 5.03125 1.34375q2.609375 0.625 4.0625 2.140625q1.46875 1.5 1.46875 3.796875q0 3.046875 -2.28125 4.890625q-2.265625 1.828125 -6.40625 1.828125q-3.953125 0 -6.453125 -1.9375q-2.484375 -1.953125 -2.484375 -5.390625l0 -0.125l4.453125 0q0.03125 1.953125 1.296875 2.921875q1.28125 0.953125 3.34375 0.953125q1.859375 0 2.96875 -0.671875q1.109375 -0.6875 1.109375 -1.9375q0 -1.015625 -0.859375 -1.65625q-0.84375 -0.65625 -2.71875 -1.140625q-2.40625 -0.53125 -4.375 -1.140625q-1.953125 -0.609375 -3.234375 -1.96875q-1.28125 -1.375 -1.28125 -3.515625q0 -2.812498 2.25 -4.562498q2.265625 -1.765625 5.59375 -1.765625zm18.64116 5.874998q2.9375 0 4.953125 1.515625q2.015625 1.515625 2.1875 4.21875l-4.078125 0q-0.1875 -1.296875 -0.96875 -1.953125q-0.765625 -0.65625 -2.109375 -0.65625q-1.6875 0 -2.625 1.375q-0.921875 1.375 -0.921875 3.5625q0 2.171875 0.921875 3.484375q0.921875 1.296875 2.53125 1.296875q1.390625 0 2.25 -0.796875q0.859375 -0.796875 1.078125 -2.296875l4.0 0q-0.40625 3.0 -2.34375 4.625q-1.9375 1.609375 -4.953125 1.609375q-3.375 0 -5.515625 -2.171875q-2.140625 -2.171875 -2.140625 -5.609375q0 -3.6875 2.09375 -5.9375q2.109375 -2.265625 5.640625 -2.265625zm16.543884 0q3.375 0 5.0 1.109375q1.640625 1.09375 1.640625 3.09375l0 8.140625q0 0.90625 0.125 1.828125q0.125 0.921875 0.40625 1.390625l-4.21875 0q-0.109375 -0.34375 -0.1875 -0.703125q-0.078125 -0.375 -0.109375 -0.75q-0.875 0.90625 -2.171875 1.390625q-1.296875 0.484375 -2.9375 0.484375q-2.34375 0 -3.75 -1.1875q-1.40625 -1.1875 -1.40625 -3.375q0 -2.125 1.3125 -3.234375q1.328125 -1.125 4.8125 -1.515625q2.421875 -0.234375 3.1875 -0.59375q0.78125 -0.375 0.78125 -1.265625q0 -1.015625 -0.59375 -1.515625q-0.59375 -0.515625 -2.09375 -0.515625q-1.28125 0 -1.96875 0.546875q-0.6875 0.546875 -0.796875 1.734375l-4.171875 0q0.171875 -2.484375 2.046875 -3.765625q1.890625 -1.296875 5.09375 -1.296875zm-3.453125 11.25q0 0.90625 0.609375 1.421875q0.625 0.515625 1.953125 0.515625q1.671875 0 2.515625 -0.875q0.859375 -0.875 0.859375 -2.546875l0 -1.625q-0.375 0.296875 -0.984375 0.453125q-0.609375 0.15625 -2.203125 0.375q-1.40625 0.1875 -2.078125 0.75q-0.671875 0.546875 -0.671875 1.53125zm22.02826 -11.25q2.90625 0 4.21875 1.46875q1.3125 1.46875 1.3125 4.609375l0 9.484375l-4.171875 0l0 -8.6875q0 -1.78125 -0.609375 -2.6875q-0.609375 -0.90625 -2.046875 -0.90625q-1.734375 0 -2.484375 1.03125q-0.75 1.03125 -0.75 3.15625l0 8.09375l-4.15625 0l0 -15.171875l3.953125 0l0 2.125l0.078125 0q0.765625 -1.21875 1.984375 -1.859375q1.21875 -0.65625 2.671875 -0.65625zm31.986359 -5.374998l0 3.875l-10.109375 0l0 4.828123l8.765625 0l0 3.578125l-8.765625 0l0 8.65625l-4.609375 0l0 -20.937498l14.71875 0zm6.5255585 0l0 3.421875l-4.171875 0l0 -3.421875l4.171875 0zm0 5.765623l0 15.171875l-4.171875 0l0 -15.171875l4.171875 0zm6.920532 0l2.65625 3.96875l2.640625 -3.96875l4.609375 0l-4.984375 7.109375l5.59375 8.0625l-4.75 0l-3.171875 -4.78125l-3.15625 4.78125l-4.671875 0l5.453125 -7.96875l-4.984375 -7.203125l4.765625 0zm20.893036 5.375l0 3.578125l-8.8125 0l0 -3.578125l8.8125 0zm8.115067 -11.140623l0 13.140623q0 2.265625 1.03125 3.34375q1.046875 1.078125 3.28125 1.078125q2.40625 0 3.359375 -1.046875q0.96875 -1.0625 0.96875 -3.359375l0 -13.156248l4.609375 0l0 13.156248q0 3.90625 -2.28125 6.09375q-2.265625 2.1875 -6.65625 2.1875q-4.421875 0 -6.671875 -2.15625q-2.25 -2.15625 -2.25 -6.125l0 -13.156248l4.609375 0zm25.316437 5.374998q3.21875 0 5.046875 2.25q1.84375 2.25 1.84375 5.890625q0 3.375 -1.8125 5.609375q-1.796875 2.234375 -4.84375 2.234375q-1.390625 0 -2.59375 -0.59375q-1.203125 -0.59375 -1.953125 -1.703125l-0.0625 0l0 7.21875l-4.15625 0l0 -20.515625l3.953125 0l0 1.9375l0.046875 0q0.75 -1.1875 1.90625 -1.75q1.15625 -0.578125 2.625 -0.578125zm-4.53125 8.03125q0 2.171875 0.921875 3.5q0.9375 1.3125 2.71875 1.3125q1.734375 0 2.671875 -1.25q0.9375 -1.265625 0.9375 -3.5625q0 -2.171875 -0.9375 -3.53125q-0.921875 -1.375 -2.734375 -1.375q-1.71875 0 -2.65625 1.296875q-0.921875 1.28125 -0.921875 3.609375z" fill-rule="nonzero"/><path fill="#cccccc" d="m264.51443 129.81102l247.1181 0l0 79.433075l-247.1181 0z" fill-rule="evenodd"/><path fill="#cc9f26" d="m273.27036 135.98425l67.08661 0l0 67.08661l-67.08661 0z" fill-rule="evenodd"/><path fill="#ffffff" d="m295.11676 168.57256q1.078125 0 1.5625 -0.40625q0.5 -0.40625 0.5 -1.015625l0 -0.125q0 -0.703125 -0.46875 -1.125q-0.46875 -0.421875 -1.359375 -0.421875q-0.796875 0 -1.5 0.40625q-0.6875 0.390625 -1.171875 1.140625l-1.78125 -1.640625q0.375 -0.484375 0.8125 -0.875q0.453125 -0.40625 1.0 -0.6875q0.546875 -0.296875 1.21875 -0.453125q0.6875 -0.171875 1.546875 -0.171875q1.0625 0 1.921875 0.25q0.859375 0.234375 1.453125 0.703125q0.609375 0.453125 0.9375 1.09375q0.34375 0.625 0.34375 1.40625q0 0.625 -0.203125 1.125q-0.203125 0.5 -0.546875 0.875q-0.34375 0.375 -0.8125 0.609375q-0.453125 0.234375 -0.96875 0.328125l0 0.109375q1.1875 0.203125 1.984375 1.0q0.796875 0.78125 0.796875 2.125q0 0.875 -0.375 1.59375q-0.359375 0.703125 -1.03125 1.21875q-0.65625 0.5 -1.59375 0.765625q-0.9375 0.265625 -2.09375 0.265625q-1.0 0 -1.75 -0.203125q-0.75 -0.203125 -1.328125 -0.546875q-0.578125 -0.34375 -1.0 -0.796875q-0.421875 -0.46875 -0.734375 -0.953125l2.0625 -1.59375q0.4375 0.796875 1.078125 1.3125q0.640625 0.515625 1.71875 0.515625q1.015625 0 1.546875 -0.46875q0.546875 -0.46875 0.546875 -1.296875l0 -0.125q0 -0.796875 -0.625 -1.203125q-0.609375 -0.40625 -1.703125 -0.40625l-1.21875 0l0 -2.328125l1.234375 0zm11.693756 8.09375q-1.046875 0 -1.5 -0.453125q-0.453125 -0.453125 -0.453125 -1.09375l0 -0.65625q0 -0.625 0.453125 -1.078125q0.453125 -0.46875 1.5 -0.46875q1.046875 0 1.5 0.46875q0.46875 0.453125 0.46875 1.078125l0 0.65625q0 0.640625 -0.46875 1.09375q-0.453125 0.453125 -1.5 0.453125zm0 -6.328125q-1.046875 0 -1.5 -0.453125q-0.453125 -0.453125 -0.453125 -1.09375l0 -0.65625q0 -0.625 0.453125 -1.078125q0.453125 -0.46875 1.5 -0.46875q1.046875 0 1.5 0.46875q0.46875 0.453125 0.46875 1.078125l0 0.65625q0 0.640625 -0.46875 1.09375q-0.453125 0.453125 -1.5 0.453125zm11.928131 6.109375l0 -2.5l-5.859375 0l0 -2.390625l5.1875 -8.125l3.359375 0l0 8.34375l1.671875 0l0 2.171875l-1.671875 0l0 2.5l-2.6875 0zm-3.609375 -4.671875l3.609375 0l0 -5.453125l-0.171875 0l-3.4375 5.453125z" fill-rule="nonzero"/><path fill="#cc9f26" d="m354.53018 135.98425l67.08661 0l0 67.08661l-67.08661 0z" fill-rule="evenodd"/><path fill="#ffffff" d="m376.37662 168.57256q1.078125 0 1.5625 -0.40625q0.5 -0.40625 0.5 -1.015625l0 -0.125q0 -0.703125 -0.46875 -1.125q-0.46875 -0.421875 -1.359375 -0.421875q-0.796875 0 -1.5 0.40625q-0.6875 0.390625 -1.171875 1.140625l-1.78125 -1.640625q0.375 -0.484375 0.8125 -0.875q0.453125 -0.40625 1.0 -0.6875q0.546875 -0.296875 1.21875 -0.453125q0.6875 -0.171875 1.546875 -0.171875q1.0625 0 1.921875 0.25q0.859375 0.234375 1.453125 0.703125q0.609375 0.453125 0.9375 1.09375q0.34375 0.625 0.34375 1.40625q0 0.625 -0.203125 1.125q-0.203125 0.5 -0.546875 0.875q-0.34375 0.375 -0.8125 0.609375q-0.453125 0.234375 -0.96875 0.328125l0 0.109375q1.1875 0.203125 1.984375 1.0q0.796875 0.78125 0.796875 2.125q0 0.875 -0.375 1.59375q-0.359375 0.703125 -1.03125 1.21875q-0.65625 0.5 -1.59375 0.765625q-0.9375 0.265625 -2.09375 0.265625q-1.0 0 -1.75 -0.203125q-0.75 -0.203125 -1.328125 -0.546875q-0.578125 -0.34375 -1.0 -0.796875q-0.421875 -0.46875 -0.734375 -0.953125l2.0625 -1.59375q0.4375 0.796875 1.078125 1.3125q0.640625 0.515625 1.71875 0.515625q1.015625 0 1.546875 -0.46875q0.546875 -0.46875 0.546875 -1.296875l0 -0.125q0 -0.796875 -0.625 -1.203125q-0.609375 -0.40625 -1.703125 -0.40625l-1.21875 0l0 -2.328125l1.234375 0zm11.693756 8.09375q-1.046875 0 -1.5 -0.453125q-0.453125 -0.453125 -0.453125 -1.09375l0 -0.65625q0 -0.625 0.453125 -1.078125q0.453125 -0.46875 1.5 -0.46875q1.046875 0 1.5 0.46875q0.46875 0.453125 0.46875 1.078125l0 0.65625q0 0.640625 -0.46875 1.09375q-0.453125 0.453125 -1.5 0.453125zm0 -6.328125q-1.046875 0 -1.5 -0.453125q-0.453125 -0.453125 -0.453125 -1.09375l0 -0.65625q0 -0.625 0.453125 -1.078125q0.453125 -0.46875 1.5 -0.46875q1.046875 0 1.5 0.46875q0.46875 0.453125 0.46875 1.078125l0 0.65625q0 0.640625 -0.46875 1.09375q-0.453125 0.453125 -1.5 0.453125zm15.396881 -4.46875l-6.03125 0l-0.296875 4.125l0.171875 0q0.203125 -0.453125 0.453125 -0.828125q0.265625 -0.390625 0.625 -0.65625q0.359375 -0.265625 0.8125 -0.40625q0.46875 -0.15625 1.078125 -0.15625q0.796875 0 1.515625 0.28125q0.71875 0.265625 1.265625 0.796875q0.546875 0.53125 0.859375 1.3125q0.328125 0.78125 0.328125 1.75q0 0.984375 -0.34375 1.828125q-0.328125 0.828125 -0.96875 1.453125q-0.640625 0.609375 -1.59375 0.953125q-0.953125 0.34375 -2.171875 0.34375q-0.953125 0 -1.703125 -0.203125q-0.734375 -0.203125 -1.3125 -0.546875q-0.5625 -0.34375 -0.984375 -0.796875q-0.421875 -0.46875 -0.71875 -0.953125l2.03125 -1.59375q0.234375 0.375 0.484375 0.71875q0.25 0.328125 0.578125 0.578125q0.328125 0.25 0.71875 0.390625q0.40625 0.140625 0.921875 0.140625q1.046875 0 1.578125 -0.5625q0.53125 -0.578125 0.53125 -1.53125l0 -0.15625q0 -0.90625 -0.546875 -1.421875q-0.53125 -0.53125 -1.484375 -0.53125q-0.78125 0 -1.296875 0.3125q-0.515625 0.296875 -0.765625 0.609375l-2.296875 -0.328125l0.484375 -7.359375l8.078125 0l0 2.4375z" fill-rule="nonzero"/><path fill="#cc9f26" d="m435.79004 135.98425l67.08661 0l0 67.08661l-67.08661 0z" fill-rule="evenodd"/><path fill="#ffffff" d="m457.63644 168.57256q1.078125 0 1.5625 -0.40625q0.5 -0.40625 0.5 -1.015625l0 -0.125q0 -0.703125 -0.46875 -1.125q-0.46875 -0.421875 -1.359375 -0.421875q-0.796875 0 -1.5 0.40625q-0.6875 0.390625 -1.171875 1.140625l-1.78125 -1.640625q0.375 -0.484375 0.8125 -0.875q0.453125 -0.40625 1.0 -0.6875q0.546875 -0.296875 1.21875 -0.453125q0.6875 -0.171875 1.546875 -0.171875q1.0625 0 1.921875 0.25q0.859375 0.234375 1.453125 0.703125q0.609375 0.453125 0.9375 1.09375q0.34375 0.625 0.34375 1.40625q0 0.625 -0.203125 1.125q-0.203125 0.5 -0.546875 0.875q-0.34375 0.375 -0.8125 0.609375q-0.453125 0.234375 -0.96875 0.328125l0 0.109375q1.1875 0.203125 1.984375 1.0q0.796875 0.78125 0.796875 2.125q0 0.875 -0.375 1.59375q-0.359375 0.703125 -1.03125 1.21875q-0.65625 0.5 -1.59375 0.765625q-0.9375 0.265625 -2.09375 0.265625q-1.0 0 -1.75 -0.203125q-0.75 -0.203125 -1.328125 -0.546875q-0.578125 -0.34375 -1.0 -0.796875q-0.421875 -0.46875 -0.734375 -0.953125l2.0625 -1.59375q0.4375 0.796875 1.078125 1.3125q0.640625 0.515625 1.71875 0.515625q1.015625 0 1.546875 -0.46875q0.546875 -0.46875 0.546875 -1.296875l0 -0.125q0 -0.796875 -0.625 -1.203125q-0.609375 -0.40625 -1.703125 -0.40625l-1.21875 0l0 -2.328125l1.234375 0zm11.693756 8.09375q-1.046875 0 -1.5 -0.453125q-0.453125 -0.453125 -0.453125 -1.09375l0 -0.65625q0 -0.625 0.453125 -1.078125q0.453125 -0.46875 1.5 -0.46875q1.046875 0 1.5 0.46875q0.46875 0.453125 0.46875 1.078125l0 0.65625q0 0.640625 -0.46875 1.09375q-0.453125 0.453125 -1.5 0.453125zm0 -6.328125q-1.046875 0 -1.5 -0.453125q-0.453125 -0.453125 -0.453125 -1.09375l0 -0.65625q0 -0.625 0.453125 -1.078125q0.453125 -0.46875 1.5 -0.46875q1.046875 0 1.5 0.46875q0.46875 0.453125 0.46875 1.078125l0 0.65625q0 0.640625 -0.46875 1.09375q-0.453125 0.453125 -1.5 0.453125zm11.271881 6.328125q-1.171875 0 -2.09375 -0.359375q-0.921875 -0.359375 -1.5625 -1.03125q-0.640625 -0.6875 -0.984375 -1.640625q-0.328125 -0.953125 -0.328125 -2.125q0 -1.375 0.421875 -2.59375q0.4375 -1.21875 1.109375 -2.25q0.6875 -1.046875 1.53125 -1.859375q0.859375 -0.828125 1.703125 -1.375l3.859375 0q-1.21875 0.828125 -2.1875 1.609375q-0.953125 0.765625 -1.671875 1.546875q-0.71875 0.78125 -1.171875 1.609375q-0.453125 0.8125 -0.65625 1.75l0.171875 0.0625q0.15625 -0.375 0.390625 -0.71875q0.25 -0.359375 0.609375 -0.625q0.359375 -0.28125 0.828125 -0.4375q0.484375 -0.171875 1.109375 -0.171875q0.828125 0 1.53125 0.296875q0.71875 0.28125 1.21875 0.8125q0.515625 0.53125 0.8125 1.28125q0.296875 0.734375 0.296875 1.671875q0 0.984375 -0.359375 1.828125q-0.34375 0.84375 -0.984375 1.453125q-0.640625 0.59375 -1.5625 0.9375q-0.90625 0.328125 -2.03125 0.328125zm-0.015625 -2.171875q1.0 0 1.515625 -0.53125q0.53125 -0.53125 0.53125 -1.515625l0 -0.25q0 -0.96875 -0.53125 -1.484375q-0.53125 -0.515625 -1.515625 -0.515625q-0.953125 0 -1.5 0.515625q-0.53125 0.515625 -0.53125 1.484375l0 0.25q0 0.984375 0.5 1.515625q0.515625 0.53125 1.53125 0.53125z" fill-rule="nonzero"/><path fill="#cccccc" d="m359.01837 259.06036l14.527557 0l0 -50.377945l29.055115 0l0 50.377945l14.527557 0l-29.055115 29.055115z" fill-rule="evenodd"/><path fill="#cccccc" d="m264.51443 289.81104l247.1181 0l0 79.433044l-247.1181 0z" fill-rule="evenodd"/><path fill="#2874aa" d="m273.27036 295.98425l67.08661 0l0 67.08661l-67.08661 0z" fill-rule="evenodd"/><path fill="#ffffff" d="m295.61676 336.6663q-2.609375 0 -3.859375 -1.765625q-1.234375 -1.78125 -1.234375 -4.96875q0 -3.1875 1.234375 -4.953125q1.25 -1.78125 3.859375 -1.78125q2.609375 0 3.84375 1.78125q1.25 1.765625 1.25 4.953125q0 3.1875 -1.25 4.96875q-1.234375 1.765625 -3.84375 1.765625zm0 -2.203125q1.25 0 1.734375 -0.875q0.5 -0.875 0.5 -2.4375l0 -2.421875q0 -1.578125 -0.5 -2.453125q-0.484375 -0.875 -1.734375 -0.875q-1.25 0 -1.75 0.875q-0.484375 0.875 -0.484375 2.453125l0 2.421875q0 1.5625 0.484375 2.4375q0.5 0.875 1.75 0.875zm0 -3.421875q-0.65625 0 -0.90625 -0.265625q-0.25 -0.265625 -0.25 -0.640625l0 -0.40625q0 -0.375 0.25 -0.625q0.25 -0.265625 0.90625 -0.265625q0.65625 0 0.90625 0.265625q0.25 0.25 0.25 0.625l0 0.40625q0 0.375 -0.25 0.640625q-0.25 0.265625 -0.90625 0.265625zm11.193756 5.625q-1.046875 0 -1.5 -0.453125q-0.453125 -0.453125 -0.453125 -1.09375l0 -0.65625q0 -0.625 0.453125 -1.078125q0.453125 -0.46875 1.5 -0.46875q1.046875 0 1.5 0.46875q0.46875 0.453125 0.46875 1.078125l0 0.65625q0 0.640625 -0.46875 1.09375q-0.453125 0.453125 -1.5 0.453125zm0 -6.328125q-1.046875 0 -1.5 -0.453125q-0.453125 -0.453125 -0.453125 -1.09375l0 -0.65625q0 -0.625 0.453125 -1.078125q0.453125 -0.46875 1.5 -0.46875q1.046875 0 1.5 0.46875q0.46875 0.453125 0.46875 1.078125l0 0.65625q0 0.640625 -0.46875 1.09375q-0.453125 0.453125 -1.5 0.453125zm11.928131 6.109375l0 -2.5l-5.859375 0l0 -2.390625l5.1875 -8.125l3.359375 0l0 8.34375l1.671875 0l0 2.171875l-1.671875 0l0 2.5l-2.6875 0zm-3.609375 -4.671875l3.609375 0l0 -5.453125l-0.171875 0l-3.4375 5.453125z" fill-rule="nonzero"/><path fill="#2874aa" d="m354.53018 295.98425l67.08661 0l0 67.08661l-67.08661 0z" fill-rule="evenodd"/><path fill="#ffffff" d="m376.87662 336.6663q-2.609375 0 -3.859375 -1.765625q-1.234375 -1.78125 -1.234375 -4.96875q0 -3.1875 1.234375 -4.953125q1.25 -1.78125 3.859375 -1.78125q2.609375 0 3.84375 1.78125q1.25 1.765625 1.25 4.953125q0 3.1875 -1.25 4.96875q-1.234375 1.765625 -3.84375 1.765625zm0 -2.203125q1.25 0 1.734375 -0.875q0.5 -0.875 0.5 -2.4375l0 -2.421875q0 -1.578125 -0.5 -2.453125q-0.484375 -0.875 -1.734375 -0.875q-1.25 0 -1.75 0.875q-0.484375 0.875 -0.484375 2.453125l0 2.421875q0 1.5625 0.484375 2.4375q0.5 0.875 1.75 0.875zm0 -3.421875q-0.65625 0 -0.90625 -0.265625q-0.25 -0.265625 -0.25 -0.640625l0 -0.40625q0 -0.375 0.25 -0.625q0.25 -0.265625 0.90625 -0.265625q0.65625 0 0.90625 0.265625q0.25 0.25 0.25 0.625l0 0.40625q0 0.375 -0.25 0.640625q-0.25 0.265625 -0.90625 0.265625zm11.193756 5.625q-1.046875 0 -1.5 -0.453125q-0.453125 -0.453125 -0.453125 -1.09375l0 -0.65625q0 -0.625 0.453125 -1.078125q0.453125 -0.46875 1.5 -0.46875q1.046875 0 1.5 0.46875q0.46875 0.453125 0.46875 1.078125l0 0.65625q0 0.640625 -0.46875 1.09375q-0.453125 0.453125 -1.5 0.453125zm0 -6.328125q-1.046875 0 -1.5 -0.453125q-0.453125 -0.453125 -0.453125 -1.09375l0 -0.65625q0 -0.625 0.453125 -1.078125q0.453125 -0.46875 1.5 -0.46875q1.046875 0 1.5 0.46875q0.46875 0.453125 0.46875 1.078125l0 0.65625q0 0.640625 -0.46875 1.09375q-0.453125 0.453125 -1.5 0.453125zm15.396881 -4.46875l-6.03125 0l-0.296875 4.125l0.171875 0q0.203125 -0.453125 0.453125 -0.828125q0.265625 -0.390625 0.625 -0.65625q0.359375 -0.265625 0.8125 -0.40625q0.46875 -0.15625 1.078125 -0.15625q0.796875 0 1.515625 0.28125q0.71875 0.265625 1.265625 0.796875q0.546875 0.53125 0.859375 1.3125q0.328125 0.78125 0.328125 1.75q0 0.984375 -0.34375 1.828125q-0.328125 0.828125 -0.96875 1.453125q-0.640625 0.609375 -1.59375 0.953125q-0.953125 0.34375 -2.171875 0.34375q-0.953125 0 -1.703125 -0.203125q-0.734375 -0.203125 -1.3125 -0.546875q-0.5625 -0.34375 -0.984375 -0.796875q-0.421875 -0.46875 -0.71875 -0.953125l2.03125 -1.59375q0.234375 0.375 0.484375 0.71875q0.25 0.328125 0.578125 0.578125q0.328125 0.25 0.71875 0.390625q0.40625 0.140625 0.921875 0.140625q1.046875 0 1.578125 -0.5625q0.53125 -0.578125 0.53125 -1.53125l0 -0.15625q0 -0.90625 -0.546875 -1.421875q-0.53125 -0.53125 -1.484375 -0.53125q-0.78125 0 -1.296875 0.3125q-0.515625 0.296875 -0.765625 0.609375l-2.296875 -0.328125l0.484375 -7.359375l8.078125 0l0 2.4375z" fill-rule="nonzero"/><path fill="#2874aa" d="m435.79004 295.98425l67.08661 0l0 67.08661l-67.08661 0z" fill-rule="evenodd"/><path fill="#ffffff" d="m458.13644 336.6663q-2.609375 0 -3.859375 -1.765625q-1.234375 -1.78125 -1.234375 -4.96875q0 -3.1875 1.234375 -4.953125q1.25 -1.78125 3.859375 -1.78125q2.609375 0 3.84375 1.78125q1.25 1.765625 1.25 4.953125q0 3.1875 -1.25 4.96875q-1.234375 1.765625 -3.84375 1.765625zm0 -2.203125q1.25 0 1.734375 -0.875q0.5 -0.875 0.5 -2.4375l0 -2.421875q0 -1.578125 -0.5 -2.453125q-0.484375 -0.875 -1.734375 -0.875q-1.25 0 -1.75 0.875q-0.484375 0.875 -0.484375 2.453125l0 2.421875q0 1.5625 0.484375 2.4375q0.5 0.875 1.75 0.875zm0 -3.421875q-0.65625 0 -0.90625 -0.265625q-0.25 -0.265625 -0.25 -0.640625l0 -0.40625q0 -0.375 0.25 -0.625q0.25 -0.265625 0.90625 -0.265625q0.65625 0 0.90625 0.265625q0.25 0.25 0.25 0.625l0 0.40625q0 0.375 -0.25 0.640625q-0.25 0.265625 -0.90625 0.265625zm11.193756 5.625q-1.046875 0 -1.5 -0.453125q-0.453125 -0.453125 -0.453125 -1.09375l0 -0.65625q0 -0.625 0.453125 -1.078125q0.453125 -0.46875 1.5 -0.46875q1.046875 0 1.5 0.46875q0.46875 0.453125 0.46875 1.078125l0 0.65625q0 0.640625 -0.46875 1.09375q-0.453125 0.453125 -1.5 0.453125zm0 -6.328125q-1.046875 0 -1.5 -0.453125q-0.453125 -0.453125 -0.453125 -1.09375l0 -0.65625q0 -0.625 0.453125 -1.078125q0.453125 -0.46875 1.5 -0.46875q1.046875 0 1.5 0.46875q0.46875 0.453125 0.46875 1.078125l0 0.65625q0 0.640625 -0.46875 1.09375q-0.453125 0.453125 -1.5 0.453125zm11.271881 6.328125q-1.171875 0 -2.09375 -0.359375q-0.921875 -0.359375 -1.5625 -1.03125q-0.640625 -0.6875 -0.984375 -1.640625q-0.328125 -0.953125 -0.328125 -2.125q0 -1.375 0.421875 -2.59375q0.4375 -1.21875 1.109375 -2.25q0.6875 -1.046875 1.53125 -1.859375q0.859375 -0.828125 1.703125 -1.375l3.859375 0q-1.21875 0.828125 -2.1875 1.609375q-0.953125 0.765625 -1.671875 1.546875q-0.71875 0.78125 -1.171875 1.609375q-0.453125 0.8125 -0.65625 1.75l0.171875 0.0625q0.15625 -0.375 0.390625 -0.71875q0.25 -0.359375 0.609375 -0.625q0.359375 -0.28125 0.828125 -0.4375q0.484375 -0.171875 1.109375 -0.171875q0.828125 0 1.53125 0.296875q0.71875 0.28125 1.21875 0.8125q0.515625 0.53125 0.8125 1.28125q0.296875 0.734375 0.296875 1.671875q0 0.984375 -0.359375 1.828125q-0.34375 0.84375 -0.984375 1.453125q-0.640625 0.59375 -1.5625 0.9375q-0.90625 0.328125 -2.03125 0.328125zm-0.015625 -2.171875q1.0 0 1.515625 -0.53125q0.53125 -0.53125 0.53125 -1.515625l0 -0.25q0 -0.96875 -0.53125 -1.484375q-0.53125 -0.515625 -1.515625 -0.515625q-0.953125 0 -1.5 0.515625q-0.53125 0.515625 -0.53125 1.484375l0 0.25q0 0.984375 0.5 1.515625q0.515625 0.53125 1.53125 0.53125z" fill-rule="nonzero"/><path fill="#000000" fill-opacity="0.0" d="m321.53806 208.3937l133.07086 0l0 56.566925l-133.07086 0z" fill-rule="evenodd"/><path fill="#000000" d="m389.7345 231.34932l0 6.09375l6.09375 0l0 3.28125l-6.09375 0l0 6.109375l-3.28125 0l0 -6.109375l-6.109375 0l0 -3.28125l6.109375 0l0 -6.09375l3.28125 0z" fill-rule="nonzero"/><path fill="#cccccc" d="m358.18634 252.23622l0 -7.7795258l-138.99211 0l0 -15.5590515l138.99211 0l0 -7.779541l15.5590515 15.559067z" fill-rule="evenodd"/><path fill="#cccccc" d="m219.19423 168.88715l13.417313 0l0 67.08661l-13.417313 0z" fill-rule="evenodd"/><path fill="#208020" d="m177.27034 135.98425l67.08661 0l0 67.08661l-67.08661 0z" fill-rule="evenodd"/><path fill="#ffffff" d="m199.61676 176.6663q-2.609375 0 -3.859375 -1.765625q-1.234375 -1.78125 -1.234375 -4.96875q0 -3.1875 1.234375 -4.953125q1.25 -1.78125 3.859375 -1.78125q2.609375 0 3.84375 1.78125q1.25 1.765625 1.25 4.953125q0 3.1875 -1.25 4.96875q-1.234375 1.765625 -3.84375 1.765625zm0 -2.203125q1.25 0 1.734375 -0.875q0.5 -0.875 0.5 -2.4375l0 -2.421875q0 -1.578125 -0.5 -2.453125q-0.484375 -0.875 -1.734375 -0.875q-1.25 0 -1.75 0.875q-0.484375 0.875 -0.484375 2.453125l0 2.421875q0 1.5625 0.484375 2.4375q0.5 0.875 1.75 0.875zm0 -3.421875q-0.65625 0 -0.90625 -0.265625q-0.25 -0.265625 -0.25 -0.640625l0 -0.40625q0 -0.375 0.25 -0.625q0.25 -0.265625 0.90625 -0.265625q0.65625 0 0.90625 0.265625q0.25 0.25 0.25 0.625l0 0.40625q0 0.375 -0.25 0.640625q-0.25 0.265625 -0.90625 0.265625zm11.193756 5.625q-1.046875 0 -1.5 -0.453125q-0.453125 -0.453125 -0.453125 -1.09375l0 -0.65625q0 -0.625 0.453125 -1.078125q0.453125 -0.46875 1.5 -0.46875q1.046875 0 1.5 0.46875q0.46875 0.453125 0.46875 1.078125l0 0.65625q0 0.640625 -0.46875 1.09375q-0.453125 0.453125 -1.5 0.453125zm0 -6.328125q-1.046875 0 -1.5 -0.453125q-0.453125 -0.453125 -0.453125 -1.09375l0 -0.65625q0 -0.625 0.453125 -1.078125q0.453125 -0.46875 1.5 -0.46875q1.046875 0 1.5 0.46875q0.46875 0.453125 0.46875 1.078125l0 0.65625q0 0.640625 -0.46875 1.09375q-0.453125 0.453125 -1.5 0.453125zm10.693756 -1.765625q1.078125 0 1.5625 -0.40625q0.5 -0.40625 0.5 -1.015625l0 -0.125q0 -0.703125 -0.46875 -1.125q-0.46875 -0.421875 -1.359375 -0.421875q-0.796875 0 -1.5 0.40625q-0.6875 0.390625 -1.171875 1.140625l-1.78125 -1.640625q0.375 -0.484375 0.8125 -0.875q0.453125 -0.40625 1.0 -0.6875q0.546875 -0.296875 1.21875 -0.453125q0.6875 -0.171875 1.546875 -0.171875q1.0625 0 1.921875 0.25q0.859375 0.234375 1.453125 0.703125q0.609375 0.453125 0.9375 1.09375q0.34375 0.625 0.34375 1.40625q0 0.625 -0.203125 1.125q-0.203125 0.5 -0.546875 0.875q-0.34375 0.375 -0.8125 0.609375q-0.453125 0.234375 -0.96875 0.328125l0 0.109375q1.1875 0.203125 1.984375 1.0q0.796875 0.78125 0.796875 2.125q0 0.875 -0.375 1.59375q-0.359375 0.703125 -1.03125 1.21875q-0.65625 0.5 -1.59375 0.765625q-0.9375 0.265625 -2.09375 0.265625q-1.0 0 -1.75 -0.203125q-0.75 -0.203125 -1.328125 -0.546875q-0.578125 -0.34375 -1.0 -0.796875q-0.421875 -0.46875 -0.734375 -0.953125l2.0625 -1.59375q0.4375 0.796875 1.078125 1.3125q0.640625 0.515625 1.71875 0.515625q1.015625 0 1.546875 -0.46875q0.546875 -0.46875 0.546875 -1.296875l0 -0.125q0 -0.796875 -0.625 -1.203125q-0.609375 -0.40625 -1.703125 -0.40625l-1.21875 0l0 -2.328125l1.234375 0z" fill-rule="nonzero"/><path fill="#000000" fill-opacity="0.0" d="m15.984841 140.44095l154.55118 0l0 58.173218l-154.55118 0z" fill-rule="evenodd"/><path fill="#000000" d="m36.41102 153.37907q1.78125 0 2.828125 1.0q1.046875 1.0 1.046875 2.65625q0 1.65625 -1.046875 2.671875q-1.046875 1.0 -2.828125 1.0l-2.71875 0l0 4.09375l-2.515625 0l0 -11.421875l5.234375 0zm-0.703125 5.375q1.078125 0 1.609375 -0.40625q0.53125 -0.40625 0.53125 -1.3125q0 -0.875 -0.515625 -1.28125q-0.5 -0.421875 -1.609375 -0.421875l-2.03125 0l0 3.421875l2.015625 0zm9.3203125 -2.453125q1.828125 0 2.71875 0.609375q0.90625 0.59375 0.90625 1.6875l0 4.4375q0 0.5 0.0625 1.0q0.0625 0.5 0.21875 0.765625l-2.296875 0q-0.0625 -0.1875 -0.109375 -0.390625q-0.046875 -0.203125 -0.0625 -0.40625q-0.46875 0.5 -1.1875 0.765625q-0.703125 0.265625 -1.59375 0.265625q-1.28125 0 -2.046875 -0.640625q-0.765625 -0.65625 -0.765625 -1.859375q0 -1.15625 0.71875 -1.765625q0.71875 -0.609375 2.625 -0.828125q1.3125 -0.125 1.734375 -0.3125q0.421875 -0.203125 0.421875 -0.703125q0 -0.546875 -0.328125 -0.828125q-0.3125 -0.28125 -1.125 -0.28125q-0.703125 0 -1.078125 0.3125q-0.375 0.296875 -0.4375 0.9375l-2.28125 0q0.09375 -1.359375 1.125 -2.0625q1.03125 -0.703125 2.78125 -0.703125zm-1.890625 6.140625q0 0.5 0.328125 0.78125q0.34375 0.28125 1.078125 0.28125q0.90625 0 1.359375 -0.46875q0.46875 -0.484375 0.46875 -1.40625l0 -0.875q-0.203125 0.15625 -0.53125 0.25q-0.328125 0.078125 -1.203125 0.203125q-0.765625 0.09375 -1.140625 0.40625q-0.359375 0.296875 -0.359375 0.828125zm12.09375 -6.140625q0.15625 0 0.28125 0.03125q0.125 0.015625 0.234375 0.046875l0 2.109375q-0.203125 -0.03125 -0.390625 -0.046875q-0.171875 -0.03125 -0.421875 -0.03125q-1.15625 0 -1.703125 0.703125q-0.546875 0.703125 -0.546875 1.890625l0 3.796875l-2.265625 0l0 -8.28125l2.15625 0l0 1.546875l0.03125 0q0.359375 -0.8125 1.0625 -1.28125q0.71875 -0.484375 1.5625 -0.484375zm4.3359375 -2.25l0 2.46875l1.65625 0l0 1.53125l-1.65625 0l0 4.140625q0 0.515625 0.1875 0.71875q0.1875 0.1875 0.765625 0.1875q0.203125 0 0.375 -0.015625q0.1875 -0.015625 0.328125 -0.046875l0 1.78125q-0.28125 0.046875 -0.625 0.0625q-0.34375 0.015625 -0.6875 0.015625q-1.46875 0 -2.046875 -0.5q-0.578125 -0.515625 -0.578125 -1.421875l0 -4.921875l-1.375 0l0 -1.53125l1.375 0l0 -2.46875l2.28125 0zm5.0859375 -0.671875l0 1.859375l-2.265625 0l0 -1.859375l2.265625 0zm0 3.140625l0 8.28125l-2.265625 0l0 -8.28125l2.265625 0zm5.59375 -0.21875q1.828125 0 2.71875 0.609375q0.90625 0.59375 0.90625 1.6875l0 4.4375q0 0.5 0.0625 1.0q0.0625 0.5 0.21875 0.765625l-2.296875 0q-0.0625 -0.1875 -0.109375 -0.390625q-0.046875 -0.203125 -0.0625 -0.40625q-0.46875 0.5 -1.1875 0.765625q-0.703125 0.265625 -1.59375 0.265625q-1.28125 0 -2.046875 -0.640625q-0.765625 -0.65625 -0.765625 -1.859375q0 -1.15625 0.71875 -1.765625q0.71875 -0.609375 2.625 -0.828125q1.3125 -0.125 1.734375 -0.3125q0.421875 -0.203125 0.421875 -0.703125q0 -0.546875 -0.328125 -0.828125q-0.3125 -0.28125 -1.125 -0.28125q-0.703125 0 -1.078125 0.3125q-0.375 0.296875 -0.4375 0.9375l-2.28125 0q0.09375 -1.359375 1.125 -2.0625q1.03125 -0.703125 2.78125 -0.703125zm-1.890625 6.140625q0 0.5 0.328125 0.78125q0.34375 0.28125 1.078125 0.28125q0.90625 0 1.359375 -0.46875q0.46875 -0.484375 0.46875 -1.40625l0 -0.875q-0.203125 0.15625 -0.53125 0.25q-0.328125 0.078125 -1.203125 0.203125q-0.765625 0.09375 -1.140625 0.40625q-0.359375 0.296875 -0.359375 0.828125zm9.609375 -9.0625l0 11.421875l-2.265625 0l0 -11.421875l2.265625 0zm12.6953125 0q1.390625 0 2.328125 0.890625q0.953125 0.890625 0.953125 2.265625q0 1.078125 -0.453125 1.78125q-0.4375 0.703125 -1.359375 1.078125l0 0.03125q0.8125 0.203125 1.234375 0.953125q0.4375 0.75 0.46875 2.296875q0.03125 1.546875 0.453125 2.125l-2.515625 0q-0.21875 -0.5625 -0.296875 -1.796875q-0.125 -1.6875 -0.578125 -2.171875q-0.4375 -0.5 -1.375 -0.5l-2.5625 0l0 4.46875l-2.515625 0l0 -11.421875l6.21875 0zm-0.90625 5.15625q0.796875 0 1.234375 -0.375q0.4375 -0.390625 0.4375 -1.25q0 -0.8125 -0.421875 -1.1875q-0.421875 -0.390625 -1.25 -0.390625l-2.796875 0l0 3.203125l2.796875 0zm9.8203125 -2.234375q1.84375 0 2.9375 1.265625q1.09375 1.265625 1.09375 3.21875l-0.015625 0.421875l-5.96875 0q0.046875 1.078125 0.5625 1.59375q0.515625 0.515625 1.46875 0.515625q0.609375 0 1.125 -0.3125q0.53125 -0.328125 0.671875 -0.765625l2.0 0q-0.453125 1.40625 -1.421875 2.109375q-0.953125 0.6875 -2.453125 0.6875q-1.90625 0 -3.0625 -1.21875q-1.15625 -1.21875 -1.15625 -3.140625q0 -1.859375 1.171875 -3.109375q1.1875 -1.265625 3.046875 -1.265625zm-1.953125 3.46875l3.703125 0q-0.171875 -0.90625 -0.59375 -1.328125q-0.421875 -0.421875 -1.234375 -0.421875q-0.828125 0 -1.3125 0.46875q-0.484375 0.46875 -0.5625 1.28125zm15.390625 -6.390625l0 11.421875l-2.171875 0l0 -1.0625l-0.03125 0q-0.359375 0.640625 -1.015625 0.96875q-0.640625 0.328125 -1.484375 0.328125q-1.703125 0 -2.71875 -1.25q-1.0 -1.25 -1.0 -3.203125q0 -1.84375 0.984375 -3.0625q1.0 -1.21875 2.6875 -1.21875q0.765625 0 1.40625 0.3125q0.640625 0.3125 1.03125 0.921875l0.03125 0l0 -4.15625l2.28125 0zm-6.15625 7.265625q0 1.15625 0.53125 1.921875q0.546875 0.75 1.46875 0.75q0.953125 0 1.453125 -0.703125q0.5 -0.703125 0.5 -1.96875q0 -1.21875 -0.5 -1.921875q-0.484375 -0.703125 -1.453125 -0.703125q-0.953125 0 -1.484375 0.703125q-0.515625 0.703125 -0.515625 1.921875zm10.1328125 -4.125l0 4.75q0 0.9375 0.328125 1.453125q0.328125 0.5 1.125 0.5q0.9375 0 1.34375 -0.5625q0.421875 -0.5625 0.421875 -1.71875l0 -4.421875l2.265625 0l0 8.28125l-2.15625 0l0 -1.15625l-0.046875 0q-0.4375 0.6875 -1.125 1.046875q-0.671875 0.34375 -1.421875 0.34375q-1.53125 0 -2.265625 -0.78125q-0.734375 -0.796875 -0.734375 -2.546875l0 -5.1875l2.265625 0zm11.171883 -0.21875q1.609375 0 2.703125 0.828125q1.09375 0.828125 1.1875 2.3125l-2.21875 0q-0.109375 -0.71875 -0.53125 -1.0625q-0.421875 -0.359375 -1.15625 -0.359375q-0.9062576 0 -1.4218826 0.75q-0.5 0.75 -0.5 1.9375q0 1.1875 0.5 1.90625q0.5 0.703125 1.3750076 0.703125q0.765625 0 1.234375 -0.4375q0.46875 -0.4375 0.578125 -1.25l2.1875 0q-0.21875 1.640625 -1.28125 2.53125q-1.046875 0.875 -2.703125 0.875q-1.8437576 0 -3.0156326 -1.1875q-1.15625 -1.1875 -1.15625 -3.0625q0 -2.015625 1.140625 -3.25q1.15625 -1.234375 3.0781326 -1.234375zm8.109375 -2.25l0 2.46875l1.65625 0l0 1.53125l-1.65625 0l0 4.140625q0 0.515625 0.1875 0.71875q0.1875 0.1875 0.765625 0.1875q0.203125 0 0.375 -0.015625q0.1875 -0.015625 0.328125 -0.046875l0 1.78125q-0.28125 0.046875 -0.625 0.0625q-0.34375 0.015625 -0.6875 0.015625q-1.46875 0 -2.046875 -0.5q-0.578125 -0.515625 -0.578125 -1.421875l0 -4.921875l-1.375 0l0 -1.53125l1.375 0l0 -2.46875l2.28125 0zm5.0859375 -0.671875l0 1.859375l-2.265625 0l0 -1.859375l2.265625 0zm0 3.140625l0 8.28125l-2.265625 0l0 -8.28125l2.265625 0zm5.8125 -0.21875q1.9375 0 3.109375 1.203125q1.171875 1.203125 1.171875 3.171875q0 1.96875 -1.1875 3.171875q-1.171875 1.1875 -3.09375 1.1875q-1.921875 0 -3.109375 -1.203125q-1.171875 -1.203125 -1.171875 -3.15625q0 -1.96875 1.15625 -3.171875q1.15625 -1.203125 3.125 -1.203125zm-2.0 4.375q0 1.296875 0.53125 1.96875q0.53125 0.671875 1.46875 0.671875q0.96875 0 1.484375 -0.6875q0.53125 -0.703125 0.53125 -1.953125q0 -1.234375 -0.515625 -1.9375q-0.5 -0.71875 -1.515625 -0.71875q-0.921875 0 -1.453125 0.65625q-0.53125 0.65625 -0.53125 2.0zm12.4921875 -4.375q1.59375 0 2.296875 0.8125q0.71875 0.796875 0.71875 2.515625l0 5.171875l-2.265625 0l0 -4.75q0 -0.96875 -0.34375 -1.453125q-0.328125 -0.5 -1.109375 -0.5q-0.953125 0 -1.359375 0.5625q-0.40625 0.5625 -0.40625 1.71875l0 4.421875l-2.265625 0l0 -8.28125l2.15625 0l0 1.15625l0.046875 0q0.40625 -0.65625 1.0625 -1.015625q0.671875 -0.359375 1.46875 -0.359375z" fill-rule="nonzero"/><path fill="#000000" d="m34.582893 175.50095q1.9375 0 3.109375 1.203125q1.171875 1.203125 1.171875 3.171875q0 1.96875 -1.1875 3.171875q-1.171875 1.1875 -3.09375 1.1875q-1.921875 0 -3.109375 -1.203125q-1.171875 -1.203125 -1.171875 -3.15625q0 -1.96875 1.15625 -3.171875q1.15625 -1.203125 3.125 -1.203125zm-2.0 4.375q0 1.296875 0.53125 1.96875q0.53125 0.671875 1.46875 0.671875q0.96875 0 1.484375 -0.6875q0.53125 -0.703125 0.53125 -1.953125q0 -1.234375 -0.515625 -1.9375q-0.5 -0.71875 -1.515625 -0.71875q-0.921875 0 -1.453125 0.65625q-0.53125 0.65625 -0.53125 2.0zm11.0078125 -7.296875q0.234375 0 0.625 0.03125q0.390625 0.015625 0.578125 0.03125l0 1.6875q-0.21875 -0.015625 -0.4375 -0.03125q-0.203125 -0.015625 -0.375 -0.015625q-0.484375 0 -0.6875 0.21875q-0.1875 0.203125 -0.1875 0.84375l0 0.375l1.5625 0l0 1.53125l-1.5625 0l0 6.75l-2.28125 0l0 -6.75l-1.359375 0l0 -1.53125l1.359375 0l0 -0.5625q0 -1.296875 0.75 -1.9375q0.75 -0.640625 2.015625 -0.640625zm11.9921875 0q1.78125 0 2.828125 1.0q1.046875 1.0 1.046875 2.65625q0 1.65625 -1.046875 2.671875q-1.046875 1.0 -2.828125 1.0l-2.71875 0l0 4.09375l-2.515625 0l0 -11.421875l5.234375 0zm-0.703125 5.375q1.078125 0 1.609375 -0.40625q0.53125 -0.40625 0.53125 -1.3125q0 -0.875 -0.515625 -1.28125q-0.5 -0.421875 -1.609375 -0.421875l-2.03125 0l0 3.421875l2.015625 0zm10.4765625 -2.453125q0.15625 0 0.28125 0.03125q0.125 0.015625 0.234375 0.046875l0 2.109375q-0.203125 -0.03125 -0.390625 -0.046875q-0.171875 -0.03125 -0.421875 -0.03125q-1.15625 0 -1.703125 0.703125q-0.546875 0.703125 -0.546875 1.890625l0 3.796875l-2.265625 0l0 -8.28125l2.15625 0l0 1.546875l0.03125 0q0.359375 -0.8125 1.0625 -1.28125q0.71875 -0.484375 1.5625 -0.484375zm3.7421875 -2.921875l0 1.859375l-2.265625 0l0 -1.859375l2.265625 0zm0 3.140625l0 8.28125l-2.265625 0l0 -8.28125l2.265625 0zm5.8125 -0.21875q1.9375 0 3.109375 1.203125q1.171875 1.203125 1.171875 3.171875q0 1.96875 -1.1875 3.171875q-1.171875 1.1875 -3.09375 1.1875q-1.921875 0 -3.109375 -1.203125q-1.171875 -1.203125 -1.171875 -3.15625q0 -1.96875 1.15625 -3.171875q1.15625 -1.203125 3.125 -1.203125zm-2.0 4.375q0 1.296875 0.53125 1.96875q0.53125 0.671875 1.46875 0.671875q0.96875 0 1.484375 -0.6875q0.53125 -0.703125 0.53125 -1.953125q0 -1.234375 -0.515625 -1.9375q-0.5 -0.71875 -1.515625 -0.71875q-0.921875 0 -1.453125 0.65625q-0.53125 0.65625 -0.53125 2.0zm12.5703125 -4.375q0.15625 0 0.28125 0.03125q0.125 0.015625 0.234375 0.046875l0 2.109375q-0.203125 -0.03125 -0.390625 -0.046875q-0.171875 -0.03125 -0.421875 -0.03125q-1.15625 0 -1.703125 0.703125q-0.546875 0.703125 -0.546875 1.890625l0 3.796875l-2.265625 0l0 -8.28125l2.15625 0l0 1.546875l0.03125 0q0.359375 -0.8125 1.0625 -1.28125q0.71875 -0.484375 1.5625 -0.484375zm14.640625 -2.921875l0 2.109375l-6.03125 0l0 2.4375l5.53125 0l0 1.953125l-5.53125 0l0 2.8125l6.15625 0l0 2.109375l-8.671875 0l0 -11.421875l8.546875 0zm3.9140625 0l0 11.421875l-2.265625 0l0 -11.421875l2.265625 0zm5.609375 2.921875q1.84375 0 2.9375 1.265625q1.09375 1.265625 1.09375 3.21875l-0.015625 0.421875l-5.96875 0q0.046875 1.078125 0.5625 1.59375q0.515625 0.515625 1.46875 0.515625q0.609375 0 1.125 -0.3125q0.53125 -0.328125 0.671875 -0.765625l2.0 0q-0.453125 1.40625 -1.421875 2.109375q-0.953125 0.6875 -2.453125 0.6875q-1.90625 0 -3.0625 -1.21875q-1.15625 -1.21875 -1.15625 -3.140625q0 -1.859375 1.171875 -3.109375q1.1875 -1.265625 3.046875 -1.265625zm-1.953125 3.46875l3.703125 0q-0.171875 -0.90625 -0.59375 -1.328125q-0.421875 -0.421875 -1.234375 -0.421875q-0.828125 0 -1.3125 0.46875q-0.484375 0.46875 -0.5625 1.28125zm12.09375 -3.46875q0.921875 0 1.515625 0.359375q0.609375 0.359375 0.890625 1.015625q0.46875 -0.65625 1.109375 -1.015625q0.640625 -0.359375 1.40625 -0.359375q1.5 0 2.25 0.765625q0.765625 0.765625 0.765625 2.125l0 5.609375l-2.28125 0l0 -4.78125q0 -1.140625 -0.328125 -1.53125q-0.328125 -0.390625 -1.0625 -0.390625q-0.765625 0 -1.140625 0.515625q-0.375 0.515625 -0.375 1.5l0 4.6875l-2.28125 0l0 -5.09375q0 -0.828125 -0.3125 -1.21875q-0.3125 -0.390625 -1.046875 -0.390625q-0.65625 0 -1.109375 0.5q-0.4375 0.5 -0.4375 1.34375l0 4.859375l-2.265625 0l0 -8.28125l2.140625 0l0 1.125l0.03125 0q0.484375 -0.671875 1.109375 -1.0q0.640625 -0.34375 1.421875 -0.34375zm13.53907 0q1.84375 0 2.9375 1.265625q1.09375 1.265625 1.09375 3.21875l-0.015625 0.421875l-5.96875 0q0.046875 1.078125 0.5625 1.59375q0.515625 0.515625 1.46875 0.515625q0.609375 0 1.125 -0.3125q0.53125 -0.328125 0.671875 -0.765625l2.0 0q-0.453125 1.40625 -1.421875 2.109375q-0.953125 0.6875 -2.453125 0.6875q-1.90625 0 -3.0625 -1.21875q-1.15625 -1.21875 -1.15625 -3.140625q0 -1.859375 1.171875 -3.109375q1.1875 -1.265625 3.046875 -1.265625zm-1.953125 3.46875l3.703125 0q-0.171875 -0.90625 -0.59375 -1.328125q-0.421875 -0.421875 -1.234375 -0.421875q-0.828125 0 -1.3125 0.46875q-0.484375 0.46875 -0.5625 1.28125zm12.0625 -3.46875q1.59375 0 2.296875 0.8125q0.71875 0.796875 0.71875 2.515625l0 5.171875l-2.265625 0l0 -4.75q0 -0.96875 -0.34375 -1.453125q-0.328125 -0.5 -1.109375 -0.5q-0.953125 0 -1.359375 0.5625q-0.40625 0.5625 -0.40625 1.71875l0 4.421875l-2.265625 0l0 -8.28125l2.15625 0l0 1.15625l0.046875 0q0.40625 -0.65625 1.0625 -1.015625q0.671875 -0.359375 1.46875 -0.359375zm7.625 -2.25l0 2.46875l1.65625 0l0 1.53125l-1.65625 0l0 4.140625q0 0.515625 0.1875 0.71875q0.1875 0.1875 0.765625 0.1875q0.203125 0 0.375 -0.015625q0.1875 -0.015625 0.328125 -0.046875l0 1.78125q-0.28125 0.046875 -0.625 0.0625q-0.34375 0.015625 -0.6875 0.015625q-1.46875 0 -2.046875 -0.5q-0.578125 -0.515625 -0.578125 -1.421875l0 -4.921875l-1.375 0l0 -1.53125l1.375 0l0 -2.46875l2.28125 0zm6.1484375 2.25q1.6875 0 2.59375 0.671875q0.921875 0.671875 1.046875 1.96875l-2.15625 0q-0.046875 -0.59375 -0.4375 -0.859375q-0.390625 -0.265625 -1.125 -0.265625q-0.65625 0 -0.953125 0.203125q-0.296875 0.1875 -0.296875 0.5625q0 0.390625 0.390625 0.640625q0.390625 0.234375 1.59375 0.46875q1.90625 0.359375 2.546875 0.9375q0.65625 0.578125 0.65625 1.515625q0 1.40625 -1.03125 2.15625q-1.015625 0.734375 -2.734375 0.734375q-1.71875 0 -2.78125 -0.734375q-1.046875 -0.734375 -1.109375 -2.1875l2.15625 0q0 0.65625 0.5 1.03125q0.5 0.359375 1.25 0.359375q0.65625 0 1.0625 -0.28125q0.421875 -0.296875 0.421875 -0.78125q0 -0.421875 -0.546875 -0.6875q-0.53125 -0.28125 -1.96875 -0.578125q-1.421875 -0.28125 -2.0625 -0.796875q-0.625 -0.53125 -0.625 -1.421875q0 -1.3125 0.921875 -1.984375q0.9375 -0.671875 2.6875 -0.671875z" fill-rule="nonzero"/><path fill="#000000" fill-opacity="0.0" d="m264.5141 91.88976l247.1181 0l0 38.77166l-247.1181 0z" fill-rule="evenodd"/><path fill="#000000" d="m277.1391 104.82789l0 9.3125l5.5625 0l0 2.109375l-8.078125 0l0 -11.421875l2.515625 0zm10.4609375 2.921875q1.9375 0 3.109375 1.203125q1.171875 1.203125 1.171875 3.171875q0 1.96875 -1.1875 3.171875q-1.171875 1.1875 -3.09375 1.1875q-1.921875 0 -3.109375 -1.203125q-1.171875 -1.203125 -1.171875 -3.15625q0 -1.96875 1.15625 -3.171875q1.15625 -1.203125 3.125 -1.203125zm-2.0 4.375q0 1.296875 0.53125 1.96875q0.53125 0.671875 1.46875 0.671875q0.96875 0 1.484375 -0.6875q0.53125 -0.703125 0.53125 -1.953125q0 -1.234375 -0.515625 -1.9375q-0.5 -0.71875 -1.515625 -0.71875q-0.921875 0 -1.453125 0.65625q-0.53125 0.65625 -0.53125 2.0zm11.7109375 -4.375q1.609375 0 2.703125 0.828125q1.09375 0.828125 1.1875 2.3125l-2.21875 0q-0.109375 -0.71875 -0.53125 -1.0625q-0.421875 -0.359375 -1.15625 -0.359375q-0.90625 0 -1.421875 0.75q-0.5 0.75 -0.5 1.9375q0 1.1875 0.5 1.90625q0.5 0.703125 1.375 0.703125q0.765625 0 1.234375 -0.4375q0.46875 -0.4375 0.578125 -1.25l2.1875 0q-0.21875 1.640625 -1.28125 2.53125q-1.046875 0.875 -2.703125 0.875q-1.84375 0 -3.015625 -1.1875q-1.15625 -1.1875 -1.15625 -3.0625q0 -2.015625 1.140625 -3.25q1.15625 -1.234375 3.078125 -1.234375zm9.03125 0q1.828125 0 2.71875 0.609375q0.90625 0.59375 0.90625 1.6875l0 4.4375q0 0.5 0.0625 1.0q0.0625 0.5 0.21875 0.765625l-2.296875 0q-0.0625 -0.1875 -0.109375 -0.390625q-0.046875 -0.203125 -0.0625 -0.40625q-0.46875 0.5 -1.1875 0.765625q-0.703125 0.265625 -1.59375 0.265625q-1.28125 0 -2.046875 -0.640625q-0.765625 -0.65625 -0.765625 -1.859375q0 -1.15625 0.71875 -1.765625q0.71875 -0.609375 2.625 -0.828125q1.3125 -0.125 1.734375 -0.3125q0.421875 -0.203125 0.421875 -0.703125q0 -0.546875 -0.328125 -0.828125q-0.3125 -0.28125 -1.125 -0.28125q-0.703125 0 -1.078125 0.3125q-0.375 0.296875 -0.4375 0.9375l-2.28125 0q0.09375 -1.359375 1.125 -2.0625q1.03125 -0.703125 2.78125 -0.703125zm-1.890625 6.140625q0 0.5 0.328125 0.78125q0.34375 0.28125 1.078125 0.28125q0.90625 0 1.359375 -0.46875q0.46875 -0.484375 0.46875 -1.40625l0 -0.875q-0.203125 0.15625 -0.53125 0.25q-0.328125 0.078125 -1.203125 0.203125q-0.765625 0.09375 -1.140625 0.40625q-0.359375 0.296875 -0.359375 0.828125zm9.609375 -9.0625l0 11.421875l-2.265625 0l0 -11.421875l2.265625 0zm10.4140625 -0.28125q2.0625 0 3.3125 0.96875q1.25 0.953125 1.25 2.71875l-2.421875 0q-0.0625 -0.859375 -0.59375 -1.296875q-0.53125 -0.4375 -1.65625 -0.4375q-0.765625 0 -1.25 0.34375q-0.484375 0.328125 -0.484375 0.953125q0 0.4375 0.203125 0.65625q0.203125 0.203125 0.828125 0.4375q0.625 0.21875 2.75 0.71875q1.421875 0.34375 2.21875 1.171875q0.796875 0.8125 0.796875 2.078125q0 1.65625 -1.25 2.671875q-1.234375 1.0 -3.5 1.0q-2.15625 0 -3.515625 -1.0625q-1.359375 -1.078125 -1.359375 -2.953125l0 -0.0625l2.4375 0q0.015625 1.0625 0.703125 1.59375q0.703125 0.515625 1.828125 0.515625q1.015625 0 1.609375 -0.359375q0.609375 -0.375 0.609375 -1.0625q0 -0.546875 -0.46875 -0.90625q-0.453125 -0.359375 -1.484375 -0.609375q-1.3125 -0.296875 -2.390625 -0.625q-1.0625 -0.34375 -1.765625 -1.078125q-0.6875 -0.75 -0.6875 -1.921875q0 -1.53125 1.21875 -2.484375q1.234375 -0.96875 3.0625 -0.96875zm10.1640625 3.203125q1.609375 0 2.703125 0.828125q1.09375 0.828125 1.1875 2.3125l-2.21875 0q-0.109375 -0.71875 -0.53125 -1.0625q-0.421875 -0.359375 -1.15625 -0.359375q-0.90625 0 -1.421875 0.75q-0.5 0.75 -0.5 1.9375q0 1.1875 0.5 1.90625q0.5 0.703125 1.375 0.703125q0.765625 0 1.234375 -0.4375q0.46875 -0.4375 0.578125 -1.25l2.1875 0q-0.21875 1.640625 -1.28125 2.53125q-1.046875 0.875 -2.703125 0.875q-1.84375 0 -3.015625 -1.1875q-1.15625 -1.1875 -1.15625 -3.0625q0 -2.015625 1.140625 -3.25q1.15625 -1.234375 3.078125 -1.234375zm9.03125 0q1.828125 0 2.71875 0.609375q0.90625 0.59375 0.90625 1.6875l0 4.4375q0 0.5 0.0625 1.0q0.0625 0.5 0.21875 0.765625l-2.296875 0q-0.0625 -0.1875 -0.109375 -0.390625q-0.046875 -0.203125 -0.0625 -0.40625q-0.46875 0.5 -1.1875 0.765625q-0.703125 0.265625 -1.59375 0.265625q-1.28125 0 -2.046875 -0.640625q-0.765625 -0.65625 -0.765625 -1.859375q0 -1.15625 0.71875 -1.765625q0.71875 -0.609375 2.625 -0.828125q1.3125 -0.125 1.734375 -0.3125q0.421875 -0.203125 0.421875 -0.703125q0 -0.546875 -0.328125 -0.828125q-0.3125 -0.28125 -1.125 -0.28125q-0.703125 0 -1.078125 0.3125q-0.375 0.296875 -0.4375 0.9375l-2.28125 0q0.09375 -1.359375 1.125 -2.0625q1.03125 -0.703125 2.78125 -0.703125zm-1.890625 6.140625q0 0.5 0.328125 0.78125q0.34375 0.28125 1.078125 0.28125q0.90625 0 1.359375 -0.46875q0.46875 -0.484375 0.46875 -1.40625l0 -0.875q-0.203125 0.15625 -0.53125 0.25q-0.328125 0.078125 -1.203125 0.203125q-0.765625 0.09375 -1.140625 0.40625q-0.359375 0.296875 -0.359375 0.828125zm12.015625 -6.140625q1.59375 0 2.296875 0.8125q0.71875 0.796875 0.71875 2.515625l0 5.171875l-2.265625 0l0 -4.75q0 -0.96875 -0.34375 -1.453125q-0.328125 -0.5 -1.109375 -0.5q-0.953125 0 -1.359375 0.5625q-0.40625 0.5625 -0.40625 1.71875l0 4.421875l-2.265625 0l0 -8.28125l2.15625 0l0 1.15625l0.046875 0q0.40625 -0.65625 1.0625 -1.015625q0.671875 -0.359375 1.46875 -0.359375zm13.3671875 -3.203125q2.0625 0 3.3125 0.96875q1.25 0.953125 1.25 2.71875l-2.421875 0q-0.0625 -0.859375 -0.59375 -1.296875q-0.53125 -0.4375 -1.65625 -0.4375q-0.765625 0 -1.25 0.34375q-0.484375 0.328125 -0.484375 0.953125q0 0.4375 0.203125 0.65625q0.203125 0.203125 0.828125 0.4375q0.625 0.21875 2.75 0.71875q1.421875 0.34375 2.21875 1.171875q0.796875 0.8125 0.796875 2.078125q0 1.65625 -1.25 2.671875q-1.234375 1.0 -3.5 1.0q-2.15625 0 -3.515625 -1.0625q-1.359375 -1.078125 -1.359375 -2.953125l0 -0.0625l2.4375 0q0.015625 1.0625 0.703125 1.59375q0.703125 0.515625 1.828125 0.515625q1.015625 0 1.609375 -0.359375q0.609375 -0.375 0.609375 -1.0625q0 -0.546875 -0.46875 -0.90625q-0.453125 -0.359375 -1.484375 -0.609375q-1.3125 -0.296875 -2.390625 -0.625q-1.0625 -0.34375 -1.765625 -1.078125q-0.6875 -0.75 -0.6875 -1.921875q0 -1.53125 1.21875 -2.484375q1.234375 -0.96875 3.0625 -0.96875zm10.0234375 3.203125q1.84375 0 2.9375 1.265625q1.09375 1.265625 1.09375 3.21875l-0.015625 0.421875l-5.96875 0q0.046875 1.078125 0.5625 1.59375q0.515625 0.515625 1.46875 0.515625q0.609375 0 1.125 -0.3125q0.53125 -0.328125 0.671875 -0.765625l2.0 0q-0.453125 1.40625 -1.421875 2.109375q-0.953125 0.6875 -2.453125 0.6875q-1.90625 0 -3.0625 -1.21875q-1.15625 -1.21875 -1.15625 -3.140625q0 -1.859375 1.171875 -3.109375q1.1875 -1.265625 3.046875 -1.265625zm-1.953125 3.46875l3.703125 0q-0.171875 -0.90625 -0.59375 -1.328125q-0.421875 -0.421875 -1.234375 -0.421875q-0.828125 0 -1.3125 0.46875q-0.484375 0.46875 -0.5625 1.28125zm10.609375 -3.46875q0.90625 0 1.5 0.34375q0.59375 0.328125 0.96875 0.984375l0.03125 0l0 -1.109375l2.15625 0l0 7.8125q0 1.671875 -1.0625 2.640625q-1.046875 0.96875 -3.203125 0.96875q-1.46875 0 -2.515625 -0.703125q-1.046875 -0.703125 -1.140625 -1.953125l2.25 0q0.15625 0.59375 0.59375 0.859375q0.4375 0.28125 1.09375 0.28125q0.875 0 1.34375 -0.53125q0.484375 -0.53125 0.484375 -1.46875l0 -1.15625l-0.03125 0q-0.328125 0.609375 -0.984375 0.953125q-0.65625 0.328125 -1.5 0.328125q-1.671875 0 -2.609375 -1.109375q-0.921875 -1.109375 -0.921875 -3.046875q0 -1.75 0.96875 -2.921875q0.984375 -1.171875 2.578125 -1.171875zm-1.265625 4.0625q0 1.171875 0.46875 1.828125q0.484375 0.65625 1.359375 0.65625q0.90625 0 1.421875 -0.65625q0.515625 -0.65625 0.515625 -1.640625q0 -1.21875 -0.5 -1.875q-0.484375 -0.65625 -1.4375 -0.65625q-0.84375 0 -1.34375 0.640625q-0.484375 0.640625 -0.484375 1.703125zm12.5234375 -4.0625q0.921875 0 1.515625 0.359375q0.609375 0.359375 0.890625 1.015625q0.46875 -0.65625 1.109375 -1.015625q0.640625 -0.359375 1.40625 -0.359375q1.5 0 2.25 0.765625q0.765625 0.765625 0.765625 2.125l0 5.609375l-2.28125 0l0 -4.78125q0 -1.140625 -0.328125 -1.53125q-0.328125 -0.390625 -1.0625 -0.390625q-0.765625 0 -1.140625 0.515625q-0.375 0.515625 -0.375 1.5l0 4.6875l-2.28125 0l0 -5.09375q0 -0.828125 -0.3125 -1.21875q-0.3125 -0.390625 -1.046875 -0.390625q-0.65625 0 -1.109375 0.5q-0.4375 0.5 -0.4375 1.34375l0 4.859375l-2.265625 0l0 -8.28125l2.140625 0l0 1.125l0.03125 0q0.484375 -0.671875 1.109375 -1.0q0.640625 -0.34375 1.421875 -0.34375zm13.5390625 0q1.84375 0 2.9375 1.265625q1.09375 1.265625 1.09375 3.21875l-0.015625 0.421875l-5.96875 0q0.046875 1.078125 0.5625 1.59375q0.515625 0.515625 1.46875 0.515625q0.609375 0 1.125 -0.3125q0.53125 -0.328125 0.671875 -0.765625l2.0 0q-0.453125 1.40625 -1.421875 2.109375q-0.953125 0.6875 -2.453125 0.6875q-1.90625 0 -3.0625 -1.21875q-1.15625 -1.21875 -1.15625 -3.140625q0 -1.859375 1.171875 -3.109375q1.1875 -1.265625 3.046875 -1.265625zm-1.953125 3.46875l3.703125 0q-0.171875 -0.90625 -0.59375 -1.328125q-0.421875 -0.421875 -1.234375 -0.421875q-0.828125 0 -1.3125 0.46875q-0.484375 0.46875 -0.5625 1.28125zm12.0625 -3.46875q1.59375 0 2.296875 0.8125q0.71875 0.796875 0.71875 2.515625l0 5.171875l-2.265625 0l0 -4.75q0 -0.96875 -0.34375 -1.453125q-0.328125 -0.5 -1.109375 -0.5q-0.953125 0 -1.359375 0.5625q-0.40625 0.5625 -0.40625 1.71875l0 4.421875l-2.265625 0l0 -8.28125l2.15625 0l0 1.15625l0.046875 0q0.40625 -0.65625 1.0625 -1.015625q0.671875 -0.359375 1.46875 -0.359375zm7.625 -2.25l0 2.46875l1.65625 0l0 1.53125l-1.65625 0l0 4.140625q0 0.515625 0.1875 0.71875q0.1875 0.1875 0.765625 0.1875q0.203125 0 0.375 -0.015625q0.1875 -0.015625 0.328125 -0.046875l0 1.78125q-0.28125 0.046875 -0.625 0.0625q-0.34375 0.015625 -0.6875 0.015625q-1.46875 0 -2.046875 -0.5q-0.578125 -0.515625 -0.578125 -1.421875l0 -4.921875l-1.375 0l0 -1.53125l1.375 0l0 -2.46875l2.28125 0z" fill-rule="nonzero"/><path fill="#000000" fill-opacity="0.0" d="m264.5141 367.9714l247.1181 0l0 38.771637l-247.1181 0z" fill-rule="evenodd"/><path fill="#000000" d="m282.65472 380.90952l0 2.109375l-5.515625 0l0 2.640625l4.78125 0l0 1.953125l-4.78125 0l0 4.71875l-2.515625 0l0 -11.421875l8.03125 0zm3.546875 0l0 1.859375l-2.265625 0l0 -1.859375l2.265625 0zm0 3.140625l0 8.28125l-2.265625 0l0 -8.28125l2.265625 0zm3.78125 0l1.453125 2.171875l1.4375 -2.171875l2.515625 0l-2.71875 3.875l3.046875 4.40625l-2.59375 0l-1.71875 -2.609375l-1.734375 2.609375l-2.546875 0l2.984375 -4.359375l-2.71875 -3.921875l2.59375 0zm10.296875 -0.21875q1.84375 0 2.9375 1.265625q1.09375 1.265625 1.09375 3.21875l-0.015625 0.421875l-5.96875 0q0.046875 1.078125 0.5625 1.59375q0.515625 0.515625 1.46875 0.515625q0.609375 0 1.125 -0.3125q0.53125 -0.328125 0.671875 -0.765625l2.0 0q-0.453125 1.40625 -1.421875 2.109375q-0.953125 0.6875 -2.453125 0.6875q-1.90625 0 -3.0625 -1.21875q-1.15625 -1.21875 -1.15625 -3.140625q0 -1.859375 1.171875 -3.109375q1.1875 -1.265625 3.046875 -1.265625zm-1.953125 3.46875l3.703125 0q-0.171875 -0.90625 -0.59375 -1.328125q-0.421875 -0.421875 -1.234375 -0.421875q-0.828125 0 -1.3125 0.46875q-0.484375 0.46875 -0.5625 1.28125zm15.390625 -6.390625l0 11.421875l-2.171875 0l0 -1.0625l-0.03125 0q-0.359375 0.640625 -1.015625 0.96875q-0.640625 0.328125 -1.484375 0.328125q-1.703125 0 -2.71875 -1.25q-1.0 -1.25 -1.0 -3.203125q0 -1.84375 0.984375 -3.0625q1.0 -1.21875 2.6875 -1.21875q0.765625 0 1.40625 0.3125q0.640625 0.3125 1.03125 0.921875l0.03125 0l0 -4.15625l2.28125 0zm-6.15625 7.265625q0 1.15625 0.53125 1.921875q0.546875 0.75 1.46875 0.75q0.953125 0 1.453125 -0.703125q0.5 -0.703125 0.5 -1.96875q0 -1.21875 -0.5 -1.921875q-0.484375 -0.703125 -1.453125 -0.703125q-0.953125 0 -1.484375 0.703125q-0.515625 0.703125 -0.515625 1.921875zm12.6640625 -1.1875l0 1.953125l-4.8125 0l0 -1.953125l4.8125 0zm4.421875 -6.078125l0 7.171875q0 1.234375 0.5625 1.828125q0.5625 0.578125 1.78125 0.578125q1.3125 0 1.84375 -0.578125q0.53125 -0.578125 0.53125 -1.828125l0 -7.171875l2.5 0l0 7.171875q0 2.125 -1.234375 3.328125q-1.234375 1.203125 -3.640625 1.203125q-2.40625 0 -3.640625 -1.171875q-1.21875 -1.1875 -1.21875 -3.359375l0 -7.171875l2.515625 0zm13.8125 2.921875q1.75 0 2.75 1.234375q1.0 1.234375 1.0 3.21875q0 1.828125 -0.984375 3.0625q-0.984375 1.21875 -2.640625 1.21875q-0.765625 0 -1.421875 -0.328125q-0.65625 -0.328125 -1.0625 -0.9375l-0.03125 0l0 3.953125l-2.265625 0l0 -11.203125l2.15625 0l0 1.0625l0.03125 0q0.40625 -0.65625 1.03125 -0.96875q0.625 -0.3125 1.4375 -0.3125zm-2.46875 4.390625q0 1.1875 0.5 1.90625q0.515625 0.71875 1.484375 0.71875q0.9375 0 1.453125 -0.6875q0.515625 -0.6875 0.515625 -1.9375q0 -1.1875 -0.515625 -1.921875q-0.5 -0.75 -1.484375 -0.75q-0.9375 0 -1.453125 0.703125q-0.5 0.703125 -0.5 1.96875zm16.203125 -7.59375q2.0625 0 3.3125 0.96875q1.25 0.953125 1.25 2.71875l-2.421875 0q-0.0625 -0.859375 -0.59375 -1.296875q-0.53125 -0.4375 -1.65625 -0.4375q-0.765625 0 -1.25 0.34375q-0.484375 0.328125 -0.484375 0.953125q0 0.4375 0.203125 0.65625q0.203125 0.203125 0.828125 0.4375q0.625 0.21875 2.75 0.71875q1.421875 0.34375 2.21875 1.171875q0.796875 0.8125 0.796875 2.078125q0 1.65625 -1.25 2.671875q-1.234375 1.0 -3.5 1.0q-2.15625 0 -3.515625 -1.0625q-1.359375 -1.078125 -1.359375 -2.953125l0 -0.0625l2.4375 0q0.015625 1.0625 0.703125 1.59375q0.703125 0.515625 1.828125 0.515625q1.015625 0 1.609375 -0.359375q0.609375 -0.375 0.609375 -1.0625q0 -0.546875 -0.46875 -0.90625q-0.453125 -0.359375 -1.484375 -0.609375q-1.3125 -0.296875 -2.390625 -0.625q-1.0625 -0.34375 -1.765625 -1.078125q-0.6875 -0.75 -0.6875 -1.921875q0 -1.53125 1.21875 -2.484375q1.234375 -0.96875 3.0625 -0.96875zm10.1640625 3.203125q1.609375 0 2.703125 0.828125q1.09375 0.828125 1.1875 2.3125l-2.21875 0q-0.109375 -0.71875 -0.53125 -1.0625q-0.421875 -0.359375 -1.15625 -0.359375q-0.90625 0 -1.421875 0.75q-0.5 0.75 -0.5 1.9375q0 1.1875 0.5 1.90625q0.5 0.703125 1.375 0.703125q0.765625 0 1.234375 -0.4375q0.46875 -0.4375 0.578125 -1.25l2.1875 0q-0.21875 1.640625 -1.28125 2.53125q-1.046875 0.875 -2.703125 0.875q-1.84375 0 -3.015625 -1.1875q-1.15625 -1.1875 -1.15625 -3.0625q0 -2.015625 1.140625 -3.25q1.15625 -1.234375 3.078125 -1.234375zm9.03125 0q1.828125 0 2.71875 0.609375q0.90625 0.59375 0.90625 1.6875l0 4.4375q0 0.5 0.0625 1.0q0.0625 0.5 0.21875 0.765625l-2.296875 0q-0.0625 -0.1875 -0.109375 -0.390625q-0.046875 -0.203125 -0.0625 -0.40625q-0.46875 0.5 -1.1875 0.765625q-0.703125 0.265625 -1.59375 0.265625q-1.28125 0 -2.046875 -0.640625q-0.765625 -0.65625 -0.765625 -1.859375q0 -1.15625 0.71875 -1.765625q0.71875 -0.609375 2.625 -0.828125q1.3125 -0.125 1.734375 -0.3125q0.421875 -0.203125 0.421875 -0.703125q0 -0.546875 -0.328125 -0.828125q-0.3125 -0.28125 -1.125 -0.28125q-0.703125 0 -1.078125 0.3125q-0.375 0.296875 -0.4375 0.9375l-2.28125 0q0.09375 -1.359375 1.125 -2.0625q1.03125 -0.703125 2.78125 -0.703125zm-1.890625 6.140625q0 0.5 0.328125 0.78125q0.34375 0.28125 1.078125 0.28125q0.90625 0 1.359375 -0.46875q0.46875 -0.484375 0.46875 -1.40625l0 -0.875q-0.203125 0.15625 -0.53125 0.25q-0.328125 0.078125 -1.203125 0.203125q-0.765625 0.09375 -1.140625 0.40625q-0.359375 0.296875 -0.359375 0.828125zm12.015625 -6.140625q1.59375 0 2.296875 0.8125q0.71875 0.796875 0.71875 2.515625l0 5.171875l-2.265625 0l0 -4.75q0 -0.96875 -0.34375 -1.453125q-0.328125 -0.5 -1.109375 -0.5q-0.953125 0 -1.359375 0.5625q-0.40625 0.5625 -0.40625 1.71875l0 4.421875l-2.265625 0l0 -8.28125l2.15625 0l0 1.15625l0.046875 0q0.40625 -0.65625 1.0625 -1.015625q0.671875 -0.359375 1.46875 -0.359375zm13.3671875 -3.203125q2.0625 0 3.3125 0.96875q1.25 0.953125 1.25 2.71875l-2.421875 0q-0.0625 -0.859375 -0.59375 -1.296875q-0.53125 -0.4375 -1.65625 -0.4375q-0.765625 0 -1.25 0.34375q-0.484375 0.328125 -0.484375 0.953125q0 0.4375 0.203125 0.65625q0.203125 0.203125 0.828125 0.4375q0.625 0.21875 2.75 0.71875q1.421875 0.34375 2.21875 1.171875q0.796875 0.8125 0.796875 2.078125q0 1.65625 -1.25 2.671875q-1.234375 1.0 -3.5 1.0q-2.15625 0 -3.515625 -1.0625q-1.359375 -1.078125 -1.359375 -2.953125l0 -0.0625l2.4375 0q0.015625 1.0625 0.703125 1.59375q0.703125 0.515625 1.828125 0.515625q1.015625 0 1.609375 -0.359375q0.609375 -0.375 0.609375 -1.0625q0 -0.546875 -0.46875 -0.90625q-0.453125 -0.359375 -1.484375 -0.609375q-1.3125 -0.296875 -2.390625 -0.625q-1.0625 -0.34375 -1.765625 -1.078125q-0.6875 -0.75 -0.6875 -1.921875q0 -1.53125 1.21875 -2.484375q1.234375 -0.96875 3.0625 -0.96875zm10.0234375 3.203125q1.84375 0 2.9375 1.265625q1.09375 1.265625 1.09375 3.21875l-0.015625 0.421875l-5.96875 0q0.046875 1.078125 0.5625 1.59375q0.515625 0.515625 1.46875 0.515625q0.609375 0 1.125 -0.3125q0.53125 -0.328125 0.671875 -0.765625l2.0 0q-0.453125 1.40625 -1.421875 2.109375q-0.953125 0.6875 -2.453125 0.6875q-1.90625 0 -3.0625 -1.21875q-1.15625 -1.21875 -1.15625 -3.140625q0 -1.859375 1.171875 -3.109375q1.1875 -1.265625 3.046875 -1.265625zm-1.953125 3.46875l3.703125 0q-0.171875 -0.90625 -0.59375 -1.328125q-0.421875 -0.421875 -1.234375 -0.421875q-0.828125 0 -1.3125 0.46875q-0.484375 0.46875 -0.5625 1.28125zm10.609375 -3.46875q0.90625 0 1.5 0.34375q0.59375 0.328125 0.96875 0.984375l0.03125 0l0 -1.109375l2.15625 0l0 7.8125q0 1.671875 -1.0625 2.640625q-1.046875 0.96875 -3.203125 0.96875q-1.46875 0 -2.515625 -0.703125q-1.046875 -0.703125 -1.140625 -1.953125l2.25 0q0.15625 0.59375 0.59375 0.859375q0.4375 0.28125 1.09375 0.28125q0.875 0 1.34375 -0.53125q0.484375 -0.53125 0.484375 -1.46875l0 -1.15625l-0.03125 0q-0.328125 0.609375 -0.984375 0.953125q-0.65625 0.328125 -1.5 0.328125q-1.671875 0 -2.609375 -1.109375q-0.921875 -1.109375 -0.921875 -3.046875q0 -1.75 0.96875 -2.921875q0.984375 -1.171875 2.578125 -1.171875zm-1.265625 4.0625q0 1.171875 0.46875 1.828125q0.484375 0.65625 1.359375 0.65625q0.90625 0 1.421875 -0.65625q0.515625 -0.65625 0.515625 -1.640625q0 -1.21875 -0.5 -1.875q-0.484375 -0.65625 -1.4375 -0.65625q-0.84375 0 -1.34375 0.640625q-0.484375 0.640625 -0.484375 1.703125zm12.5234375 -4.0625q0.921875 0 1.515625 0.359375q0.609375 0.359375 0.890625 1.015625q0.46875 -0.65625 1.109375 -1.015625q0.640625 -0.359375 1.40625 -0.359375q1.5 0 2.25 0.765625q0.765625 0.765625 0.765625 2.125l0 5.609375l-2.28125 0l0 -4.78125q0 -1.140625 -0.328125 -1.53125q-0.328125 -0.390625 -1.0625 -0.390625q-0.765625 0 -1.140625 0.515625q-0.375 0.515625 -0.375 1.5l0 4.6875l-2.28125 0l0 -5.09375q0 -0.828125 -0.3125 -1.21875q-0.3125 -0.390625 -1.046875 -0.390625q-0.65625 0 -1.109375 0.5q-0.4375 0.5 -0.4375 1.34375l0 4.859375l-2.265625 0l0 -8.28125l2.140625 0l0 1.125l0.03125 0q0.484375 -0.671875 1.109375 -1.0q0.640625 -0.34375 1.421875 -0.34375zm13.5390625 0q1.84375 0 2.9375 1.265625q1.09375 1.265625 1.09375 3.21875l-0.015625 0.421875l-5.96875 0q0.046875 1.078125 0.5625 1.59375q0.515625 0.515625 1.46875 0.515625q0.609375 0 1.125 -0.3125q0.53125 -0.328125 0.671875 -0.765625l2.0 0q-0.453125 1.40625 -1.421875 2.109375q-0.953125 0.6875 -2.453125 0.6875q-1.90625 0 -3.0625 -1.21875q-1.15625 -1.21875 -1.15625 -3.140625q0 -1.859375 1.171875 -3.109375q1.1875 -1.265625 3.046875 -1.265625zm-1.953125 3.46875l3.703125 0q-0.171875 -0.90625 -0.59375 -1.328125q-0.421875 -0.421875 -1.234375 -0.421875q-0.828125 0 -1.3125 0.46875q-0.484375 0.46875 -0.5625 1.28125zm12.0625 -3.46875q1.59375 0 2.296875 0.8125q0.71875 0.796875 0.71875 2.515625l0 5.171875l-2.265625 0l0 -4.75q0 -0.96875 -0.34375 -1.453125q-0.328125 -0.5 -1.109375 -0.5q-0.953125 0 -1.359375 0.5625q-0.40625 0.5625 -0.40625 1.71875l0 4.421875l-2.265625 0l0 -8.28125l2.15625 0l0 1.15625l0.046875 0q0.40625 -0.65625 1.0625 -1.015625q0.671875 -0.359375 1.46875 -0.359375zm7.625 -2.25l0 2.46875l1.65625 0l0 1.53125l-1.65625 0l0 4.140625q0 0.515625 0.1875 0.71875q0.1875 0.1875 0.765625 0.1875q0.203125 0 0.375 -0.015625q0.1875 -0.015625 0.328125 -0.046875l0 1.78125q-0.28125 0.046875 -0.625 0.0625q-0.34375 0.015625 -0.6875 0.015625q-1.46875 0 -2.046875 -0.5q-0.578125 -0.515625 -0.578125 -1.421875l0 -4.921875l-1.375 0l0 -1.53125l1.375 0l0 -2.46875l2.28125 0z" fill-rule="nonzero"/></g></svg>