<svg version="1.1" viewBox="0.0 0.0 728.3595800524935 375.7191601049869" fill="none" stroke="none" stroke-linecap="square" stroke-miterlimit="10" xmlns:xlink="http://www.w3.org/1999/xlink" xmlns="http://www.w3.org/2000/svg"><clipPath id="p.0"><path d="m0 0l728.35956 0l0 375.71915l-728.35956 0l0 -375.71915z" clip-rule="nonzero"/></clipPath><g clip-path="url(#p.0)"><path fill="#ffffff" d="m0 0l728.35956 0l0 375.71915l-728.35956 0z" fill-rule="evenodd"/><path fill="#d32360" fill-opacity="0.75" d="m63.980316 240.22572l0 0c0 -50.679733 41.084045 -91.76378 91.76378 -91.76378l0 0c24.337265 0 47.67775 9.667938 64.886795 26.876984c17.209045 17.209045 26.876984 40.54953 26.876984 64.886795l0 0c0 50.679733 -41.084045 91.76378 -91.76378 91.76378l0 0c-50.679733 0 -91.76378 -41.084045 -91.76378 -91.76378z" fill-rule="evenodd"/><path fill="#2874aa" fill-opacity="0.75" d="m152.24423 240.22572l0 0c0 -50.679733 41.084045 -91.76378 91.76378 -91.76378l0 0c24.337265 0 47.67775 9.667938 64.886795 26.876984c17.209045 17.209045 26.876984 40.54953 26.876984 64.886795l0 0c0 50.679733 -41.084045 91.76378 -91.76378 91.76378l0 0c-50.679733 0 -91.76378 -41.084045 -91.76378 -91.76378z" fill-rule="evenodd"/><path fill="#2874aa" fill-opacity="0.75" d="m483.58994 240.22572l0 0c0 -50.679733 41.084015 -91.76378 91.76376 -91.76378l0 0c24.33728 0 47.677734 9.667938 64.88678 26.876984c17.209045 17.209045 26.877014 40.54953 26.877014 64.886795l0 0c0 50.679733 -41.084045 91.76378 -91.763794 91.76378l0 0c-50.67975 0 -91.76376 -41.084045 -91.76376 -91.76378z" fill-rule="evenodd"/><path fill="#000000" fill-opacity="0.0" d="m61.242783 27.727034l570.45667 0l0 54.92913l-570.45667 0z" fill-rule="evenodd"/><path fill="#000000" d="m83.68028 43.949535q2.53125 0 4.265625 1.640625q1.75 1.625 1.75 4.140625q0 1.984375 -0.828125 3.28125q-0.828125 1.296875 -2.5 1.96875l0 0.046875q1.46875 0.390625 2.25 1.765625q0.796875 1.375 0.875 4.21875q0.046875 2.828125 0.8125 3.8749962l-4.609375 0q-0.40625 -1.0156212 -0.546875 -3.2968712q-0.21875 -3.09375 -1.046875 -3.984375q-0.8125 -0.890625 -2.515625 -0.890625l-4.71875 0l0 8.171871l-4.609375 0l0 -20.937496l11.421875 0zm-1.671875 9.46875q1.453125 0 2.25 -0.703125q0.8125 -0.703125 0.8125 -2.296875q0 -1.484375 -0.78125 -2.1875q-0.765625 -0.703125 -2.28125 -0.703125l-5.140625 0l0 5.890625l5.140625 0zm18.007965 -4.09375q3.359375 0 5.375 2.3125q2.015625 2.3125 2.015625 5.90625l-0.03125 0.765625l-10.9375 0q0.078125 1.96875 1.015625 2.921875q0.9375 0.9375 2.6875 0.9375q1.140625 0 2.09375 -0.578125q0.953125 -0.578125 1.21875 -1.40625l3.65625 0q-0.84375 2.578125 -2.609375 3.8593712q-1.75 1.265625 -4.484375 1.265625q-3.515625 0 -5.640625 -2.2187462q-2.109375 -2.234375 -2.109375 -5.765625q0 -3.390625 2.171875 -5.6875q2.171875 -2.3125 5.578125 -2.3125zm-3.578125 6.359375l6.765625 0q-0.296875 -1.6875 -1.078125 -2.453125q-0.78125 -0.78125 -2.25 -0.78125q-1.515625 0 -2.40625 0.859375q-0.890625 0.859375 -1.03125 2.375zm22.106384 -6.359375q2.90625 0 4.21875 1.46875q1.3125 1.46875 1.3125 4.609375l0 9.484371l-4.171875 0l0 -8.687496q0 -1.78125 -0.609375 -2.6875q-0.609375 -0.90625 -2.046875 -0.90625q-1.734375 0 -2.484375 1.03125q-0.75 1.03125 -0.75 3.15625l0 8.093746l-4.15625 0l0 -15.171871l3.953125 0l0 2.125l0.078125 0q0.765625 -1.21875 1.984375 -1.859375q1.21875 -0.65625 2.671875 -0.65625zm23.478683 -5.375l0 20.937496l-3.96875 0l0 -1.9374962l-0.0625 0q-0.671875 1.1718712 -1.859375 1.7656212q-1.171875 0.59375 -2.734375 0.59375q-3.109375 0 -4.96875 -2.2812462q-1.84375 -2.296875 -1.84375 -5.859375q0 -3.375 1.8125 -5.609375q1.828125 -2.234375 4.90625 -2.234375q1.421875 0 2.59375 0.578125q1.171875 0.5625 1.890625 1.671875l0.0625 0l0 -7.625l4.171875 0zm-11.28125 13.328125q0 2.125 0.984375 3.515625q1.0 1.375 2.6875 1.375q1.734375 0 2.65625 -1.28125q0.921875 -1.28125 0.921875 -3.625q0 -2.21875 -0.90625 -3.515625q-0.890625 -1.296875 -2.6875 -1.296875q-1.734375 0 -2.703125 1.296875q-0.953125 1.296875 -0.953125 3.53125zm21.414795 -7.953125q3.359375 0 5.375 2.3125q2.015625 2.3125 2.015625 5.90625l-0.03125 0.765625l-10.9375 0q0.078125 1.96875 1.015625 2.921875q0.9375 0.9375 2.6875 0.9375q1.140625 0 2.09375 -0.578125q0.953125 -0.578125 1.21875 -1.40625l3.65625 0q-0.84375 2.578125 -2.609375 3.8593712q-1.75 1.265625 -4.484375 1.265625q-3.515625 0 -5.640625 -2.2187462q-2.109375 -2.234375 -2.109375 -5.765625q0 -3.390625 2.171875 -5.6875q2.171875 -2.3125 5.578125 -2.3125zm-3.578125 6.359375l6.765625 0q-0.296875 -1.6875 -1.078125 -2.453125q-0.78125 -0.78125 -2.25 -0.78125q-1.515625 0 -2.40625 0.859375q-0.890625 0.859375 -1.03125 2.375zm22.24701 -6.359375q0.28125 0 0.5 0.03125q0.234375 0.03125 0.4375 0.109375l0 3.859375q-0.359375 -0.0625 -0.703125 -0.09375q-0.328125 -0.046875 -0.796875 -0.046875q-2.09375 0 -3.109375 1.296875q-1.0 1.28125 -1.0 3.453125l0 6.953121l-4.15625 0l0 -15.171871l3.953125 0l0 2.828125l0.046875 0q0.671875 -1.484375 1.96875 -2.34375q1.3125 -0.875 2.859375 -0.875zm20.54602 -5.875q4.671875 0 7.484375 3.140625q2.8125 3.125 2.8125 7.921875q0 4.671875 -2.828125 7.78125q-2.828125 3.0937462 -7.46875 3.0937462q-3.015625 0 -5.375 -1.3906212q-2.34375 -1.390625 -3.640625 -3.890625q-1.28125 -2.515625 -1.28125 -5.59375q0 -4.84375 2.828125 -7.953125q2.84375 -3.109375 7.46875 -3.109375zm-5.6875 11.0625q0 3.078125 1.46875 5.046875q1.484375 1.953125 4.21875 1.953125q2.71875 0 4.203125 -1.921875q1.484375 -1.9375 1.484375 -5.078125q0 -3.3125 -1.515625 -5.25q-1.5 -1.953125 -4.1875 -1.953125q-2.6875 0 -4.1875 1.96875q-1.484375 1.96875 -1.484375 5.234375zm27.515488 -5.1875q0.28125 0 0.5 0.03125q0.234375 0.03125 0.4375 0.109375l0 3.859375q-0.359375 -0.0625 -0.703125 -0.09375q-0.328125 -0.046875 -0.796875 -0.046875q-2.09375 0 -3.109375 1.296875q-1.0 1.28125 -1.0 3.453125l0 6.953121l-4.15625 0l0 -15.171871l3.953125 0l0 2.828125l0.046875 0q0.671875 -1.484375 1.96875 -2.34375q1.3125 -0.875 2.859375 -0.875zm17.137299 -5.375l0 20.937496l-3.96875 0l0 -1.9374962l-0.0625 0q-0.671875 1.1718712 -1.859375 1.7656212q-1.171875 0.59375 -2.734375 0.59375q-3.109375 0 -4.96875 -2.2812462q-1.84375 -2.296875 -1.84375 -5.859375q0 -3.375 1.8125 -5.609375q1.828125 -2.234375 4.90625 -2.234375q1.421875 0 2.59375 0.578125q1.171875 0.5625 1.890625 1.671875l0.0625 0l0 -7.625l4.171875 0zm-11.28125 13.328125q0 2.125 0.984375 3.515625q1.0 1.375 2.6875 1.375q1.734375 0 2.65625 -1.28125q0.921875 -1.28125 0.921875 -3.625q0 -2.21875 -0.90625 -3.515625q-0.890625 -1.296875 -2.6875 -1.296875q-1.734375 0 -2.703125 1.296875q-0.953125 1.296875 -0.953125 3.53125zm21.414795 -7.953125q3.359375 0 5.375 2.3125q2.015625 2.3125 2.015625 5.90625l-0.03125 0.765625l-10.9375 0q0.078125 1.96875 1.015625 2.921875q0.9375 0.9375 2.6875 0.9375q1.140625 0 2.09375 -0.578125q0.953125 -0.578125 1.21875 -1.40625l3.65625 0q-0.84375 2.578125 -2.609375 3.8593712q-1.75 1.265625 -4.484375 1.265625q-3.515625 0 -5.640625 -2.2187462q-2.109375 -2.234375 -2.109375 -5.765625q0 -3.390625 2.171875 -5.6875q2.171875 -2.3125 5.578125 -2.3125zm-3.578125 6.359375l6.765625 0q-0.296875 -1.6875 -1.078125 -2.453125q-0.78125 -0.78125 -2.25 -0.78125q-1.515625 0 -2.40625 0.859375q-0.890625 0.859375 -1.03125 2.375zm22.246994 -6.359375q0.28125 0 0.5 0.03125q0.234375 0.03125 0.4375 0.109375l0 3.859375q-0.359375 -0.0625 -0.703125 -0.09375q-0.328125 -0.046875 -0.796875 -0.046875q-2.09375 0 -3.1093597 1.296875q-1.0 1.28125 -1.0 3.453125l0 6.953121l-4.15625 0l0 -15.171871l3.953125 0l0 2.828125l0.046875 0q0.671875 -1.484375 1.9687347 -2.34375q1.3125 -0.875 2.859375 -0.875zm17.63977 -5.375l4.90625 14.390625l0.0625 0l4.625 -14.328125l0.015625 -0.0625l6.46875 0l0 20.937496l-4.3125 0l0 -14.828121l-0.0625 0l-5.125 14.828121l-3.546875 0l-5.140625 -14.687496l-0.0625 0l0 14.687496l-4.3125 0l0 -20.937496l6.484375 0zm26.654144 5.375q3.375 0 5.0 1.109375q1.640625 1.09375 1.640625 3.09375l0 8.140625q0 0.90625 0.125 1.828125q0.125 0.9218712 0.40625 1.3906212l-4.21875 0q-0.109375 -0.34375 -0.1875 -0.703125q-0.078125 -0.3749962 -0.109375 -0.7499962q-0.875 0.9062462 -2.171875 1.3906212q-1.296875 0.484375 -2.9375 0.484375q-2.34375 0 -3.75 -1.1875q-1.40625 -1.1874962 -1.40625 -3.3749962q0 -2.125 1.3125 -3.234375q1.328125 -1.125 4.8125 -1.515625q2.421875 -0.234375 3.1875 -0.59375q0.78125 -0.375 0.78125 -1.265625q0 -1.015625 -0.59375 -1.515625q-0.59375 -0.515625 -2.09375 -0.515625q-1.28125 0 -1.96875 0.546875q-0.6875 0.546875 -0.796875 1.734375l-4.171875 0q0.171875 -2.484375 2.046875 -3.765625q1.890625 -1.296875 5.09375 -1.296875zm-3.453125 11.25q0 0.90625 0.609375 1.421875q0.625 0.515625 1.953125 0.515625q1.671875 0 2.515625 -0.875q0.859375 -0.875 0.859375 -2.546875l0 -1.625q-0.375 0.296875 -0.984375 0.453125q-0.609375 0.15625 -2.203125 0.375q-1.40625 0.1875 -2.078125 0.75q-0.671875 0.546875 -0.671875 1.53125zm18.606384 -15.390625l0 4.53125l3.046875 0l0 2.796875l-3.046875 0l0 7.609375q0 0.921875 0.34375 1.296875q0.359375 0.359375 1.421875 0.359375q0.359375 0 0.6875 -0.03125q0.328125 -0.03125 0.59375 -0.078125l0 3.2499962q-0.515625 0.078125 -1.15625 0.109375q-0.625 0.03125 -1.25 0.03125q-2.703125 0 -3.765625 -0.921875q-1.046875 -0.9218712 -1.046875 -2.5937462l0 -9.03125l-2.515625 0l0 -2.796875l2.515625 0l0 -4.53125l4.171875 0zm10.324982 0l0 4.53125l3.046875 0l0 2.796875l-3.046875 0l0 7.609375q0 0.921875 0.34375 1.296875q0.359375 0.359375 1.421875 0.359375q0.359375 0 0.6875 -0.03125q0.328125 -0.03125 0.59375 -0.078125l0 3.2499962q-0.515625 0.078125 -1.15625 0.109375q-0.625 0.03125 -1.25 0.03125q-2.703125 0 -3.765625 -0.921875q-1.046875 -0.9218712 -1.046875 -2.5937462l0 -9.03125l-2.515625 0l0 -2.796875l2.515625 0l0 -4.53125l4.171875 0zm11.916138 4.140625q3.359375 0 5.375 2.3125q2.015625 2.3125 2.015625 5.90625l-0.03125 0.765625l-10.9375 0q0.078125 1.96875 1.015625 2.921875q0.9375 0.9375 2.6875 0.9375q1.140625 0 2.09375 -0.578125q0.953125 -0.578125 1.21875 -1.40625l3.65625 0q-0.84375 2.578125 -2.609375 3.8593712q-1.75 1.265625 -4.484375 1.265625q-3.515625 0 -5.640625 -2.2187462q-2.109375 -2.234375 -2.109375 -5.765625q0 -3.390625 2.171875 -5.6875q2.171875 -2.3125 5.578125 -2.3125zm-3.578125 6.359375l6.765625 0q-0.296875 -1.6875 -1.078125 -2.453125q-0.78125 -0.78125 -2.25 -0.78125q-1.515625 0 -2.40625 0.859375q-0.890625 0.859375 -1.03125 2.375zm22.24701 -6.359375q0.28125 0 0.5 0.03125q0.234375 0.03125 0.4375 0.109375l0 3.859375q-0.359375 -0.0625 -0.703125 -0.09375q-0.328125 -0.046875 -0.796875 -0.046875q-2.09375 0 -3.109375 1.296875q-1.0 1.28125 -1.0 3.453125l0 6.953121l-4.15625 0l0 -15.171871l3.953125 0l0 2.828125l0.046875 0q0.671875 -1.484375 1.96875 -2.34375q1.3125 -0.875 2.859375 -0.875zm8.788361 0q3.09375 0 4.78125 1.21875q1.6875 1.21875 1.921875 3.609375l-3.96875 0q-0.09375 -1.078125 -0.8125 -1.5625q-0.71875 -0.484375 -2.046875 -0.484375q-1.203125 0 -1.75 0.359375q-0.546875 0.34375 -0.546875 1.03125q0 0.703125 0.71875 1.15625q0.71875 0.453125 2.90625 0.875q3.5 0.671875 4.6875 1.734375q1.203125 1.046875 1.203125 2.765625q0 2.578125 -1.890625 3.9375q-1.875 1.3437462 -5.03125 1.3437462q-3.140625 0 -5.078125 -1.3437462q-1.921875 -1.34375 -2.046875 -4.0l3.96875 0q0 1.203125 0.90625 1.875q0.90625 0.671875 2.28125 0.671875q1.21875 0 1.96875 -0.515625q0.765625 -0.53125 0.765625 -1.421875q0 -0.78125 -0.984375 -1.28125q-0.984375 -0.5 -3.625 -1.046875q-2.609375 -0.515625 -3.765625 -1.46875q-1.15625 -0.96875 -1.15625 -2.609375q0 -2.40625 1.703125 -3.625q1.703125 -1.21875 4.890625 -1.21875z" fill-rule="nonzero"/><path fill="#d32360" fill-opacity="0.75" d="m395.326 240.22572l0 0c0 -50.679733 41.084045 -91.76378 91.763794 -91.76378l0 0c24.33728 0 47.677734 9.667938 64.88678 26.876984c17.209045 17.209045 26.877014 40.54953 26.877014 64.886795l0 0c0 50.679733 -41.084045 91.76378 -91.763794 91.76378l0 0c-50.67975 0 -91.763794 -41.084045 -91.763794 -91.76378z" fill-rule="evenodd"/><path fill="#000000" fill-opacity="0.0" d="m119.444885 98.28871l40.59842 0l0 58.173233l-40.59842 0z" fill-rule="evenodd"/><path fill="#000000" d="m131.46051 138.00871l0 -3.875l6.015625 0l0 -14.96875l-0.296875 0l-4.546875 5.953125l-3.0625 -2.40625l5.34375 -7.046875l7.359375 0l0 18.46875l4.734375 0l0 3.875l-15.546875 0z" fill-rule="nonzero"/><path fill="#000000" fill-opacity="0.0" d="m239.70998 98.28871l40.598434 0l0 58.173233l-40.598434 0z" fill-rule="evenodd"/><path fill="#000000" d="m266.4756 138.00871l-16.062485 0l0 -4.390625l7.0312347 -5.84375q1.828125 -1.578125 2.625 -2.71875q0.796875 -1.15625 0.796875 -2.4375l0 -0.328125q0 -1.40625 -0.828125 -2.125q-0.828125 -0.71875 -2.234375 -0.71875q-1.609375 0 -2.4687347 0.9375q-0.859375 0.921875 -1.21875 2.203125l-4.1875 -1.609375q0.375 -1.140625 1.046875 -2.171875q0.671875 -1.046875 1.71875 -1.8125q1.046875 -0.78125 2.421875 -1.234375q1.3749847 -0.46875 3.1562347 -0.46875q1.828125 0 3.265625 0.515625q1.4375 0.5 2.421875 1.40625q1.0 0.890625 1.515625 2.125q0.515625 1.234375 0.515625 2.671875q0 1.40625 -0.46875 2.578125q-0.453125 1.171875 -1.28125 2.203125q-0.8125 1.015625 -1.921875 1.984375q-1.09375 0.953125 -2.34375 1.90625l-4.2499847 3.296875l10.749985 0l0 4.03125z" fill-rule="nonzero"/><path fill="#000000" fill-opacity="0.0" d="m450.79135 98.28871l40.59842 0l0 58.173233l-40.59842 0z" fill-rule="evenodd"/><path fill="#000000" d="m477.55698 138.00871l-16.0625 0l0 -4.390625l7.03125 -5.84375q1.828125 -1.578125 2.625 -2.71875q0.796875 -1.15625 0.796875 -2.4375l0 -0.328125q0 -1.40625 -0.828125 -2.125q-0.828125 -0.71875 -2.234375 -0.71875q-1.609375 0 -2.46875 0.9375q-0.859375 0.921875 -1.21875 2.203125l-4.1875 -1.609375q0.375 -1.140625 1.046875 -2.171875q0.671875 -1.046875 1.71875 -1.8125q1.046875 -0.78125 2.421875 -1.234375q1.375 -0.46875 3.15625 -0.46875q1.828125 0 3.265625 0.515625q1.4375 0.5 2.421875 1.40625q1.0 0.890625 1.515625 2.125q0.515625 1.234375 0.515625 2.671875q0 1.40625 -0.46875 2.578125q-0.453125 1.171875 -1.28125 2.203125q-0.8125 1.015625 -1.921875 1.984375q-1.09375 0.953125 -2.34375 1.90625l-4.25 3.296875l10.75 0l0 4.03125z" fill-rule="nonzero"/><path fill="#000000" fill-opacity="0.0" d="m571.05383 98.28871l40.59839 0l0 58.173233l-40.59839 0z" fill-rule="evenodd"/><path fill="#000000" d="m583.06946 138.00871l0 -3.875l6.015625 0l0 -14.96875l-0.296875 0l-4.546875 5.953125l-3.0625 -2.40625l5.34375 -7.046875l7.359375 0l0 18.46875l4.734375 0l0 3.875l-15.546875 0z" fill-rule="nonzero"/><path fill="#000000" fill-opacity="0.0" d="m335.76773 202.25677l59.55905 0l0 75.93701l-59.55905 0z" fill-rule="evenodd"/><path fill="#000000" d="m355.8004 254.3849l2.421875 -4.4375l-3.78125 0l0 -5.515625l6.90625 0l2.9375 -5.21875l-9.84375 0l0 -5.5l12.546875 0l2.4375 -4.4375l5.875 0l-2.421875 4.4375l3.765625 0l0 5.5l-6.890625 0l-2.953125 5.21875l9.84375 0l0 5.515625l-12.546875 0l-2.421875 4.4375l-5.875 0z" fill-rule="nonzero"/></g></svg>