<svg xmlns="http://www.w3.org/2000/svg" xmlns:xlink="http://www.w3.org/1999/xlink" xmlns:inkscape="http://www.inkscape.org/namespaces/inkscape" version="1.1" width="743.13967" height="546.0696" viewBox="0 0 743.13967 546.0696">
<defs>
<clipPath id="clip_0">
<path transform="matrix(1,0,0,-1,-449.0343,908.8217)" d="M449.0343 362.7521H1192.174V908.8217H449.0343Z" clip-rule="evenodd"/>
</clipPath>
<clipPath id="clip_1">
<path transform="matrix(1,0,0,-1,-449.0343,908.8217)" d="M0 0H1920V1080H0Z"/>
</clipPath>
<clipPath id="clip_2">
<path transform="matrix(1,0,0,-1,-449.0343,908.8217)" d="M447.9091 370.279H1190.1279V912.654H447.9091Z"/>
</clipPath>
<clipPath id="clip_3">
<path transform="matrix(1,0,0,-1,-449.0343,908.8217)" d="M542.9543 435.8415H1180.5281V846.459H542.9543Z"/>
</clipPath>
<clipPath id="clip_4">
<path transform="matrix(1,0,0,-1,-449.0343,908.8217)" d="M447.9091 370.279H1190.1279V912.654H447.9091Z"/>
</clipPath>
<clipPath id="clip_5">
<path transform="matrix(1,0,0,-1,-449.0343,908.8217)" d="M542.9543 435.8415H1180.5281V846.459H542.9543Z"/>
</clipPath>
<clipPath id="clip_6">
<path transform="matrix(1,0,0,-1,-449.0343,908.8217)" d="M447.9091 370.279H1190.1279V912.654H447.9091Z"/>
</clipPath>
<clipPath id="clip_7">
<path transform="matrix(1,0,0,-1,-449.0343,908.8217)" d="M542.9543 435.8415H1180.5281V846.459H542.9543Z"/>
</clipPath>
<clipPath id="clip_8">
<path transform="matrix(1,0,0,-1,-449.0343,908.8217)" d="M447.9091 370.279H1190.1279V912.654H447.9091Z"/>
</clipPath>
<clipPath id="clip_9">
<path transform="matrix(1,0,0,-1,-449.0343,908.8217)" d="M542.9543 435.8415H1180.5281V846.459H542.9543Z"/>
</clipPath>
<clipPath id="clip_10">
<path transform="matrix(1,0,0,-1,-449.0343,908.8217)" d="M447.9091 370.279H1190.1279V912.654H447.9091Z"/>
</clipPath>
<clipPath id="clip_11">
<path transform="matrix(1,0,0,-1,-449.0343,908.8217)" d="M542.9543 435.8415H1180.5281V846.459H542.9543Z"/>
</clipPath>
<clipPath id="clip_12">
<path transform="matrix(1,0,0,-1,-449.0343,908.8217)" d="M447.9091 370.279H1190.1279V912.654H447.9091Z"/>
</clipPath>
<clipPath id="clip_13">
<path transform="matrix(1,0,0,-1,-449.0343,908.8217)" d="M542.9543 435.8415H1180.5281V846.459H542.9543Z"/>
</clipPath>
<clipPath id="clip_14">
<path transform="matrix(1,0,0,-1,-449.0343,908.8217)" d="M447.9091 370.279H1190.1279V912.654H447.9091Z"/>
</clipPath>
<clipPath id="clip_15">
<path transform="matrix(1,0,0,-1,-449.0343,908.8217)" d="M542.9543 435.8415H1180.5281V846.459H542.9543Z"/>
</clipPath>
<clipPath id="clip_16">
<path transform="matrix(1,0,0,-1,-449.0343,908.8217)" d="M447.9091 370.279H1190.1279V912.654H447.9091Z"/>
</clipPath>
<clipPath id="clip_17">
<path transform="matrix(1,0,0,-1,-449.0343,908.8217)" d="M542.9543 435.8415H1180.5281V846.459H542.9543Z"/>
</clipPath>
<clipPath id="clip_18">
<path transform="matrix(1,0,0,-1,-449.0343,908.8217)" d="M447.9091 370.279H1190.1279V912.654H447.9091Z"/>
</clipPath>
<clipPath id="clip_19">
<path transform="matrix(1,0,0,-1,-449.0343,908.8217)" d="M542.9543 435.8415H1180.5281V846.459H542.9543Z"/>
</clipPath>
<clipPath id="clip_20">
<path transform="matrix(1,0,0,-1,-449.0343,908.8217)" d="M447.9091 370.279H1190.1279V912.654H447.9091Z"/>
</clipPath>
<clipPath id="clip_21">
<path transform="matrix(1,0,0,-1,-449.0343,908.8217)" d="M542.9543 435.8415H1180.5281V846.459H542.9543Z"/>
</clipPath>
<clipPath id="clip_22">
<path transform="matrix(1,0,0,-1,-449.0343,908.8217)" d="M447.9091 370.279H1190.1279V912.654H447.9091Z"/>
</clipPath>
<clipPath id="clip_23">
<path transform="matrix(1,0,0,-1,-449.0343,908.8217)" d="M542.9543 435.8415H1180.5281V846.459H542.9543Z"/>
</clipPath>
<clipPath id="clip_24">
<path transform="matrix(1,0,0,-1,-449.0343,908.8217)" d="M447.9091 370.279H1190.1279V912.654H447.9091Z"/>
</clipPath>
<clipPath id="clip_25">
<path transform="matrix(1,0,0,-1,-449.0343,908.8217)" d="M542.9543 435.8415H1180.5281V846.459H542.9543Z"/>
</clipPath>
<clipPath id="clip_26">
<path transform="matrix(1,0,0,-1,-449.0343,908.8217)" d="M447.9091 370.279H1190.1279V912.654H447.9091Z"/>
</clipPath>
<clipPath id="clip_27">
<path transform="matrix(1,0,0,-1,-449.0343,908.8217)" d="M0 0H1920V1080H0Z"/>
</clipPath>
<clipPath id="clip_28">
<path transform="matrix(1,0,0,-1,-449.0343,908.8217)" d="M656.0297 364.1376H1069.7787V405.54386H656.0297Z"/>
</clipPath>
<clipPath id="clip_29">
<path transform="matrix(1,0,0,-1,-449.0343,908.8217)" d="M0 0H1920V1080H0Z"/>
</clipPath>
<clipPath id="clip_30">
<path transform="matrix(1,0,0,-1,-449.0343,908.8217)" d="M444.1053 419.0369 449.1925 864.3602 490.5961 863.8872 485.5088 418.5639Z"/>
</clipPath>
<clipPath id="clip_31">
<path transform="matrix(1,0,0,-1,-449.0343,908.8217)" d="M0 0H1920V1080H0Z"/>
</clipPath>
<clipPath id="clip_32">
<path transform="matrix(1,0,0,-1,-449.0343,908.8217)" d="M0 0H1920V1080H0Z"/>
</clipPath>
<clipPath id="clip_33">
<path transform="matrix(1,0,0,-1,-449.0343,908.8217)" d="M688.2006 865.5464H1169.4207V906.95266H688.2006Z"/>
</clipPath>
</defs>
<g clip-path="url(#clip_0)">
<g clip-path="url(#clip_1)">
<path transform="matrix(1,0,0,-1,-449.0343,908.8217)" d="M0 1080H1920V0H0Z" fill="#ffffff"/>
</g>
<g clip-path="url(#clip_2)">
<path transform="matrix(1,0,0,-1,-449.0343,908.8217)" d="M447.9091 369.654H1190.909V912.654H447.9091Z" fill-opacity="0"/>
<path transform="matrix(1,0,0,-1,-449.0343,908.8217)" d="M447.9091 370.2826H1190.1279V912.6505H447.9091Z" fill="#ffffff"/>
<path transform="matrix(1,0,0,-1,-449.0343,908.8217)" d="M542.9543 435.8415H1180.5281V846.459H542.9543Z" fill="#ffffff"/>
</g>
<g clip-path="url(#clip_3)">
<path transform="matrix(1.333312,0,0,1.333312,-1.1252136,-3.8287965)" stroke-width=".5" stroke-linecap="square" stroke-linejoin="round" fill="none" stroke="#b0b0b0" d="M93.02081 357.6124V49.64436"/>
</g>
<g clip-path="url(#clip_4)">
<path transform="matrix(1,0,0,-1,-449.0343,908.8217)" d="M571.9349 435.8415V431.1749"/>
<path transform="matrix(1.333312,0,0,1.333312,122.90057,472.98023)" stroke-width=".8" stroke-linecap="butt" stroke-linejoin="round" fill="none" stroke="#000000" d="M0 0V3.5"/>
<path transform="matrix(1,0,0,-1,-449.0343,908.8217)" d="M549.5152 412.2319H552.9519V424.0984L549.2119 423.3484V425.265L552.9319 426.015H555.0352V412.2319H558.4718V410.4619H549.5152V412.2319Z"/>
<path transform="matrix(1,0,0,-1,-449.0343,908.8217)" d="M567.2212 424.6284C566.139 424.6284 565.3246 424.095 564.7779 423.0284 564.2335 421.9639 563.9613 420.3618 563.9613 418.2218 563.9613 416.0907 564.2335 414.4918 564.7779 413.4252 565.3246 412.3585 566.139 411.8252 567.2212 411.8252 568.3123 411.8252 569.1301 412.3585 569.6745 413.4252 570.2212 414.4918 570.4945 416.0907 570.4945 418.2218 570.4945 420.3618 570.2212 421.9639 569.6745 423.0284 569.1301 424.095 568.3123 424.6284 567.2212 424.6284ZM567.2212 426.295C568.9656 426.295 570.2978 425.605 571.2178 424.225 572.1378 422.8473 572.5978 420.8462 572.5978 418.2218 572.5978 415.604 572.1378 413.6052 571.2178 412.2252 570.2978 410.8475 568.9656 410.1586 567.2212 410.1586 565.479 410.1586 564.1479 410.8475 563.2279 412.2252 562.308 413.6052 561.848 415.604 561.848 418.2218 561.848 420.8462 562.308 422.8473 563.2279 424.225 564.1479 425.605 565.479 426.295 567.2212 426.295Z"/>
<path transform="matrix(1,0,0,-1,-449.0343,908.8217)" d="M575.8002 422.6907H585.14736V423.9297H575.8002Z"/>
<path transform="matrix(1,0,0,-1,-449.0343,908.8217)" d="M589.5958 419.8674H594.736V418.6284H587.8248V419.8674C588.3832 420.4461 589.1447 421.2223 590.1091 422.1961 591.0751 423.1714 591.6817 423.8006 591.9291 424.0837 592.4004 424.6126 592.7294 425.0606 592.9161 425.4277 593.1043 425.7948 593.1984 426.1557 593.1984 426.5103 593.1984 427.089 592.9954 427.5603 592.5894 427.9243 592.1834 428.2898 591.6545 428.4726 591.0028 428.4726 590.5408 428.4726 590.0531 428.3925 589.5398 428.2323 589.028 428.0721 588.4805 427.8286 587.8971 427.502V428.9906C588.4898 429.2286 589.0436 429.4083 589.5584 429.5296 590.0749 429.6509 590.547 429.7116 590.9748 429.7116 592.1025 429.7116 593.0016 429.4293 593.6721 428.8646 594.3425 428.3015 594.6777 427.5486 594.6777 426.606 594.6777 426.158 594.5937 425.7333 594.4257 425.332 594.2593 424.9322 593.9544 424.4601 593.5111 423.9157 593.3897 423.7741 593.0032 423.3666 592.3514 422.693 591.7012 422.0195 590.7827 421.0776 589.5958 419.8674Z"/>
</g>
<g clip-path="url(#clip_5)">
<path transform="matrix(1.333312,0,0,1.333312,-1.1252136,-3.8287965)" stroke-width=".5" stroke-linecap="square" stroke-linejoin="round" fill="none" stroke="#b0b0b0" d="M179.9641 357.6124V49.64436"/>
</g>
<g clip-path="url(#clip_6)">
<path transform="matrix(1,0,0,-1,-449.0343,908.8217)" d="M687.8574 435.8415V431.1749"/>
<path transform="matrix(1.333312,0,0,1.333312,238.82312,472.98023)" stroke-width=".8" stroke-linecap="butt" stroke-linejoin="round" fill="none" stroke="#000000" d="M0 0V3.5"/>
<path transform="matrix(1,0,0,-1,-449.0343,908.8217)" d="M665.4378 412.2145H668.8744V424.081L665.1344 423.331V425.2477L668.8544 425.9977H670.9577V412.2145H674.3943V410.4446H665.4378V412.2145Z"/>
<path transform="matrix(1,0,0,-1,-449.0343,908.8217)" d="M683.1437 424.611C682.0615 424.611 681.2471 424.0777 680.7004 423.011 680.156 421.9466 679.8838 420.3444 679.8838 418.2045 679.8838 416.0734 680.156 414.4745 680.7004 413.4079 681.2471 412.3412 682.0615 411.8079 683.1437 411.8079 684.2348 411.8079 685.0526 412.3412 685.597 413.4079 686.1437 414.4745 686.417 416.0734 686.417 418.2045 686.417 420.3444 686.1437 421.9466 685.597 423.011 685.0526 424.0777 684.2348 424.611 683.1437 424.611ZM683.1437 426.2777C684.8881 426.2777 686.2203 425.5877 687.1403 424.2077 688.0603 422.8299 688.5203 420.8289 688.5203 418.2045 688.5203 415.5867 688.0603 413.5879 687.1403 412.2079 686.2203 410.8301 684.8881 410.1412 683.1437 410.1412 681.4015 410.1412 680.0704 410.8301 679.1505 412.2079 678.2305 413.5879 677.7705 415.5867 677.7705 418.2045 677.7705 420.8289 678.2305 422.8299 679.1505 424.2077 680.0704 425.5877 681.4015 426.2777 683.1437 426.2777Z"/>
<path transform="matrix(1,0,0,-1,-449.0343,908.8217)" d="M691.7227 422.6734H701.0699V423.91239H691.7227Z"/>
<path transform="matrix(1,0,0,-1,-449.0343,908.8217)" d="M704.5056 419.8501H706.9113V428.1566L704.2933 427.6316V428.9733L706.8973 429.4983H708.3696V419.8501H710.7752V418.6111H704.5056V419.8501Z"/>
</g>
<g clip-path="url(#clip_7)">
<path transform="matrix(1.333312,0,0,1.333312,-1.1252136,-3.8287965)" stroke-width=".5" stroke-linecap="square" stroke-linejoin="round" fill="none" stroke="#b0b0b0" d="M266.9073 357.6124V49.64436"/>
</g>
<g clip-path="url(#clip_8)">
<path transform="matrix(1,0,0,-1,-449.0343,908.8217)" d="M803.7799 435.8415V431.1749"/>
<path transform="matrix(1.333312,0,0,1.333312,354.7456,472.98023)" stroke-width=".8" stroke-linecap="butt" stroke-linejoin="round" fill="none" stroke="#000000" d="M0 0V3.5"/>
<path transform="matrix(1,0,0,-1,-449.0343,908.8217)" d="M787.6535 412.2319H791.0901V424.0984L787.3502 423.3484V425.265L791.0701 426.015H793.1734V412.2319H796.61V410.4619H787.6535V412.2319Z"/>
<path transform="matrix(1,0,0,-1,-449.0343,908.8217)" d="M805.3595 424.6284C804.2773 424.6284 803.4628 424.095 802.9162 423.0284 802.3717 421.9639 802.0995 420.3618 802.0995 418.2218 802.0995 416.0907 802.3717 414.4918 802.9162 413.4252 803.4628 412.3585 804.2773 411.8252 805.3595 411.8252 806.4506 411.8252 807.2683 412.3585 807.8128 413.4252 808.3594 414.4918 808.6328 416.0907 808.6328 418.2218 808.6328 420.3618 808.3594 421.9639 807.8128 423.0284 807.2683 424.095 806.4506 424.6284 805.3595 424.6284ZM805.3595 426.295C807.1039 426.295 808.4361 425.605 809.3561 424.225 810.2761 422.8473 810.7361 420.8462 810.7361 418.2218 810.7361 415.604 810.2761 413.6052 809.3561 412.2252 808.4361 410.8475 807.1039 410.1586 805.3595 410.1586 803.6173 410.1586 802.2862 410.8475 801.3662 412.2252 800.4462 413.6052 799.9862 415.604 799.9862 418.2218 799.9862 420.8462 800.4462 422.8473 801.3662 424.225 802.2862 425.605 803.6173 426.295 805.3595 426.295Z"/>
<path transform="matrix(1,0,0,-1,-449.0343,908.8217)" d="M817.1024 428.545C816.3448 428.545 815.7747 428.1716 815.3921 427.425 815.011 426.6799 814.8204 425.5583 814.8204 424.0604 814.8204 422.5686 815.011 421.4494 815.3921 420.7027 815.7747 419.9561 816.3448 419.5828 817.1024 419.5828 817.8661 419.5828 818.4386 419.9561 818.8197 420.7027 819.2023 421.4494 819.3937 422.5686 819.3937 424.0604 819.3937 425.5583 819.2023 426.6799 818.8197 427.425 818.4386 428.1716 817.8661 428.545 817.1024 428.545ZM817.1024 429.7116C818.3235 429.7116 819.256 429.2286 819.9 428.2626 820.544 427.2982 820.866 425.8974 820.866 424.0604 820.866 422.2279 820.544 420.8287 819.9 419.8628 819.256 418.8983 818.3235 418.4161 817.1024 418.4161 815.8828 418.4161 814.9511 418.8983 814.3071 419.8628 813.6631 420.8287 813.3411 422.2279 813.3411 424.0604 813.3411 425.8974 813.6631 427.2982 814.3071 428.2626 814.9511 429.2286 815.8828 429.7116 817.1024 429.7116Z"/>
</g>
<g clip-path="url(#clip_9)">
<path transform="matrix(1.333312,0,0,1.333312,-1.1252136,-3.8287965)" stroke-width=".5" stroke-linecap="square" stroke-linejoin="round" fill="none" stroke="#b0b0b0" d="M353.8506 357.6124V49.64436"/>
</g>
<g clip-path="url(#clip_10)">
<path transform="matrix(1,0,0,-1,-449.0343,908.8217)" d="M919.7024 435.8415V431.1749"/>
<path transform="matrix(1.333312,0,0,1.333312,470.6681,472.98023)" stroke-width=".8" stroke-linecap="butt" stroke-linejoin="round" fill="none" stroke="#000000" d="M0 0V3.5"/>
<path transform="matrix(1,0,0,-1,-449.0343,908.8217)" d="M903.576 412.2145H907.0126V424.081L903.2727 423.331V425.2477L906.9926 425.9977H909.0959V412.2145H912.5325V410.4446H903.576V412.2145Z"/>
<path transform="matrix(1,0,0,-1,-449.0343,908.8217)" d="M921.282 424.611C920.1998 424.611 919.3853 424.0777 918.8387 423.011 918.2942 421.9466 918.022 420.3444 918.022 418.2045 918.022 416.0734 918.2942 414.4745 918.8387 413.4079 919.3853 412.3412 920.1998 411.8079 921.282 411.8079 922.3731 411.8079 923.1908 412.3412 923.7353 413.4079 924.2819 414.4745 924.5553 416.0734 924.5553 418.2045 924.5553 420.3444 924.2819 421.9466 923.7353 423.011 923.1908 424.0777 922.3731 424.611 921.282 424.611ZM921.282 426.2777C923.0264 426.2777 924.3586 425.5877 925.2786 424.2077 926.1986 422.8299 926.6586 420.8289 926.6586 418.2045 926.6586 415.5867 926.1986 413.5879 925.2786 412.2079 924.3586 410.8301 923.0264 410.1412 921.282 410.1412 919.5398 410.1412 918.2087 410.8301 917.2887 412.2079 916.3687 413.5879 915.9087 415.5867 915.9087 418.2045 915.9087 420.8289 916.3687 422.8299 917.2887 424.2077 918.2087 425.5877 919.5398 426.2777 921.282 426.2777Z"/>
<path transform="matrix(1,0,0,-1,-449.0343,908.8217)" d="M930.1316 419.8501H932.5372V428.1566L929.9193 427.6316V428.9733L932.5232 429.4983H933.9955V419.8501H936.4012V418.6111H930.1316V419.8501Z"/>
</g>
<g clip-path="url(#clip_11)">
<path transform="matrix(1.333312,0,0,1.333312,-1.1252136,-3.8287965)" stroke-width=".5" stroke-linecap="square" stroke-linejoin="round" fill="none" stroke="#b0b0b0" d="M440.7938 357.6124V49.64436"/>
</g>
<g clip-path="url(#clip_12)">
<path transform="matrix(1,0,0,-1,-449.0343,908.8217)" d="M1035.625 435.8415V431.1749"/>
<path transform="matrix(1.333312,0,0,1.333312,586.5907,472.98023)" stroke-width=".8" stroke-linecap="butt" stroke-linejoin="round" fill="none" stroke="#000000" d="M0 0V3.5"/>
<path transform="matrix(1,0,0,-1,-449.0343,908.8217)" d="M1019.498 412.2319H1022.935V424.0984L1019.195 423.3484V425.265L1022.915 426.015H1025.018V412.2319H1028.455V410.4619H1019.498V412.2319Z"/>
<path transform="matrix(1,0,0,-1,-449.0343,908.8217)" d="M1037.204 424.6284C1036.122 424.6284 1035.308 424.095 1034.761 423.0284 1034.217 421.9639 1033.944 420.3618 1033.944 418.2218 1033.944 416.0907 1034.217 414.4918 1034.761 413.4252 1035.308 412.3585 1036.122 411.8252 1037.204 411.8252 1038.296 411.8252 1039.113 412.3585 1039.658 413.4252 1040.204 414.4918 1040.478 416.0907 1040.478 418.2218 1040.478 420.3618 1040.204 421.9639 1039.658 423.0284 1039.113 424.095 1038.296 424.6284 1037.204 424.6284ZM1037.204 426.295C1038.949 426.295 1040.281 425.605 1041.201 424.225 1042.121 422.8473 1042.581 420.8462 1042.581 418.2218 1042.581 415.604 1042.121 413.6052 1041.201 412.2252 1040.281 410.8475 1038.949 410.1586 1037.204 410.1586 1035.462 410.1586 1034.131 410.8475 1033.211 412.2252 1032.291 413.6052 1031.831 415.604 1031.831 418.2218 1031.831 420.8462 1032.291 422.8473 1033.211 424.225 1034.131 425.605 1035.462 426.295 1037.204 426.295Z"/>
<path transform="matrix(1,0,0,-1,-449.0343,908.8217)" d="M1047.067 419.8674H1052.207V418.6284H1045.296V419.8674C1045.854 420.4461 1046.616 421.2223 1047.58 422.1961 1048.546 423.1714 1049.153 423.8006 1049.4 424.0837 1049.871 424.6126 1050.2 425.0606 1050.387 425.4277 1050.575 425.7948 1050.669 426.1557 1050.669 426.5103 1050.669 427.089 1050.466 427.5603 1050.06 427.9243 1049.654 428.2898 1049.125 428.4726 1048.474 428.4726 1048.012 428.4726 1047.524 428.3925 1047.011 428.2323 1046.499 428.0721 1045.951 427.8286 1045.368 427.502V428.9906C1045.961 429.2286 1046.514 429.4083 1047.029 429.5296 1047.546 429.6509 1048.018 429.7116 1048.446 429.7116 1049.573 429.7116 1050.473 429.4293 1051.143 428.8646 1051.813 428.3015 1052.149 427.5486 1052.149 426.606 1052.149 426.158 1052.065 425.7333 1051.897 425.332 1051.73 424.9322 1051.425 424.4601 1050.982 423.9157 1050.861 423.7741 1050.474 423.3666 1049.822 422.693 1049.172 422.0195 1048.254 421.0776 1047.067 419.8674Z"/>
</g>
<g clip-path="url(#clip_13)">
<path transform="matrix(1.333312,0,0,1.333312,-1.1252136,-3.8287965)" stroke-width=".5" stroke-linecap="square" stroke-linejoin="round" fill="none" stroke="#b0b0b0" d="M527.7371 357.6124V49.64436"/>
</g>
<g clip-path="url(#clip_14)">
<path transform="matrix(1,0,0,-1,-449.0343,908.8217)" d="M1151.547 435.8415V431.1749"/>
<path transform="matrix(1.333312,0,0,1.333312,702.5127,472.98023)" stroke-width=".8" stroke-linecap="butt" stroke-linejoin="round" fill="none" stroke="#000000" d="M0 0V3.5"/>
<path transform="matrix(1,0,0,-1,-449.0343,908.8217)" d="M1135.421 412.2319H1138.858V424.0984L1135.118 423.3484V425.265L1138.838 426.015H1140.941V412.2319H1144.377V410.4619H1135.421V412.2319Z"/>
<path transform="matrix(1,0,0,-1,-449.0343,908.8217)" d="M1153.127 424.6284C1152.045 424.6284 1151.23 424.095 1150.684 423.0284 1150.139 421.9639 1149.867 420.3618 1149.867 418.2218 1149.867 416.0907 1150.139 414.4918 1150.684 413.4252 1151.23 412.3585 1152.045 411.8252 1153.127 411.8252 1154.218 411.8252 1155.036 412.3585 1155.58 413.4252 1156.127 414.4918 1156.4 416.0907 1156.4 418.2218 1156.4 420.3618 1156.127 421.9639 1155.58 423.0284 1155.036 424.095 1154.218 424.6284 1153.127 424.6284ZM1153.127 426.295C1154.871 426.295 1156.204 425.605 1157.124 424.225 1158.043 422.8473 1158.503 420.8462 1158.503 418.2218 1158.503 415.604 1158.043 413.6052 1157.124 412.2252 1156.204 410.8475 1154.871 410.1586 1153.127 410.1586 1151.385 410.1586 1150.054 410.8475 1149.134 412.2252 1148.214 413.6052 1147.754 415.604 1147.754 418.2218 1147.754 420.8462 1148.214 422.8473 1149.134 424.225 1150.054 425.605 1151.385 426.295 1153.127 426.295Z"/>
<path transform="matrix(1,0,0,-1,-449.0343,908.8217)" d="M1166.183 424.499C1166.888 424.3481 1167.438 424.0339 1167.833 423.5564 1168.23 423.0804 1168.428 422.4924 1168.428 421.7924 1168.428 420.7191 1168.059 419.8876 1167.32 419.2981 1166.581 418.7101 1165.531 418.4161 1164.17 418.4161 1163.714 418.4161 1163.244 418.4612 1162.761 418.5514 1162.277 418.6417 1161.777 418.777 1161.263 418.9574V420.3784C1161.67 420.1404 1162.117 419.9608 1162.602 419.8394 1163.089 419.7181 1163.597 419.6574 1164.128 419.6574 1165.05 419.6574 1165.753 419.8394 1166.237 420.2034 1166.721 420.5674 1166.963 421.0971 1166.963 421.7924 1166.963 422.4348 1166.738 422.9365 1166.288 423.2974 1165.839 423.6598 1165.214 423.841 1164.412 423.841H1163.143V425.052H1164.471C1165.194 425.052 1165.748 425.1967 1166.132 425.486 1166.516 425.7753 1166.708 426.1922 1166.708 426.7367 1166.708 427.2951 1166.51 427.7236 1166.113 428.0223 1165.718 428.3225 1165.151 428.4726 1164.412 428.4726 1164.008 428.4726 1163.575 428.4283 1163.113 428.3396 1162.651 428.2525 1162.143 428.1172 1161.589 427.9336V429.2449C1162.149 429.4005 1162.673 429.5172 1163.162 429.5949 1163.65 429.6727 1164.111 429.7116 1164.543 429.7116 1165.662 429.7116 1166.546 429.4573 1167.196 428.9486 1167.848 428.4415 1168.174 427.7555 1168.174 426.8906 1168.174 426.2871 1168.001 425.7777 1167.656 425.3623 1167.31 424.947 1166.82 424.6592 1166.183 424.499Z"/>
<path transform="matrix(1,0,0,-1,-449.0343,908.8217)" d="M677.9107 398.4455C676.3818 398.4455 675.1674 397.8755 674.2674 396.7355 673.3697 395.5977 672.9208 394.0455 672.9208 392.0789 672.9208 390.1211 673.3697 388.5723 674.2674 387.4323 675.1674 386.2945 676.3818 385.7257 677.9107 385.7257 679.4374 385.7257 680.6473 386.2945 681.5407 387.4323 682.434 388.5723 682.8806 390.1211 682.8806 392.0789 682.8806 394.0455 682.434 395.5977 681.5407 396.7355 680.6473 397.8755 679.4374 398.4455 677.9107 398.4455ZM677.9107 400.1521C680.0907 400.1521 681.8329 399.421 683.1373 397.9588 684.4439 396.4966 685.0973 394.5366 685.0973 392.0789 685.0973 389.6278 684.4439 387.6712 683.1373 386.209 681.8329 384.7468 680.0907 384.0157 677.9107 384.0157 675.7241 384.0157 673.9752 384.7446 672.6641 386.2023 671.3553 387.6623 670.7008 389.6211 670.7008 392.0789 670.7008 394.5366 671.3553 396.4966 672.6641 397.9588 673.9752 399.421 675.7241 400.1521 677.9107 400.1521Z"/>
<path transform="matrix(1,0,0,-1,-449.0343,908.8217)" d="M690.1589 386.069V379.8824H688.2322V395.9855H690.1589V394.2155C690.5633 394.9088 691.0722 395.4233 691.6855 395.7588 692.301 396.0966 693.0355 396.2655 693.8888 396.2655 695.3065 396.2655 696.4576 395.7033 697.3421 394.5788 698.2287 393.4544 698.6721 391.9756 698.6721 390.1422 698.6721 388.3089 698.2287 386.829 697.3421 385.7023 696.4576 384.5779 695.3065 384.0157 693.8888 384.0157 693.0355 384.0157 692.301 384.1846 691.6855 384.5223 691.0722 384.8601 690.5633 385.3757 690.1589 386.069ZM696.6821 390.1422C696.6821 391.5511 696.3921 392.6567 695.8121 393.4589 695.2321 394.2611 694.4355 394.6622 693.4221 394.6622 692.4066 394.6622 691.6088 394.2611 691.0288 393.4589 690.4488 392.6567 690.1589 391.5511 690.1589 390.1422 690.1589 388.7334 690.4488 387.6278 691.0288 386.8256 691.6088 386.0234 692.4066 385.6223 693.4221 385.6223 694.4355 385.6223 695.2321 386.0234 695.8121 386.8256 696.3921 387.6278 696.6821 388.7334 696.6821 390.1422Z"/>
<path transform="matrix(1,0,0,-1,-449.0343,908.8217)" d="M711.8268 390.6322V389.6956H703.0137C703.0981 388.3756 703.4959 387.3701 704.207 386.679 704.9181 385.9879 705.9092 385.6423 707.1803 385.6423 707.9158 385.6423 708.6291 385.7323 709.3202 385.9123 710.0113 386.0923 710.698 386.3634 711.3802 386.7256V384.9123C710.6913 384.6212 709.9858 384.399 709.2636 384.2457 708.5413 384.0923 707.8091 384.0157 707.0669 384.0157 705.2047 384.0157 703.7303 384.5568 702.6437 385.639 701.557 386.7234 701.0137 388.1901 701.0137 390.0389 701.0137 391.9478 701.5292 393.4622 702.5603 394.5822 703.5914 395.7044 704.9825 396.2655 706.7336 396.2655 708.3025 396.2655 709.5435 395.7599 710.4569 394.7488 711.3702 393.74 711.8268 392.3678 711.8268 390.6322ZM709.9102 391.1956C709.8969 392.2422 709.6035 393.0778 709.0302 393.7022 708.4569 394.3288 707.698 394.6422 706.7536 394.6422 705.6847 394.6422 704.8292 394.34 704.187 393.7355 703.5448 393.1311 703.1748 392.28 703.077 391.1822L709.9102 391.1956Z"/>
<path transform="matrix(1,0,0,-1,-449.0343,908.8217)" d="M721.7317 394.1955C721.5161 394.32 721.2817 394.4111 721.0284 394.4688 720.775 394.5288 720.4962 394.5588 720.1917 394.5588 719.1073 394.5588 718.2751 394.2066 717.6951 393.5022 717.1151 392.7978 716.8251 391.7856 716.8251 390.4656V384.319H714.8985V395.9855H716.8251V394.1722C717.2295 394.8811 717.754 395.4066 718.3984 395.7488 719.0451 396.0933 719.8306 396.2655 720.755 396.2655 720.8861 396.2655 721.0317 396.2566 721.1917 396.2388 721.3517 396.2233 721.5284 396.1977 721.7217 396.1622L721.7317 394.1955Z"/>
<path transform="matrix(1,0,0,-1,-449.0343,908.8217)" d="M729.0457 390.1822C727.4969 390.1822 726.4236 390.0056 725.8258 389.6523 725.228 389.2989 724.9291 388.6945 724.9291 387.839 724.9291 387.159 725.1536 386.619 725.6025 386.219 726.0513 385.8212 726.6602 385.6223 727.4291 385.6223 728.4935 385.6223 729.3468 385.999 729.9891 386.7523 730.6313 387.5056 730.9524 388.5067 730.9524 389.7556V390.1822H729.0457ZM732.869 390.9756V384.319H730.9524V386.089C730.5146 385.3823 729.9691 384.8601 729.3157 384.5223 728.6624 384.1846 727.8635 384.0157 726.9191 384.0157 725.7258 384.0157 724.7758 384.3512 724.0692 385.0223 723.3647 385.6934 723.0125 386.5912 723.0125 387.7156 723.0125 389.0267 723.4514 390.0156 724.3291 390.6822 725.2091 391.3489 726.5202 391.6822 728.2624 391.6822H730.9524V391.8722C730.9524 392.7544 730.6624 393.4366 730.0824 393.9189 729.5024 394.4011 728.688 394.6422 727.6391 394.6422 726.9724 394.6422 726.3225 394.5622 725.6891 394.4022 725.058 394.2422 724.4514 394.0022 723.8692 393.6822V395.4555C724.5691 395.7266 725.2491 395.9288 725.9091 396.0622 726.5691 396.1977 727.2113 396.2655 727.8358 396.2655 729.5246 396.2655 730.7857 395.8277 731.619 394.9522 732.4524 394.0789 732.869 392.7533 732.869 390.9756Z"/>
<path transform="matrix(1,0,0,-1,-449.0343,908.8217)" d="M738.7118 399.2988V395.9855H742.6584V394.4955H738.7118V388.1623C738.7118 387.2112 738.8418 386.6001 739.1018 386.329 739.3618 386.0579 739.8918 385.9223 740.6918 385.9223H742.6584V384.319H740.6918C739.2118 384.319 738.1907 384.5946 737.6285 385.1457 737.0663 385.699 736.7852 386.7045 736.7852 388.1623V394.4955H735.3786V395.9855H736.7852V399.2988H738.7118Z"/>
<path transform="matrix(1,0,0,-1,-449.0343,908.8217)" d="M745.1797 395.9855H747.0963V384.319H745.1797V395.9855ZM745.1797 400.5288H747.0963V398.0988H745.1797V400.5288Z"/>
<path transform="matrix(1,0,0,-1,-449.0343,908.8217)" d="M755.6266 394.6422C754.5999 394.6422 753.7877 394.2411 753.1899 393.4389 752.5922 392.6367 752.2933 391.5378 752.2933 390.1422 752.2933 388.7467 752.59 387.6478 753.1833 386.8456 753.7788 386.0434 754.5933 385.6423 755.6266 385.6423 756.6488 385.6423 757.4577 386.0445 758.0532 386.849 758.651 387.6556 758.9499 388.7534 758.9499 390.1422 758.9499 391.5244 758.651 392.62 758.0532 393.4289 757.4577 394.2377 756.6488 394.6422 755.6266 394.6422ZM755.6266 396.2655C757.2932 396.2655 758.6021 395.7233 759.5532 394.6388 760.5065 393.5566 760.9832 392.0578 760.9832 390.1422 760.9832 388.2334 760.5065 386.7345 759.5532 385.6457 758.6021 384.559 757.2932 384.0157 755.6266 384.0157 753.9533 384.0157 752.6422 384.559 751.6933 385.6457 750.7467 386.7345 750.2733 388.2334 750.2733 390.1422 750.2733 392.0578 750.7467 393.5566 751.6933 394.6388 752.6422 395.7233 753.9533 396.2655 755.6266 396.2655Z"/>
<path transform="matrix(1,0,0,-1,-449.0343,908.8217)" d="M773.8584 391.3622V384.319H771.9417V391.2989C771.9417 392.4033 771.7262 393.2289 771.2951 393.7755 770.864 394.3244 770.2184 394.5988 769.3584 394.5988 768.3229 394.5988 767.5062 394.2688 766.9085 393.6089 766.3107 392.9511 766.0118 392.0522 766.0118 390.9122V384.319H764.0852V395.9855H766.0118V394.1722C766.4718 394.8744 767.0118 395.3988 767.6318 395.7455 768.254 396.0922 768.9718 396.2655 769.7851 396.2655 771.1251 396.2655 772.1384 395.851 772.8251 395.0222 773.5139 394.1933 773.8584 392.9733 773.8584 391.3622Z"/>
<path transform="matrix(1,0,0,-1,-449.0343,908.8217)" d="M782.9824 390.1822C781.4335 390.1822 780.3602 390.0056 779.7624 389.6523 779.1647 389.2989 778.8658 388.6945 778.8658 387.839 778.8658 387.159 779.0902 386.619 779.5391 386.219 779.988 385.8212 780.5969 385.6223 781.3658 385.6223 782.4302 385.6223 783.2835 385.999 783.9257 386.7523 784.5679 387.5056 784.889 388.5067 784.889 389.7556V390.1822H782.9824ZM786.8057 390.9756V384.319H784.889V386.089C784.4513 385.3823 783.9057 384.8601 783.2524 384.5223 782.5991 384.1846 781.8002 384.0157 780.8558 384.0157 779.6624 384.0157 778.7125 384.3512 778.0058 385.0223 777.3014 385.6934 776.9492 386.5912 776.9492 387.7156 776.9492 389.0267 777.388 390.0156 778.2658 390.6822 779.1458 391.3489 780.4569 391.6822 782.1991 391.6822H784.889V391.8722C784.889 392.7544 784.599 393.4366 784.019 393.9189 783.4391 394.4011 782.6246 394.6422 781.5758 394.6422 780.9091 394.6422 780.2591 394.5622 779.6258 394.4022 778.9947 394.2422 778.388 394.0022 777.8058 393.6822V395.4555C778.5058 395.7266 779.1858 395.9288 779.8458 396.0622 780.5058 396.1977 781.148 396.2655 781.7724 396.2655 783.4613 396.2655 784.7224 395.8277 785.5557 394.9522 786.389 394.0789 786.8057 392.7533 786.8057 390.9756Z"/>
<path transform="matrix(1,0,0,-1,-449.0343,908.8217)" d="M790.7519 384.319H792.6685V400.52876H790.7519Z"/>
<path transform="matrix(1,0,0,-1,-449.0343,908.8217)" d="M803.5433 384.319H805.64657V399.8721H803.5433Z"/>
<path transform="matrix(1,0,0,-1,-449.0343,908.8217)" d="M819.4514 391.3622V384.319H817.5348V391.2989C817.5348 392.4033 817.3192 393.2289 816.8881 393.7755 816.457 394.3244 815.8115 394.5988 814.9515 394.5988 813.9159 394.5988 813.0993 394.2688 812.5015 393.6089 811.9037 392.9511 811.6049 392.0522 811.6049 390.9122V384.319H809.6782V395.9855H811.6049V394.1722C812.0649 394.8744 812.6048 395.3988 813.2248 395.7455 813.847 396.0922 814.5648 396.2655 815.3781 396.2655 816.7181 396.2655 817.7314 395.851 818.4181 395.0222 819.107 394.1933 819.4514 392.9733 819.4514 391.3622Z"/>
<path transform="matrix(1,0,0,-1,-449.0343,908.8217)" d="M825.1688 399.2988V395.9855H829.1154V394.4955H825.1688V388.1623C825.1688 387.2112 825.2988 386.6001 825.5588 386.329 825.8188 386.0579 826.3488 385.9223 827.1488 385.9223H829.1154V384.319H827.1488C825.6688 384.319 824.6477 384.5946 824.0855 385.1457 823.5233 385.699 823.2422 386.7045 823.2422 388.1623V394.4955H821.8355V395.9855H823.2422V399.2988H825.1688Z"/>
<path transform="matrix(1,0,0,-1,-449.0343,908.8217)" d="M841.6165 390.6322V389.6956H832.8033C832.8877 388.3756 833.2855 387.3701 833.9966 386.679 834.7077 385.9879 835.6988 385.6423 836.9699 385.6423 837.7054 385.6423 838.4187 385.7323 839.1098 385.9123 839.8009 386.0923 840.4876 386.3634 841.1698 386.7256V384.9123C840.4809 384.6212 839.7754 384.399 839.0532 384.2457 838.331 384.0923 837.5988 384.0157 836.8565 384.0157 834.9944 384.0157 833.5199 384.5568 832.4333 385.639 831.3466 386.7234 830.8033 388.1901 830.8033 390.0389 830.8033 391.9478 831.3189 393.4622 832.35 394.5822 833.381 395.7044 834.7721 396.2655 836.5232 396.2655 838.0921 396.2655 839.3332 395.7599 840.2465 394.7488 841.1598 393.74 841.6165 392.3678 841.6165 390.6322ZM839.6998 391.1956C839.6865 392.2422 839.3932 393.0778 838.8199 393.7022 838.2465 394.3288 837.4877 394.6422 836.5432 394.6422 835.4743 394.6422 834.6188 394.34 833.9766 393.7355 833.3344 393.1311 832.9644 392.28 832.8666 391.1822L839.6998 391.1956Z"/>
<path transform="matrix(1,0,0,-1,-449.0343,908.8217)" d="M854.4613 391.3622V384.319H852.5446V391.2989C852.5446 392.4033 852.3291 393.2289 851.898 393.7755 851.4669 394.3244 850.8213 394.5988 849.9613 394.5988 848.9258 394.5988 848.1092 394.2688 847.5114 393.6089 846.9136 392.9511 846.6147 392.0522 846.6147 390.9122V384.319H844.6881V395.9855H846.6147V394.1722C847.0747 394.8744 847.6147 395.3988 848.2347 395.7455 848.8569 396.0922 849.5747 396.2655 850.388 396.2655 851.728 396.2655 852.7413 395.851 853.428 395.0222 854.1168 394.1933 854.4613 392.9733 854.4613 391.3622Z"/>
<path transform="matrix(1,0,0,-1,-449.0343,908.8217)" d="M865.7186 395.6422V393.8289C865.1786 394.1066 864.6164 394.3144 864.032 394.4522 863.4497 394.5922 862.8453 394.6622 862.2187 394.6622 861.2676 394.6622 860.5542 394.5166 860.0787 394.2255 859.6031 393.9344 859.3654 393.4966 859.3654 392.9122 859.3654 392.4678 859.5354 392.1189 859.8754 391.8656 860.2153 391.6122 860.8998 391.3711 861.9287 391.1422L862.5853 390.9956C863.9453 390.7045 864.9119 390.2934 865.4853 389.7623 866.0586 389.2312 866.3453 388.4901 866.3453 387.539 866.3453 386.4545 865.9164 385.5957 865.0586 384.9623 864.2008 384.3312 863.022 384.0157 861.522 384.0157 860.8976 384.0157 860.2465 384.0768 859.5687 384.199 858.8909 384.3212 858.1776 384.5034 857.4287 384.7457V386.7256C858.1376 386.3568 858.8354 386.0801 859.522 385.8956 860.2087 385.7134 860.8898 385.6223 861.5653 385.6223 862.4675 385.6223 863.1609 385.7768 863.6453 386.0856 864.132 386.3945 864.3753 386.8301 864.3753 387.3923 864.3753 387.9123 864.1997 388.3112 863.8486 388.5889 863.4997 388.8667 862.7309 389.1345 861.542 389.3923L860.8753 389.5489C859.6887 389.7978 858.8309 390.1811 858.302 390.6989 857.7754 391.2167 857.5121 391.9267 857.5121 392.8289 857.5121 393.9266 857.9009 394.7733 858.6787 395.3688 859.4565 395.9666 860.5609 396.2655 861.992 396.2655 862.6986 396.2655 863.3642 396.2133 863.9886 396.1088 864.6153 396.0066 865.1919 395.851 865.7186 395.6422Z"/>
<path transform="matrix(1,0,0,-1,-449.0343,908.8217)" d="M869.3965 395.9855H871.3131V384.319H869.3965V395.9855ZM869.3965 400.5288H871.3131V398.0988H869.3965V400.5288Z"/>
<path transform="matrix(1,0,0,-1,-449.0343,908.8217)" d="M877.2201 399.2988V395.9855H881.1667V394.4955H877.2201V388.1623C877.2201 387.2112 877.3501 386.6001 877.6101 386.329 877.8701 386.0579 878.4001 385.9223 879.2001 385.9223H881.1667V384.319H879.2001C877.7201 384.319 876.699 384.5946 876.1368 385.1457 875.5746 385.699 875.2934 386.7045 875.2934 388.1623V394.4955H873.8868V395.9855H875.2934V399.2988H877.2201Z"/>
<path transform="matrix(1,0,0,-1,-449.0343,908.8217)" d="M888.5412 383.2357C888.0012 381.8468 887.4734 380.9413 886.9578 380.5191 886.4445 380.0946 885.7579 379.8824 884.8979 379.8824H883.3646V381.4857H884.4912C885.0179 381.4857 885.4268 381.6113 885.7179 381.8624 886.0112 382.1113 886.3345 382.7013 886.6878 383.6324L887.0312 384.5057 882.3146 395.9855H884.3446L887.9912 386.8623 891.6378 395.9855H893.6677L888.5412 383.2357Z"/>
<path transform="matrix(1,0,0,-1,-449.0343,908.8217)" d="M907.6971 400.5054C906.7682 398.9099 906.0771 397.3299 905.6238 395.7655 905.1727 394.2033 904.9471 392.62 904.9471 391.0156 904.9471 389.4134 905.1749 387.8256 905.6305 386.2523 906.086 384.679 906.7749 383.0968 907.6971 381.5057H906.0305C904.9905 383.139 904.2116 384.7434 903.6938 386.319 903.1761 387.8945 902.9172 389.46 902.9172 391.0156 902.9172 392.5644 903.1738 394.1233 903.6872 395.6922 904.2027 397.2632 904.9838 398.8677 906.0305 400.5054H907.6971Z"/>
<path transform="matrix(1,0,0,-1,-449.0343,908.8217)" d="M911.5 399.8721H920.4365V398.0988H913.6033V393.5155H919.7698V391.7456H913.6033V384.319H911.5V399.8721Z"/>
<path transform="matrix(1,0,0,-1,-449.0343,908.8217)" d="M923.7706 399.8721H925.8739V386.089H933.4471V384.319H923.7706V399.8721Z"/>
<path transform="matrix(1,0,0,-1,-449.0343,908.8217)" d="M941.1957 398.4455C939.6669 398.4455 938.4525 397.8755 937.5525 396.7355 936.6547 395.5977 936.2058 394.0455 936.2058 392.0789 936.2058 390.1211 936.6547 388.5723 937.5525 387.4323 938.4525 386.2945 939.6669 385.7257 941.1957 385.7257 942.7224 385.7257 943.9324 386.2945 944.8257 387.4323 945.719 388.5723 946.1657 390.1211 946.1657 392.0789 946.1657 394.0455 945.719 395.5977 944.8257 396.7355 943.9324 397.8755 942.7224 398.4455 941.1957 398.4455ZM941.1957 400.1521C943.3757 400.1521 945.1179 399.421 946.4223 397.9588 947.729 396.4966 948.3823 394.5366 948.3823 392.0789 948.3823 389.6278 947.729 387.6712 946.4223 386.209 945.1179 384.7468 943.3757 384.0157 941.1957 384.0157 939.0091 384.0157 937.2603 384.7446 935.9492 386.2023 934.6403 387.6623 933.9859 389.6211 933.9859 392.0789 933.9859 394.5366 934.6403 396.4966 935.9492 397.9588 937.2603 399.421 939.0091 400.1521 941.1957 400.1521Z"/>
<path transform="matrix(1,0,0,-1,-449.0343,908.8217)" d="M953.7772 398.1421V392.2989H956.4238C957.4038 392.2989 958.1605 392.5522 958.6938 393.0589 959.2294 393.5655 959.4971 394.2877 959.4971 395.2255 959.4971 396.1566 959.2294 396.8755 958.6938 397.3821 958.1605 397.8888 957.4038 398.1421 956.4238 398.1421H953.7772ZM951.6739 399.8721H956.4238C958.1683 399.8721 959.486 399.4777 960.3771 398.6888 961.2704 397.8999 961.7171 396.7455 961.7171 395.2255 961.7171 393.69 961.2704 392.53 960.3771 391.7456 959.486 390.9611 958.1683 390.5689 956.4238 390.5689H953.7772V384.319H951.6739V399.8721Z"/>
<path transform="matrix(1,0,0,-1,-449.0343,908.8217)" d="M971.5182 395.6422V393.8289C970.9782 394.1066 970.416 394.3144 969.8315 394.4522 969.2493 394.5922 968.6449 394.6622 968.0182 394.6622 967.0671 394.6622 966.3538 394.5166 965.8783 394.2255 965.4027 393.9344 965.165 393.4966 965.165 392.9122 965.165 392.4678 965.3349 392.1189 965.6749 391.8656 966.0149 391.6122 966.6994 391.3711 967.7282 391.1422L968.3849 390.9956C969.7449 390.7045 970.7115 390.2934 971.2849 389.7623 971.8582 389.2312 972.1448 388.4901 972.1448 387.539 972.1448 386.4545 971.716 385.5957 970.8582 384.9623 970.0004 384.3312 968.8216 384.0157 967.3216 384.0157 966.6971 384.0157 966.046 384.0768 965.3683 384.199 964.6905 384.3212 963.9772 384.5034 963.2283 384.7457V386.7256C963.9372 386.3568 964.635 386.0801 965.3216 385.8956 966.0083 385.7134 966.6894 385.6223 967.3649 385.6223 968.2671 385.6223 968.9604 385.7768 969.4449 386.0856 969.9315 386.3945 970.1749 386.8301 970.1749 387.3923 970.1749 387.9123 969.9993 388.3112 969.6482 388.5889 969.2993 388.8667 968.5305 389.1345 967.3416 389.3923L966.6749 389.5489C965.4883 389.7978 964.6305 390.1811 964.1016 390.6989 963.575 391.2167 963.3116 391.9267 963.3116 392.8289 963.3116 393.9266 963.7005 394.7733 964.4783 395.3688 965.2561 395.9666 966.3605 396.2655 967.7916 396.2655 968.4982 396.2655 969.1638 396.2133 969.7882 396.1088 970.4149 396.0066 970.9915 395.851 971.5182 395.6422Z"/>
<path transform="matrix(1,0,0,-1,-449.0343,908.8217)" d="M978.6027 399.8721H980.3726L974.956 382.339H973.1861L978.6027 399.8721Z"/>
<path transform="matrix(1,0,0,-1,-449.0343,908.8217)" d="M984.5701 391.7456V386.049H987.9467C989.0778 386.049 989.9155 386.2834 990.46 386.7523 991.0066 387.2212 991.28 387.9378 991.28 388.9023 991.28 389.8756 991.0066 390.5922 990.46 391.0522 989.9155 391.5144 989.0778 391.7456 987.9467 391.7456H984.5701ZM984.5701 398.1421V393.4555H987.6867C988.7133 393.4555 989.4778 393.6477 989.98 394.0322 990.4844 394.4188 990.7366 395.0077 990.7366 395.7988 990.7366 396.5833 990.4844 397.1699 989.98 397.5588 989.4778 397.9477 988.7133 398.1421 987.6867 398.1421H984.5701ZM982.4668 399.8721H987.8433C989.4478 399.8721 990.6833 399.5388 991.55 398.8721 992.4188 398.2055 992.8533 397.2577 992.8533 396.0288 992.8533 395.0755 992.631 394.3177 992.1866 393.7555 991.7422 393.1933 991.0888 392.8433 990.2266 392.7055 991.2622 392.4833 992.0666 392.0189 992.6399 391.3122 993.2133 390.6078 993.4999 389.7278 993.4999 388.6723 993.4999 387.2834 993.0277 386.2101 992.0833 385.4523 991.1388 384.6968 989.7944 384.319 988.05 384.319H982.4668V399.8721Z"/>
<path transform="matrix(1,0,0,-1,-449.0343,908.8217)" d="M1001.743 383.2357C1001.203 381.8468 1000.675 380.9413 1000.16 380.5191 999.6465 380.0946 998.9598 379.8824 998.0999 379.8824H996.5665V381.4857H997.6932C998.2198 381.4857 998.6287 381.6113 998.9198 381.8624 999.2132 382.1113 999.5365 382.7013 999.8898 383.6324L1000.233 384.5057 995.5166 395.9855H997.5465L1001.193 386.8623 1004.84 395.9855H1006.87L1001.743 383.2357Z"/>
<path transform="matrix(1,0,0,-1,-449.0343,908.8217)" d="M1011.373 399.2988V395.9855H1015.32V394.4955H1011.373V388.1623C1011.373 387.2112 1011.503 386.6001 1011.763 386.329 1012.023 386.0579 1012.553 385.9223 1013.353 385.9223H1015.32V384.319H1013.353C1011.873 384.319 1010.852 384.5946 1010.29 385.1457 1009.727 385.699 1009.446 386.7045 1009.446 388.1623V394.4955H1008.04V395.9855H1009.446V399.2988H1011.373Z"/>
<path transform="matrix(1,0,0,-1,-449.0343,908.8217)" d="M1027.776 390.6322V389.6956H1018.963C1019.047 388.3756 1019.445 387.3701 1020.156 386.679 1020.867 385.9879 1021.858 385.6423 1023.129 385.6423 1023.865 385.6423 1024.578 385.7323 1025.269 385.9123 1025.96 386.0923 1026.647 386.3634 1027.329 386.7256V384.9123C1026.64 384.6212 1025.935 384.399 1025.213 384.2457 1024.49 384.0923 1023.758 384.0157 1023.016 384.0157 1021.154 384.0157 1019.679 384.5568 1018.593 385.639 1017.506 386.7234 1016.963 388.1901 1016.963 390.0389 1016.963 391.9478 1017.478 393.4622 1018.509 394.5822 1019.541 395.7044 1020.932 396.2655 1022.683 396.2655 1024.252 396.2655 1025.493 395.7599 1026.406 394.7488 1027.319 393.74 1027.776 392.3678 1027.776 390.6322ZM1025.859 391.1956C1025.846 392.2422 1025.553 393.0778 1024.979 393.7022 1024.406 394.3288 1023.647 394.6422 1022.703 394.6422 1021.634 394.6422 1020.778 394.34 1020.136 393.7355 1019.494 393.1311 1019.124 392.28 1019.026 391.1822L1025.859 391.1956Z"/>
<path transform="matrix(1,0,0,-1,-449.0343,908.8217)" d="M1047.364 400.5054H1049.03C1050.07 398.8677 1050.849 397.2632 1051.367 395.6922 1051.885 394.1233 1052.144 392.5644 1052.144 391.0156 1052.144 389.46 1051.885 387.8945 1051.367 386.319 1050.849 384.7434 1050.07 383.139 1049.03 381.5057H1047.364C1048.286 383.0968 1048.975 384.679 1049.43 386.2523 1049.886 387.8256 1050.114 389.4134 1050.114 391.0156 1050.114 392.62 1049.886 394.2033 1049.43 395.7655 1048.975 397.3299 1048.286 398.9099 1047.364 400.5054Z"/>
</g>
<g clip-path="url(#clip_15)">
<path transform="matrix(1.333312,0,0,1.333312,-1.1252136,-3.8287965)" stroke-width=".5" stroke-linecap="square" stroke-linejoin="round" fill="none" stroke="#b0b0b0" d="M71.285 318.7693H549.4729"/>
</g>
<g clip-path="url(#clip_16)">
<path transform="matrix(1,0,0,-1,-449.0343,908.8217)" d="M542.9543 487.6314H538.2877"/>
<path transform="matrix(1.333312,0,0,1.333312,93.91998,421.1903)" stroke-width=".8" stroke-linecap="butt" stroke-linejoin="round" fill="none" stroke="#000000" d="M0 0H-3.5"/>
<path transform="matrix(1,0,0,-1,-449.0343,908.8217)" d="M486.1351 481.4598H489.5718V493.3263L485.8318 492.5763V494.493L489.5518 495.2429H491.6551V481.4598H495.0917V479.6899H486.1351V481.4598Z"/>
<path transform="matrix(1,0,0,-1,-449.0343,908.8217)" d="M503.8411 493.8563C502.7589 493.8563 501.9445 493.323 501.3978 492.2563 500.8534 491.1919 500.5812 489.5897 500.5812 487.4497 500.5812 485.3187 500.8534 483.7198 501.3978 482.6531 501.9445 481.5865 502.7589 481.0532 503.8411 481.0532 504.9322 481.0532 505.75 481.5865 506.2944 482.6531 506.8411 483.7198 507.1144 485.3187 507.1144 487.4497 507.1144 489.5897 506.8411 491.1919 506.2944 492.2563 505.75 493.323 504.9322 493.8563 503.8411 493.8563ZM503.8411 495.5229C505.5855 495.5229 506.9177 494.8329 507.8377 493.453 508.7577 492.0752 509.2177 490.0741 509.2177 487.4497 509.2177 484.832 508.7577 482.8331 507.8377 481.4532 506.9177 480.0754 505.5855 479.3865 503.8411 479.3865 502.0989 479.3865 500.7678 480.0754 499.8478 481.4532 498.9279 482.8331 498.4679 484.832 498.4679 487.4497 498.4679 490.0741 498.9279 492.0752 499.8478 493.453 500.7678 494.8329 502.0989 495.5229 503.8411 495.5229Z"/>
<path transform="matrix(1,0,0,-1,-449.0343,908.8217)" d="M512.4201 491.9187H521.7673V493.15769H512.4201Z"/>
<path transform="matrix(1,0,0,-1,-449.0343,908.8217)" d="M526.2157 489.0954H531.3559V487.8564H524.4447V489.0954C525.0031 489.674 525.7646 490.4502 526.729 491.424 527.695 492.3993 528.3017 493.0285 528.549 493.3116 529.0203 493.8405 529.3493 494.2885 529.536 494.6556 529.7242 495.0227 529.8183 495.3836 529.8183 495.7383 529.8183 496.3169 529.6153 496.7882 529.2093 497.1522 528.8033 497.5178 528.2744 497.7006 527.6227 497.7006 527.1607 497.7006 526.673 497.6205 526.1597 497.4602 525.6479 497.3 525.1004 497.0566 524.517 496.7299V498.2186C525.1097 498.4566 525.6635 498.6362 526.1784 498.7576 526.6948 498.8789 527.1669 498.9395 527.5947 498.9395 528.7224 498.9395 529.6215 498.6572 530.292 498.0926 530.9624 497.5295 531.2976 496.7766 531.2976 495.8339 531.2976 495.3859 531.2136 494.9613 531.0456 494.56 530.8792 494.1602 530.5743 493.6881 530.131 493.1436 530.0096 493.0021 529.6231 492.5945 528.9713 491.921 528.3211 491.2474 527.4026 490.3056 526.2157 489.0954Z"/>
</g>
<g clip-path="url(#clip_17)">
<path transform="matrix(1.333312,0,0,1.333312,-1.1252136,-3.8287965)" stroke-width=".5" stroke-linecap="square" stroke-linejoin="round" fill="none" stroke="#b0b0b0" d="M71.285 262.7751H549.4729"/>
</g>
<g clip-path="url(#clip_18)">
<path transform="matrix(1,0,0,-1,-449.0343,908.8217)" d="M542.9543 562.2891H538.2877"/>
<path transform="matrix(1.333312,0,0,1.333312,93.91998,346.5326)" stroke-width=".8" stroke-linecap="butt" stroke-linejoin="round" fill="none" stroke="#000000" d="M0 0H-3.5"/>
<path transform="matrix(1,0,0,-1,-449.0343,908.8217)" d="M486.1351 556.1002H489.5718V567.9667L485.8318 567.2167V569.1333L489.5518 569.8833H491.6551V556.1002H495.0917V554.3302H486.1351V556.1002Z"/>
<path transform="matrix(1,0,0,-1,-449.0343,908.8217)" d="M503.8411 568.4967C502.7589 568.4967 501.9445 567.9634 501.3978 566.8967 500.8534 565.8323 500.5812 564.2301 500.5812 562.0901 500.5812 559.959 500.8534 558.3602 501.3978 557.2935 501.9445 556.2269 502.7589 555.6935 503.8411 555.6935 504.9322 555.6935 505.75 556.2269 506.2944 557.2935 506.8411 558.3602 507.1144 559.959 507.1144 562.0901 507.1144 564.2301 506.8411 565.8323 506.2944 566.8967 505.75 567.9634 504.9322 568.4967 503.8411 568.4967ZM503.8411 570.1633C505.5855 570.1633 506.9177 569.4733 507.8377 568.0933 508.7577 566.7156 509.2177 564.7145 509.2177 562.0901 509.2177 559.4724 508.7577 557.4735 507.8377 556.0935 506.9177 554.7158 505.5855 554.0269 503.8411 554.0269 502.0989 554.0269 500.7678 554.7158 499.8478 556.0935 498.9279 557.4735 498.4679 559.4724 498.4679 562.0901 498.4679 564.7145 498.9279 566.7156 499.8478 568.0933 500.7678 569.4733 502.0989 570.1633 503.8411 570.1633Z"/>
<path transform="matrix(1,0,0,-1,-449.0343,908.8217)" d="M512.4201 566.559H521.7673V567.798H512.4201Z"/>
<path transform="matrix(1,0,0,-1,-449.0343,908.8217)" d="M525.203 563.7358H527.6087V572.0423L524.9907 571.5173V572.8589L527.5947 573.3839H529.067V563.7358H531.4726V562.4968H525.203V563.7358Z"/>
</g>
<g clip-path="url(#clip_19)">
<path transform="matrix(1.333312,0,0,1.333312,-1.1252136,-3.8287965)" stroke-width=".5" stroke-linecap="square" stroke-linejoin="round" fill="none" stroke="#b0b0b0" d="M71.285 206.781H549.4729"/>
</g>
<g clip-path="url(#clip_20)">
<path transform="matrix(1,0,0,-1,-449.0343,908.8217)" d="M542.9543 636.9468H538.2877"/>
<path transform="matrix(1.333312,0,0,1.333312,93.91998,271.87495)" stroke-width=".8" stroke-linecap="butt" stroke-linejoin="round" fill="none" stroke="#000000" d="M0 0H-3.5"/>
<path transform="matrix(1,0,0,-1,-449.0343,908.8217)" d="M498.7216 630.7753H502.1582V642.6418L498.4183 641.8918V643.8084L502.1382 644.5584H504.2415V630.7753H507.6781V629.0053H498.7216V630.7753Z"/>
<path transform="matrix(1,0,0,-1,-449.0343,908.8217)" d="M516.4276 643.1717C515.3454 643.1717 514.531 642.6384 513.9843 641.5718 513.4399 640.5073 513.1676 638.9051 513.1676 636.7652 513.1676 634.6341 513.4399 633.0352 513.9843 631.9686 514.531 630.9019 515.3454 630.3686 516.4276 630.3686 517.5187 630.3686 518.3364 630.9019 518.8809 631.9686 519.4275 633.0352 519.7009 634.6341 519.7009 636.7652 519.7009 638.9051 519.4275 640.5073 518.8809 641.5718 518.3364 642.6384 517.5187 643.1717 516.4276 643.1717ZM516.4276 644.8384C518.172 644.8384 519.5042 644.1484 520.4242 642.7684 521.3442 641.3907 521.8042 639.3896 521.8042 636.7652 521.8042 634.1474 521.3442 632.1486 520.4242 630.7686 519.5042 629.3909 518.172 628.702 516.4276 628.702 514.6854 628.702 513.3543 629.3909 512.4343 630.7686 511.5143 632.1486 511.0543 634.1474 511.0543 636.7652 511.0543 639.3896 511.5143 641.3907 512.4343 642.7684 513.3543 644.1484 514.6854 644.8384 516.4276 644.8384Z"/>
<path transform="matrix(1,0,0,-1,-449.0343,908.8217)" d="M528.1705 647.0883C527.4129 647.0883 526.8428 646.715 526.4602 645.9684 526.0791 645.2233 525.8885 644.1017 525.8885 642.6038 525.8885 641.112 526.0791 639.9928 526.4602 639.2461 526.8428 638.4995 527.4129 638.1262 528.1705 638.1262 528.9343 638.1262 529.5067 638.4995 529.8878 639.2461 530.2705 639.9928 530.4618 641.112 530.4618 642.6038 530.4618 644.1017 530.2705 645.2233 529.8878 645.9684 529.5067 646.715 528.9343 647.0883 528.1705 647.0883ZM528.1705 648.255C529.3916 648.255 530.3241 647.772 530.9681 646.806 531.6121 645.8416 531.9341 644.4408 531.9341 642.6038 531.9341 640.7713 531.6121 639.3721 530.9681 638.4062 530.3241 637.4417 529.3916 636.9595 528.1705 636.9595 526.951 636.9595 526.0192 637.4417 525.3752 638.4062 524.7312 639.3721 524.4092 640.7713 524.4092 642.6038 524.4092 644.4408 524.7312 645.8416 525.3752 646.806 526.0192 647.772 526.951 648.255 528.1705 648.255Z"/>
</g>
<g clip-path="url(#clip_21)">
<path transform="matrix(1.333312,0,0,1.333312,-1.1252136,-3.8287965)" stroke-width=".5" stroke-linecap="square" stroke-linejoin="round" fill="none" stroke="#b0b0b0" d="M71.285 150.7868H549.4729"/>
</g>
<g clip-path="url(#clip_22)">
<path transform="matrix(1,0,0,-1,-449.0343,908.8217)" d="M542.9543 711.6046H538.2877"/>
<path transform="matrix(1.333312,0,0,1.333312,93.91998,197.2171)" stroke-width=".8" stroke-linecap="butt" stroke-linejoin="round" fill="none" stroke="#000000" d="M0 0H-3.5"/>
<path transform="matrix(1,0,0,-1,-449.0343,908.8217)" d="M498.7216 705.4157H502.1582V717.2822L498.4183 716.5322V718.4488L502.1382 719.1988H504.2415V705.4157H507.6781V703.6457H498.7216V705.4157Z"/>
<path transform="matrix(1,0,0,-1,-449.0343,908.8217)" d="M516.4276 717.8121C515.3454 717.8121 514.531 717.2788 513.9843 716.2122 513.4399 715.1477 513.1676 713.5455 513.1676 711.4056 513.1676 709.2745 513.4399 707.6756 513.9843 706.609 514.531 705.5423 515.3454 705.009 516.4276 705.009 517.5187 705.009 518.3364 705.5423 518.8809 706.609 519.4275 707.6756 519.7009 709.2745 519.7009 711.4056 519.7009 713.5455 519.4275 715.1477 518.8809 716.2122 518.3364 717.2788 517.5187 717.8121 516.4276 717.8121ZM516.4276 719.4788C518.172 719.4788 519.5042 718.7888 520.4242 717.4088 521.3442 716.0311 521.8042 714.03 521.8042 711.4056 521.8042 708.7878 521.3442 706.789 520.4242 705.409 519.5042 704.0313 518.172 703.3424 516.4276 703.3424 514.6854 703.3424 513.3543 704.0313 512.4343 705.409 511.5143 706.789 511.0543 708.7878 511.0543 711.4056 511.0543 714.03 511.5143 716.0311 512.4343 717.4088 513.3543 718.7888 514.6854 719.4788 516.4276 719.4788Z"/>
<path transform="matrix(1,0,0,-1,-449.0343,908.8217)" d="M525.2772 713.0512H527.6828V721.3578L525.0649 720.8328V722.1744L527.6688 722.6994H529.1411V713.0512H531.5468V711.8122H525.2772V713.0512Z"/>
</g>
<g clip-path="url(#clip_23)">
<path transform="matrix(1.333312,0,0,1.333312,-1.1252136,-3.8287965)" stroke-width=".5" stroke-linecap="square" stroke-linejoin="round" fill="none" stroke="#b0b0b0" d="M71.285 94.79261H549.4729"/>
</g>
<g clip-path="url(#clip_24)">
<path transform="matrix(1,0,0,-1,-449.0343,908.8217)" d="M542.9543 786.2623H538.2877"/>
<path transform="matrix(1.333312,0,0,1.333312,93.91998,122.55939)" stroke-width=".8" stroke-linecap="butt" stroke-linejoin="round" fill="none" stroke="#000000" d="M0 0H-3.5"/>
<path transform="matrix(1,0,0,-1,-449.0343,908.8217)" d="M498.7216 780.0907H502.1582V791.9572L498.4183 791.2072V793.1239L502.1382 793.8738H504.2415V780.0907H507.6781V778.3208H498.7216V780.0907Z"/>
<path transform="matrix(1,0,0,-1,-449.0343,908.8217)" d="M516.4276 792.4872C515.3454 792.4872 514.531 791.9539 513.9843 790.8872 513.4399 789.8228 513.1676 788.2206 513.1676 786.0806 513.1676 783.9496 513.4399 782.3507 513.9843 781.284 514.531 780.2174 515.3454 779.6841 516.4276 779.6841 517.5187 779.6841 518.3364 780.2174 518.8809 781.284 519.4275 782.3507 519.7009 783.9496 519.7009 786.0806 519.7009 788.2206 519.4275 789.8228 518.8809 790.8872 518.3364 791.9539 517.5187 792.4872 516.4276 792.4872ZM516.4276 794.1538C518.172 794.1538 519.5042 793.4639 520.4242 792.0839 521.3442 790.7061 521.8042 788.705 521.8042 786.0806 521.8042 783.4629 521.3442 781.464 520.4242 780.0841 519.5042 778.7063 518.172 778.0174 516.4276 778.0174 514.6854 778.0174 513.3543 778.7063 512.4343 780.0841 511.5143 781.464 511.0543 783.4629 511.0543 786.0806 511.0543 788.705 511.5143 790.7061 512.4343 792.0839 513.3543 793.4639 514.6854 794.1538 516.4276 794.1538Z"/>
<path transform="matrix(1,0,0,-1,-449.0343,908.8217)" d="M526.2899 787.7263H531.4301V786.4873H524.5189V787.7263C525.0773 788.3049 525.8387 789.0811 526.8032 790.0549 527.7692 791.0302 528.3758 791.6594 528.6231 791.9425 529.0945 792.4714 529.4235 792.9194 529.6101 793.2865 529.7984 793.6536 529.8925 794.0145 529.8925 794.3692 529.8925 794.9478 529.6895 795.4192 529.2835 795.7832 528.8775 796.1487 528.3486 796.3315 527.6968 796.3315 527.2348 796.3315 526.7472 796.2514 526.2339 796.0911 525.7221 795.9309 525.1745 795.6875 524.5912 795.3608V796.8495C525.1839 797.0875 525.7376 797.2671 526.2525 797.3885 526.769 797.5098 527.2411 797.5705 527.6688 797.5705 528.7966 797.5705 529.6957 797.2881 530.3661 796.7235 531.0366 796.1604 531.3718 795.4075 531.3718 794.4648 531.3718 794.0168 531.2878 793.5922 531.1198 793.1909 530.9533 792.7911 530.6484 792.319 530.2051 791.7745 530.0838 791.633 529.6972 791.2254 529.0455 790.5519 528.3953 789.8784 527.4767 788.9365 526.2899 787.7263Z"/>
<path transform="matrix(1,0,0,-1,-449.0343,908.8217)" d="M460.2389 470.7963 467.9788 467.9397V473.6596L460.2389 470.7963ZM458.1656 469.6063V471.9929L473.7187 477.9195V475.7329L469.7287 474.3162V467.3063L473.7187 465.8897V463.6697L458.1656 469.6063Z"/>
<path transform="matrix(1,0,0,-1,-449.0343,908.8217)" d="M462.4989 488.1297H464.2922C463.9922 487.5875 463.7677 487.0442 463.6188 486.4998 463.4699 485.9553 463.3955 485.4053 463.3955 484.8498 463.3955 483.6054 463.7899 482.6387 464.5788 481.9498 465.3655 481.2632 466.471 480.9199 467.8954 480.9199 469.3199 480.9199 470.4265 481.2632 471.2154 481.9498 472.002 482.6387 472.3954 483.6054 472.3954 484.8498 472.3954 485.4053 472.3209 485.9553 472.172 486.4998 472.0231 487.0442 471.7987 487.5875 471.4987 488.1297H473.272C473.5209 487.5942 473.7076 487.0398 473.832 486.4664 473.9587 485.8953 474.022 485.2865 474.022 484.6398 474.022 482.8821 473.4698 481.4854 472.3654 480.4499 471.2609 479.4166 469.771 478.8999 467.8954 478.8999 465.9932 478.8999 464.4977 479.4221 463.4088 480.4665 462.3177 481.5132 461.7722 482.9465 461.7722 484.7665 461.7722 485.3553 461.8333 485.9309 461.9555 486.4931 462.0755 487.0553 462.2566 487.6009 462.4989 488.1297Z"/>
<path transform="matrix(1,0,0,-1,-449.0343,908.8217)" d="M466.6755 501.162H473.7187V499.2454H466.7388C465.6344 499.2454 464.8088 499.0299 464.2622 498.5987 463.7133 498.1676 463.4388 497.5221 463.4388 496.6621 463.4388 495.6266 463.7688 494.8099 464.4288 494.2122 465.0866 493.6144 465.9855 493.3155 467.1254 493.3155H473.7187V491.3889H457.5089V493.3155H463.8655C463.1633 493.7755 462.6389 494.3155 462.2922 494.9355 461.9455 495.5577 461.7722 496.2755 461.7722 497.0888 461.7722 498.4288 462.1866 499.4421 463.0155 500.1287 463.8444 500.8176 465.0644 501.162 466.6755 501.162Z"/>
<path transform="matrix(1,0,0,-1,-449.0343,908.8217)" d="M462.0522 504.9828V506.8995H473.7187V504.9828H462.0522ZM457.5089 504.9828V506.8995H459.9389V504.9828H457.5089Z"/>
<path transform="matrix(1,0,0,-1,-449.0343,908.8217)" d="M467.4054 520.8896H468.3421V512.0765C469.6621 512.1609 470.6676 512.5587 471.3587 513.2698 472.0498 513.9809 472.3954 514.972 472.3954 516.2431 472.3954 516.9786 472.3054 517.6919 472.1254 518.383 471.9454 519.0741 471.6743 519.7608 471.312 520.443H473.1254C473.4165 519.7541 473.6387 519.0486 473.792 518.3264 473.9453 517.6041 474.022 516.8719 474.022 516.1297 474.022 514.2675 473.4809 512.7931 472.3987 511.7065 471.3143 510.6198 469.8476 510.0765 467.9988 510.0765 466.0899 510.0765 464.5755 510.592 463.4555 511.6231 462.3333 512.6542 461.7722 514.0453 461.7722 515.7964 461.7722 517.3653 462.2777 518.6064 463.2888 519.5197 464.2977 520.433 465.6699 520.8896 467.4054 520.8896ZM466.8421 518.973C465.7955 518.9597 464.9599 518.6664 464.3355 518.093 463.7088 517.5197 463.3955 516.7608 463.3955 515.8164 463.3955 514.7475 463.6977 513.892 464.3022 513.2498 464.9066 512.6076 465.7577 512.2376 466.8555 512.1398L466.8421 518.973Z"/>
<path transform="matrix(1,0,0,-1,-449.0343,908.8217)" d="M462.0522 522.6613V524.6913L471.842 528.3379 462.0522 531.9845V534.0144L473.7187 529.6378V527.0346L462.0522 522.6613Z"/>
<path transform="matrix(1,0,0,-1,-449.0343,908.8217)" d="M467.8554 541.9627C467.8554 540.4138 468.0321 539.3405 468.3854 538.7427 468.7388 538.1449 469.3432 537.846 470.1987 537.846 470.8787 537.846 471.4187 538.0705 471.8187 538.5194 472.2165 538.9683 472.4154 539.5771 472.4154 540.346 472.4154 541.4104 472.0387 542.2638 471.2854 542.906 470.5321 543.5482 469.531 543.8693 468.2821 543.8693H467.8554V541.9627ZM467.0621 545.7859H473.7187V543.8693H471.9487C472.6554 543.4315 473.1776 542.886 473.5153 542.2326 473.8531 541.5793 474.022 540.7804 474.022 539.836 474.022 538.6427 473.6865 537.6927 473.0154 536.9861 472.3443 536.2816 471.4465 535.9294 470.3221 535.9294 469.011 535.9294 468.0221 536.3683 467.3554 537.2461 466.6888 538.126 466.3555 539.4371 466.3555 541.1793V543.8693H466.1655C465.2833 543.8693 464.601 543.5793 464.1188 542.9993 463.6366 542.4193 463.3955 541.6049 463.3955 540.556 463.3955 539.8893 463.4755 539.2394 463.6355 538.606 463.7955 537.9749 464.0355 537.3683 464.3555 536.7861H462.5822C462.3111 537.4861 462.1089 538.166 461.9755 538.826 461.84 539.486 461.7722 540.1282 461.7722 540.7527 461.7722 542.4415 462.21 543.7026 463.0855 544.5359 463.9588 545.3693 465.2844 545.7859 467.0621 545.7859Z"/>
<path transform="matrix(1,0,0,-1,-449.0343,908.8217)" d="M467.8954 558.1086C466.4866 558.1086 465.381 557.8187 464.5788 557.2387 463.7766 556.6587 463.3755 555.862 463.3755 554.8487 463.3755 553.8332 463.7766 553.0354 464.5788 552.4554 465.381 551.8754 466.4866 551.5854 467.8954 551.5854 469.3043 551.5854 470.4098 551.8754 471.2121 552.4554 472.0143 553.0354 472.4154 553.8332 472.4154 554.8487 472.4154 555.862 472.0143 556.6587 471.2121 557.2387 470.4098 557.8187 469.3043 558.1086 467.8954 558.1086ZM463.8222 551.5854C463.1288 551.9899 462.6144 552.4987 462.2789 553.1121 461.9411 553.7276 461.7722 554.462 461.7722 555.3154 461.7722 556.7331 462.3344 557.8842 463.4588 558.7686 464.5833 559.6553 466.0621 560.0986 467.8954 560.0986 469.7287 560.0986 471.2087 559.6553 472.3354 558.7686 473.4598 557.8842 474.022 556.7331 474.022 555.3154 474.022 554.462 473.8531 553.7276 473.5153 553.1121 473.1776 552.4987 472.662 551.9899 471.9687 551.5854H473.7187V549.6588H457.5089V551.5854H463.8222Z"/>
<path transform="matrix(1,0,0,-1,-449.0343,908.8217)" d="M457.5089 563.2736H473.71867V565.19027H457.5089Z"/>
<path transform="matrix(1,0,0,-1,-449.0343,908.8217)" d="M467.4054 579.1804H468.3421V570.3672C469.6621 570.4516 470.6676 570.8494 471.3587 571.5605 472.0498 572.2716 472.3954 573.2627 472.3954 574.5338 472.3954 575.2693 472.3054 575.9827 472.1254 576.6738 471.9454 577.3649 471.6743 578.0515 471.312 578.7337H473.1254C473.4165 578.0449 473.6387 577.3393 473.792 576.6171 473.9453 575.8949 474.022 575.1627 474.022 574.4205 474.022 572.5583 473.4809 571.0839 472.3987 569.9972 471.3143 568.9106 469.8476 568.3672 467.9988 568.3672 466.0899 568.3672 464.5755 568.8828 463.4555 569.9139 462.3333 570.945 461.7722 572.3361 461.7722 574.0871 461.7722 575.656 462.2777 576.8971 463.2888 577.8104 464.2977 578.7237 465.6699 579.1804 467.4054 579.1804ZM466.8421 577.2638C465.7955 577.2504 464.9599 576.9571 464.3355 576.3838 463.7088 575.8105 463.3955 575.0516 463.3955 574.1071 463.3955 573.0383 463.6977 572.1827 464.3022 571.5405 464.9066 570.8983 465.7577 570.5283 466.8555 570.4305L466.8421 577.2638Z"/>
<path transform="matrix(1,0,0,-1,-449.0343,908.8217)" d="M458.1656 587.0332V600.1897H459.9389V594.6697H473.7187V592.5564H459.9389V587.0332H458.1656Z"/>
<path transform="matrix(1,0,0,-1,-449.0343,908.8217)" d="M466.6755 611.8374H473.7187V609.9207H466.7388C465.6344 609.9207 464.8088 609.7052 464.2622 609.2741 463.7133 608.843 463.4388 608.1974 463.4388 607.3375 463.4388 606.3019 463.7688 605.4853 464.4288 604.8875 465.0866 604.2897 465.9855 603.9908 467.1254 603.9908H473.7187V602.0642H457.5089V603.9908H463.8655C463.1633 604.4508 462.6389 604.9908 462.2922 605.6108 461.9455 606.233 461.7722 606.9508 461.7722 607.7641 461.7722 609.1041 462.1866 610.1174 463.0155 610.8041 463.8444 611.4929 465.0644 611.8374 466.6755 611.8374Z"/>
<path transform="matrix(1,0,0,-1,-449.0343,908.8217)" d="M463.8422 622.4181C463.7177 622.2025 463.6266 621.9681 463.5688 621.7147 463.5088 621.4614 463.4788 621.1825 463.4788 620.8781 463.4788 619.7936 463.8311 618.9614 464.5355 618.3814 465.2399 617.8015 466.2521 617.5115 467.5721 617.5115H473.7187V615.5848H462.0522V617.5115H463.8655C463.1566 617.9159 462.6311 618.4403 462.2889 619.0848 461.9444 619.7314 461.7722 620.517 461.7722 621.4414 461.7722 621.5725 461.7811 621.7181 461.7989 621.8781 461.8144 622.0381 461.84 622.2147 461.8755 622.4081L463.8422 622.4181Z"/>
<path transform="matrix(1,0,0,-1,-449.0343,908.8217)" d="M463.3955 628.4688C463.3955 627.4421 463.7966 626.6299 464.5988 626.0322 465.401 625.4344 466.4999 625.1355 467.8954 625.1355 469.291 625.1355 470.3898 625.4322 471.1921 626.0255 471.9943 626.621 472.3954 627.4355 472.3954 628.4688 472.3954 629.491 471.9931 630.2999 471.1887 630.8954 470.3821 631.4932 469.2843 631.7921 467.8954 631.7921 466.5132 631.7921 465.4177 631.4932 464.6088 630.8954 463.7999 630.2999 463.3955 629.491 463.3955 628.4688ZM461.7722 628.4688C461.7722 630.1354 462.3144 631.4443 463.3988 632.3954 464.481 633.3487 465.9799 633.8254 467.8954 633.8254 469.8043 633.8254 471.3032 633.3487 472.392 632.3954 473.4787 631.4443 474.022 630.1354 474.022 628.4688 474.022 626.7955 473.4787 625.4844 472.392 624.5355 471.3032 623.5889 469.8043 623.1155 467.8954 623.1155 465.9799 623.1155 464.481 623.5889 463.3988 624.5355 462.3144 625.4844 461.7722 626.7955 461.7722 628.4688Z"/>
<path transform="matrix(1,0,0,-1,-449.0343,908.8217)" d="M469.1154 636.8041H462.0522V638.7207H469.0421C470.1465 638.7207 470.9754 638.9352 471.5287 639.364 472.0798 639.7951 472.3554 640.4418 472.3554 641.304 472.3554 642.3373 472.0254 643.154 471.3654 643.754 470.7054 644.3562 469.8054 644.6573 468.6654 644.6573H462.0522V646.5739H473.7187V644.6573H471.9254C472.6343 644.1928 473.1609 643.6529 473.5053 643.0373 473.8498 642.424 474.022 641.7107 474.022 640.8973 474.022 639.5574 473.6053 638.5396 472.772 637.8441 471.9387 637.1507 470.7198 636.8041 469.1154 636.8041ZM461.7722 641.6273V641.6273Z"/>
<path transform="matrix(1,0,0,-1,-449.0343,908.8217)" d="M467.7488 658.1979C466.3599 658.1979 465.2844 657.9112 464.5222 657.3379 463.7577 656.7668 463.3755 655.9635 463.3755 654.928 463.3755 653.9013 463.7577 653.1013 464.5222 652.528 465.2844 651.9547 466.3599 651.668 467.7488 651.668 469.131 651.668 470.2043 651.9547 470.9687 652.528 471.7332 653.1013 472.1154 653.9013 472.1154 654.928 472.1154 655.9635 471.7332 656.7668 470.9687 657.3379 470.2043 657.9112 469.131 658.1979 467.7488 658.1979ZM472.272 660.1145C474.2564 660.1145 475.7331 659.6734 476.702 658.7912 477.6708 657.9112 478.1553 656.5613 478.1553 654.7413 478.1553 654.068 478.1053 653.4324 478.0053 652.8347 477.9053 652.2369 477.7508 651.6569 477.542 651.0947H475.6786C475.9831 651.6569 476.2075 652.2124 476.352 652.7613 476.4986 653.3102 476.572 653.8691 476.572 654.438 476.572 655.6957 476.2442 656.6368 475.5886 657.2613 474.9331 657.8857 473.942 658.1979 472.6154 658.1979H471.6654C472.3543 657.8024 472.8687 657.2957 473.2087 656.6779 473.5487 656.0602 473.7187 655.3202 473.7187 654.458 473.7187 653.0291 473.1742 651.8769 472.0854 651.0014 470.9943 650.1258 469.5487 649.688 467.7488 649.688 465.9444 649.688 464.4977 650.1258 463.4088 651.0014 462.3177 651.8769 461.7722 653.0291 461.7722 654.458 461.7722 655.3202 461.9422 656.0602 462.2822 656.6779 462.6222 657.2957 463.1355 657.8024 463.8222 658.1979H462.0522V660.1145H472.272Z"/>
<path transform="matrix(1,0,0,-1,-449.0343,908.8217)" d="M466.6755 673.7627H473.7187V671.846H466.7388C465.6344 671.846 464.8088 671.6305 464.2622 671.1994 463.7133 670.7683 463.4388 670.1227 463.4388 669.2627 463.4388 668.2272 463.7688 667.4105 464.4288 666.8128 465.0866 666.215 465.9855 665.9161 467.1254 665.9161H473.7187V663.9895H457.5089V665.9161H463.8655C463.1633 666.3761 462.6389 666.9161 462.2922 667.5361 461.9455 668.1583 461.7722 668.8761 461.7722 669.6894 461.7722 671.0294 462.1866 672.0427 463.0155 672.7293 463.8444 673.4182 465.0644 673.7627 466.6755 673.7627Z"/>
<path transform="matrix(1,0,0,-1,-449.0343,908.8217)" d="M471.9687 679.4367H478.1553V677.5101H462.0522V679.4367H463.8222C463.1288 679.8412 462.6144 680.3501 462.2789 680.9634 461.9411 681.5789 461.7722 682.3134 461.7722 683.1667 461.7722 684.5844 462.3344 685.7355 463.4588 686.62 464.5833 687.5066 466.0621 687.9499 467.8954 687.9499 469.7287 687.9499 471.2087 687.5066 472.3354 686.62 473.4598 685.7355 474.022 684.5844 474.022 683.1667 474.022 682.3134 473.8531 681.5789 473.5153 680.9634 473.1776 680.3501 472.662 679.8412 471.9687 679.4367ZM467.8954 685.96C466.4866 685.96 465.381 685.67 464.5788 685.09 463.7766 684.51 463.3755 683.7133 463.3755 682.7 463.3755 681.6845 463.7766 680.8867 464.5788 680.3067 465.381 679.7267 466.4866 679.4367 467.8954 679.4367 469.3043 679.4367 470.4098 679.7267 471.2121 680.3067 472.0143 680.8867 472.4154 681.6845 472.4154 682.7 472.4154 683.7133 472.0143 684.51 471.2121 685.09 470.4098 685.67 469.3043 685.96 467.8954 685.96Z"/>
<path transform="matrix(1,0,0,-1,-449.0343,908.8217)" d="M469.1154 690.9282H462.0522V692.8449H469.0421C470.1465 692.8449 470.9754 693.0593 471.5287 693.4882 472.0798 693.9193 472.3554 694.5659 472.3554 695.4282 472.3554 696.4615 472.0254 697.2781 471.3654 697.8781 470.7054 698.4803 469.8054 698.7814 468.6654 698.7814H462.0522V700.6981H473.7187V698.7814H471.9254C472.6343 698.317 473.1609 697.777 473.5053 697.1615 473.8498 696.5481 474.022 695.8348 474.022 695.0215 474.022 693.6815 473.6053 692.6638 472.772 691.9682 471.9387 691.2749 470.7198 690.9282 469.1154 690.9282ZM461.7722 695.7515V695.7515Z"/>
<path transform="matrix(1,0,0,-1,-449.0343,908.8217)" d="M458.7389 706.5421H462.0522V710.4887H463.5422V706.5421H469.8754C470.8265 706.5421 471.4376 706.6721 471.7087 706.9321 471.9798 707.1921 472.1154 707.7221 472.1154 708.5221V710.4887H473.7187V708.5221C473.7187 707.0421 473.4431 706.021 472.892 705.4588 472.3387 704.8966 471.3332 704.6155 469.8754 704.6155H463.5422V703.2089H462.0522V704.6155H458.7389V706.5421Z"/>
<path transform="matrix(1,0,0,-1,-449.0343,908.8217)" d="M457.5323 724.3944C459.1278 723.4655 460.7078 722.7744 462.2722 722.3211 463.8344 721.87 465.4177 721.6444 467.0221 721.6444 468.6243 721.6444 470.2121 721.8722 471.7854 722.3277 473.3587 722.7833 474.9409 723.4722 476.532 724.3944V722.7277C474.8987 721.6877 473.2942 720.9089 471.7187 720.3911 470.1432 719.8733 468.5776 719.6144 467.0221 719.6144 465.4733 719.6144 463.9144 719.8711 462.3455 720.3844 460.7744 720.9 459.17 721.6811 457.5323 722.7277V724.3944Z"/>
<path transform="matrix(1,0,0,-1,-449.0343,908.8217)" d="M458.1656 726.0406V739.197H459.9389V733.6771H473.7187V731.5638H459.9389V726.0406H458.1656Z"/>
<path transform="matrix(1,0,0,-1,-449.0343,908.8217)" d="M458.1656 741.2283V750.1648H459.9389V743.3316H464.5222V749.4981H466.2921V743.3316H473.7187V741.2283H458.1656Z"/>
<path transform="matrix(1,0,0,-1,-449.0343,908.8217)" d="M458.1656 753.4989V755.6022H471.9487V763.1754H473.7187V753.4989H458.1656Z"/>
<path transform="matrix(1,0,0,-1,-449.0343,908.8217)" d="M459.5922 770.924C459.5922 769.3952 460.1622 768.1808 461.3022 767.2808 462.44 766.383 463.9922 765.9341 465.9588 765.9341 467.9165 765.9341 469.4654 766.383 470.6054 767.2808 471.7432 768.1808 472.312 769.3952 472.312 770.924 472.312 772.4507 471.7432 773.6607 470.6054 774.554 469.4654 775.4473 467.9165 775.894 465.9588 775.894 463.9922 775.894 462.44 775.4473 461.3022 774.554 460.1622 773.6607 459.5922 772.4507 459.5922 770.924ZM457.8856 770.924C457.8856 773.104 458.6167 774.8462 460.0789 776.1506 461.5411 777.4573 463.5011 778.1106 465.9588 778.1106 468.4099 778.1106 470.3665 777.4573 471.8287 776.1506 473.2909 774.8462 474.022 773.104 474.022 770.924 474.022 768.7374 473.2931 766.9886 471.8354 765.6775 470.3754 764.3686 468.4165 763.7142 465.9588 763.7142 463.5011 763.7142 461.5411 764.3686 460.0789 765.6775 458.6167 766.9886 457.8856 768.7374 457.8856 770.924Z"/>
<path transform="matrix(1,0,0,-1,-449.0343,908.8217)" d="M459.8956 783.5055H465.7388V786.1521C465.7388 787.1321 465.4855 787.8888 464.9788 788.4221 464.4722 788.9577 463.7499 789.2254 462.8122 789.2254 461.8811 789.2254 461.1622 788.9577 460.6555 788.4221 460.1489 787.8888 459.8956 787.1321 459.8956 786.1521V783.5055ZM458.1656 781.4022V786.1521C458.1656 787.8966 458.56 789.2143 459.3489 790.1054 460.1378 790.9987 461.2922 791.4454 462.8122 791.4454 464.3477 791.4454 465.5077 790.9987 466.2921 790.1054 467.0766 789.2143 467.4688 787.8966 467.4688 786.1521V783.5055H473.7187V781.4022H458.1656Z"/>
<path transform="matrix(1,0,0,-1,-449.0343,908.8217)" d="M458.1656 797.5899V799.3598L475.6986 793.9433V792.1733L458.1656 797.5899Z"/>
<path transform="matrix(1,0,0,-1,-449.0343,908.8217)" d="M462.3955 808.8072H464.2088C463.9311 808.2672 463.7233 807.705 463.5855 807.1206 463.4455 806.5383 463.3755 805.9339 463.3755 805.3073 463.3755 804.3562 463.5211 803.6428 463.8122 803.1673 464.1033 802.6917 464.541 802.454 465.1255 802.454 465.5699 802.454 465.9188 802.624 466.1721 802.964 466.4255 803.304 466.6666 803.9884 466.8955 805.0173L467.0421 805.6739C467.3332 807.0339 467.7443 808.0005 468.2754 808.5739 468.8065 809.1472 469.5476 809.4339 470.4987 809.4339 471.5832 809.4339 472.442 809.005 473.0754 808.1472 473.7065 807.2894 474.022 806.1106 474.022 804.6106 474.022 803.9862 473.9609 803.3351 473.8387 802.6573 473.7165 801.9795 473.5342 801.2662 473.292 800.5173H471.312C471.6809 801.2262 471.9576 801.924 472.142 802.6106 472.3243 803.2973 472.4154 803.9784 472.4154 804.6539 472.4154 805.5561 472.2609 806.2495 471.952 806.7339 471.6432 807.2206 471.2076 807.4639 470.6454 807.4639 470.1254 807.4639 469.7265 807.2883 469.4487 806.9372 469.171 806.5883 468.9032 805.8195 468.6454 804.6306L468.4888 803.9639C468.2399 802.7773 467.8565 801.9195 467.3388 801.3907 466.821 800.864 466.111 800.6007 465.2088 800.6007 464.1111 800.6007 463.2644 800.9895 462.6689 801.7673 462.0711 802.5451 461.7722 803.6495 461.7722 805.0806 461.7722 805.7872 461.8244 806.4528 461.9289 807.0772 462.0311 807.7039 462.1866 808.2805 462.3955 808.8072Z"/>
<path transform="matrix(1,0,0,-1,-449.0343,908.8217)" d="M457.5323 812.1851V813.8517C459.17 814.8917 460.7744 815.6706 462.3455 816.1883 463.9144 816.7061 465.4733 816.965 467.0221 816.965 468.5776 816.965 470.1432 816.7061 471.7187 816.1883 473.2942 815.6706 474.8987 814.8917 476.532 813.8517V812.1851C474.9409 813.1073 473.3587 813.7961 471.7854 814.2517 470.2121 814.7072 468.6243 814.935 467.0221 814.935 465.4177 814.935 463.8344 814.7072 462.2722 814.2517 460.7078 813.7961 459.1278 813.1073 457.5323 812.1851Z"/>
</g>
<g clip-path="url(#clip_25)">
<path transform="matrix(1.333312,0,0,1.333312,-1.1252136,-3.8287965)" stroke-width="2" stroke-linecap="square" stroke-linejoin="round" fill="none" stroke="#d62728" d="M93.02081 343.6138 527.7371 63.64291"/>
</g>
<g clip-path="url(#clip_26)">
<path transform="matrix(1.333312,0,0,1.333312,-1.1252136,-3.8287965)" stroke-width=".8" stroke-linecap="square" stroke-miterlimit="4" stroke-linejoin="miter" fill="none" stroke="#000000" d="M71.285 357.6124V49.64436"/>
<path transform="matrix(1.333312,0,0,1.333312,-1.1252136,-3.8287965)" stroke-width=".8" stroke-linecap="square" stroke-miterlimit="4" stroke-linejoin="miter" fill="none" stroke="#000000" d="M549.4729 357.6124V49.64436"/>
<path transform="matrix(1.333312,0,0,1.333312,-1.1252136,-3.8287965)" stroke-width=".8" stroke-linecap="square" stroke-miterlimit="4" stroke-linejoin="miter" fill="none" stroke="#000000" d="M71.285 357.6124H549.4729"/>
<path transform="matrix(1.333312,0,0,1.333312,-1.1252136,-3.8287965)" stroke-width=".8" stroke-linecap="square" stroke-miterlimit="4" stroke-linejoin="miter" fill="none" stroke="#000000" d="M71.285 49.64436H549.4729"/>
<path transform="matrix(1.333312,0,0,1.333312,-1.1252136,-3.8287965)" stroke-width="2" stroke-linecap="square" stroke-linejoin="round" fill="none" stroke="#d62728" d="M137.1002 20.1575H153.1002 169.1002"/>
<path transform="matrix(1,0,0,-1,-449.0343,908.8217)" d="M703.1353 880.5276V884.7042H699.6987V886.4342H705.2186V879.7543C704.4075 879.1788 703.512 878.7432 702.532 878.4477 701.5542 878.1521 700.5098 878.0043 699.3987 878.0043 696.9677 878.0043 695.0655 878.7143 693.6921 880.1343 692.3211 881.5565 691.6355 883.5342 691.6355 886.0675 691.6355 888.6097 692.3211 890.5908 693.6921 892.0108 695.0655 893.4308 696.9677 894.1407 699.3987 894.1407 700.412 894.1407 701.3754 894.0152 702.2887 893.7641 703.202 893.5152 704.0442 893.1474 704.8153 892.6608V890.4208C704.0375 891.0808 703.2109 891.5775 702.3353 891.9108 701.4598 892.2441 700.5398 892.4108 699.5754 892.4108 697.671 892.4108 696.241 891.8797 695.2855 890.8175 694.3321 889.7553 693.8555 888.172 693.8555 886.0675 693.8555 883.9698 694.3321 882.3898 695.2855 881.3276 696.241 880.2654 697.671 879.7343 699.5754 879.7343 700.3176 879.7343 700.9798 879.7987 701.562 879.9276 702.1465 880.0565 702.6709 880.2565 703.1353 880.5276Z"/>
<path transform="matrix(1,0,0,-1,-449.0343,908.8217)" d="M708.9798 878.3077H710.8964V894.5174H708.9798Z"/>
<path transform="matrix(1,0,0,-1,-449.0343,908.8217)" d="M719.4267 888.6308C718.4001 888.6308 717.5879 888.2297 716.9901 887.4275 716.3923 886.6253 716.0935 885.5264 716.0935 884.1309 716.0935 882.7354 716.3901 881.6365 716.9834 880.8343 717.579 880.0321 718.3934 879.631 719.4267 879.631 720.4489 879.631 721.2578 880.0332 721.8534 880.8376 722.4511 881.6443 722.75 882.742 722.75 884.1309 722.75 885.5131 722.4511 886.6086 721.8534 887.4175 721.2578 888.2264 720.4489 888.6308 719.4267 888.6308ZM719.4267 890.2541C721.0934 890.2541 722.4023 889.7119 723.3533 888.6275 724.3067 887.5453 724.7833 886.0464 724.7833 884.1309 724.7833 882.222 724.3067 880.7232 723.3533 879.6343 722.4023 878.5477 721.0934 878.0043 719.4267 878.0043 717.7534 878.0043 716.4423 878.5477 715.4935 879.6343 714.5468 880.7232 714.0735 882.222 714.0735 884.1309 714.0735 886.0464 714.5468 887.5453 715.4935 888.6275 716.4423 889.7119 717.7534 890.2541 719.4267 890.2541Z"/>
<path transform="matrix(1,0,0,-1,-449.0343,908.8217)" d="M736.3352 884.1309C736.3352 885.5398 736.0452 886.6453 735.4652 887.4475 734.8852 888.2497 734.0886 888.6508 733.0753 888.6508 732.0597 888.6508 731.262 888.2497 730.682 887.4475 730.102 886.6453 729.812 885.5398 729.812 884.1309 729.812 882.722 730.102 881.6165 730.682 880.8143 731.262 880.0121 732.0597 879.611 733.0753 879.611 734.0886 879.611 734.8852 880.0121 735.4652 880.8143 736.0452 881.6165 736.3352 882.722 736.3352 884.1309ZM729.812 888.2042C730.2164 888.8975 730.7253 889.4119 731.3386 889.7475 731.9542 890.0853 732.6886 890.2541 733.5419 890.2541 734.9597 890.2541 736.1108 889.6919 736.9952 888.5675 737.8819 887.4431 738.3252 885.9642 738.3252 884.1309 738.3252 882.2976 737.8819 880.8176 736.9952 879.691 736.1108 878.5665 734.9597 878.0043 733.5419 878.0043 732.6886 878.0043 731.9542 878.1732 731.3386 878.511 730.7253 878.8488 730.2164 879.3643 729.812 880.0576V878.3077H727.8854V894.5174H729.812V888.2042Z"/>
<path transform="matrix(1,0,0,-1,-449.0343,908.8217)" d="M746.8034 884.1709C745.2545 884.1709 744.1812 883.9942 743.5834 883.6409 742.9857 883.2876 742.6868 882.6831 742.6868 881.8276 742.6868 881.1476 742.9112 880.6076 743.3601 880.2076 743.809 879.8099 744.4179 879.611 745.1868 879.611 746.2512 879.611 747.1045 879.9876 747.7467 880.741 748.3889 881.4943 748.71 882.4954 748.71 883.7442V884.1709H746.8034ZM750.6267 884.9642V878.3077H748.71V880.0776C748.2723 879.371 747.7267 878.8488 747.0734 878.511 746.4201 878.1732 745.6212 878.0043 744.6768 878.0043 743.4834 878.0043 742.5335 878.3399 741.8268 879.011 741.1224 879.6821 740.7702 880.5798 740.7702 881.7043 740.7702 883.0154 741.209 884.0042 742.0868 884.6709 742.9668 885.3376 744.2779 885.6709 746.0201 885.6709H748.71V885.8609C748.71 886.7431 748.42 887.4253 747.84 887.9075 747.2601 888.3897 746.4456 888.6308 745.3968 888.6308 744.7301 888.6308 744.0801 888.5508 743.4468 888.3908 742.8157 888.2308 742.209 887.9908 741.6268 887.6708V889.4442C742.3268 889.7153 743.0068 889.9175 743.6668 890.0508 744.3268 890.1864 744.969 890.2541 745.5934 890.2541 747.2823 890.2541 748.5434 889.8164 749.3767 888.9408 750.21 888.0675 750.6267 886.742 750.6267 884.9642Z"/>
<path transform="matrix(1,0,0,-1,-449.0343,908.8217)" d="M754.5729 878.3077H756.4895V894.5174H754.5729Z"/>
<path transform="matrix(1,0,0,-1,-449.0343,908.8217)" d="M767.3643 893.8607H770.5009L774.4675 883.2776 778.4575 893.8607H781.5941V878.3077H779.5408V891.9641L775.5309 881.2976H773.4176L769.4076 891.9641V878.3077H767.3643V893.8607Z"/>
<path transform="matrix(1,0,0,-1,-449.0343,908.8217)" d="M795.6668 884.6209V883.6842H786.8536C786.938 882.3643 787.3358 881.3587 788.0469 880.6676 788.758 879.9765 789.7491 879.631 791.0202 879.631 791.7557 879.631 792.4691 879.721 793.1602 879.901 793.8513 880.081 794.5379 880.3521 795.2201 880.7143V878.901C794.5313 878.6099 793.8257 878.3877 793.1035 878.2343 792.3813 878.081 791.6491 878.0043 790.9069 878.0043 789.0447 878.0043 787.5703 878.5454 786.4836 879.6276 785.397 880.7121 784.8536 882.1787 784.8536 884.0276 784.8536 885.9364 785.3692 887.4509 786.4003 888.5708 787.4314 889.693 788.8225 890.2541 790.5735 890.2541 792.1424 890.2541 793.3835 889.7486 794.2968 888.7375 795.2101 887.7286 795.6668 886.3564 795.6668 884.6209ZM793.7502 885.1842C793.7368 886.2309 793.4435 887.0664 792.8702 887.6908 792.2968 888.3175 791.538 888.6308 790.5935 888.6308 789.5247 888.6308 788.6691 888.3286 788.0269 887.7242 787.3847 887.1197 787.0147 886.2686 786.9169 885.1709L793.7502 885.1842Z"/>
<path transform="matrix(1,0,0,-1,-449.0343,908.8217)" d="M807.8949 887.7342C808.3749 888.5964 808.9483 889.2319 809.6149 889.6408 810.2816 890.0497 811.066 890.2541 811.9682 890.2541 813.1837 890.2541 814.1215 889.8286 814.7815 888.9775 815.4415 888.1286 815.7715 886.9197 815.7715 885.3509V878.3077H813.8448V885.2876C813.8448 886.4053 813.646 887.2342 813.2482 887.7742 812.8526 888.3164 812.2493 888.5875 811.4382 888.5875 810.4449 888.5875 809.6594 888.2575 809.0816 887.5975 808.506 886.9397 808.2183 886.0409 808.2183 884.9009V878.3077H806.2916V885.2876C806.2916 886.412 806.0939 887.2431 805.6983 887.7808 805.3028 888.3186 804.6917 888.5875 803.865 888.5875 802.885 888.5875 802.1061 888.2564 801.5284 887.5942 800.9528 886.932 800.6651 886.0342 800.6651 884.9009V878.3077H798.7384V889.9741H800.6651V888.1608C801.1028 888.8764 801.6273 889.4042 802.2384 889.7441 802.8495 890.0841 803.575 890.2541 804.415 890.2541 805.2639 890.2541 805.985 890.0386 806.5783 889.6075 807.1716 889.1786 807.6105 888.5542 807.8949 887.7342Z"/>
<path transform="matrix(1,0,0,-1,-449.0343,908.8217)" d="M824.1126 888.6308C823.0859 888.6308 822.2737 888.2297 821.676 887.4275 821.0782 886.6253 820.7793 885.5264 820.7793 884.1309 820.7793 882.7354 821.076 881.6365 821.6693 880.8343 822.2649 880.0321 823.0793 879.631 824.1126 879.631 825.1348 879.631 825.9437 880.0332 826.5392 880.8376 827.137 881.6443 827.4359 882.742 827.4359 884.1309 827.4359 885.5131 827.137 886.6086 826.5392 887.4175 825.9437 888.2264 825.1348 888.6308 824.1126 888.6308ZM824.1126 890.2541C825.7792 890.2541 827.0881 889.7119 828.0392 888.6275 828.9925 887.5453 829.4692 886.0464 829.4692 884.1309 829.4692 882.222 828.9925 880.7232 828.0392 879.6343 827.0881 878.5477 825.7792 878.0043 824.1126 878.0043 822.4393 878.0043 821.1282 878.5477 820.1793 879.6343 819.2327 880.7232 818.7593 882.222 818.7593 884.1309 818.7593 886.0464 819.2327 887.5453 820.1793 888.6275 821.1282 889.7119 822.4393 890.2541 824.1126 890.2541Z"/>
<path transform="matrix(1,0,0,-1,-449.0343,908.8217)" d="M839.4044 888.1842C839.1889 888.3086 838.9544 888.3997 838.7011 888.4575 838.4478 888.5175 838.1689 888.5475 837.8645 888.5475 836.78 888.5475 835.9478 888.1953 835.3678 887.4908 834.7878 886.7864 834.4979 885.7742 834.4979 884.4542V878.3077H832.5712V889.9741H834.4979V888.1608C834.9023 888.8697 835.4267 889.3953 836.0712 889.7375 836.7178 890.0819 837.5034 890.2541 838.4278 890.2541 838.5589 890.2541 838.7045 890.2453 838.8645 890.2275 839.0244 890.2119 839.2011 890.1864 839.3944 890.1508L839.4044 888.1842Z"/>
<path transform="matrix(1,0,0,-1,-449.0343,908.8217)" d="M846.2685 877.2243C845.7285 875.8355 845.2007 874.9299 844.6852 874.5077 844.1719 874.0833 843.4852 873.8711 842.6252 873.8711H841.0919V875.4744H842.2186C842.7452 875.4744 843.1541 875.5999 843.4452 875.851 843.7385 876.0999 844.0619 876.6899 844.4152 877.621L844.7585 878.4943 840.0419 889.9741H842.0719L845.7185 880.851 849.3651 889.9741H851.3951L846.2685 877.2243Z"/>
<path transform="matrix(1,0,0,-1,-449.0343,908.8217)" d="M863.0078 885.7342V880.0376H866.3844C867.5155 880.0376 868.3533 880.2721 868.8977 880.741 869.4444 881.2098 869.7177 881.9265 869.7177 882.8909 869.7177 883.8642 869.4444 884.5809 868.8977 885.0409 868.3533 885.5031 867.5155 885.7342 866.3844 885.7342H863.0078ZM863.0078 892.1308V887.4442H866.1244C867.1511 887.4442 867.9155 887.6364 868.4177 888.0208 868.9222 888.4075 869.1744 888.9964 869.1744 889.7875 869.1744 890.5719 868.9222 891.1586 868.4177 891.5475 867.9155 891.9363 867.1511 892.1308 866.1244 892.1308H863.0078ZM860.9045 893.8607H866.2811C867.8855 893.8607 869.1211 893.5274 869.9877 892.8608 870.8566 892.1941 871.291 891.2463 871.291 890.0175 871.291 889.0642 871.0688 888.3064 870.6244 887.7442 870.1799 887.182 869.5266 886.832 868.6644 886.6942 869.6999 886.472 870.5044 886.0075 871.0777 885.3009 871.651 884.5965 871.9377 883.7165 871.9377 882.6609 871.9377 881.2721 871.4655 880.1987 870.521 879.441 869.5766 878.6854 868.2322 878.3077 866.4878 878.3077H860.9045V893.8607Z"/>
<path transform="matrix(1,0,0,-1,-449.0343,908.8217)" d="M880.7596 884.1709C879.2108 884.1709 878.1374 883.9942 877.5397 883.6409 876.9419 883.2876 876.643 882.6831 876.643 881.8276 876.643 881.1476 876.8675 880.6076 877.3163 880.2076 877.7652 879.8099 878.3741 879.611 879.143 879.611 880.2074 879.611 881.0607 879.9876 881.7029 880.741 882.3452 881.4943 882.6663 882.4954 882.6663 883.7442V884.1709H880.7596ZM884.5829 884.9642V878.3077H882.6663V880.0776C882.2285 879.371 881.6829 878.8488 881.0296 878.511 880.3763 878.1732 879.5774 878.0043 878.633 878.0043 877.4397 878.0043 876.4897 878.3399 875.783 879.011 875.0786 879.6821 874.7264 880.5798 874.7264 881.7043 874.7264 883.0154 875.1653 884.0042 876.043 884.6709 876.923 885.3376 878.2341 885.6709 879.9763 885.6709H882.6663V885.8609C882.6663 886.7431 882.3763 887.4253 881.7963 887.9075 881.2163 888.3897 880.4019 888.6308 879.353 888.6308 878.6863 888.6308 878.0363 888.5508 877.403 888.3908 876.7719 888.2308 876.1653 887.9908 875.583 887.6708V889.4442C876.283 889.7153 876.963 889.9175 877.623 890.0508 878.283 890.1864 878.9252 890.2541 879.5496 890.2541 881.2385 890.2541 882.4996 889.8164 883.3329 888.9408 884.1662 888.0675 884.5829 886.742 884.5829 884.9642Z"/>
<path transform="matrix(1,0,0,-1,-449.0343,908.8217)" d="M898.2289 885.3509V878.3077H896.3123V885.2876C896.3123 886.392 896.0967 887.2175 895.6656 887.7642 895.2345 888.3131 894.589 888.5875 893.729 888.5875 892.6935 888.5875 891.8768 888.2575 891.279 887.5975 890.6813 886.9397 890.3824 886.0409 890.3824 884.9009V878.3077H888.4558V889.9741H890.3824V888.1608C890.8424 888.8631 891.3824 889.3875 892.0024 889.7341 892.6246 890.0808 893.3423 890.2541 894.1557 890.2541 895.4956 890.2541 896.509 889.8397 897.1956 889.0108 897.8845 888.182 898.2289 886.962 898.2289 885.3509Z"/>
<path transform="matrix(1,0,0,-1,-449.0343,908.8217)" d="M909.7263 888.2042V894.5174H911.6429V878.3077H909.7263V880.0576C909.324 879.3643 908.8152 878.8488 908.1996 878.511 907.5863 878.1732 906.8485 878.0043 905.9863 878.0043 904.5774 878.0043 903.4297 878.5665 902.543 879.691 901.6586 880.8176 901.2164 882.2976 901.2164 884.1309 901.2164 885.9642 901.6586 887.4431 902.543 888.5675 903.4297 889.6919 904.5774 890.2541 905.9863 890.2541 906.8485 890.2541 907.5863 890.0853 908.1996 889.7475 908.8152 889.4119 909.324 888.8975 909.7263 888.2042ZM903.1964 884.1309C903.1964 882.722 903.4864 881.6165 904.0663 880.8143 904.6463 880.0121 905.443 879.611 906.4563 879.611 907.4696 879.611 908.2674 880.0121 908.8496 880.8143 909.434 881.6165 909.7263 882.722 909.7263 884.1309 909.7263 885.5398 909.434 886.6453 908.8496 887.4475 908.2674 888.2497 907.4696 888.6508 906.4563 888.6508 905.443 888.6508 904.6463 888.2497 904.0663 887.4475 903.4864 886.6453 903.1964 885.5398 903.1964 884.1309Z"/>
<path transform="matrix(1,0,0,-1,-449.0343,908.8217)" d="M914.4778 889.9741H916.3945L918.7911 880.871 921.1744 889.9741H923.4344L925.831 880.871 928.2176 889.9741H930.1343L927.081 878.3077H924.821L922.3111 887.8708 919.7911 878.3077H917.5278L914.4778 889.9741Z"/>
<path transform="matrix(1,0,0,-1,-449.0343,908.8217)" d="M933.0388 889.9741H934.9554V878.3077H933.0388V889.9741ZM933.0388 894.5174H934.9554V892.0874H933.0388V894.5174Z"/>
<path transform="matrix(1,0,0,-1,-449.0343,908.8217)" d="M946.6423 888.2042V894.5174H948.559V878.3077H946.6423V880.0576C946.2401 879.3643 945.7312 878.8488 945.1157 878.511 944.5024 878.1732 943.7646 878.0043 942.9024 878.0043 941.4935 878.0043 940.3458 878.5665 939.4591 879.691 938.5747 880.8176 938.1325 882.2976 938.1325 884.1309 938.1325 885.9642 938.5747 887.4431 939.4591 888.5675 940.3458 889.6919 941.4935 890.2541 942.9024 890.2541 943.7646 890.2541 944.5024 890.0853 945.1157 889.7475 945.7312 889.4119 946.2401 888.8975 946.6423 888.2042ZM940.1124 884.1309C940.1124 882.722 940.4024 881.6165 940.9824 880.8143 941.5624 880.0121 942.3591 879.611 943.3724 879.611 944.3857 879.611 945.1835 880.0121 945.7657 880.8143 946.3501 881.6165 946.6423 882.722 946.6423 884.1309 946.6423 885.5398 946.3501 886.6453 945.7657 887.4475 945.1835 888.2497 944.3857 888.6508 943.3724 888.6508 942.3591 888.6508 941.5624 888.2497 940.9824 887.4475 940.4024 886.6453 940.1124 885.5398 940.1124 884.1309Z"/>
<path transform="matrix(1,0,0,-1,-449.0343,908.8217)" d="M954.4039 893.2874V889.9741H958.3505V888.4842H954.4039V882.1509C954.4039 881.1998 954.5339 880.5887 954.7939 880.3176 955.0539 880.0465 955.5839 879.911 956.3839 879.911H958.3505V878.3077H956.3839C954.9039 878.3077 953.8828 878.5832 953.3206 879.1343 952.7584 879.6876 952.4773 880.6932 952.4773 882.1509V888.4842H951.0706V889.9741H952.4773V893.2874H954.4039Z"/>
<path transform="matrix(1,0,0,-1,-449.0343,908.8217)" d="M970.5715 885.3509V878.3077H968.6549V885.2876C968.6549 886.392 968.4394 887.2175 968.0083 887.7642 967.5772 888.3131 966.9316 888.5875 966.0716 888.5875 965.0361 888.5875 964.2194 888.2575 963.6217 887.5975 963.0239 886.9397 962.725 886.0409 962.725 884.9009V878.3077H960.7984V894.5174H962.725V888.1608C963.185 888.8631 963.725 889.3875 964.345 889.7341 964.9672 890.0808 965.685 890.2541 966.4983 890.2541 967.8383 890.2541 968.8516 889.8397 969.5382 889.0108 970.2271 888.182 970.5715 886.962 970.5715 885.3509Z"/>
<path transform="matrix(1,0,0,-1,-449.0343,908.8217)" d="M985.7767 894.4941C984.8479 892.8985 984.1568 891.3186 983.7034 889.7541 983.2523 888.192 983.0268 886.6086 983.0268 885.0042 983.0268 883.402 983.2545 881.8143 983.7101 880.241 984.1656 878.6677 984.8545 877.0855 985.7767 875.4944H984.1101C983.0701 877.1277 982.2912 878.7321 981.7735 880.3076 981.2557 881.8832 980.9968 883.4487 980.9968 885.0042 980.9968 886.5531 981.2535 888.112 981.7668 889.6808 982.2823 891.2519 983.0634 892.8563 984.1101 894.4941H985.7767Z"/>
<path transform="matrix(1,0,0,-1,-449.0343,908.8217)" d="M996.1428 886.6942C997.1495 886.4786 997.935 886.0298 998.4994 885.3476 999.0661 884.6676 999.3494 883.8276 999.3494 882.8276 999.3494 881.2943 998.8217 880.1065 997.7661 879.2643 996.7106 878.4243 995.2106 878.0043 993.2662 878.0043 992.6151 878.0043 991.944 878.0688 991.2529 878.1977 990.5618 878.3265 989.8485 878.5199 989.1129 878.7777V880.8076C989.6951 880.4676 990.3329 880.211 991.0262 880.0376 991.7218 879.8643 992.4484 879.7776 993.2062 879.7776 994.524 879.7776 995.5284 880.0376 996.2195 880.5576 996.9106 881.0776 997.2561 881.8343 997.2561 882.8276 997.2561 883.7454 996.935 884.462 996.2928 884.9776 995.6506 885.4953 994.7573 885.7542 993.6129 885.7542H991.7995V887.4842H993.6962C994.7295 887.4842 995.5206 887.6908 996.0695 888.1042 996.6184 888.5175 996.8928 889.113 996.8928 889.8908 996.8928 890.6886 996.6095 891.3008 996.0428 891.7274 995.4784 892.1563 994.6684 892.3708 993.6129 892.3708 993.0351 892.3708 992.4162 892.3074 991.7562 892.1808 991.0962 892.0563 990.3707 891.863 989.5796 891.6008V893.4741C990.3796 893.6963 991.1284 893.863 991.8262 893.9741 992.524 894.0852 993.1818 894.1407 993.7995 894.1407 995.3973 894.1407 996.6606 893.7774 997.5895 893.0508 998.5206 892.3263 998.9861 891.3463 998.9861 890.1108 998.9861 889.2486 998.7394 888.5208 998.2461 887.9275 997.7528 887.3342 997.0517 886.9231 996.1428 886.6942Z"/>
<path transform="matrix(1,0,0,-1,-449.0343,908.8217)" d="M1008.102 886.9209C1007.158 886.9209 1006.409 886.5975 1005.856 885.9509 1005.304 885.3064 1005.029 884.422 1005.029 883.2976 1005.029 882.1798 1005.304 881.2954 1005.856 880.6443 1006.409 879.9954 1007.158 879.671 1008.102 879.671 1009.047 879.671 1009.794 879.9954 1010.345 880.6443 1010.897 881.2954 1011.172 882.1798 1011.172 883.2976 1011.172 884.422 1010.897 885.3064 1010.345 885.9509 1009.794 886.5975 1009.047 886.9209 1008.102 886.9209ZM1012.279 893.5174V891.6008C1011.75 891.8497 1011.217 892.0397 1010.679 892.1708 1010.141 892.3041 1009.608 892.3708 1009.079 892.3708 1007.69 892.3708 1006.629 891.9019 1005.896 890.9641 1005.164 890.0264 1004.747 888.6097 1004.642 886.7142 1005.051 887.3186 1005.564 887.782 1006.182 888.1042 1006.802 888.4264 1007.483 888.5875 1008.225 888.5875 1009.788 888.5875 1011.022 888.1131 1011.929 887.1642 1012.835 886.2175 1013.289 884.9287 1013.289 883.2976 1013.289 881.6998 1012.817 880.4176 1011.872 879.451 1010.928 878.4865 1009.671 878.0043 1008.102 878.0043 1006.302 878.0043 1004.927 878.6932 1003.976 880.071 1003.024 881.4509 1002.549 883.4498 1002.549 886.0675 1002.549 888.5253 1003.132 890.4852 1004.299 891.9474 1005.466 893.4096 1007.031 894.1407 1008.995 894.1407 1009.524 894.1407 1010.058 894.0885 1010.595 893.9841 1011.133 893.8796 1011.694 893.7241 1012.279 893.5174Z"/>
<path transform="matrix(1,0,0,-1,-449.0343,908.8217)" d="M1021.412 892.4741C1020.329 892.4741 1019.515 891.9408 1018.968 890.8741 1018.424 889.8097 1018.152 888.2075 1018.152 886.0675 1018.152 883.9365 1018.424 882.3376 1018.968 881.2709 1019.515 880.2043 1020.329 879.671 1021.412 879.671 1022.503 879.671 1023.32 880.2043 1023.865 881.2709 1024.411 882.3376 1024.685 883.9365 1024.685 886.0675 1024.685 888.2075 1024.411 889.8097 1023.865 890.8741 1023.32 891.9408 1022.503 892.4741 1021.412 892.4741ZM1021.412 894.1407C1023.156 894.1407 1024.488 893.4508 1025.408 892.0708 1026.328 890.693 1026.788 888.6919 1026.788 886.0675 1026.788 883.4498 1026.328 881.4509 1025.408 880.071 1024.488 878.6932 1023.156 878.0043 1021.412 878.0043 1019.669 878.0043 1018.338 878.6932 1017.418 880.071 1016.498 881.4509 1016.038 883.4498 1016.038 886.0675 1016.038 888.6919 1016.498 890.693 1017.418 892.0708 1018.338 893.4508 1019.669 894.1407 1021.412 894.1407Z"/>
<path transform="matrix(1,0,0,-1,-449.0343,908.8217)" d="M1039.182 885.7342V880.0376H1042.559C1043.69 880.0376 1044.528 880.2721 1045.072 880.741 1045.619 881.2098 1045.892 881.9265 1045.892 882.8909 1045.892 883.8642 1045.619 884.5809 1045.072 885.0409 1044.528 885.5031 1043.69 885.7342 1042.559 885.7342H1039.182ZM1039.182 892.1308V887.4442H1042.299C1043.325 887.4442 1044.09 887.6364 1044.592 888.0208 1045.096 888.4075 1045.349 888.9964 1045.349 889.7875 1045.349 890.5719 1045.096 891.1586 1044.592 891.5475 1044.09 891.9363 1043.325 892.1308 1042.299 892.1308H1039.182ZM1037.079 893.8607H1042.455C1044.06 893.8607 1045.295 893.5274 1046.162 892.8608 1047.031 892.1941 1047.465 891.2463 1047.465 890.0175 1047.465 889.0642 1047.243 888.3064 1046.799 887.7442 1046.354 887.182 1045.701 886.832 1044.839 886.6942 1045.874 886.472 1046.679 886.0075 1047.252 885.3009 1047.825 884.5965 1048.112 883.7165 1048.112 882.6609 1048.112 881.2721 1047.64 880.1987 1046.695 879.441 1045.751 878.6854 1044.406 878.3077 1042.662 878.3077H1037.079V893.8607Z"/>
<path transform="matrix(1,0,0,-1,-449.0343,908.8217)" d="M1056.355 877.2243C1055.815 875.8355 1055.287 874.9299 1054.772 874.5077 1054.259 874.0833 1053.572 873.8711 1052.712 873.8711H1051.179V875.4744H1052.305C1052.832 875.4744 1053.241 875.5999 1053.532 875.851 1053.825 876.0999 1054.149 876.6899 1054.502 877.621L1054.845 878.4943 1050.129 889.9741H1052.159L1055.805 880.851 1059.452 889.9741H1061.482L1056.355 877.2243Z"/>
<path transform="matrix(1,0,0,-1,-449.0343,908.8217)" d="M1065.985 893.2874V889.9741H1069.932V888.4842H1065.985V882.1509C1065.985 881.1998 1066.115 880.5887 1066.375 880.3176 1066.635 880.0465 1067.165 879.911 1067.965 879.911H1069.932V878.3077H1067.965C1066.485 878.3077 1065.464 878.5832 1064.902 879.1343 1064.339 879.6876 1064.058 880.6932 1064.058 882.1509V888.4842H1062.652V889.9741H1064.058V893.2874H1065.985Z"/>
<path transform="matrix(1,0,0,-1,-449.0343,908.8217)" d="M1082.388 884.6209V883.6842H1073.575C1073.659 882.3643 1074.057 881.3587 1074.768 880.6676 1075.479 879.9765 1076.47 879.631 1077.741 879.631 1078.477 879.631 1079.19 879.721 1079.881 879.901 1080.573 880.081 1081.259 880.3521 1081.941 880.7143V878.901C1081.253 878.6099 1080.547 878.3877 1079.825 878.2343 1079.103 878.081 1078.37 878.0043 1077.628 878.0043 1075.766 878.0043 1074.292 878.5454 1073.205 879.6276 1072.118 880.7121 1071.575 882.1787 1071.575 884.0276 1071.575 885.9364 1072.09 887.4509 1073.122 888.5708 1074.153 889.693 1075.544 890.2541 1077.295 890.2541 1078.864 890.2541 1080.105 889.7486 1081.018 888.7375 1081.931 887.7286 1082.388 886.3564 1082.388 884.6209ZM1080.471 885.1842C1080.458 886.2309 1080.165 887.0664 1079.591 887.6908 1079.018 888.3175 1078.259 888.6308 1077.315 888.6308 1076.246 888.6308 1075.39 888.3286 1074.748 887.7242 1074.106 887.1197 1073.736 886.2686 1073.638 885.1709L1080.471 885.1842Z"/>
<path transform="matrix(1,0,0,-1,-449.0343,908.8217)" d="M1084.135 893.8607H1085.905L1080.488 876.3277H1078.718L1084.135 893.8607Z"/>
<path transform="matrix(1,0,0,-1,-449.0343,908.8217)" d="M1095.205 889.6308V887.8175C1094.665 888.0953 1094.102 888.3031 1093.518 888.4408 1092.936 888.5808 1092.331 888.6508 1091.705 888.6508 1090.754 888.6508 1090.04 888.5053 1089.565 888.2142 1089.089 887.9231 1088.851 887.4853 1088.851 886.9009 1088.851 886.4564 1089.021 886.1075 1089.361 885.8542 1089.701 885.6009 1090.386 885.3598 1091.415 885.1309L1092.071 884.9842C1093.431 884.6931 1094.398 884.282 1094.971 883.7509 1095.545 883.2198 1095.831 882.4787 1095.831 881.5276 1095.831 880.4432 1095.402 879.5843 1094.545 878.951 1093.687 878.3199 1092.508 878.0043 1091.008 878.0043 1090.384 878.0043 1089.732 878.0654 1089.055 878.1877 1088.377 878.3099 1087.664 878.4921 1086.915 878.7343V880.7143C1087.624 880.3454 1088.321 880.0687 1089.008 879.8843 1089.695 879.7021 1090.376 879.611 1091.051 879.611 1091.953 879.611 1092.647 879.7654 1093.131 880.0743 1093.618 880.3832 1093.861 880.8187 1093.861 881.3809 1093.861 881.9009 1093.686 882.2998 1093.335 882.5776 1092.986 882.8554 1092.217 883.1231 1091.028 883.3809L1090.361 883.5376C1089.175 883.7865 1088.317 884.1698 1087.788 884.6876 1087.261 885.2053 1086.998 885.9153 1086.998 886.8175 1086.998 887.9153 1087.387 888.7619 1088.165 889.3575 1088.942 889.9553 1090.047 890.2541 1091.478 890.2541 1092.185 890.2541 1092.85 890.2019 1093.475 890.0975 1094.101 889.9953 1094.678 889.8397 1095.205 889.6308Z"/>
<path transform="matrix(1,0,0,-1,-449.0343,908.8217)" d="M1086.163 894.4941H1087.83C1088.87 892.8563 1089.649 891.2519 1090.167 889.6808 1090.684 888.112 1090.943 886.5531 1090.943 885.0042 1090.943 883.4487 1090.684 881.8832 1090.167 880.3076 1089.649 878.7321 1088.87 877.1277 1087.83 875.4944H1086.163C1087.086 877.0855 1087.775 878.6677 1088.23 880.241 1088.686 881.8143 1088.913 883.402 1088.913 885.0042 1088.913 886.6086 1088.686 888.192 1088.23 889.7541 1087.775 891.3186 1087.086 892.8985 1086.163 894.4941Z"/>
</g>
<g clip-path="url(#clip_27)">
<path transform="matrix(1,0,0,-1,-449.0343,908.8217)" d="M658.7328 367.6259H1067.0755V402.84074H658.7328Z" fill="#ffffff"/>
</g>
<g clip-path="url(#clip_28)">
<text xml:space="preserve" transform="matrix(1 0 -0 1 213.69849 532.1099)" font-size="24" font-family="ArialMT"><tspan y="0" x="0 18.6672 32.016 45.3648 53.3568 66.705608 73.37281 78.70561 92.05441 105.40321 118.752017 124.084819 130.75202 137.4192 150.76802 157.43521 170.78401 184.13283 196.13283 201.46564 208.13283 220.13283 226.80002 234.79203 249.45122 262.80003 281.46723 297.47523 309.47523 316.14244 332.15043 344.15043 350.81764 364.1664">Operational Intensity (FLOPs/Byte)</tspan></text>
</g>
<g clip-path="url(#clip_29)">
<path transform="matrix(1,0,0,-1,-449.0343,908.8217)" d="M446.8391 421.709 451.8646 861.6263 487.0771 861.2241 482.0516 421.3067ZM446.8391 421.709" fill="#ffffff"/>
</g>
<g clip-path="url(#clip_30)">
<g clip-path="url(#clip_31)">
<text xml:space="preserve" transform="matrix(.01142298 -.9999348 .9999348 .01142298 23.977692 483.4114)" font-size="24" font-family="ArialMT"><tspan y="0" x="0 16.008002 28.008002 41.356805 46.6896 60.038404 72.03841 85.38721 98.73601 104.06881 117.41761 123.65282 138.31201 151.66082 159.65282 173.00164 186.35045 199.69927 213.04808 226.3969 239.74571 246.4129 253.0801 261.07209 275.7313 290.3905 303.7393 322.4065 338.4145 350.4145 357.0817 369.0817 382.43049 394.43049">Achievable Throughput (TFLOPs/sec)</tspan></text>
</g>
</g>
<g clip-path="url(#clip_32)">
<path transform="matrix(1,0,0,-1,-449.0343,908.8217)" d="M690.9037 869.0346H1166.7175V904.24948H690.9037Z" fill="#ffffff"/>
</g>
<g clip-path="url(#clip_33)">
<text xml:space="preserve" transform="matrix(1 0 -0 1 245.86939 30.70111)" font-size="24" font-family="ArialMT"><tspan y="0" x="0 18.6672 24.000002 37.3488 50.6976 64.0464 69.3792 76.04641 96.03841 109.38721 129.37921 142.72801 150.72002 162.72002 169.3872 185.3952 198.744 212.09282 225.44164 242.77445 248.10726 261.45606 268.12327 281.47206 288.13926 296.13127 309.48005 322.82884 336.1776 342.84483 358.8528 370.8528 377.52003 390.8688 397.536 409.536 422.8848 434.8848">Global Memory Bandwidth (360 Byte/sec)</tspan></text>
</g>
</g>
</svg>
