<svg version="1.1" viewBox="0.0 0.0 625.6404199475065 582.0524934383202" fill="none" stroke="none" stroke-linecap="square" stroke-miterlimit="10" xmlns:xlink="http://www.w3.org/1999/xlink" xmlns="http://www.w3.org/2000/svg"><clipPath id="p.0"><path d="m0 0l625.64044 0l0 582.0525l-625.64044 0l0 -582.0525z" clip-rule="nonzero"/></clipPath><g clip-path="url(#p.0)"><path fill="#ffffff" d="m0 0l625.64044 0l0 582.0525l-625.64044 0z" fill-rule="evenodd"/><path fill="#f3f3f3" d="m9.6692915 4.8320208l604.6614 0l0 320.0315l-604.6614 0z" fill-rule="evenodd"/><path stroke="#000000" stroke-width="1.0" stroke-linejoin="round" stroke-linecap="butt" d="m9.6692915 4.8320208l604.6614 0l0 320.0315l-604.6614 0z" fill-rule="evenodd"/><path fill="#000000" fill-opacity="0.0" d="m35.664043 8.570339l426.01575 0l0 45.259842l-426.01575 0z" fill-rule="evenodd"/><path fill="#000000" d="m52.96092 22.456589q2.59375 0 4.421875 1.46875q1.828125 1.46875 2.140625 4.015625l-3.234375 0q-0.21875 -1.203125 -1.1875 -1.9375q-0.96875 -0.734375 -2.140625 -0.734375q-1.96875 0 -3.0625 1.4375q-1.078125 1.421875 -1.078125 3.796875q0 2.25 1.078125 3.671875q1.078125 1.421875 3.0625 1.421875q1.453125 0 2.34375 -0.890625q0.890625 -0.890625 1.109375 -2.515625l3.25 0q-0.296875 2.90625 -2.125 4.5625q-1.8125 1.65625 -4.578125 1.65625q-2.1875 0 -3.90625 -1.0q-1.71875 -1.0 -2.65625 -2.828125q-0.921875 -1.84375 -0.921875 -4.078125q0 -3.515625 2.046875 -5.78125q2.0625 -2.265625 5.4375 -2.265625zm15.964886 0.375q2.375 0 3.765625 1.34375q1.390625 1.328125 1.390625 3.53125q0 2.203125 -1.390625 3.546875q-1.390625 1.34375 -3.765625 1.34375l-3.625 0l0 5.453125l-3.3593712 0l0 -15.21875l6.984371 0zm-0.9375 7.15625q1.4375 0 2.140625 -0.53125q0.703125 -0.546875 0.703125 -1.75q0 -1.15625 -0.671875 -1.71875q-0.671875 -0.5625 -2.15625 -0.5625l-2.703125 0l0 4.5625l2.6875 0zm11.475693 -7.15625l0 9.546875q0 1.65625 0.75 2.4375q0.75 0.78125 2.375 0.78125q1.75 0 2.453125 -0.765625q0.703125 -0.765625 0.703125 -2.4375l0 -9.5625l3.34375 0l0 9.5625q0 2.828125 -1.65625 4.421875q-1.640625 1.59375 -4.84375 1.59375q-3.21875 0 -4.859375 -1.5625q-1.625 -1.5625 -1.625 -4.453125l0 -9.5625l3.359375 0zm23.437408 -0.375q-1.140625 2.125 -1.734375 4.59375q-0.59375 2.46875 -0.59375 5.078125q0 2.609375 0.546875 5.046875q0.5625 2.4375 1.75 4.765625l-2.515625 0q-1.375 -2.28125 -2.09375 -4.75q-0.71875 -2.484375 -0.71875 -4.859375q0 -2.484375 0.71875 -5.171875q0.734375 -2.6875 2.09375 -4.703125l2.546875 0zm8.904709 0.375l5.6875 15.203125l-3.46875 0l-1.140625 -3.375l-5.703125 0l-1.203125 3.390625l-3.375 0l5.78125 -15.21875l3.421875 0zm-1.765625 3.75l-1.984375 5.578125l3.953125 0l-1.921875 -5.578125l-0.046875 0zm13.501648 -3.75l3.5625 10.453125l0.046875 0l3.3593826 -10.421875l0.015625 -0.03125l4.703125 0l0 15.21875l-3.140625 0l0 -10.78125l-0.046875 0l-3.71875 10.78125l-2.5781326 0l-3.75 -10.6875l-0.03125 0l0 10.6875l-3.140625 0l0 -15.21875l4.71875 0zm21.302574 0q3.046875 0 4.921875 1.984375q1.890625 1.984375 1.890625 5.53125q0 3.5625 -1.84375 5.640625q-1.84375 2.0625 -4.96875 2.0625l-6.671875 0l0 -15.21875l6.671875 0zm-0.25 12.40625q1.59375 0 2.640625 -1.140625q1.0625 -1.15625 1.0625 -3.4375q0 -2.640625 -1.109375 -3.828125q-1.09375 -1.1875 -3.1875 -1.1875l-2.46875 0l0 9.59375l3.0625 0zm23.609283 -12.40625q1.84375 0 3.109375 1.1875q1.265625 1.1875 1.265625 3.015625q0 1.4375 -0.609375 2.375q-0.59375 0.9375 -1.8125 1.4375l0 0.03125q1.078125 0.28125 1.640625 1.28125q0.578125 1.0 0.640625 3.0625q0.03125 2.0625 0.59375 2.828125l-3.359375 0q-0.296875 -0.734375 -0.390625 -2.390625q-0.15625 -2.25 -0.765625 -2.90625q-0.59375 -0.65625 -1.828125 -0.65625l-3.421875 0l0 5.953125l-3.359375 0l0 -15.21875l8.296875 0zm-1.203125 6.875q1.046875 0 1.625 -0.5q0.59375 -0.515625 0.59375 -1.671875q0 -1.078125 -0.5625 -1.59375q-0.5625 -0.515625 -1.65625 -0.515625l-3.734375 0l0 4.28125l3.734375 0zm9.949371 -2.6875l2.5 7.546875l0.046875 0l2.40625 -7.546875l3.125 0l-4.671875 12.625q-0.421875 1.109375 -1.296875 1.703125q-0.859375 0.59375 -2.234375 0.59375q-0.65625 0 -1.109375 -0.03125q-0.453125 -0.03125 -0.921875 -0.09375l0 -2.484375q0.546875 0.0625 0.890625 0.078125q0.359375 0.03125 0.6875 0.03125q0.640625 0 1.0 -0.40625q0.359375 -0.390625 0.359375 -0.984375q0 -0.15625 -0.03125 -0.296875q-0.015625 -0.15625 -0.109375 -0.390625l-3.890625 -10.34375l3.25 0zm18.16397 0l0 2.28125l-5.75 6.46875l6.15625 0l0 2.28125l-10.140625 0l0 -2.28125l5.734375 -6.46875l-5.3125 0l0 -2.28125l9.3125 0zm6.794174 -0.28125q2.453125 0 3.90625 1.6875q1.46875 1.671875 1.46875 4.28125l-0.03125 0.5625l-7.953125 0q0.0625 1.421875 0.75 2.109375q0.6875 0.6875 1.953125 0.6875q0.828125 0 1.515625 -0.421875q0.703125 -0.421875 0.890625 -1.015625l2.65625 0q-0.609375 1.875 -1.890625 2.796875q-1.28125 0.921875 -3.265625 0.921875q-2.546875 0 -4.09375 -1.609375q-1.546875 -1.609375 -1.546875 -4.1875q0 -2.46875 1.578125 -4.140625q1.578125 -1.671875 4.0625 -1.671875zm-2.609375 4.609375l4.9375 0q-0.21875 -1.21875 -0.796875 -1.78125q-0.5625 -0.5625 -1.640625 -0.5625q-1.09375 0 -1.75 0.625q-0.640625 0.625 -0.75 1.71875zm16.09076 -4.609375q2.109375 0 3.0625 1.0625q0.953125 1.0625 0.953125 3.359375l0 6.890625l-3.03125 0l0 -6.328125q0 -1.28125 -0.453125 -1.9375q-0.4375 -0.671875 -1.484375 -0.671875q-1.265625 0 -1.8125 0.75q-0.546875 0.75 -0.546875 2.296875l0 5.890625l-3.015625 0l0 -11.03125l2.875 0l0 1.546875l0.0625 0q0.546875 -0.890625 1.4375 -1.359375q0.890625 -0.46875 1.953125 -0.46875zm22.115265 -3.625l0 2.609375q-2.203125 1.984375 -3.5 5.4375q-1.296875 3.453125 -1.390625 6.890625l-3.234375 0q0.265625 -3.3125 1.5625 -6.421875q1.3125 -3.125 3.453125 -5.6875l-7.09375 0l0 -2.828125l10.203125 0zm17.787338 0l0 2.609375q-2.203125 1.984375 -3.5 5.4375q-1.296875 3.453125 -1.390625 6.890625l-3.234375 0q0.265625 -3.3125 1.5625 -6.421875q1.3125 -3.125 3.453125 -5.6875l-7.09375 0l0 -2.828125l10.203125 0zm11.861679 0l0 2.609375q-2.203125 1.984375 -3.5 5.4375q-1.296875 3.453125 -1.390625 6.890625l-3.234375 0q0.265625 -3.3125 1.5625 -6.421875q1.3125 -3.125 3.453125 -5.6875l-7.09375 0l0 -2.828125l10.203125 0zm6.7366943 -0.28125q2.671875 0 4.078125 1.953125q1.421875 1.953125 1.421875 5.734375q0 3.84375 -1.40625 5.84375q-1.390625 1.984375 -4.09375 1.984375q-2.671875 0 -4.0625 -1.984375q-1.390625 -1.984375 -1.390625 -5.84375q0 -3.765625 1.390625 -5.71875q1.390625 -1.96875 4.0625 -1.96875zm-2.421875 7.703125q0 2.3125 0.3125 3.359375q0.3125 1.046875 0.84375 1.5q0.53125 0.453125 1.265625 0.453125q1.203125 0 1.84375 -1.171875q0.640625 -1.171875 0.640625 -4.140625q0 -2.875 -0.640625 -4.046875q-0.640625 -1.171875 -1.859375 -1.171875q-1.140625 0 -1.78125 1.140625q-0.625 1.125 -0.625 4.078125zm14.283569 -7.703125q2.671875 0 4.078125 1.953125q1.421875 1.953125 1.421875 5.734375q0 3.84375 -1.40625 5.84375q-1.390625 1.984375 -4.09375 1.984375q-2.671875 0 -4.0625 -1.984375q-1.390625 -1.984375 -1.390625 -5.84375q0 -3.765625 1.390625 -5.71875q1.390625 -1.96875 4.0625 -1.96875zm-2.421875 7.703125q0 2.3125 0.3125 3.359375q0.3125 1.046875 0.84375 1.5q0.53125 0.453125 1.265625 0.453125q1.203125 0 1.84375 -1.171875q0.640625 -1.171875 0.640625 -4.140625q0 -2.875 -0.640625 -4.046875q-0.640625 -1.171875 -1.859375 -1.171875q-1.140625 0 -1.78125 1.140625q-0.625 1.125 -0.625 4.078125zm10.767944 -8.078125q1.375 2.28125 2.09375 4.75q0.71875 2.453125 0.71875 4.875q0 2.4375 -0.71875 5.15625q-0.71875 2.703125 -2.09375 4.6875l-2.53125 0q1.15625 -2.21875 1.734375 -4.640625q0.578125 -2.4375 0.578125 -5.0q0 -2.65625 -0.578125 -5.109375q-0.5625 -2.46875 -1.71875 -4.71875l2.515625 0z" fill-rule="nonzero"/><path fill="#d9d9d9" d="m43.664043 53.14514l117.13385 0l0 117.133865l-117.13385 0z" fill-rule="evenodd"/><path stroke="#000000" stroke-width="1.0" stroke-linejoin="round" stroke-linecap="butt" d="m43.664043 53.14514l117.13385 0l0 117.133865l-117.13385 0z" fill-rule="evenodd"/><path fill="#000000" fill-opacity="0.0" d="m47.27034 60.35249l90.99213 0l0 45.259846l-90.99213 0z" fill-rule="evenodd"/><path fill="#000000" d="m64.567215 74.23874q2.59375 0 4.421875 1.46875q1.828125 1.46875 2.140625 4.015625l-3.234375 0q-0.21875 -1.203125 -1.1875 -1.9375q-0.96875 -0.734375 -2.140625 -0.734375q-1.96875 0 -3.0625 1.4375q-1.078125 1.421875 -1.078125 3.796875q0 2.25 1.078125 3.671875q1.078125 1.421875 3.0625 1.421875q1.453125 0 2.34375 -0.890625q0.890625 -0.890625 1.109375 -2.515625l3.25 0q-0.296875 2.90625 -2.125 4.5625q-1.8125 1.65625 -4.578125 1.65625q-2.1875 0 -3.90625 -1.0q-1.71875 -1.0 -2.65625 -2.828125q-0.921875 -1.84375 -0.921875 -4.078125q0 -3.515625 2.046875 -5.78125q2.0625 -2.265625 5.4375 -2.265625zm14.02739 4.28125q2.59375 0 4.140625 1.59375q1.5625 1.59375 1.5625 4.21875q0 2.640625 -1.578125 4.21875q-1.5625 1.578125 -4.125 1.578125q-2.5625 0 -4.140625 -1.59375q-1.5625 -1.59375 -1.5625 -4.203125q0 -2.609375 1.53125 -4.203125q1.546875 -1.609375 4.171875 -1.609375zm-2.671875 5.8125q0 1.734375 0.703125 2.625q0.71875 0.890625 1.96875 0.890625q1.28125 0 1.984375 -0.921875q0.703125 -0.921875 0.703125 -2.59375q0 -1.640625 -0.6875 -2.59375q-0.671875 -0.953125 -2.03125 -0.953125q-1.21875 0 -1.9375 0.890625q-0.703125 0.875 -0.703125 2.65625zm16.762451 -5.8125q0.203125 0 0.359375 0.03125q0.171875 0.015625 0.328125 0.0625l0 2.8125q-0.265625 -0.046875 -0.515625 -0.078125q-0.234375 -0.03125 -0.578125 -0.03125q-1.53125 0 -2.265625 0.9375q-0.734375 0.9375 -0.734375 2.515625l0 5.0625l-3.015625 0l0 -11.03125l2.875 0l0 2.046875l0.046875 0q0.46875 -1.078125 1.421875 -1.703125q0.953125 -0.625 2.078125 -0.625zm6.8052673 0q2.453125 0 3.90625 1.6875q1.46875 1.671875 1.46875 4.28125l-0.03125 0.5625l-7.953125 0q0.0625 1.421875 0.75 2.109375q0.6875 0.6875 1.953125 0.6875q0.828125 0 1.515625 -0.421875q0.703125 -0.421875 0.890625 -1.015625l2.65625 0q-0.609375 1.875 -1.890625 2.796875q-1.28125 0.921875 -3.265625 0.921875q-2.546875 0 -4.09375 -1.609375q-1.546875 -1.609375 -1.546875 -4.1875q0 -2.46875 1.578125 -4.140625q1.578125 -1.671875 4.0625 -1.671875zm-2.609375 4.609375l4.9375 0q-0.21875 -1.21875 -0.796875 -1.78125q-0.5625 -0.5625 -1.640625 -0.5625q-1.09375 0 -1.75 0.625q-0.640625 0.625 -0.75 1.71875z" fill-rule="nonzero"/><path fill="#d9d9d9" d="m182.40158 53.14514l117.13385 0l0 117.133865l-117.13385 0z" fill-rule="evenodd"/><path stroke="#000000" stroke-width="1.0" stroke-linejoin="round" stroke-linecap="butt" d="m182.40158 53.14514l117.13385 0l0 117.133865l-117.13385 0z" fill-rule="evenodd"/><path fill="#000000" fill-opacity="0.0" d="m186.00787 60.35249l90.99213 0l0 45.259846l-90.99213 0z" fill-rule="evenodd"/><path fill="#000000" d="m203.30475 74.23874q2.59375 0 4.421875 1.46875q1.828125 1.46875 2.140625 4.015625l-3.234375 0q-0.21875 -1.203125 -1.1875 -1.9375q-0.96875 -0.734375 -2.140625 -0.734375q-1.96875 0 -3.0625 1.4375q-1.078125 1.421875 -1.078125 3.796875q0 2.25 1.078125 3.671875q1.078125 1.421875 3.0625 1.421875q1.453125 0 2.34375 -0.890625q0.890625 -0.890625 1.109375 -2.515625l3.25 0q-0.296875 2.90625 -2.125 4.5625q-1.8125 1.65625 -4.578125 1.65625q-2.1875 0 -3.90625 -1.0q-1.71875 -1.0 -2.65625 -2.828125q-0.921875 -1.84375 -0.921875 -4.078125q0 -3.515625 2.046875 -5.78125q2.0625 -2.265625 5.4375 -2.265625zm14.02739 4.28125q2.59375 0 4.140625 1.59375q1.5625 1.59375 1.5625 4.21875q0 2.640625 -1.578125 4.21875q-1.5625 1.578125 -4.125 1.578125q-2.5625 0 -4.140625 -1.59375q-1.5625 -1.59375 -1.5625 -4.203125q0 -2.609375 1.53125 -4.203125q1.546875 -1.609375 4.171875 -1.609375zm-2.671875 5.8125q0 1.734375 0.703125 2.625q0.71875 0.890625 1.96875 0.890625q1.28125 0 1.984375 -0.921875q0.703125 -0.921875 0.703125 -2.59375q0 -1.640625 -0.6875 -2.59375q-0.671875 -0.953125 -2.03125 -0.953125q-1.21875 0 -1.9375 0.890625q-0.703125 0.875 -0.703125 2.65625zm16.762451 -5.8125q0.203125 0 0.359375 0.03125q0.171875 0.015625 0.328125 0.0625l0 2.8125q-0.265625 -0.046875 -0.515625 -0.078125q-0.234375 -0.03125 -0.578125 -0.03125q-1.53125 0 -2.265625 0.9375q-0.734375 0.9375 -0.734375 2.515625l0 5.0625l-3.015625 0l0 -11.03125l2.875 0l0 2.046875l0.046875 0q0.46875 -1.078125 1.421875 -1.703125q0.953125 -0.625 2.078125 -0.625zm6.8052673 0q2.453125 0 3.90625 1.6875q1.46875 1.671875 1.46875 4.28125l-0.03125 0.5625l-7.953125 0q0.0625 1.421875 0.75 2.109375q0.6875 0.6875 1.953125 0.6875q0.828125 0 1.515625 -0.421875q0.703125 -0.421875 0.890625 -1.015625l2.65625 0q-0.609375 1.875 -1.890625 2.796875q-1.28125 0.921875 -3.265625 0.921875q-2.546875 0 -4.09375 -1.609375q-1.546875 -1.609375 -1.546875 -4.1875q0 -2.46875 1.578125 -4.140625q1.578125 -1.671875 4.0625 -1.671875zm-2.609375 4.609375l4.9375 0q-0.21875 -1.21875 -0.796875 -1.78125q-0.5625 -0.5625 -1.640625 -0.5625q-1.09375 0 -1.75 0.625q-0.640625 0.625 -0.75 1.71875z" fill-rule="nonzero"/><path fill="#d9d9d9" d="m321.1391 53.14514l117.13388 0l0 117.133865l-117.13388 0z" fill-rule="evenodd"/><path stroke="#000000" stroke-width="1.0" stroke-linejoin="round" stroke-linecap="butt" d="m321.1391 53.14514l117.13388 0l0 117.133865l-117.13388 0z" fill-rule="evenodd"/><path fill="#000000" fill-opacity="0.0" d="m324.7454 60.35249l90.99213 0l0 45.259846l-90.99213 0z" fill-rule="evenodd"/><path fill="#000000" d="m342.04227 74.23874q2.59375 0 4.421875 1.46875q1.828125 1.46875 2.140625 4.015625l-3.234375 0q-0.21875 -1.203125 -1.1875 -1.9375q-0.96875 -0.734375 -2.140625 -0.734375q-1.96875 0 -3.0625 1.4375q-1.078125 1.421875 -1.078125 3.796875q0 2.25 1.078125 3.671875q1.078125 1.421875 3.0625 1.421875q1.453125 0 2.34375 -0.890625q0.890625 -0.890625 1.109375 -2.515625l3.25 0q-0.296875 2.90625 -2.125 4.5625q-1.8125 1.65625 -4.578125 1.65625q-2.1875 0 -3.90625 -1.0q-1.71875 -1.0 -2.65625 -2.828125q-0.921875 -1.84375 -0.921875 -4.078125q0 -3.515625 2.046875 -5.78125q2.0625 -2.265625 5.4375 -2.265625zm14.027405 4.28125q2.59375 0 4.140625 1.59375q1.5625 1.59375 1.5625 4.21875q0 2.640625 -1.578125 4.21875q-1.5625 1.578125 -4.125 1.578125q-2.5625 0 -4.140625 -1.59375q-1.5625 -1.59375 -1.5625 -4.203125q0 -2.609375 1.53125 -4.203125q1.546875 -1.609375 4.171875 -1.609375zm-2.671875 5.8125q0 1.734375 0.703125 2.625q0.71875 0.890625 1.96875 0.890625q1.28125 0 1.984375 -0.921875q0.703125 -0.921875 0.703125 -2.59375q0 -1.640625 -0.6875 -2.59375q-0.671875 -0.953125 -2.03125 -0.953125q-1.21875 0 -1.9375 0.890625q-0.703125 0.875 -0.703125 2.65625zm16.762451 -5.8125q0.203125 0 0.359375 0.03125q0.171875 0.015625 0.328125 0.0625l0 2.8125q-0.265625 -0.046875 -0.515625 -0.078125q-0.234375 -0.03125 -0.578125 -0.03125q-1.53125 0 -2.265625 0.9375q-0.734375 0.9375 -0.734375 2.515625l0 5.0625l-3.015625 0l0 -11.03125l2.875 0l0 2.046875l0.046875 0q0.46875 -1.078125 1.421875 -1.703125q0.953125 -0.625 2.078125 -0.625zm6.8052673 0q2.453125 0 3.90625 1.6875q1.46875 1.671875 1.46875 4.28125l-0.03125 0.5625l-7.953125 0q0.0625 1.421875 0.75 2.109375q0.6875 0.6875 1.953125 0.6875q0.828125 0 1.515625 -0.421875q0.703125 -0.421875 0.890625 -1.015625l2.65625 0q-0.609375 1.875 -1.890625 2.796875q-1.28125 0.921875 -3.265625 0.921875q-2.546875 0 -4.09375 -1.609375q-1.546875 -1.609375 -1.546875 -4.1875q0 -2.46875 1.578125 -4.140625q1.578125 -1.671875 4.0625 -1.671875zm-2.609375 4.609375l4.9375 0q-0.21875 -1.21875 -0.796875 -1.78125q-0.5625 -0.5625 -1.640625 -0.5625q-1.09375 0 -1.75 0.625q-0.640625 0.625 -0.75 1.71875z" fill-rule="nonzero"/><path fill="#d9d9d9" d="m459.87665 53.14514l117.13385 0l0 117.133865l-117.13385 0z" fill-rule="evenodd"/><path stroke="#000000" stroke-width="1.0" stroke-linejoin="round" stroke-linecap="butt" d="m459.87665 53.14514l117.13385 0l0 117.133865l-117.13385 0z" fill-rule="evenodd"/><path fill="#000000" fill-opacity="0.0" d="m463.48294 60.35249l90.992096 0l0 45.259846l-90.992096 0z" fill-rule="evenodd"/><path fill="#000000" d="m480.77982 74.23874q2.59375 0 4.421875 1.46875q1.828125 1.46875 2.140625 4.015625l-3.234375 0q-0.21875 -1.203125 -1.1875 -1.9375q-0.96875 -0.734375 -2.140625 -0.734375q-1.96875 0 -3.0625 1.4375q-1.078125 1.421875 -1.078125 3.796875q0 2.25 1.078125 3.671875q1.078125 1.421875 3.0625 1.421875q1.453125 0 2.34375 -0.890625q0.890625 -0.890625 1.109375 -2.515625l3.25 0q-0.296875 2.90625 -2.125 4.5625q-1.8125 1.65625 -4.578125 1.65625q-2.1875 0 -3.90625 -1.0q-1.71875 -1.0 -2.65625 -2.828125q-0.921875 -1.84375 -0.921875 -4.078125q0 -3.515625 2.046875 -5.78125q2.0625 -2.265625 5.4375 -2.265625zm14.027374 4.28125q2.59375 0 4.140625 1.59375q1.5625 1.59375 1.5625 4.21875q0 2.640625 -1.578125 4.21875q-1.5625 1.578125 -4.125 1.578125q-2.5625 0 -4.140625 -1.59375q-1.5625 -1.59375 -1.5625 -4.203125q0 -2.609375 1.53125 -4.203125q1.546875 -1.609375 4.171875 -1.609375zm-2.671875 5.8125q0 1.734375 0.703125 2.625q0.71875 0.890625 1.96875 0.890625q1.28125 0 1.984375 -0.921875q0.703125 -0.921875 0.703125 -2.59375q0 -1.640625 -0.6875 -2.59375q-0.671875 -0.953125 -2.03125 -0.953125q-1.21875 0 -1.9375 0.890625q-0.703125 0.875 -0.703125 2.65625zm16.762451 -5.8125q0.203125 0 0.359375 0.03125q0.171875 0.015625 0.328125 0.0625l0 2.8125q-0.265625 -0.046875 -0.515625 -0.078125q-0.234375 -0.03125 -0.578125 -0.03125q-1.53125 0 -2.265625 0.9375q-0.734375 0.9375 -0.734375 2.515625l0 5.0625l-3.015625 0l0 -11.03125l2.875 0l0 2.046875l0.046875 0q0.46875 -1.078125 1.421875 -1.703125q0.953125 -0.625 2.078125 -0.625zm6.805298 0q2.453125 0 3.90625 1.6875q1.46875 1.671875 1.46875 4.28125l-0.03125 0.5625l-7.953125 0q0.0625 1.421875 0.75 2.109375q0.6875 0.6875 1.953125 0.6875q0.828125 0 1.515625 -0.421875q0.703125 -0.421875 0.890625 -1.015625l2.65625 0q-0.609375 1.875 -1.890625 2.796875q-1.28125 0.921875 -3.265625 0.921875q-2.546875 0 -4.0937805 -1.609375q-1.546875 -1.609375 -1.546875 -4.1875q0 -2.46875 1.578125 -4.140625q1.5781555 -1.671875 4.0625305 -1.671875zm-2.609375 4.609375l4.9375 0q-0.21875 -1.21875 -0.796875 -1.78125q-0.5625 -0.5625 -1.640625 -0.5625q-1.09375 0 -1.75 0.625q-0.640625 0.625 -0.75 1.71875z" fill-rule="nonzero"/><path fill="#d9d9d9" d="m43.664043 187.73831l117.13385 0l0 117.13385l-117.13385 0z" fill-rule="evenodd"/><path stroke="#000000" stroke-width="1.0" stroke-linejoin="round" stroke-linecap="butt" d="m43.664043 187.73831l117.13385 0l0 117.13385l-117.13385 0z" fill-rule="evenodd"/><path fill="#000000" fill-opacity="0.0" d="m47.27034 194.94566l90.99213 0l0 45.259842l-90.99213 0z" fill-rule="evenodd"/><path fill="#000000" d="m64.567215 208.83191q2.59375 0 4.421875 1.46875q1.828125 1.46875 2.140625 4.015625l-3.234375 0q-0.21875 -1.203125 -1.1875 -1.9375q-0.96875 -0.734375 -2.140625 -0.734375q-1.96875 0 -3.0625 1.4375q-1.078125 1.421875 -1.078125 3.796875q0 2.25 1.078125 3.671875q1.078125 1.421875 3.0625 1.421875q1.453125 0 2.34375 -0.890625q0.890625 -0.890625 1.109375 -2.515625l3.25 0q-0.296875 2.90625 -2.125 4.5625q-1.8125 1.65625 -4.578125 1.65625q-2.1875 0 -3.90625 -1.0q-1.71875 -1.0 -2.65625 -2.828125q-0.921875 -1.84375 -0.921875 -4.078125q0 -3.515625 2.046875 -5.78125q2.0625 -2.265625 5.4375 -2.265625zm14.02739 4.28125q2.59375 0 4.140625 1.59375q1.5625 1.59375 1.5625 4.21875q0 2.640625 -1.578125 4.21875q-1.5625 1.578125 -4.125 1.578125q-2.5625 0 -4.140625 -1.59375q-1.5625 -1.59375 -1.5625 -4.203125q0 -2.609375 1.53125 -4.203125q1.546875 -1.609375 4.171875 -1.609375zm-2.671875 5.8125q0 1.734375 0.703125 2.625q0.71875 0.890625 1.96875 0.890625q1.28125 0 1.984375 -0.921875q0.703125 -0.921875 0.703125 -2.59375q0 -1.640625 -0.6875 -2.59375q-0.671875 -0.953125 -2.03125 -0.953125q-1.21875 0 -1.9375 0.890625q-0.703125 0.875 -0.703125 2.65625zm16.762451 -5.8125q0.203125 0 0.359375 0.03125q0.171875 0.015625 0.328125 0.0625l0 2.8125q-0.265625 -0.046875 -0.515625 -0.078125q-0.234375 -0.03125 -0.578125 -0.03125q-1.53125 0 -2.265625 0.9375q-0.734375 0.9375 -0.734375 2.515625l0 5.0625l-3.015625 0l0 -11.03125l2.875 0l0 2.046875l0.046875 0q0.46875 -1.078125 1.421875 -1.703125q0.953125 -0.625 2.078125 -0.625zm6.8052673 0q2.453125 0 3.90625 1.6875q1.46875 1.671875 1.46875 4.28125l-0.03125 0.5625l-7.953125 0q0.0625 1.421875 0.75 2.109375q0.6875 0.6875 1.953125 0.6875q0.828125 0 1.515625 -0.421875q0.703125 -0.421875 0.890625 -1.015625l2.65625 0q-0.609375 1.875 -1.890625 2.796875q-1.28125 0.921875 -3.265625 0.921875q-2.546875 0 -4.09375 -1.609375q-1.546875 -1.609375 -1.546875 -4.1875q0 -2.46875 1.578125 -4.140625q1.578125 -1.671875 4.0625 -1.671875zm-2.609375 4.609375l4.9375 0q-0.21875 -1.21875 -0.796875 -1.78125q-0.5625 -0.5625 -1.640625 -0.5625q-1.09375 0 -1.75 0.625q-0.640625 0.625 -0.75 1.71875z" fill-rule="nonzero"/><path fill="#000000" fill-opacity="0.0" d="m171.61417 200.06949l0 0c0 -12.768036 10.35054 -23.118576 23.118576 -23.118576l92.47151 0l0 0c6.131439 0 12.011719 2.4356995 16.34732 6.7712708c4.3355713 4.3355865 6.7712708 10.215881 6.7712708 16.347305l0 92.47153c0 12.768036 -10.350555 23.11856 -23.118591 23.11856l-92.47151 0c-12.768036 0 -23.118576 -10.350525 -23.118576 -23.11856z" fill-rule="evenodd"/><path stroke="#cc0000" stroke-width="4.0" stroke-linejoin="round" stroke-linecap="butt" d="m171.61417 200.06949l0 0c0 -12.768036 10.35054 -23.118576 23.118576 -23.118576l92.47151 0l0 0c6.131439 0 12.011719 2.4356995 16.34732 6.7712708c4.3355713 4.3355865 6.7712708 10.215881 6.7712708 16.347305l0 92.47153c0 12.768036 -10.350555 23.11856 -23.118591 23.11856l-92.47151 0c-12.768036 0 -23.118576 -10.350525 -23.118576 -23.11856z" fill-rule="evenodd"/><path fill="#d9d9d9" d="m182.40158 187.73831l117.13385 0l0 117.13385l-117.13385 0z" fill-rule="evenodd"/><path stroke="#000000" stroke-width="1.0" stroke-linejoin="round" stroke-linecap="butt" d="m182.40158 187.73831l117.13385 0l0 117.13385l-117.13385 0z" fill-rule="evenodd"/><path fill="#000000" fill-opacity="0.0" d="m186.00787 194.94566l90.99213 0l0 45.259842l-90.99213 0z" fill-rule="evenodd"/><path fill="#000000" d="m203.30475 208.83191q2.59375 0 4.421875 1.46875q1.828125 1.46875 2.140625 4.015625l-3.234375 0q-0.21875 -1.203125 -1.1875 -1.9375q-0.96875 -0.734375 -2.140625 -0.734375q-1.96875 0 -3.0625 1.4375q-1.078125 1.421875 -1.078125 3.796875q0 2.25 1.078125 3.671875q1.078125 1.421875 3.0625 1.421875q1.453125 0 2.34375 -0.890625q0.890625 -0.890625 1.109375 -2.515625l3.25 0q-0.296875 2.90625 -2.125 4.5625q-1.8125 1.65625 -4.578125 1.65625q-2.1875 0 -3.90625 -1.0q-1.71875 -1.0 -2.65625 -2.828125q-0.921875 -1.84375 -0.921875 -4.078125q0 -3.515625 2.046875 -5.78125q2.0625 -2.265625 5.4375 -2.265625zm14.02739 4.28125q2.59375 0 4.140625 1.59375q1.5625 1.59375 1.5625 4.21875q0 2.640625 -1.578125 4.21875q-1.5625 1.578125 -4.125 1.578125q-2.5625 0 -4.140625 -1.59375q-1.5625 -1.59375 -1.5625 -4.203125q0 -2.609375 1.53125 -4.203125q1.546875 -1.609375 4.171875 -1.609375zm-2.671875 5.8125q0 1.734375 0.703125 2.625q0.71875 0.890625 1.96875 0.890625q1.28125 0 1.984375 -0.921875q0.703125 -0.921875 0.703125 -2.59375q0 -1.640625 -0.6875 -2.59375q-0.671875 -0.953125 -2.03125 -0.953125q-1.21875 0 -1.9375 0.890625q-0.703125 0.875 -0.703125 2.65625zm16.762451 -5.8125q0.203125 0 0.359375 0.03125q0.171875 0.015625 0.328125 0.0625l0 2.8125q-0.265625 -0.046875 -0.515625 -0.078125q-0.234375 -0.03125 -0.578125 -0.03125q-1.53125 0 -2.265625 0.9375q-0.734375 0.9375 -0.734375 2.515625l0 5.0625l-3.015625 0l0 -11.03125l2.875 0l0 2.046875l0.046875 0q0.46875 -1.078125 1.421875 -1.703125q0.953125 -0.625 2.078125 -0.625zm6.8052673 0q2.453125 0 3.90625 1.6875q1.46875 1.671875 1.46875 4.28125l-0.03125 0.5625l-7.953125 0q0.0625 1.421875 0.75 2.109375q0.6875 0.6875 1.953125 0.6875q0.828125 0 1.515625 -0.421875q0.703125 -0.421875 0.890625 -1.015625l2.65625 0q-0.609375 1.875 -1.890625 2.796875q-1.28125 0.921875 -3.265625 0.921875q-2.546875 0 -4.09375 -1.609375q-1.546875 -1.609375 -1.546875 -4.1875q0 -2.46875 1.578125 -4.140625q1.578125 -1.671875 4.0625 -1.671875zm-2.609375 4.609375l4.9375 0q-0.21875 -1.21875 -0.796875 -1.78125q-0.5625 -0.5625 -1.640625 -0.5625q-1.09375 0 -1.75 0.625q-0.640625 0.625 -0.75 1.71875z" fill-rule="nonzero"/><path fill="#d9d9d9" d="m459.87665 187.73831l117.13385 0l0 117.13385l-117.13385 0z" fill-rule="evenodd"/><path stroke="#000000" stroke-width="1.0" stroke-linejoin="round" stroke-linecap="butt" d="m459.87665 187.73831l117.13385 0l0 117.13385l-117.13385 0z" fill-rule="evenodd"/><path fill="#000000" fill-opacity="0.0" d="m463.48294 194.94566l90.992096 0l0 45.259842l-90.992096 0z" fill-rule="evenodd"/><path fill="#000000" d="m480.77982 208.83191q2.59375 0 4.421875 1.46875q1.828125 1.46875 2.140625 4.015625l-3.234375 0q-0.21875 -1.203125 -1.1875 -1.9375q-0.96875 -0.734375 -2.140625 -0.734375q-1.96875 0 -3.0625 1.4375q-1.078125 1.421875 -1.078125 3.796875q0 2.25 1.078125 3.671875q1.078125 1.421875 3.0625 1.421875q1.453125 0 2.34375 -0.890625q0.890625 -0.890625 1.109375 -2.515625l3.25 0q-0.296875 2.90625 -2.125 4.5625q-1.8125 1.65625 -4.578125 1.65625q-2.1875 0 -3.90625 -1.0q-1.71875 -1.0 -2.65625 -2.828125q-0.921875 -1.84375 -0.921875 -4.078125q0 -3.515625 2.046875 -5.78125q2.0625 -2.265625 5.4375 -2.265625zm14.027374 4.28125q2.59375 0 4.140625 1.59375q1.5625 1.59375 1.5625 4.21875q0 2.640625 -1.578125 4.21875q-1.5625 1.578125 -4.125 1.578125q-2.5625 0 -4.140625 -1.59375q-1.5625 -1.59375 -1.5625 -4.203125q0 -2.609375 1.53125 -4.203125q1.546875 -1.609375 4.171875 -1.609375zm-2.671875 5.8125q0 1.734375 0.703125 2.625q0.71875 0.890625 1.96875 0.890625q1.28125 0 1.984375 -0.921875q0.703125 -0.921875 0.703125 -2.59375q0 -1.640625 -0.6875 -2.59375q-0.671875 -0.953125 -2.03125 -0.953125q-1.21875 0 -1.9375 0.890625q-0.703125 0.875 -0.703125 2.65625zm16.762451 -5.8125q0.203125 0 0.359375 0.03125q0.171875 0.015625 0.328125 0.0625l0 2.8125q-0.265625 -0.046875 -0.515625 -0.078125q-0.234375 -0.03125 -0.578125 -0.03125q-1.53125 0 -2.265625 0.9375q-0.734375 0.9375 -0.734375 2.515625l0 5.0625l-3.015625 0l0 -11.03125l2.875 0l0 2.046875l0.046875 0q0.46875 -1.078125 1.421875 -1.703125q0.953125 -0.625 2.078125 -0.625zm6.805298 0q2.453125 0 3.90625 1.6875q1.46875 1.671875 1.46875 4.28125l-0.03125 0.5625l-7.953125 0q0.0625 1.421875 0.75 2.109375q0.6875 0.6875 1.953125 0.6875q0.828125 0 1.515625 -0.421875q0.703125 -0.421875 0.890625 -1.015625l2.65625 0q-0.609375 1.875 -1.890625 2.796875q-1.28125 0.921875 -3.265625 0.921875q-2.546875 0 -4.0937805 -1.609375q-1.546875 -1.609375 -1.546875 -4.1875q0 -2.46875 1.578125 -4.140625q1.5781555 -1.671875 4.0625305 -1.671875zm-2.609375 4.609375l4.9375 0q-0.21875 -1.21875 -0.796875 -1.78125q-0.5625 -0.5625 -1.640625 -0.5625q-1.09375 0 -1.75 0.625q-0.640625 0.625 -0.75 1.71875z" fill-rule="nonzero"/><path fill="#d9d9d9" d="m321.1391 187.73831l117.13388 0l0 117.13385l-117.13388 0z" fill-rule="evenodd"/><path stroke="#000000" stroke-width="1.0" stroke-linejoin="round" stroke-linecap="butt" d="m321.1391 187.73831l117.13388 0l0 117.13385l-117.13388 0z" fill-rule="evenodd"/><path fill="#000000" fill-opacity="0.0" d="m324.7454 194.94566l90.99213 0l0 45.259842l-90.99213 0z" fill-rule="evenodd"/><path fill="#000000" d="m342.04227 208.83191q2.59375 0 4.421875 1.46875q1.828125 1.46875 2.140625 4.015625l-3.234375 0q-0.21875 -1.203125 -1.1875 -1.9375q-0.96875 -0.734375 -2.140625 -0.734375q-1.96875 0 -3.0625 1.4375q-1.078125 1.421875 -1.078125 3.796875q0 2.25 1.078125 3.671875q1.078125 1.421875 3.0625 1.421875q1.453125 0 2.34375 -0.890625q0.890625 -0.890625 1.109375 -2.515625l3.25 0q-0.296875 2.90625 -2.125 4.5625q-1.8125 1.65625 -4.578125 1.65625q-2.1875 0 -3.90625 -1.0q-1.71875 -1.0 -2.65625 -2.828125q-0.921875 -1.84375 -0.921875 -4.078125q0 -3.515625 2.046875 -5.78125q2.0625 -2.265625 5.4375 -2.265625zm14.027405 4.28125q2.59375 0 4.140625 1.59375q1.5625 1.59375 1.5625 4.21875q0 2.640625 -1.578125 4.21875q-1.5625 1.578125 -4.125 1.578125q-2.5625 0 -4.140625 -1.59375q-1.5625 -1.59375 -1.5625 -4.203125q0 -2.609375 1.53125 -4.203125q1.546875 -1.609375 4.171875 -1.609375zm-2.671875 5.8125q0 1.734375 0.703125 2.625q0.71875 0.890625 1.96875 0.890625q1.28125 0 1.984375 -0.921875q0.703125 -0.921875 0.703125 -2.59375q0 -1.640625 -0.6875 -2.59375q-0.671875 -0.953125 -2.03125 -0.953125q-1.21875 0 -1.9375 0.890625q-0.703125 0.875 -0.703125 2.65625zm16.762451 -5.8125q0.203125 0 0.359375 0.03125q0.171875 0.015625 0.328125 0.0625l0 2.8125q-0.265625 -0.046875 -0.515625 -0.078125q-0.234375 -0.03125 -0.578125 -0.03125q-1.53125 0 -2.265625 0.9375q-0.734375 0.9375 -0.734375 2.515625l0 5.0625l-3.015625 0l0 -11.03125l2.875 0l0 2.046875l0.046875 0q0.46875 -1.078125 1.421875 -1.703125q0.953125 -0.625 2.078125 -0.625zm6.8052673 0q2.453125 0 3.90625 1.6875q1.46875 1.671875 1.46875 4.28125l-0.03125 0.5625l-7.953125 0q0.0625 1.421875 0.75 2.109375q0.6875 0.6875 1.953125 0.6875q0.828125 0 1.515625 -0.421875q0.703125 -0.421875 0.890625 -1.015625l2.65625 0q-0.609375 1.875 -1.890625 2.796875q-1.28125 0.921875 -3.265625 0.921875q-2.546875 0 -4.09375 -1.609375q-1.546875 -1.609375 -1.546875 -4.1875q0 -2.46875 1.578125 -4.140625q1.578125 -1.671875 4.0625 -1.671875zm-2.609375 4.609375l4.9375 0q-0.21875 -1.21875 -0.796875 -1.78125q-0.5625 -0.5625 -1.640625 -0.5625q-1.09375 0 -1.75 0.625q-0.640625 0.625 -0.75 1.71875z" fill-rule="nonzero"/><path fill="#000000" fill-opacity="0.0" d="m173.16536 190.57297l-47.02363 183.08661" fill-rule="evenodd"/><path stroke="#cc0000" stroke-width="3.0" stroke-linejoin="round" stroke-linecap="butt" d="m173.16536 190.57297l-47.02363 183.08661" fill-rule="evenodd"/><path fill="#000000" fill-opacity="0.0" d="m308.30185 190.4916l47.873993 183.27559" fill-rule="evenodd"/><path stroke="#cc0000" stroke-width="3.0" stroke-linejoin="round" stroke-linecap="butt" d="m308.30185 190.4916l47.873993 183.27559" fill-rule="evenodd"/><path fill="#000000" fill-opacity="0.0" d="m125.20473 380.82834l0 0c0 -21.31195 17.276749 -38.588715 38.5887 -38.588715l154.35016 0l0 0c10.2343445 0 20.04956 4.0655823 27.286316 11.302368c7.236786 7.236786 11.302368 17.051971 11.302368 27.286346l0 154.38162c0 21.31195 -17.276733 38.588745 -38.588684 38.588745l-154.35016 0l0 0c-21.31195 0 -38.5887 -17.276794 -38.5887 -38.588745z" fill-rule="evenodd"/><path stroke="#cc0000" stroke-width="4.0" stroke-linejoin="round" stroke-linecap="butt" d="m125.20473 380.82834l0 0c0 -21.31195 17.276749 -38.588715 38.5887 -38.588715l154.35016 0l0 0c10.2343445 0 20.04956 4.0655823 27.286316 11.302368c7.236786 7.236786 11.302368 17.051971 11.302368 27.286346l0 154.38162c0 21.31195 -17.276733 38.588745 -38.588684 38.588745l-154.35016 0l0 0c-21.31195 0 -38.5887 -17.276794 -38.5887 -38.588745z" fill-rule="evenodd"/><path fill="#d9d9d9" d="m142.12207 359.1709l197.6868 0l0 197.68683l-197.6868 0z" fill-rule="evenodd"/><path stroke="#000000" stroke-width="1.0" stroke-linejoin="round" stroke-linecap="butt" d="m142.12207 359.1709l197.6868 0l0 197.68683l-197.6868 0z" fill-rule="evenodd"/><path fill="#000000" fill-opacity="0.0" d="m141.13434 360.55695l153.56741 0l0 45.235687l-153.56741 0z" fill-rule="evenodd"/><path fill="#000000" d="m158.43121 374.4432q2.59375 0 4.421875 1.46875q1.828125 1.46875 2.140625 4.015625l-3.234375 0q-0.21875 -1.203125 -1.1875 -1.9375q-0.96875 -0.734375 -2.140625 -0.734375q-1.96875 0 -3.0625 1.4375q-1.078125 1.421875 -1.078125 3.796875q0 2.25 1.078125 3.671875q1.078125 1.421875 3.0625 1.421875q1.453125 0 2.34375 -0.890625q0.890625 -0.890625 1.109375 -2.515625l3.25 0q-0.296875 2.90625 -2.125 4.5625q-1.8125 1.65625 -4.578125 1.65625q-2.1875 0 -3.90625 -1.0q-1.71875 -1.0 -2.65625 -2.828125q-0.921875 -1.84375 -0.921875 -4.078125q0 -3.515625 2.046875 -5.78125q2.0625 -2.265625 5.4375 -2.265625zm14.02739 4.28125q2.59375 0 4.140625 1.59375q1.5625 1.59375 1.5625 4.21875q0 2.640625 -1.578125 4.21875q-1.5625 1.578125 -4.125 1.578125q-2.5625 0 -4.140625 -1.59375q-1.5625 -1.59375 -1.5625 -4.203125q0 -2.609375 1.53125 -4.203125q1.546875 -1.609375 4.171875 -1.609375zm-2.671875 5.8125q0 1.734375 0.703125 2.625q0.71875 0.890625 1.96875 0.890625q1.28125 0 1.984375 -0.921875q0.703125 -0.921875 0.703125 -2.59375q0 -1.640625 -0.6875 -2.59375q-0.671875 -0.953125 -2.03125 -0.953125q-1.21875 0 -1.9375 0.890625q-0.703125 0.875 -0.703125 2.65625zm16.762451 -5.8125q0.203125 0 0.359375 0.03125q0.171875 0.015625 0.328125 0.0625l0 2.8125q-0.265625 -0.046875 -0.515625 -0.078125q-0.234375 -0.03125 -0.578125 -0.03125q-1.53125 0 -2.265625 0.9375q-0.734375 0.9375 -0.734375 2.515625l0 5.0625l-3.015625 0l0 -11.03125l2.875 0l0 2.046875l0.046875 0q0.46875 -1.078125 1.421875 -1.703125q0.953125 -0.625 2.078125 -0.625zm6.8052673 0q2.453125 0 3.90625 1.6875q1.46875 1.671875 1.46875 4.28125l-0.03125 0.5625l-7.953125 0q0.0625 1.421875 0.75 2.109375q0.6875 0.6875 1.953125 0.6875q0.828125 0 1.515625 -0.421875q0.703125 -0.421875 0.890625 -1.015625l2.65625 0q-0.609375 1.875 -1.890625 2.796875q-1.28125 0.921875 -3.265625 0.921875q-2.546875 0 -4.09375 -1.609375q-1.546875 -1.609375 -1.546875 -4.1875q0 -2.46875 1.578125 -4.140625q1.578125 -1.671875 4.0625 -1.671875zm-2.609375 4.609375l4.9375 0q-0.21875 -1.21875 -0.796875 -1.78125q-0.5625 -0.5625 -1.640625 -0.5625q-1.09375 0 -1.75 0.625q-0.640625 0.625 -0.75 1.71875z" fill-rule="nonzero"/><path fill="#b7b7b7" d="m151.47113 405.71338l178.99213 0l0 30.992126l-178.99213 0z" fill-rule="evenodd"/><path stroke="#000000" stroke-width="1.0" stroke-linejoin="round" stroke-linecap="butt" d="m151.47113 405.71338l178.99213 0l0 30.992126l-178.99213 0z" fill-rule="evenodd"/><path fill="#000000" d="m203.47816 414.81693l0 10.859375l6.5 0l0 2.453125l-9.4375 0l0 -13.3125l2.9375 0zm14.152679 0.25l0 13.0625l-2.640625 0l0 -8.46875l-3.28125 0l0 -2.0l0.171875 0q1.59375 0 2.515625 -0.65625q0.9375 -0.65625 1.125 -1.9375l2.109375 0zm15.512146 -0.578125q2.265625 0 3.859375 1.28125q1.59375 1.28125 1.875 3.515625l-2.828125 0q-0.203125 -1.046875 -1.046875 -1.6875q-0.84375 -0.640625 -1.875 -0.640625q-1.71875 0 -2.671875 1.25q-0.9375 1.25 -0.9375 3.3125q0 1.984375 0.9375 3.21875q0.9375 1.234375 2.6875 1.234375q1.265625 0 2.046875 -0.765625q0.78125 -0.78125 0.96875 -2.203125l2.84375 0q-0.265625 2.53125 -1.859375 3.984375q-1.578125 1.453125 -4.0 1.453125q-1.921875 0 -3.421875 -0.875q-1.5 -0.875 -2.328125 -2.46875q-0.8125 -1.609375 -0.8125 -3.578125q0 -3.0625 1.796875 -5.046875q1.796875 -1.984375 4.765625 -1.984375zm11.772232 3.734375q2.140625 0 3.1875 0.703125q1.046875 0.703125 1.046875 1.984375l0 5.171875q0 0.578125 0.0625 1.171875q0.078125 0.578125 0.265625 0.875l-2.6875 0q-0.078125 -0.21875 -0.125 -0.453125q-0.046875 -0.234375 -0.0625 -0.46875q-0.5625 0.578125 -1.390625 0.890625q-0.8125 0.296875 -1.859375 0.296875q-1.484375 0 -2.390625 -0.75q-0.890625 -0.75 -0.890625 -2.140625q0 -1.359375 0.84375 -2.0625q0.84375 -0.71875 3.046875 -0.96875q1.546875 -0.140625 2.03125 -0.375q0.5 -0.234375 0.5 -0.8125q0 -0.640625 -0.375 -0.96875q-0.375 -0.328125 -1.328125 -0.328125q-0.828125 0 -1.265625 0.359375q-0.4375 0.34375 -0.5 1.109375l-2.65625 0q0.109375 -1.59375 1.296875 -2.40625q1.203125 -0.828125 3.25 -0.828125zm-2.1875 7.171875q0 0.5625 0.390625 0.890625q0.390625 0.328125 1.234375 0.328125q1.0625 0 1.59375 -0.546875q0.546875 -0.5625 0.546875 -1.625l0 -1.03125q-0.234375 0.1875 -0.625 0.28125q-0.390625 0.09375 -1.40625 0.25q-0.890625 0.109375 -1.3125 0.46875q-0.421875 0.34375 -0.421875 0.984375zm13.087769 -7.171875q1.875 0 3.15625 0.96875q1.28125 0.96875 1.390625 2.6875l-2.609375 0q-0.109375 -0.828125 -0.609375 -1.234375q-0.484375 -0.421875 -1.34375 -0.421875q-1.0625 0 -1.65625 0.875q-0.59375 0.875 -0.59375 2.265625q0 1.375 0.578125 2.203125q0.59375 0.828125 1.625 0.828125q0.875 0 1.421875 -0.5q0.546875 -0.5 0.6875 -1.46875l2.546875 0q-0.265625 1.921875 -1.5 2.953125q-1.21875 1.015625 -3.140625 1.015625q-2.15625 0 -3.515625 -1.375q-1.359375 -1.390625 -1.359375 -3.578125q0 -2.328125 1.328125 -3.765625q1.34375 -1.453125 3.59375 -1.453125zm8.744019 -3.40625l0 5.015625l0.0625 0q0.421875 -0.71875 1.1875 -1.15625q0.765625 -0.453125 1.640625 -0.453125q1.84375 0 2.671875 0.9375q0.84375 0.9375 0.84375 2.9375l0 6.03125l-2.65625 0l0 -5.53125q0 -1.125 -0.390625 -1.703125q-0.390625 -0.578125 -1.296875 -0.578125q-1.109375 0 -1.59375 0.65625q-0.46875 0.65625 -0.46875 2.015625l0 5.140625l-2.640625 0l0 -13.3125l2.640625 0zm12.871429 3.40625q2.140625 0 3.421875 1.484375q1.28125 1.46875 1.28125 3.75l-0.03125 0.484375l-6.953125 0q0.0625 1.25 0.65625 1.859375q0.59375 0.59375 1.703125 0.59375q0.71875 0 1.328125 -0.359375q0.609375 -0.375 0.78125 -0.890625l2.328125 0q-0.53125 1.640625 -1.65625 2.453125q-1.125 0.796875 -2.859375 0.796875q-2.234375 0 -3.59375 -1.40625q-1.34375 -1.421875 -1.34375 -3.671875q0 -2.15625 1.375 -3.625q1.390625 -1.46875 3.5625 -1.46875zm-2.28125 4.046875l4.3125 0q-0.1875 -1.0625 -0.6875 -1.546875q-0.5 -0.5 -1.4375 -0.5q-0.96875 0 -1.53125 0.546875q-0.5625 0.546875 -0.65625 1.5z" fill-rule="nonzero"/><path fill="#b7b7b7" d="m151.47113 479.33472l178.99213 0l0 30.992126l-178.99213 0z" fill-rule="evenodd"/><path stroke="#000000" stroke-width="1.0" stroke-linejoin="round" stroke-linecap="butt" d="m151.47113 479.33472l178.99213 0l0 30.992126l-178.99213 0z" fill-rule="evenodd"/><path fill="#000000" d="m215.14716 488.11017q2.265625 0 3.859375 1.28125q1.59375 1.28125 1.875 3.515625l-2.828125 0q-0.203125 -1.046875 -1.046875 -1.6875q-0.84375 -0.640625 -1.875 -0.640625q-1.71875 0 -2.671875 1.25q-0.9375 1.25 -0.9375 3.3125q0 1.984375 0.9375 3.21875q0.9375 1.234375 2.6875 1.234375q1.265625 0 2.046875 -0.765625q0.78125 -0.78125 0.96875 -2.203125l2.84375 0q-0.265625 2.53125 -1.859375 3.984375q-1.578125 1.453125 -4.0 1.453125q-1.921875 0 -3.421875 -0.875q-1.5 -0.875 -2.328125 -2.46875q-0.8125 -1.609375 -0.8125 -3.578125q0 -3.0625 1.796875 -5.046875q1.796875 -1.984375 4.765625 -1.984375zm12.250092 3.734375q2.28125 0 3.640625 1.40625q1.359375 1.390625 1.359375 3.6875q0 2.3125 -1.375 3.703125q-1.375 1.375 -3.625 1.375q-2.234375 0 -3.609375 -1.390625q-1.375 -1.390625 -1.375 -3.6875q0 -2.28125 1.34375 -3.6875q1.359375 -1.40625 3.640625 -1.40625zm-2.328125 5.09375q0 1.53125 0.625 2.3125q0.625 0.765625 1.703125 0.765625q1.140625 0 1.75 -0.796875q0.609375 -0.8125 0.609375 -2.28125q0 -1.4375 -0.59375 -2.265625q-0.59375 -0.828125 -1.78125 -0.828125q-1.0625 0 -1.6875 0.765625q-0.625 0.765625 -0.625 2.328125zm14.583481 -5.09375q1.84375 0 2.671875 0.9375q0.84375 0.9375 0.84375 2.9375l0 6.03125l-2.65625 0l0 -5.53125q0 -1.125 -0.390625 -1.703125q-0.390625 -0.578125 -1.296875 -0.578125q-1.109375 0 -1.59375 0.65625q-0.46875 0.65625 -0.46875 2.015625l0 5.140625l-2.640625 0l0 -9.640625l2.515625 0l0 1.34375l0.046875 0q0.484375 -0.78125 1.25 -1.1875q0.78125 -0.421875 1.71875 -0.421875zm8.871429 -2.625l0 2.890625l1.9375 0l0 1.765625l-1.9375 0l0 4.84375q0 0.59375 0.21875 0.828125q0.234375 0.21875 0.90625 0.21875q0.234375 0 0.4375 -0.015625q0.203125 -0.015625 0.375 -0.046875l0 2.0625q-0.328125 0.0625 -0.734375 0.078125q-0.390625 0.015625 -0.796875 0.015625q-1.71875 0 -2.390625 -0.578125q-0.65625 -0.59375 -0.65625 -1.65625l0 -5.75l-1.609375 0l0 -1.765625l1.609375 0l0 -2.890625l2.640625 0zm8.833572 2.625q0.1875 0 0.328125 0.03125q0.140625 0.015625 0.265625 0.0625l0 2.46875q-0.21875 -0.046875 -0.4375 -0.0625q-0.21875 -0.03125 -0.5 -0.03125q-1.34375 0 -1.984375 0.828125q-0.640625 0.8125 -0.640625 2.1875l0 4.421875l-2.640625 0l0 -9.640625l2.515625 0l0 1.78125l0.03125 0q0.421875 -0.9375 1.25 -1.484375q0.828125 -0.5625 1.8125 -0.5625zm6.176941 0q2.28125 0 3.640625 1.40625q1.359375 1.390625 1.359375 3.6875q0 2.3125 -1.375 3.703125q-1.375 1.375 -3.625 1.375q-2.234375 0 -3.609375 -1.390625q-1.375 -1.390625 -1.375 -3.6875q0 -2.28125 1.34375 -3.6875q1.359375 -1.40625 3.640625 -1.40625zm-2.328125 5.09375q0 1.53125 0.625 2.3125q0.625 0.765625 1.703125 0.765625q1.140625 0 1.75 -0.796875q0.609375 -0.8125 0.609375 -2.28125q0 -1.4375 -0.59375 -2.265625q-0.59375 -0.828125 -1.78125 -0.828125q-1.0625 0 -1.6875 0.765625q-0.625 0.765625 -0.625 2.328125zm11.770996 -8.5l0 13.3125l-2.65625 0l0 -13.3125l2.65625 0z" fill-rule="nonzero"/><path fill="#b7b7b7" d="m151.47113 516.13983l178.99213 0l0 30.992065l-178.99213 0z" fill-rule="evenodd"/><path stroke="#000000" stroke-width="1.0" stroke-linejoin="round" stroke-linecap="butt" d="m151.47113 516.13983l178.99213 0l0 30.992065l-178.99213 0z" fill-rule="evenodd"/><path fill="#000000" d="m179.63129 525.24335l0 2.453125l-6.4375 0l0 3.078125l5.578125 0l0 2.28125l-5.578125 0l0 5.5l-2.9375 0l0 -13.3125l9.375 0zm3.3297577 3.671875l0 5.515625q0 1.09375 0.375 1.703125q0.390625 0.59375 1.328125 0.59375q1.09375 0 1.5625 -0.65625q0.484375 -0.671875 0.484375 -2.015625l0 -5.140625l2.65625 0l0 9.640625l-2.53125 0l0 -1.34375l-0.046875 0q-0.5 0.8125 -1.296875 1.21875q-0.796875 0.390625 -1.671875 0.390625q-1.796875 0 -2.65625 -0.90625q-0.84375 -0.921875 -0.84375 -2.96875l0 -6.03125l2.640625 0zm13.949554 -0.265625q1.84375 0 2.671875 0.9375q0.84375 0.9375 0.84375 2.9375l0 6.03125l-2.65625 0l0 -5.53125q0 -1.125 -0.390625 -1.703125q-0.390625 -0.578125 -1.296875 -0.578125q-1.109375 0 -1.59375 0.65625q-0.46875 0.65625 -0.46875 2.015625l0 5.140625l-2.640625 0l0 -9.640625l2.515625 0l0 1.34375l0.046875 0q0.484375 -0.78125 1.25 -1.1875q0.78125 -0.421875 1.71875 -0.421875zm10.137054 0q1.875 0 3.15625 0.96875q1.28125 0.96875 1.390625 2.6875l-2.609375 0q-0.109375 -0.828125 -0.609375 -1.234375q-0.484375 -0.421875 -1.34375 -0.421875q-1.0625 0 -1.65625 0.875q-0.59375 0.875 -0.59375 2.265625q0 1.375 0.578125 2.203125q0.59375 0.828125 1.625 0.828125q0.875 0 1.421875 -0.5q0.546875 -0.5 0.6875 -1.46875l2.546875 0q-0.265625 1.921875 -1.5 2.953125q-1.21875 1.015625 -3.140625 1.015625q-2.15625 0 -3.515625 -1.375q-1.359375 -1.390625 -1.359375 -3.578125q0 -2.328125 1.328125 -3.765625q1.34375 -1.453125 3.59375 -1.453125zm9.447144 -2.625l0 2.890625l1.9375 0l0 1.765625l-1.9375 0l0 4.84375q0 0.59375 0.21875 0.828125q0.234375 0.21875 0.90625 0.21875q0.234375 0 0.4375 -0.015625q0.203125 -0.015625 0.375 -0.046875l0 2.0625q-0.328125 0.0625 -0.734375 0.078125q-0.390625 0.015625 -0.796875 0.015625q-1.71875 0 -2.390625 -0.578125q-0.65625 -0.59375 -0.65625 -1.65625l0 -5.75l-1.609375 0l0 -1.765625l1.609375 0l0 -2.890625l2.640625 0zm5.9429474 -0.78125l0 2.171875l-2.65625 0l0 -2.171875l2.65625 0zm0 3.671875l0 9.640625l-2.65625 0l0 -9.640625l2.65625 0zm6.7629395 -0.265625q2.28125 0 3.640625 1.40625q1.359375 1.390625 1.359375 3.6875q0 2.3125 -1.375 3.703125q-1.375 1.375 -3.625 1.375q-2.234375 0 -3.609375 -1.390625q-1.375 -1.390625 -1.375 -3.6875q0 -2.28125 1.34375 -3.6875q1.359375 -1.40625 3.640625 -1.40625zm-2.328125 5.09375q0 1.53125 0.625 2.3125q0.625 0.765625 1.703125 0.765625q1.140625 0 1.75 -0.796875q0.609375 -0.8125 0.609375 -2.28125q0 -1.4375 -0.59375 -2.265625q-0.59375 -0.828125 -1.78125 -0.828125q-1.0625 0 -1.6875 0.765625q-0.625 0.765625 -0.625 2.328125zm14.583481 -5.09375q1.84375 0 2.671875 0.9375q0.84375 0.9375 0.84375 2.9375l0 6.03125l-2.65625 0l0 -5.53125q0 -1.125 -0.390625 -1.703125q-0.390625 -0.578125 -1.296875 -0.578125q-1.109375 0 -1.59375 0.65625q-0.46875 0.65625 -0.46875 2.015625l0 5.140625l-2.640625 0l0 -9.640625l2.515625 0l0 1.34375l0.046875 0q0.484375 -0.78125 1.25 -1.1875q0.78125 -0.421875 1.71875 -0.421875zm9.949554 0q2.140625 0 3.1875 0.703125q1.046875 0.703125 1.046875 1.984375l0 5.171875q0 0.578125 0.0625 1.171875q0.078125 0.578125 0.265625 0.875l-2.6875 0q-0.078125 -0.21875 -0.125 -0.453125q-0.046875 -0.234375 -0.0625 -0.46875q-0.5625 0.578125 -1.390625 0.890625q-0.8125 0.296875 -1.859375 0.296875q-1.484375 0 -2.390625 -0.75q-0.890625 -0.75 -0.890625 -2.140625q0 -1.359375 0.84375 -2.0625q0.84375 -0.71875 3.046875 -0.96875q1.546875 -0.140625 2.03125 -0.375q0.5 -0.234375 0.5 -0.8125q0 -0.640625 -0.375 -0.96875q-0.375 -0.328125 -1.328125 -0.328125q-0.828125 0 -1.265625 0.359375q-0.4375 0.34375 -0.5 1.109375l-2.65625 0q0.109375 -1.59375 1.296875 -2.40625q1.203125 -0.828125 3.25 -0.828125zm-2.1875 7.171875q0 0.5625 0.390625 0.890625q0.390625 0.328125 1.234375 0.328125q1.0625 0 1.59375 -0.546875q0.546875 -0.5625 0.546875 -1.625l0 -1.03125q-0.234375 0.1875 -0.625 0.28125q-0.390625 0.09375 -1.40625 0.25q-0.890625 0.109375 -1.3125 0.46875q-0.421875 0.34375 -0.421875 0.984375zm11.197159 -10.578125l0 13.3125l-2.65625 0l0 -13.3125l2.65625 0zm10.414978 0l0 8.359375q0 1.4375 0.65625 2.125q0.671875 0.671875 2.09375 0.671875q1.53125 0 2.140625 -0.65625q0.625 -0.671875 0.625 -2.140625l0 -8.359375l2.921875 0l0 8.359375q0 2.484375 -1.453125 3.875q-1.4375 1.390625 -4.234375 1.390625q-2.8125 0 -4.25 -1.359375q-1.421875 -1.375 -1.421875 -3.90625l0 -8.359375l2.921875 0zm16.218842 3.40625q1.84375 0 2.671875 0.9375q0.84375 0.9375 0.84375 2.9375l0 6.03125l-2.65625 0l0 -5.53125q0 -1.125 -0.390625 -1.703125q-0.390625 -0.578125 -1.296875 -0.578125q-1.109375 0 -1.59375 0.65625q-0.46875 0.65625 -0.46875 2.015625l0 5.140625l-2.640625 0l0 -9.640625l2.515625 0l0 1.34375l0.046875 0q0.484375 -0.78125 1.25 -1.1875q0.78125 -0.421875 1.71875 -0.421875zm8.246429 -3.40625l0 2.171875l-2.65625 0l0 -2.171875l2.65625 0zm0 3.671875l0 9.640625l-2.65625 0l0 -9.640625l2.65625 0zm5.4348145 -2.890625l0 2.890625l1.9375 0l0 1.765625l-1.9375 0l0 4.84375q0 0.59375 0.21875 0.828125q0.234375 0.21875 0.90625 0.21875q0.234375 0 0.4375 -0.015625q0.203125 -0.015625 0.375 -0.046875l0 2.0625q-0.328125 0.0625 -0.734375 0.078125q-0.390625 0.015625 -0.796875 0.015625q-1.71875 0 -2.390625 -0.578125q-0.65625 -0.59375 -0.65625 -1.65625l0 -5.75l-1.609375 0l0 -1.765625l1.609375 0l0 -2.890625l2.640625 0zm7.1773376 2.625q1.96875 0 3.03125 0.78125q1.078125 0.78125 1.21875 2.296875l-2.515625 0q-0.0625 -0.6875 -0.515625 -1.0q-0.453125 -0.3125 -1.3125 -0.3125q-0.75 0 -1.109375 0.234375q-0.34375 0.234375 -0.34375 0.671875q0 0.4375 0.453125 0.734375q0.46875 0.28125 1.859375 0.546875q2.21875 0.421875 2.96875 1.09375q0.765625 0.671875 0.765625 1.765625q0 1.640625 -1.203125 2.5q-1.1875 0.859375 -3.1875 0.859375q-2.015625 0 -3.234375 -0.84375q-1.21875 -0.859375 -1.3125 -2.5625l2.53125 0q0 0.765625 0.578125 1.203125q0.578125 0.421875 1.453125 0.421875q0.765625 0 1.25 -0.328125q0.484375 -0.328125 0.484375 -0.890625q0 -0.515625 -0.625 -0.828125q-0.625 -0.3125 -2.296875 -0.671875q-1.671875 -0.328125 -2.40625 -0.9375q-0.734375 -0.609375 -0.734375 -1.640625q0 -1.53125 1.078125 -2.3125q1.09375 -0.78125 3.125 -0.78125z" fill-rule="nonzero"/><path fill="#b7b7b7" d="m151.47113 442.5244l178.99213 0l0 30.992126l-178.99213 0z" fill-rule="evenodd"/><path stroke="#000000" stroke-width="1.0" stroke-linejoin="round" stroke-linecap="butt" d="m151.47113 442.5244l178.99213 0l0 30.992126l-178.99213 0z" fill-rule="evenodd"/><path fill="#000000" d="m193.79585 451.62796q1.609375 0 2.71875 1.046875q1.109375 1.03125 1.109375 2.625q0 1.265625 -0.53125 2.09375q-0.515625 0.8125 -1.59375 1.25l0 0.03125q0.953125 0.25 1.453125 1.125q0.5 0.875 0.546875 2.671875q0.03125 1.796875 0.515625 2.46875l-2.9375 0q-0.25 -0.640625 -0.34375 -2.09375q-0.140625 -1.96875 -0.671875 -2.53125q-0.515625 -0.578125 -1.59375 -0.578125l-3.0 0l0 5.203125l-2.9375 0l0 -13.3125l7.265625 0zm-1.0625 6.015625q0.921875 0 1.4375 -0.4375q0.515625 -0.453125 0.515625 -1.46875q0 -0.9375 -0.5 -1.390625q-0.5 -0.453125 -1.453125 -0.453125l-3.265625 0l0 3.75l3.265625 0zm11.457321 -2.609375q2.140625 0 3.421875 1.484375q1.28125 1.46875 1.28125 3.75l-0.03125 0.484375l-6.953125 0q0.0625 1.25 0.65625 1.859375q0.59375 0.59375 1.703125 0.59375q0.71875 0 1.328125 -0.359375q0.609375 -0.375 0.78125 -0.890625l2.328125 0q-0.53125 1.640625 -1.65625 2.453125q-1.125 0.796875 -2.859375 0.796875q-2.234375 0 -3.59375 -1.40625q-1.34375 -1.421875 -1.34375 -3.671875q0 -2.15625 1.375 -3.625q1.390625 -1.46875 3.5625 -1.46875zm-2.28125 4.046875l4.3125 0q-0.1875 -1.0625 -0.6875 -1.546875q-0.5 -0.5 -1.4375 -0.5q-0.96875 0 -1.53125 0.546875q-0.5625 0.546875 -0.65625 1.5zm12.369019 -4.046875q1.0625 0 1.75 0.390625q0.6875 0.390625 1.125 1.15625l0.046875 0l0 -1.28125l2.515625 0l0 9.109375q0 1.9375 -1.234375 3.0625q-1.234375 1.125 -3.75 1.125q-1.703125 0 -2.9375 -0.828125q-1.21875 -0.8125 -1.328125 -2.265625l2.625 0q0.171875 0.6875 0.6875 1.0q0.515625 0.328125 1.28125 0.328125q1.03125 0 1.578125 -0.625q0.5625 -0.609375 0.5625 -1.703125l0 -1.34375l-0.046875 0q-0.390625 0.71875 -1.15625 1.109375q-0.75 0.390625 -1.734375 0.390625q-1.953125 0 -3.046875 -1.296875q-1.078125 -1.296875 -1.078125 -3.546875q0 -2.046875 1.140625 -3.40625q1.140625 -1.375 3.0 -1.375zm-1.484375 4.734375q0 1.359375 0.5625 2.125q0.5625 0.765625 1.578125 0.765625q1.046875 0 1.65625 -0.765625q0.609375 -0.765625 0.609375 -1.90625q0 -1.421875 -0.578125 -2.1875q-0.578125 -0.765625 -1.6875 -0.765625q-0.984375 0 -1.5625 0.75q-0.578125 0.75 -0.578125 1.984375zm11.770981 -8.140625l0 2.171875l-2.65625 0l0 -2.171875l2.65625 0zm0 3.671875l0 9.640625l-2.65625 0l0 -9.640625l2.65625 0zm6.0441895 -0.265625q1.96875 0 3.03125 0.78125q1.078125 0.78125 1.21875 2.296875l-2.515625 0q-0.0625 -0.6875 -0.515625 -1.0q-0.453125 -0.3125 -1.3125 -0.3125q-0.75 0 -1.109375 0.234375q-0.34375 0.234375 -0.34375 0.671875q0 0.4375 0.453125 0.734375q0.46875 0.28125 1.859375 0.546875q2.21875 0.421875 2.96875 1.09375q0.765625 0.671875 0.765625 1.765625q0 1.640625 -1.203125 2.5q-1.1875 0.859375 -3.1875 0.859375q-2.015625 0 -3.234375 -0.84375q-1.21875 -0.859375 -1.3125 -2.5625l2.53125 0q0 0.765625 0.578125 1.203125q0.578125 0.421875 1.453125 0.421875q0.765625 0 1.25 -0.328125q0.484375 -0.328125 0.484375 -0.890625q0 -0.515625 -0.625 -0.828125q-0.625 -0.3125 -2.296875 -0.671875q-1.671875 -0.328125 -2.40625 -0.9375q-0.734375 -0.609375 -0.734375 -1.640625q0 -1.53125 1.078125 -2.3125q1.09375 -0.78125 3.125 -0.78125zm9.411072 -2.625l0 2.890625l1.9375 0l0 1.765625l-1.9375 0l0 4.84375q0 0.59375 0.21875 0.828125q0.234375 0.21875 0.90625 0.21875q0.234375 0 0.4375 -0.015625q0.203125 -0.015625 0.375 -0.046875l0 2.0625q-0.328125 0.0625 -0.734375 0.078125q-0.390625 0.015625 -0.796875 0.015625q-1.71875 0 -2.390625 -0.578125q-0.65625 -0.59375 -0.65625 -1.65625l0 -5.75l-1.609375 0l0 -1.765625l1.609375 0l0 -2.890625l2.640625 0zm7.5861816 2.625q2.140625 0 3.421875 1.484375q1.28125 1.46875 1.28125 3.75l-0.03125 0.484375l-6.953125 0q0.0625 1.25 0.65625 1.859375q0.59375 0.59375 1.703125 0.59375q0.71875 0 1.328125 -0.359375q0.609375 -0.375 0.78125 -0.890625l2.328125 0q-0.53125 1.640625 -1.65625 2.453125q-1.125 0.796875 -2.859375 0.796875q-2.234375 0 -3.59375 -1.40625q-1.34375 -1.421875 -1.34375 -3.671875q0 -2.15625 1.375 -3.625q1.390625 -1.46875 3.5625 -1.46875zm-2.28125 4.046875l4.3125 0q-0.1875 -1.0625 -0.6875 -1.546875q-0.5 -0.5 -1.4375 -0.5q-0.96875 0 -1.53125 0.546875q-0.5625 0.546875 -0.65625 1.5zm14.150253 -4.046875q0.1875 0 0.328125 0.03125q0.140625 0.015625 0.265625 0.0625l0 2.46875q-0.21875 -0.046875 -0.4375 -0.0625q-0.21875 -0.03125 -0.5 -0.03125q-1.34375 0 -1.984375 0.828125q-0.640625 0.8125 -0.640625 2.1875l0 4.421875l-2.6406097 0l0 -9.640625l2.5156097 0l0 1.78125l0.03125 0q0.421875 -0.9375 1.25 -1.484375q0.828125 -0.5625 1.8125 -0.5625zm16.474823 -3.40625l0 2.453125l-6.4375 0l0 3.078125l5.578125 0l0 2.28125l-5.578125 0l0 5.5l-2.9375 0l0 -13.3125l9.375 0zm4.1370544 0l0 2.171875l-2.65625 0l0 -2.171875l2.65625 0zm0 3.671875l0 9.640625l-2.65625 0l0 -9.640625l2.65625 0zm4.8098145 -3.671875l0 13.3125l-2.65625 0l0 -13.3125l2.65625 0zm6.5441895 3.40625q2.140625 0 3.421875 1.484375q1.28125 1.46875 1.28125 3.75l-0.03125 0.484375l-6.953125 0q0.0625 1.25 0.65625 1.859375q0.59375 0.59375 1.703125 0.59375q0.71875 0 1.328125 -0.359375q0.609375 -0.375 0.78125 -0.890625l2.328125 0q-0.53125 1.640625 -1.65625 2.453125q-1.125 0.796875 -2.859375 0.796875q-2.234375 0 -3.59375 -1.40625q-1.34375 -1.421875 -1.34375 -3.671875q0 -2.15625 1.375 -3.625q1.390625 -1.46875 3.5625 -1.46875zm-2.28125 4.046875l4.3125 0q-0.1875 -1.0625 -0.6875 -1.546875q-0.5 -0.5 -1.4375 -0.5q-0.96875 0 -1.53125 0.546875q-0.5625 0.546875 -0.65625 1.5z" fill-rule="nonzero"/></g></svg>