<?xml version="1.0" encoding="UTF-8" standalone="no"?>
<!DOCTYPE svg PUBLIC "-//W3C//DTD SVG 1.1//EN"
 "http://www.w3.org/Graphics/SVG/1.1/DTD/svg11.dtd">
<!-- Generated by graphviz version 2.43.0 (0)
 -->
<!-- Title: G Pages: 1 -->
<svg width="1002pt" height="580pt"
 viewBox="0.00 0.00 1002.00 580.00" xmlns="http://www.w3.org/2000/svg" xmlns:xlink="http://www.w3.org/1999/xlink">
<g id="graph0" class="graph" transform="scale(1 1) rotate(0) translate(4 576)">
<title>G</title>
<polygon fill="white" stroke="transparent" points="-4,4 -4,-576 998,-576 998,4 -4,4"/>
<!-- instr1 -->
<g id="node1" class="node">
<title>instr1</title>
<polygon fill="none" stroke="black" points="944.5,-394 754.5,-394 754.5,-356 944.5,-356 944.5,-394"/>
<text text-anchor="middle" x="849.5" y="-378.8" font-family="Courier,monospace" font-size="14.00">mov.u32 %r4, %r43;</text>
<text text-anchor="middle" x="849.5" y="-363.8" font-family="Courier,monospace" font-size="14.00">Copy &#39;iters&#39; into %r4</text>
</g>
<!-- instr12 -->
<g id="node12" class="node">
<title>instr12</title>
<polygon fill="none" stroke="black" points="944.5,-305 754.5,-305 754.5,-267 944.5,-267 944.5,-305"/>
<text text-anchor="middle" x="849.5" y="-289.8" font-family="Courier,monospace" font-size="14.00">add.s32 %r43, %r4, 1;</text>
<text text-anchor="middle" x="849.5" y="-274.8" font-family="Courier,monospace" font-size="14.00">Increment &#39;iters&#39;</text>
</g>
<!-- instr1&#45;&gt;instr12 -->
<g id="edge11" class="edge">
<title>instr1&#45;&gt;instr12</title>
<path fill="none" stroke="black" d="M849.5,-355.97C849.5,-344.19 849.5,-328.56 849.5,-315.16"/>
<polygon fill="black" stroke="black" points="853,-315 849.5,-305 846,-315 853,-315"/>
<text text-anchor="middle" x="864.5" y="-326.8" font-family="Times,serif" font-size="14.00">%r4</text>
</g>
<!-- instr2 -->
<g id="node2" class="node">
<title>instr2</title>
<polygon fill="none" stroke="black" points="570,-572 347,-572 347,-534 570,-534 570,-572"/>
<text text-anchor="middle" x="458.5" y="-556.8" font-family="Courier,monospace" font-size="14.00">sub.f32 %f20, %f28, %f27;</text>
<text text-anchor="middle" x="458.5" y="-541.8" font-family="Courier,monospace" font-size="14.00">Compute temp = x2 &#45; y2</text>
</g>
<!-- instr3 -->
<g id="node3" class="node">
<title>instr3</title>
<polygon fill="none" stroke="black" points="566,-483 351,-483 351,-445 566,-445 566,-483"/>
<text text-anchor="middle" x="458.5" y="-467.8" font-family="Courier,monospace" font-size="14.00">add.f32 %f21, %f3, %f20;</text>
<text text-anchor="middle" x="458.5" y="-452.8" font-family="Courier,monospace" font-size="14.00">Compute x = temp + cx</text>
</g>
<!-- instr2&#45;&gt;instr3 -->
<g id="edge1" class="edge">
<title>instr2&#45;&gt;instr3</title>
<path fill="none" stroke="black" d="M458.5,-533.97C458.5,-522.19 458.5,-506.56 458.5,-493.16"/>
<polygon fill="black" stroke="black" points="462,-493 458.5,-483 455,-493 462,-493"/>
<text text-anchor="middle" x="477" y="-504.8" font-family="Times,serif" font-size="14.00">%f20</text>
</g>
<!-- instr6 -->
<g id="node6" class="node">
<title>instr6</title>
<polygon fill="none" stroke="black" points="705,-394 482,-394 482,-356 705,-356 705,-394"/>
<text text-anchor="middle" x="593.5" y="-378.8" font-family="Courier,monospace" font-size="14.00">mul.f32 %f28, %f21, %f21;</text>
<text text-anchor="middle" x="593.5" y="-363.8" font-family="Courier,monospace" font-size="14.00">Compute x2 = x * x</text>
</g>
<!-- instr3&#45;&gt;instr6 -->
<g id="edge3" class="edge">
<title>instr3&#45;&gt;instr6</title>
<path fill="none" stroke="black" d="M486.47,-444.97C506.93,-431.79 534.86,-413.79 557.06,-399.49"/>
<polygon fill="black" stroke="black" points="559.05,-402.36 565.56,-394 555.26,-396.48 559.05,-402.36"/>
<text text-anchor="middle" x="552" y="-415.8" font-family="Times,serif" font-size="14.00">%f21</text>
</g>
<!-- instr8 -->
<g id="node8" class="node">
<title>instr8</title>
<polygon fill="none" stroke="black" points="223,-394 0,-394 0,-356 223,-356 223,-394"/>
<text text-anchor="middle" x="111.5" y="-378.8" font-family="Courier,monospace" font-size="14.00">add.f32 %f24, %f21, %f23;</text>
<text text-anchor="middle" x="111.5" y="-363.8" font-family="Courier,monospace" font-size="14.00">Compute z = x + y</text>
</g>
<!-- instr3&#45;&gt;instr8 -->
<g id="edge5" class="edge">
<title>instr3&#45;&gt;instr8</title>
<path fill="none" stroke="black" d="M410.09,-444.95C380.25,-434.31 341.02,-421.17 305.5,-412 282.25,-406 257.19,-400.59 233.05,-395.89"/>
<polygon fill="black" stroke="black" points="233.61,-392.43 223.13,-393.99 232.3,-399.31 233.61,-392.43"/>
<text text-anchor="middle" x="376" y="-415.8" font-family="Times,serif" font-size="14.00">%f21</text>
</g>
<!-- instr4 -->
<g id="node4" class="node">
<title>instr4</title>
<polygon fill="none" stroke="black" points="275.5,-572 27.5,-572 27.5,-534 275.5,-534 275.5,-572"/>
<text text-anchor="middle" x="151.5" y="-556.8" font-family="Courier,monospace" font-size="14.00">sub.f32 %f22, %f26, %f25;</text>
<text text-anchor="middle" x="151.5" y="-541.8" font-family="Courier,monospace" font-size="14.00">Compute temp = w &#45; (x2 + y2)</text>
</g>
<!-- instr5 -->
<g id="node5" class="node">
<title>instr5</title>
<polygon fill="none" stroke="black" points="259,-483 44,-483 44,-445 259,-445 259,-483"/>
<text text-anchor="middle" x="151.5" y="-467.8" font-family="Courier,monospace" font-size="14.00">add.f32 %f23, %f2, %f22;</text>
<text text-anchor="middle" x="151.5" y="-452.8" font-family="Courier,monospace" font-size="14.00">Compute y = temp + cy</text>
</g>
<!-- instr4&#45;&gt;instr5 -->
<g id="edge2" class="edge">
<title>instr4&#45;&gt;instr5</title>
<path fill="none" stroke="black" d="M151.5,-533.97C151.5,-522.19 151.5,-506.56 151.5,-493.16"/>
<polygon fill="black" stroke="black" points="155,-493 151.5,-483 148,-493 155,-493"/>
<text text-anchor="middle" x="170" y="-504.8" font-family="Times,serif" font-size="14.00">%f22</text>
</g>
<!-- instr7 -->
<g id="node7" class="node">
<title>instr7</title>
<polygon fill="none" stroke="black" points="464,-394 241,-394 241,-356 464,-356 464,-394"/>
<text text-anchor="middle" x="352.5" y="-378.8" font-family="Courier,monospace" font-size="14.00">mul.f32 %f27, %f23, %f23;</text>
<text text-anchor="middle" x="352.5" y="-363.8" font-family="Courier,monospace" font-size="14.00">Compute y2 = y * y</text>
</g>
<!-- instr5&#45;&gt;instr7 -->
<g id="edge4" class="edge">
<title>instr5&#45;&gt;instr7</title>
<path fill="none" stroke="black" d="M193.15,-444.97C224.68,-431.33 268.15,-412.51 301.72,-397.98"/>
<polygon fill="black" stroke="black" points="303.12,-401.19 310.91,-394 300.34,-394.76 303.12,-401.19"/>
<text text-anchor="middle" x="283" y="-415.8" font-family="Times,serif" font-size="14.00">%f23</text>
</g>
<!-- instr5&#45;&gt;instr8 -->
<g id="edge6" class="edge">
<title>instr5&#45;&gt;instr8</title>
<path fill="none" stroke="black" d="M143.21,-444.97C137.69,-432.96 130.32,-416.94 124.08,-403.36"/>
<polygon fill="black" stroke="black" points="127.13,-401.63 119.78,-394 120.77,-404.55 127.13,-401.63"/>
<text text-anchor="middle" x="153" y="-415.8" font-family="Times,serif" font-size="14.00">%f23</text>
</g>
<!-- instr10 -->
<g id="node10" class="node">
<title>instr10</title>
<polygon fill="none" stroke="black" points="674,-305 451,-305 451,-267 674,-267 674,-305"/>
<text text-anchor="middle" x="562.5" y="-289.8" font-family="Courier,monospace" font-size="14.00">add.f32 %f25, %f28, %f27;</text>
<text text-anchor="middle" x="562.5" y="-274.8" font-family="Courier,monospace" font-size="14.00">Compute sum = x2 + y2</text>
</g>
<!-- instr6&#45;&gt;instr10 -->
<g id="edge8" class="edge">
<title>instr6&#45;&gt;instr10</title>
<path fill="none" stroke="black" d="M587.08,-355.97C582.84,-344.08 577.2,-328.25 572.39,-314.76"/>
<polygon fill="black" stroke="black" points="575.57,-313.25 568.91,-305 568.97,-315.6 575.57,-313.25"/>
<text text-anchor="middle" x="598" y="-326.8" font-family="Times,serif" font-size="14.00">%f28</text>
</g>
<!-- instr7&#45;&gt;instr10 -->
<g id="edge9" class="edge">
<title>instr7&#45;&gt;instr10</title>
<path fill="none" stroke="black" d="M396.01,-355.97C428.96,-342.33 474.37,-323.51 509.44,-308.98"/>
<polygon fill="black" stroke="black" points="511.14,-312.06 519.04,-305 508.47,-305.6 511.14,-312.06"/>
<text text-anchor="middle" x="488" y="-326.8" font-family="Times,serif" font-size="14.00">%f27</text>
</g>
<!-- instr9 -->
<g id="node9" class="node">
<title>instr9</title>
<polygon fill="none" stroke="black" points="223,-305 0,-305 0,-267 223,-267 223,-305"/>
<text text-anchor="middle" x="111.5" y="-289.8" font-family="Courier,monospace" font-size="14.00">mul.f32 %f26, %f24, %f24;</text>
<text text-anchor="middle" x="111.5" y="-274.8" font-family="Courier,monospace" font-size="14.00">Compute w = z * z</text>
</g>
<!-- instr8&#45;&gt;instr9 -->
<g id="edge7" class="edge">
<title>instr8&#45;&gt;instr9</title>
<path fill="none" stroke="black" d="M111.5,-355.97C111.5,-344.19 111.5,-328.56 111.5,-315.16"/>
<polygon fill="black" stroke="black" points="115,-315 111.5,-305 108,-315 115,-315"/>
<text text-anchor="middle" x="130" y="-326.8" font-family="Times,serif" font-size="14.00">%f24</text>
</g>
<!-- instr11 -->
<g id="node11" class="node">
<title>instr11</title>
<polygon fill="none" stroke="black" points="686.5,-216 438.5,-216 438.5,-178 686.5,-178 686.5,-216"/>
<text text-anchor="middle" x="562.5" y="-200.8" font-family="Courier,monospace" font-size="14.00">setp.le.f32 %p3, %f25, 4.0f;</text>
<text text-anchor="middle" x="562.5" y="-185.8" font-family="Courier,monospace" font-size="14.00">Check if sum &lt;= 4.0f</text>
</g>
<!-- instr10&#45;&gt;instr11 -->
<g id="edge10" class="edge">
<title>instr10&#45;&gt;instr11</title>
<path fill="none" stroke="black" d="M562.5,-266.97C562.5,-255.19 562.5,-239.56 562.5,-226.16"/>
<polygon fill="black" stroke="black" points="566,-226 562.5,-216 559,-226 566,-226"/>
<text text-anchor="middle" x="581" y="-237.8" font-family="Times,serif" font-size="14.00">%f25</text>
</g>
<!-- instr14 -->
<g id="node14" class="node">
<title>instr14</title>
<polygon fill="none" stroke="black" points="808.5,-127 602.5,-127 602.5,-89 808.5,-89 808.5,-127"/>
<text text-anchor="middle" x="705.5" y="-111.8" font-family="Courier,monospace" font-size="14.00">and.pred %p5, %p3, %p4;</text>
<text text-anchor="middle" x="705.5" y="-96.8" font-family="Courier,monospace" font-size="14.00">Combine loop conditions</text>
</g>
<!-- instr11&#45;&gt;instr14 -->
<g id="edge13" class="edge">
<title>instr11&#45;&gt;instr14</title>
<path fill="none" stroke="black" d="M592.13,-177.97C613.89,-164.73 643.64,-146.63 667.21,-132.3"/>
<polygon fill="black" stroke="black" points="669.18,-135.19 675.91,-127 665.55,-129.21 669.18,-135.19"/>
<text text-anchor="middle" x="658.5" y="-148.8" font-family="Times,serif" font-size="14.00">%p3</text>
</g>
<!-- instr13 -->
<g id="node13" class="node">
<title>instr13</title>
<polygon fill="none" stroke="black" points="994,-216 705,-216 705,-178 994,-178 994,-216"/>
<text text-anchor="middle" x="849.5" y="-200.8" font-family="Courier,monospace" font-size="14.00">setp.lt.u32 %p4, %r43, max_iters;</text>
<text text-anchor="middle" x="849.5" y="-185.8" font-family="Courier,monospace" font-size="14.00">Check if iters &lt; max_iters</text>
</g>
<!-- instr12&#45;&gt;instr13 -->
<g id="edge12" class="edge">
<title>instr12&#45;&gt;instr13</title>
<path fill="none" stroke="black" d="M849.5,-266.97C849.5,-255.19 849.5,-239.56 849.5,-226.16"/>
<polygon fill="black" stroke="black" points="853,-226 849.5,-216 846,-226 853,-226"/>
<text text-anchor="middle" x="869" y="-237.8" font-family="Times,serif" font-size="14.00">%r43</text>
</g>
<!-- instr13&#45;&gt;instr14 -->
<g id="edge14" class="edge">
<title>instr13&#45;&gt;instr14</title>
<path fill="none" stroke="black" d="M819.66,-177.97C797.75,-164.73 767.79,-146.63 744.06,-132.3"/>
<polygon fill="black" stroke="black" points="745.67,-129.18 735.3,-127 742.05,-135.17 745.67,-129.18"/>
<text text-anchor="middle" x="801.5" y="-148.8" font-family="Times,serif" font-size="14.00">%p4</text>
</g>
<!-- instr15 -->
<g id="node15" class="node">
<title>instr15</title>
<polygon fill="none" stroke="black" points="825,-38 586,-38 586,0 825,0 825,-38"/>
<text text-anchor="middle" x="705.5" y="-22.8" font-family="Courier,monospace" font-size="14.00">@%p5 bra $L__BB0_5;</text>
<text text-anchor="middle" x="705.5" y="-7.8" font-family="Courier,monospace" font-size="14.00">Loop back if conditions met</text>
</g>
<!-- instr14&#45;&gt;instr15 -->
<g id="edge15" class="edge">
<title>instr14&#45;&gt;instr15</title>
<path fill="none" stroke="black" d="M705.5,-88.97C705.5,-77.19 705.5,-61.56 705.5,-48.16"/>
<polygon fill="black" stroke="black" points="709,-48 705.5,-38 702,-48 709,-48"/>
<text text-anchor="middle" x="721.5" y="-59.8" font-family="Times,serif" font-size="14.00">%p5</text>
</g>
</g>
</svg>
