<svg version="1.1" viewBox="0.0 0.0 686.992125984252 431.70603674540683" fill="none" stroke="none" stroke-linecap="square" stroke-miterlimit="10" xmlns:xlink="http://www.w3.org/1999/xlink" xmlns="http://www.w3.org/2000/svg"><clipPath id="p.0"><path d="m0 0l686.9921 0l0 431.70602l-686.9921 0l0 -431.70602z" clip-rule="nonzero"/></clipPath><g clip-path="url(#p.0)"><path fill="#ffffff" d="m0 0l686.9921 0l0 431.70602l-686.9921 0z" fill-rule="evenodd"/><path fill="#b7b7b7" d="m304.75064 333.4882l329.35434 0l0 46.771667l-329.35434 0z" fill-rule="evenodd"/><path stroke="#000000" stroke-width="1.0" stroke-linejoin="round" stroke-linecap="butt" d="m304.75064 333.4882l329.35434 0l0 46.771667l-329.35434 0z" fill-rule="evenodd"/><path fill="#999999" d="m311.4567 339.7874l64.31497 0l0 34.173218l-64.31497 0z" fill-rule="evenodd"/><path stroke="#000000" stroke-width="1.0" stroke-linejoin="round" stroke-linecap="butt" d="m311.4567 339.7874l64.31497 0l0 34.173218l-64.31497 0z" fill-rule="evenodd"/><path fill="#000000" d="m332.98016 350.4815l4.984375 13.296875l-3.046875 0l-1.0 -2.953125l-4.984375 0l-1.046875 2.96875l-2.953125 0l5.046875 -13.3125l3.0 0zm-1.546875 3.28125l-1.734375 4.890625l3.453125 0l-1.671875 -4.890625l-0.046875 0zm10.624359 -3.28125l0 10.859375l6.5 0l0 2.453125l-9.4375 0l0 -13.3125l2.9375 0zm10.44046 0l0 8.359375q0 1.4375 0.65625 2.125q0.671875 0.671875 2.09375 0.671875q1.53125 0 2.140625 -0.65625q0.625 -0.671875 0.625 -2.140625l0 -8.359375l2.921875 0l0 8.359375q0 2.484375 -1.453125 3.875q-1.4375 1.390625 -4.234375 1.390625q-2.8125 0 -4.25 -1.359375q-1.421875 -1.375 -1.421875 -3.90625l0 -8.359375l2.921875 0z" fill-rule="nonzero"/><path fill="#999999" d="m383.0 339.7874l64.31497 0l0 34.173218l-64.31497 0z" fill-rule="evenodd"/><path stroke="#000000" stroke-width="1.0" stroke-linejoin="round" stroke-linecap="butt" d="m383.0 339.7874l64.31497 0l0 34.173218l-64.31497 0z" fill-rule="evenodd"/><path fill="#000000" d="m407.14838 350.4815l0 2.453125l-6.4375 0l0 3.078125l5.578125 0l0 2.28125l-5.578125 0l0 5.5l-2.9375 0l0 -13.3125l9.375 0zm7.7933044 0q2.078125 0 3.296875 1.171875q1.21875 1.15625 1.21875 3.09375q0 1.921875 -1.21875 3.109375q-1.21875 1.171875 -3.296875 1.171875l-3.171875 0l0 4.765625l-2.9375 0l0 -13.3125l6.109375 0zm-0.8125 6.265625q1.25 0 1.859375 -0.46875q0.625 -0.484375 0.625 -1.53125q0 -1.015625 -0.59375 -1.5q-0.59375 -0.5 -1.875 -0.5l-2.375 0l0 4.0l2.359375 0zm10.021698 -6.265625l0 8.359375q0 1.4375 0.65625 2.125q0.671875 0.671875 2.09375 0.671875q1.53125 0 2.140625 -0.65625q0.625 -0.671875 0.625 -2.140625l0 -8.359375l2.921875 0l0 8.359375q0 2.484375 -1.453125 3.875q-1.4375 1.390625 -4.234375 1.390625q-2.8125 0 -4.25 -1.359375q-1.421875 -1.375 -1.421875 -3.90625l0 -8.359375l2.921875 0z" fill-rule="nonzero"/><path fill="#999999" d="m454.5433 339.7874l138.01578 0l0 34.173218l-138.01578 0z" fill-rule="evenodd"/><path stroke="#000000" stroke-width="1.0" stroke-linejoin="round" stroke-linecap="butt" d="m454.5433 339.7874l138.01578 0l0 34.173218l-138.01578 0z" fill-rule="evenodd"/><path fill="#000000" d="m480.6295 350.4815l0 2.453125l-4.0 0l0 10.859375l-2.921875 0l0 -10.859375l-3.984375 0l0 -2.453125l10.90625 0zm3.7853088 3.40625q2.140625 0 3.421875 1.484375q1.28125 1.46875 1.28125 3.75l-0.03125 0.484375l-6.953125 0q0.0625 1.25 0.65625 1.859375q0.59375 0.59375 1.703125 0.59375q0.71875 0 1.328125 -0.359375q0.609375 -0.375 0.78125 -0.890625l2.328125 0q-0.53125 1.640625 -1.65625 2.453125q-1.125 0.796875 -2.859375 0.796875q-2.234375 0 -3.59375 -1.40625q-1.34375 -1.421875 -1.34375 -3.671875q0 -2.15625 1.375 -3.625q1.390625 -1.46875 3.5625 -1.46875zm-2.28125 4.046875l4.3125 0q-0.1875 -1.0625 -0.6875 -1.546875q-0.5 -0.5 -1.4375 -0.5q-0.96875 0 -1.53125 0.546875q-0.5625 0.546875 -0.65625 1.5zm14.072144 -4.046875q1.84375 0 2.671875 0.9375q0.84375 0.9375 0.84375 2.9375l0 6.03125l-2.65625 0l0 -5.53125q0 -1.125 -0.390625 -1.703125q-0.390625 -0.578125 -1.296875 -0.578125q-1.109375 0 -1.59375 0.65625q-0.46875 0.65625 -0.46875 2.015625l0 5.140625l-2.640625 0l0 -9.640625l2.515625 0l0 1.34375l0.046875 0q0.484375 -0.78125 1.25 -1.1875q0.78125 -0.421875 1.71875 -0.421875zm9.480804 0q1.96875 0 3.03125 0.78125q1.078125 0.78125 1.21875 2.296875l-2.515625 0q-0.0625 -0.6875 -0.515625 -1.0q-0.453125 -0.3125 -1.3125 -0.3125q-0.75 0 -1.109375 0.234375q-0.34375 0.234375 -0.34375 0.671875q0 0.4375 0.453125 0.734375q0.46875 0.28125 1.859375 0.546875q2.21875 0.421875 2.96875 1.09375q0.765625 0.671875 0.765625 1.765625q0 1.640625 -1.203125 2.5q-1.1875 0.859375 -3.1875 0.859375q-2.015625 0 -3.234375 -0.84375q-1.21875 -0.859375 -1.3125 -2.5625l2.53125 0q0 0.765625 0.578125 1.203125q0.578125 0.421875 1.453125 0.421875q0.765625 0 1.25 -0.328125q0.484375 -0.328125 0.484375 -0.890625q0 -0.515625 -0.625 -0.828125q-0.625 -0.3125 -2.296875 -0.671875q-1.671875 -0.328125 -2.40625 -0.9375q-0.734375 -0.609375 -0.734375 -1.640625q0 -1.53125 1.078125 -2.3125q1.09375 -0.78125 3.125 -0.78125zm10.739166 0q2.28125 0 3.640625 1.40625q1.359375 1.390625 1.359375 3.6875q0 2.3125 -1.375 3.703125q-1.375 1.375 -3.625 1.375q-2.234375 0 -3.609375 -1.390625q-1.3749695 -1.390625 -1.3749695 -3.6875q0 -2.28125 1.3437195 -3.6875q1.359375 -1.40625 3.640625 -1.40625zm-2.328125 5.09375q0 1.53125 0.625 2.3125q0.625 0.765625 1.703125 0.765625q1.140625 0 1.75 -0.796875q0.609375 -0.8125 0.609375 -2.28125q0 -1.4375 -0.59375 -2.265625q-0.59375 -0.828125 -1.78125 -0.828125q-1.0625 0 -1.6875 0.765625q-0.625 0.765625 -0.625 2.328125zm14.661621 -5.09375q0.1875 0 0.328125 0.03125q0.140625 0.015625 0.265625 0.0625l0 2.46875q-0.21875 -0.046875 -0.4375 -0.0625q-0.21875 -0.03125 -0.5 -0.03125q-1.34375 0 -1.984375 0.828125q-0.640625 0.8125 -0.640625 2.1875l0 4.421875l-2.640625 0l0 -9.640625l2.515625 0l0 1.78125l0.03125 0q0.421875 -0.9375 1.25 -1.484375q0.828125 -0.5625 1.8125 -0.5625zm13.0842285 -3.734375q2.265625 0 3.859375 1.28125q1.59375 1.28125 1.875 3.515625l-2.828125 0q-0.203125 -1.046875 -1.046875 -1.6875q-0.84375 -0.640625 -1.875 -0.640625q-1.71875 0 -2.671875 1.25q-0.9375 1.25 -0.9375 3.3125q0 1.984375 0.9375 3.21875q0.9375 1.234375 2.6875 1.234375q1.265625 0 2.046875 -0.765625q0.78125 -0.78125 0.96875 -2.203125l2.84375 0q-0.265625 2.53125 -1.859375 3.984375q-1.578125 1.453125 -4.0 1.453125q-1.921875 0 -3.421875 -0.875q-1.5 -0.875 -2.328125 -2.46875q-0.8125 -1.609375 -0.8125 -3.578125q0 -3.0625 1.796875 -5.046875q1.796875 -1.984375 4.765625 -1.984375zm12.250061 3.734375q2.28125 0 3.640625 1.40625q1.359375 1.390625 1.359375 3.6875q0 2.3125 -1.375 3.703125q-1.375 1.375 -3.625 1.375q-2.234375 0 -3.609375 -1.390625q-1.375 -1.390625 -1.375 -3.6875q0 -2.28125 1.34375 -3.6875q1.359375 -1.40625 3.640625 -1.40625zm-2.328125 5.09375q0 1.53125 0.625 2.3125q0.625 0.765625 1.703125 0.765625q1.140625 0 1.75 -0.796875q0.609375 -0.8125 0.609375 -2.28125q0 -1.4375 -0.59375 -2.265625q-0.59375 -0.828125 -1.78125 -0.828125q-1.0625 0 -1.6875 0.765625q-0.625 0.765625 -0.625 2.328125zm14.661621 -5.09375q0.1875 0 0.328125 0.03125q0.140625 0.015625 0.265625 0.0625l0 2.46875q-0.21875 -0.046875 -0.4375 -0.0625q-0.21875 -0.03125 -0.5 -0.03125q-1.34375 0 -1.984375 0.828125q-0.640625 0.8125 -0.640625 2.1875l0 4.421875l-2.640625 0l0 -9.640625l2.515625 0l0 1.78125l0.03125 0q0.421875 -0.9375 1.25 -1.484375q0.828125 -0.5625 1.8125 -0.5625zm5.958191 0q2.140625 0 3.421875 1.484375q1.28125 1.46875 1.28125 3.75l-0.03125 0.484375l-6.953125 0q0.0625 1.25 0.65625 1.859375q0.59375 0.59375 1.703125 0.59375q0.71875 0 1.328125 -0.359375q0.609375 -0.375 0.78125 -0.890625l2.328125 0q-0.53125 1.640625 -1.65625 2.453125q-1.125 0.796875 -2.859375 0.796875q-2.234375 0 -3.59375 -1.40625q-1.34375 -1.421875 -1.34375 -3.671875q0 -2.15625 1.375 -3.625q1.390625 -1.46875 3.5625 -1.46875zm-2.28125 4.046875l4.3125 0q-0.1875 -1.0625 -0.6875 -1.546875q-0.5 -0.5 -1.4375 -0.5q-0.96875 0 -1.53125 0.546875q-0.5625 0.546875 -0.65625 1.5z" fill-rule="nonzero"/><path fill="#000000" fill-opacity="0.0" d="m592.5591 339.7874l38.141724 0l0 34.173218l-38.141724 0z" fill-rule="evenodd"/><path fill="#000000" d="m606.87994 360.919l0 2.875l-2.9375 0l0 -2.875l2.9375 0zm6.203125 0l0 2.875l-2.921875 0l0 -2.875l2.921875 0zm6.21875 0l0 2.875l-2.9375 0l0 -2.875l2.9375 0z" fill-rule="nonzero"/><path fill="#000000" fill-opacity="0.0" d="m289.979 332.2968l0 0c0 -6.787018 5.501953 -12.288971 12.288971 -12.288971l334.31973 0c3.2592163 0 6.3849487 1.2947388 8.689575 3.5993652c2.3046265 2.3046265 3.5993652 5.430359 3.5993652 8.689606l0 49.154358c0 6.787018 -5.501953 12.288971 -12.28894 12.288971l-334.31973 0c-6.787018 0 -12.288971 -5.501953 -12.288971 -12.288971z" fill-rule="evenodd"/><path stroke="#cc0000" stroke-width="4.0" stroke-linejoin="round" stroke-linecap="butt" d="m289.979 332.2968l0 0c0 -6.787018 5.501953 -12.288971 12.288971 -12.288971l334.31973 0c3.2592163 0 6.3849487 1.2947388 8.689575 3.5993652c2.3046265 2.3046265 3.5993652 5.430359 3.5993652 8.689606l0 49.154358c0 6.787018 -5.501953 12.288971 -12.28894 12.288971l-334.31973 0c-6.787018 0 -12.288971 -5.501953 -12.288971 -12.288971z" fill-rule="evenodd"/><path fill="#efefef" d="m40.237392 41.791317l242.45538 0l0 242.45538l-242.45538 0z" fill-rule="evenodd"/><path stroke="#000000" stroke-width="1.0" stroke-linejoin="round" stroke-linecap="butt" d="m40.237392 41.791317l242.45538 0l0 242.45538l-242.45538 0z" fill-rule="evenodd"/><path fill="#000000" fill-opacity="0.0" d="m39.02729 35.4916l242.45538 0l0 45.244423l-242.45538 0z" fill-rule="evenodd"/><path fill="#000000" d="m54.74604 49.37785q2.765625 0 4.421875 1.28125q1.671875 1.28125 1.671875 3.625l-3.234375 0q-0.078125 -1.140625 -0.796875 -1.71875q-0.703125 -0.578125 -2.203125 -0.578125q-1.015625 0 -1.671875 0.453125q-0.640625 0.4375 -0.640625 1.28125q0 0.5625 0.265625 0.84375q0.265625 0.28125 1.109375 0.59375q0.84375 0.296875 3.65625 0.96875q1.890625 0.453125 2.953125 1.546875q1.0625 1.09375 1.0625 2.78125q0 2.203125 -1.65625 3.5468712q-1.640625 1.328125 -4.65625 1.328125q-2.875 0 -4.6875 -1.4062462q-1.8125 -1.421875 -1.8125 -3.921875l0 -0.078125l3.234375 0q0.03125 1.40625 0.953125 2.109375q0.921875 0.703125 2.421875 0.703125q1.359375 0 2.15625 -0.5q0.8125 -0.5 0.8125 -1.40625q0 -0.734375 -0.625 -1.203125q-0.609375 -0.484375 -1.96875 -0.828125q-1.75 -0.390625 -3.1875 -0.828125q-1.421875 -0.453125 -2.359375 -1.4375q-0.921875 -1.0 -0.921875 -2.546875q0 -2.046875 1.640625 -3.328125q1.640625 -1.28125 4.0625 -1.28125zm13.309128 0.375l3.5625 10.453125l0.046875 0l3.359375 -10.421875l0.015625 -0.03125l4.703125 0l0 15.218746l-3.140625 0l0 -10.781246l-0.046875 0l-3.71875 10.781246l-2.578125 0l-3.75 -10.687496l-0.03125 0l0 10.687496l-3.140625 0l0 -15.218746l4.71875 0z" fill-rule="nonzero"/><path fill="#000000" d="m90.78338 56.205975q-0.640625 1.1875 -0.984375 2.578125q-0.328125 1.390625 -0.328125 2.859375q0 1.46875 0.3125 2.8437462q0.3125 1.359375 0.984375 2.671875l-1.421875 0q-0.765625 -1.28125 -1.171875 -2.671875q-0.40625 -1.3906212 -0.40625 -2.7343712q0 -1.390625 0.40625 -2.90625q0.40625 -1.515625 1.171875 -2.640625l1.4375 0zm2.2539062 0.984375q-0.421875 0.140625 -0.609375 0.421875q-0.1875 0.28125 -0.1875 0.796875l0.796875 0l0 1.84375l-1.703125 0l0 -1.921875q0 -0.71875 0.46875 -1.265625q0.46875 -0.546875 1.234375 -0.65625l0 0.78125zm2.5625 0q-0.4375 0.140625 -0.625 0.453125q-0.171875 0.296875 -0.171875 0.765625l0.796875 0l0 1.84375l-1.71875 0l0 -1.921875q0 -0.71875 0.46875 -1.265625q0.484375 -0.5625 1.25 -0.65625l0 0.78125zm4.4296875 -0.984375q1.546875 0 2.484375 0.71875q0.9375 0.71875 0.9375 2.03125l-1.8125 0q-0.046875 -0.640625 -0.453125 -0.96875q-0.390625 -0.328125 -1.234375 -0.328125q-0.578125 0 -0.953125 0.265625q-0.359375 0.25 -0.359375 0.71875q0 0.3125 0.15625 0.46875q0.15625 0.15625 0.625 0.34375q0.46875 0.171875 2.0625 0.546875q1.0625 0.25 1.65625 0.875q0.609375 0.609375 0.609375 1.546875q0 1.25 -0.9375 1.9999962q-0.9375 0.75 -2.625 0.75q-1.609375 0 -2.640625 -0.796875q-1.015625 -0.7968712 -1.015625 -2.2031212l0 -0.046875l1.828125 0q0 0.796875 0.515625 1.1875q0.53125 0.390625 1.375 0.390625q0.765625 0 1.21875 -0.265625q0.453125 -0.28125 0.453125 -0.796875q0 -0.421875 -0.359375 -0.6875q-0.34375 -0.265625 -1.109375 -0.453125q-0.984375 -0.21875 -1.78125 -0.46875q-0.796875 -0.25 -1.328125 -0.8125q-0.53125 -0.5625 -0.53125 -1.4375q0 -1.15625 0.921875 -1.859375q0.9375 -0.71875 2.296875 -0.71875zm6.7714844 0.703125l0 1.859375l1.25 0l0 1.140625l-1.25 0l0 3.109375q0 0.375 0.140625 0.53125q0.140625 0.15625 0.578125 0.15625q0.140625 0 0.265625 -0.015625q0.140625 -0.015625 0.265625 -0.03125l0 1.3281212q-0.21875 0.03125 -0.484375 0.046875q-0.25 0.015625 -0.5 0.015625q-1.109375 0 -1.546875 -0.375q-0.421875 -0.390625 -0.421875 -1.0624962l0 -3.703125l-1.03125 0l0 -1.140625l1.03125 0l0 -1.859375l1.703125 0zm5.6777344 1.6875q0.109375 0 0.203125 0.015625q0.09375 0.015625 0.171875 0.046875l0 1.578125q-0.140625 -0.03125 -0.28125 -0.03125q-0.140625 -0.015625 -0.328125 -0.015625q-0.859375 0 -1.28125 0.53125q-0.40625 0.515625 -0.40625 1.40625l0 2.8437462l-1.6875 0l0 -6.203121l1.609375 0l0 1.15625l0.03125 0q0.265625 -0.609375 0.796875 -0.96875q0.546875 -0.359375 1.171875 -0.359375zm3.8261719 0q1.375 0 2.203125 0.953125q0.828125 0.9375 0.828125 2.421875l-0.015625 0.3125l-4.484375 0q0.046875 0.796875 0.421875 1.1875q0.390625 0.390625 1.09375 0.390625q0.46875 0 0.859375 -0.234375q0.390625 -0.25 0.5 -0.578125l1.5 0q-0.34375 1.0468712 -1.0625 1.5781212q-0.71875 0.515625 -1.84375 0.515625q-1.4375 0 -2.3125 -0.90625q-0.859375 -0.9062462 -0.859375 -2.3593712q0 -1.390625 0.890625 -2.328125q0.890625 -0.953125 2.28125 -0.953125zm-1.46875 2.609375l2.78125 0q-0.125 -0.6875 -0.453125 -1.0q-0.3125 -0.328125 -0.921875 -0.328125q-0.609375 0 -0.984375 0.359375q-0.359375 0.34375 -0.421875 0.96875zm8.34375 -2.609375q1.375 0 2.046875 0.453125q0.671875 0.453125 0.671875 1.28125l0 3.328125q0 0.3749962 0.046875 0.7499962q0.046875 0.375 0.171875 0.5625l-1.734375 0q-0.046875 -0.140625 -0.078125 -0.28125q-0.03125 -0.15625 -0.046875 -0.3125q-0.359375 0.375 -0.890625 0.578125q-0.515625 0.1875 -1.1875 0.1875q-0.96875 0 -1.546875 -0.484375q-0.5625 -0.484375 -0.5625 -1.3749962q0 -0.875 0.53125 -1.328125q0.546875 -0.46875 1.96875 -0.625q0.984375 -0.09375 1.296875 -0.234375q0.328125 -0.15625 0.328125 -0.53125q0 -0.40625 -0.25 -0.609375q-0.234375 -0.21875 -0.84375 -0.21875q-0.53125 0 -0.8125 0.234375q-0.28125 0.21875 -0.328125 0.703125l-1.703125 0q0.0625 -1.015625 0.828125 -1.546875q0.78125 -0.53125 2.09375 -0.53125zm-1.40625 4.609375q0 0.375 0.25 0.59375q0.25 0.20312119 0.796875 0.20312119q0.671875 0 1.015625 -0.3593712q0.359375 -0.359375 0.359375 -1.046875l0 -0.65625q-0.15625 0.125 -0.40625 0.1875q-0.25 0.046875 -0.890625 0.140625q-0.59375 0.078125 -0.859375 0.3125q-0.265625 0.21875 -0.265625 0.625zm9.015617 -4.609375q0.703125 0 1.140625 0.265625q0.453125 0.265625 0.671875 0.765625q0.359375 -0.5 0.828125 -0.765625q0.484375 -0.265625 1.0625 -0.265625q1.125 0 1.6875 0.578125q0.5625 0.578125 0.5625 1.59375l0 4.203121l-1.703125 0l0 -3.5937462q0 -0.84375 -0.25 -1.140625q-0.25 -0.296875 -0.78125 -0.296875q-0.578125 0 -0.875 0.390625q-0.28125 0.390625 -0.28125 1.125l0 3.5156212l-1.703125 0l0 -3.8281212q0 -0.609375 -0.234375 -0.90625q-0.234375 -0.296875 -0.78125 -0.296875q-0.484375 0 -0.828125 0.375q-0.328125 0.375 -0.328125 1.015625l0 3.6406212l-1.7031174 0l0 -6.203121l1.5937424 0l0 0.84375l0.03125 0q0.359375 -0.515625 0.828125 -0.765625q0.484375 -0.25 1.0625 -0.25zm9.056641 -2.1875l0 1.390625l-1.703125 0l0 -1.390625l1.703125 0zm0 2.359375l0 6.203121l-1.703125 0l0 -6.203121l1.703125 0zm4.890625 -0.171875q1.1875 0 1.71875 0.609375q0.546875 0.59375 0.546875 1.890625l0 3.8749962l-1.703125 0l0 -3.5624962q0 -0.71875 -0.25 -1.09375q-0.25 -0.375 -0.84375 -0.375q-0.703125 0 -1.015625 0.421875q-0.3125 0.421875 -0.3125 1.296875l0 3.3124962l-1.6875 0l0 -6.203121l1.609375 0l0 0.859375l0.03125 0q0.3125 -0.5 0.8125 -0.765625q0.5 -0.265625 1.09375 -0.265625zm6.0351562 0q0.671875 0 1.109375 0.265625q0.453125 0.25 0.734375 0.734375l0.03125 0l0 -0.828125l1.609375 0l0 5.859371q0 1.25 -0.796875 1.96875q-0.796875 0.71875 -2.40625 0.71875q-1.09375 0 -1.890625 -0.53125q-0.78125 -0.515625 -0.859375 -1.453125l1.6875 0q0.125 0.453125 0.453125 0.65625q0.328125 0.203125 0.828125 0.203125q0.65625 0 1.015625 -0.40625q0.359375 -0.390625 0.359375 -1.09375l0 -0.8593712l-0.03125 0q-0.25 0.4531212 -0.75 0.7031212q-0.484375 0.25 -1.109375 0.25q-1.25 0 -1.953125 -0.8281212q-0.703125 -0.828125 -0.703125 -2.28125q0 -1.3125 0.734375 -2.1875q0.734375 -0.890625 1.9375 -0.890625zm-0.96875 3.046875q0 0.875 0.359375 1.375q0.375 0.484375 1.03125 0.484375q0.671875 0 1.0625 -0.484375q0.390625 -0.5 0.390625 -1.234375q0 -0.90625 -0.375 -1.40625q-0.375 -0.5 -1.09375 -0.5q-0.625 0 -1.0 0.484375q-0.375 0.484375 -0.375 1.28125zm11.9921875 -5.234375l2.0 5.890625l0.03125 0l1.890625 -5.875l0 -0.015625l2.65625 0l0 8.562496l-1.765625 0l0 -6.078121l-0.03125 0l-2.09375 6.078121l-1.453125 0l-2.109375 -6.015621l-0.015625 0l0 6.015621l-1.765625 0l0 -8.562496l2.65625 0zm9.746094 2.359375l0 3.546875q0 0.703125 0.25 1.09375q0.25 0.390625 0.859375 0.390625q0.703125 0 1.0 -0.421875q0.3125 -0.4375 0.3125 -1.296875l0 -3.3125l1.703125 0l0 6.203121l-1.625 0l0 -0.859375l-0.03125 0q-0.328125 0.515625 -0.84375 0.78125q-0.5 0.25 -1.0625 0.25q-1.15625 0 -1.703125 -0.59375q-0.546875 -0.5937462 -0.546875 -1.9062462l0 -3.875l1.6875 0zm7.1757812 -2.359375l0 8.562496l-1.703125 0l0 -8.562496l1.703125 0zm3.5 0.5l0 1.859375l1.25 0l0 1.140625l-1.25 0l0 3.109375q0 0.375 0.140625 0.53125q0.140625 0.15625 0.578125 0.15625q0.140625 0 0.265625 -0.015625q0.140625 -0.015625 0.265625 -0.03125l0 1.3281212q-0.21875 0.03125 -0.484375 0.046875q-0.25 0.015625 -0.5 0.015625q-1.109375 0 -1.546875 -0.375q-0.421875 -0.390625 -0.421875 -1.0624962l0 -3.703125l-1.03125 0l0 -1.140625l1.03125 0l0 -1.859375l1.703125 0zm3.8183594 -0.5l0 1.390625l-1.703125 0l0 -1.390625l1.703125 0zm0 2.359375l0 6.203121l-1.703125 0l0 -6.203121l1.703125 0zm4.828125 -0.171875q1.328125 0 2.078125 0.921875q0.75 0.921875 0.75 2.421875q0 1.375 -0.75 2.2968712q-0.734375 0.90625 -1.984375 0.90625q-0.5625 0 -1.0625 -0.234375q-0.484375 -0.25 -0.796875 -0.703125l-0.03125 0l0 2.953125l-1.6875 0l0 -8.390621l1.609375 0l0 0.78125l0.03125 0q0.296875 -0.484375 0.765625 -0.71875q0.484375 -0.234375 1.078125 -0.234375zm-1.84375 3.296875q0 0.890625 0.375 1.4375q0.375 0.53125 1.109375 0.53125q0.703125 0 1.078125 -0.515625q0.390625 -0.515625 0.390625 -1.453125q0 -0.890625 -0.375 -1.453125q-0.375 -0.5625 -1.125 -0.5625q-0.703125 0 -1.078125 0.53125q-0.375 0.53125 -0.375 1.484375zm9.298828 -3.296875q0.109375 0 0.203125 0.015625q0.09375 0.015625 0.171875 0.046875l0 1.578125q-0.140625 -0.03125 -0.28125 -0.03125q-0.140625 -0.015625 -0.328125 -0.015625q-0.859375 0 -1.28125 0.53125q-0.40625 0.515625 -0.40625 1.40625l0 2.8437462l-1.6875 0l0 -6.203121l1.609375 0l0 1.15625l0.03125 0q0.265625 -0.609375 0.796875 -0.96875q0.546875 -0.359375 1.171875 -0.359375zm3.9667969 0q1.46875 0 2.34375 0.90625q0.875 0.890625 0.875 2.375q0 1.484375 -0.890625 2.3749962q-0.875 0.890625 -2.328125 0.890625q-1.4375 0 -2.328125 -0.890625q-0.875 -0.9062462 -0.875 -2.3749962q0 -1.46875 0.859375 -2.375q0.875 -0.90625 2.34375 -0.90625zm-1.5 3.28125q0 0.984375 0.40625 1.484375q0.40625 0.5 1.09375 0.5q0.734375 0 1.125 -0.515625q0.390625 -0.53125 0.390625 -1.46875q0 -0.921875 -0.390625 -1.453125q-0.375 -0.546875 -1.125 -0.546875q-0.6875 0 -1.09375 0.5q-0.40625 0.5 -0.40625 1.5zm8.798828 -3.28125q1.203125 0 2.015625 0.625q0.828125 0.625 0.90625 1.734375l-1.671875 0q-0.078125 -0.53125 -0.40625 -0.796875q-0.3125 -0.28125 -0.859375 -0.28125q-0.6875 0 -1.078125 0.5625q-0.375 0.5625 -0.375 1.453125q0 0.890625 0.375 1.4375q0.375 0.53125 1.046875 0.53125q0.5625 0 0.90625 -0.328125q0.359375 -0.328125 0.453125 -0.9375l1.640625 0q-0.171875 1.21875 -0.96875 1.8906212q-0.78125 0.65625 -2.015625 0.65625q-1.390625 0 -2.265625 -0.890625q-0.875 -0.8906212 -0.875 -2.2968712q0 -1.5 0.859375 -2.421875q0.859375 -0.9375 2.3125 -0.9375zm6.78125 0q1.375 0 2.203125 0.953125q0.828125 0.9375 0.828125 2.421875l-0.015625 0.3125l-4.484375 0q0.046875 0.796875 0.421875 1.1875q0.390625 0.390625 1.09375 0.390625q0.46875 0 0.859375 -0.234375q0.390625 -0.25 0.5 -0.578125l1.5 0q-0.34375 1.0468712 -1.0625 1.5781212q-0.71875 0.515625 -1.84375 0.515625q-1.4375 0 -2.3125 -0.90625q-0.859375 -0.9062462 -0.859375 -2.3593712q0 -1.390625 0.890625 -2.328125q0.890625 -0.953125 2.28125 -0.953125zm-1.46875 2.609375l2.78125 0q-0.125 -0.6875 -0.453125 -1.0q-0.3125 -0.328125 -0.921875 -0.328125q-0.609375 0 -0.984375 0.359375q-0.359375 0.34375 -0.421875 0.96875zm8.03125 -2.609375q1.265625 0 1.953125 0.5q0.703125 0.5 0.796875 1.484375l-1.625 0q-0.046875 -0.4375 -0.34375 -0.640625q-0.28125 -0.203125 -0.828125 -0.203125q-0.484375 0 -0.71875 0.15625q-0.21875 0.140625 -0.21875 0.421875q0 0.28125 0.296875 0.46875q0.296875 0.1875 1.1875 0.359375q1.421875 0.265625 1.90625 0.703125q0.5 0.4375 0.5 1.140625q0 1.0468712 -0.78125 1.6093712q-0.765625 0.546875 -2.046875 0.546875q-1.296875 0 -2.078125 -0.546875q-0.78125 -0.546875 -0.84375 -1.6406212l1.625 0q0 0.484375 0.375 0.765625q0.375 0.2812462 0.9375 0.2812462q0.5 0 0.796875 -0.21874619q0.3125 -0.21875 0.3125 -0.578125q0 -0.328125 -0.40625 -0.53125q-0.390625 -0.203125 -1.46875 -0.421875q-1.078125 -0.21875 -1.546875 -0.609375q-0.46875 -0.390625 -0.46875 -1.0625q0 -0.984375 0.6875 -1.484375q0.703125 -0.5 2.0 -0.5zm6.4453125 0q1.265625 0 1.953125 0.5q0.703125 0.5 0.796875 1.484375l-1.625 0q-0.046875 -0.4375 -0.34375 -0.640625q-0.28125 -0.203125 -0.828125 -0.203125q-0.484375 0 -0.71875 0.15625q-0.21875 0.140625 -0.21875 0.421875q0 0.28125 0.296875 0.46875q0.296875 0.1875 1.1875 0.359375q1.421875 0.265625 1.90625 0.703125q0.5 0.4375 0.5 1.140625q0 1.0468712 -0.78125 1.6093712q-0.765625 0.546875 -2.046875 0.546875q-1.296875 0 -2.078125 -0.546875q-0.78125 -0.546875 -0.84375 -1.6406212l1.625 0q0 0.484375 0.375 0.765625q0.375 0.2812462 0.9375 0.2812462q0.5 0 0.796875 -0.21874619q0.3125 -0.21875 0.3125 -0.578125q0 -0.328125 -0.40625 -0.53125q-0.390625 -0.203125 -1.46875 -0.421875q-1.078125 -0.21875 -1.546875 -0.609375q-0.46875 -0.390625 -0.46875 -1.0625q0 -0.984375 0.6875 -1.484375q0.703125 -0.5 2.0 -0.5zm6.9140625 0q1.46875 0 2.34375 0.90625q0.875 0.890625 0.875 2.375q0 1.484375 -0.890625 2.3749962q-0.875 0.890625 -2.328125 0.890625q-1.4375 0 -2.328125 -0.890625q-0.875 -0.9062462 -0.875 -2.3749962q0 -1.46875 0.859375 -2.375q0.875 -0.90625 2.34375 -0.90625zm-1.5 3.28125q0 0.984375 0.40625 1.484375q0.40625 0.5 1.09375 0.5q0.734375 0 1.125 -0.515625q0.390625 -0.53125 0.390625 -1.46875q0 -0.921875 -0.390625 -1.453125q-0.375 -0.546875 -1.125 -0.546875q-0.6875 0 -1.09375 0.5q-0.40625 0.5 -0.40625 1.5zm9.439453 -3.28125q0.109375 0 0.203125 0.015625q0.09375 0.015625 0.171875 0.046875l0 1.578125q-0.140625 -0.03125 -0.28125 -0.03125q-0.140625 -0.015625 -0.328125 -0.015625q-0.859375 0 -1.28125 0.53125q-0.40625 0.515625 -0.40625 1.40625l0 2.8437462l-1.6875 0l0 -6.203121l1.609375 0l0 1.15625l0.03125 0q0.265625 -0.609375 0.796875 -0.96875q0.546875 -0.359375 1.171875 -0.359375zm3.0351562 -2.1875l0 1.9375q0 0.6875 -0.46875 1.25q-0.453125 0.546875 -1.21875 0.65625l0 -0.796875q0.40625 -0.140625 0.59375 -0.421875q0.1875 -0.28125 0.1875 -0.78125l-0.78125 0l0 -1.84375l1.6875 0zm2.5625 0l0 1.875q0 0.75 -0.46875 1.3125q-0.46875 0.546875 -1.234375 0.65625l0 -0.796875q0.40625 -0.140625 0.59375 -0.421875q0.203125 -0.28125 0.203125 -0.78125l-0.796875 0l0 -1.84375l1.703125 0zm1.9921875 -0.203125q0.78125 1.265625 1.1875 2.65625q0.40625 1.390625 0.40625 2.75q0 1.375 -0.421875 2.9062462q-0.40625 1.515625 -1.171875 2.640625l-1.421875 0q0.65625 -1.25 0.96875 -2.609375q0.328125 -1.3749962 0.328125 -2.8124962q0 -1.5 -0.328125 -2.875q-0.3125 -1.390625 -0.96875 -2.65625l1.421875 0z" fill-rule="nonzero"/><path fill="#b7b7b7" d="m51.70341 77.4355l219.52754 0l0 22.67717l-219.52754 0z" fill-rule="evenodd"/><path stroke="#000000" stroke-width="1.0" stroke-linejoin="round" stroke-linecap="butt" d="m51.70341 77.4355l219.52754 0l0 22.67717l-219.52754 0z" fill-rule="evenodd"/><path fill="#000000" d="m123.97817 82.381584l0 10.859375l6.4999924 0l0 2.453125l-9.437492 0l0 -13.3125l2.9375 0zm14.152672 0.25l0 13.0625l-2.640625 0l0 -8.46875l-3.28125 0l0 -2.0l0.171875 0q1.59375 0 2.515625 -0.65625q0.9375 -0.65625 1.125 -1.9375l2.109375 0zm15.512146 -0.578125q2.265625 0 3.859375 1.28125q1.59375 1.28125 1.875 3.515625l-2.828125 0q-0.203125 -1.046875 -1.046875 -1.6875q-0.84375 -0.640625 -1.875 -0.640625q-1.71875 0 -2.671875 1.25q-0.9375 1.25 -0.9375 3.3125q0 1.984375 0.9375 3.21875q0.9375 1.234375 2.6875 1.234375q1.265625 0 2.046875 -0.765625q0.78125 -0.78125 0.96875 -2.203125l2.84375 0q-0.265625 2.53125 -1.859375 3.984375q-1.578125 1.453125 -4.0 1.453125q-1.921875 0 -3.421875 -0.875q-1.5 -0.875 -2.328125 -2.46875q-0.8125 -1.609375 -0.8125 -3.578125q0 -3.0625 1.796875 -5.046875q1.796875 -1.984375 4.765625 -1.984375zm11.772232 3.734375q2.140625 0 3.1875 0.703125q1.046875 0.703125 1.046875 1.984375l0 5.171875q0 0.578125 0.0625 1.171875q0.078125 0.578125 0.265625 0.875l-2.6875 0q-0.078125 -0.21875 -0.125 -0.453125q-0.046875 -0.234375 -0.0625 -0.46875q-0.5625 0.578125 -1.390625 0.890625q-0.8125 0.296875 -1.859375 0.296875q-1.484375 0 -2.390625 -0.75q-0.890625 -0.75 -0.890625 -2.140625q0 -1.359375 0.84375 -2.0625q0.84375 -0.71875 3.046875 -0.96875q1.546875 -0.140625 2.03125 -0.375q0.5 -0.234375 0.5 -0.8125q0 -0.640625 -0.375 -0.96875q-0.375 -0.328125 -1.328125 -0.328125q-0.828125 0 -1.265625 0.359375q-0.4375 0.34375 -0.5 1.109375l-2.65625 0q0.109375 -1.59375 1.296875 -2.40625q1.203125 -0.828125 3.25 -0.828125zm-2.1875 7.171875q0 0.5625 0.390625 0.890625q0.390625 0.328125 1.234375 0.328125q1.0625 0 1.59375 -0.546875q0.546875 -0.5625 0.546875 -1.625l0 -1.03125q-0.234375 0.1875 -0.625 0.28125q-0.390625 0.09375 -1.40625 0.25q-0.890625 0.109375 -1.3125 0.46875q-0.421875 0.34375 -0.421875 0.984375zm13.087769 -7.171875q1.875 0 3.15625 0.96875q1.2812653 0.96875 1.3906403 2.6875l-2.6093903 0q-0.109375 -0.828125 -0.609375 -1.234375q-0.484375 -0.421875 -1.34375 -0.421875q-1.0625 0 -1.65625 0.875q-0.59375 0.875 -0.59375 2.265625q0 1.375 0.578125 2.203125q0.59375 0.828125 1.625 0.828125q0.875 0 1.421875 -0.5q0.546875 -0.5 0.6875 -1.46875l2.5468903 0q-0.265625 1.921875 -1.5000153 2.953125q-1.21875 1.015625 -3.140625 1.015625q-2.15625 0 -3.515625 -1.375q-1.359375 -1.390625 -1.359375 -3.578125q0 -2.328125 1.328125 -3.765625q1.34375 -1.453125 3.59375 -1.453125zm8.744034 -3.40625l0 5.015625l0.0625 0q0.421875 -0.71875 1.1875 -1.15625q0.765625 -0.453125 1.640625 -0.453125q1.84375 0 2.671875 0.9375q0.84375 0.9375 0.84375 2.9375l0 6.03125l-2.65625 0l0 -5.53125q0 -1.125 -0.390625 -1.703125q-0.390625 -0.578125 -1.296875 -0.578125q-1.109375 0 -1.59375 0.65625q-0.46875 0.65625 -0.46875 2.015625l0 5.140625l-2.640625 0l0 -13.3125l2.640625 0zm12.871429 3.40625q2.140625 0 3.421875 1.484375q1.28125 1.46875 1.28125 3.75l-0.03125 0.484375l-6.953125 0q0.0625 1.25 0.65625 1.859375q0.59375 0.59375 1.703125 0.59375q0.71875 0 1.328125 -0.359375q0.609375 -0.375 0.78125 -0.890625l2.328125 0q-0.53125 1.640625 -1.65625 2.453125q-1.125 0.796875 -2.859375 0.796875q-2.234375 0 -3.59375 -1.40625q-1.34375 -1.421875 -1.34375 -3.671875q0 -2.15625 1.375 -3.625q1.390625 -1.46875 3.5625 -1.46875zm-2.28125 4.046875l4.3125 0q-0.1875 -1.0625 -0.6875 -1.546875q-0.5 -0.5 -1.4375 -0.5q-0.96875 0 -1.53125 0.546875q-0.5625 0.546875 -0.65625 1.5z" fill-rule="nonzero"/><path fill="#d9d9d9" d="m78.132545 109.1706l73.73229 0l0 73.73228l-73.73229 0z" fill-rule="evenodd"/><path stroke="#000000" stroke-width="1.0" stroke-linejoin="round" stroke-linecap="butt" d="m78.132545 109.1706l73.73229 0l0 73.73228l-73.73229 0z" fill-rule="evenodd"/><path fill="#000000" fill-opacity="0.0" d="m72.01051 103.52973l85.98425 0l0 51.71653l-85.98425 0z" fill-rule="evenodd"/><path fill="#000000" d="m83.15114 115.8141l1.5 6.46875l0.015625 0l1.65625 -6.46875l1.96875 0l1.625 6.546875l0.015625 0l1.5625 -6.546875l2.0625 0l-2.5625 9.515625l-2.078125 0l-1.609375 -6.46875l-0.03125 0l-1.59375 6.46875l-2.109375 0l-2.53125 -9.515625l2.109375 0zm14.010712 2.4375q1.53125 0 2.265625 0.5q0.75 0.5 0.75 1.421875l0 3.6875q0 0.421875 0.046875 0.84375q0.0625 0.40625 0.1875 0.625l-1.921875 0q-0.046875 -0.15625 -0.078125 -0.3125q-0.03125 -0.171875 -0.046875 -0.34375q-0.40625 0.40625 -1.0 0.625q-0.578125 0.21875 -1.328125 0.21875q-1.0625 0 -1.703125 -0.53125q-0.640625 -0.546875 -0.640625 -1.53125q0 -0.96875 0.59375 -1.46875q0.609375 -0.515625 2.1875 -0.703125q1.109375 -0.09375 1.453125 -0.265625q0.359375 -0.171875 0.359375 -0.578125q0 -0.453125 -0.28125 -0.6875q-0.265625 -0.234375 -0.9375 -0.234375q-0.59375 0 -0.90625 0.25q-0.3125 0.25 -0.359375 0.796875l-1.890625 0q0.078125 -1.140625 0.921875 -1.71875q0.859375 -0.59375 2.328125 -0.59375zm-1.578125 5.125q0 0.40625 0.28125 0.640625q0.28125 0.234375 0.890625 0.234375q0.75 0 1.140625 -0.390625q0.390625 -0.40625 0.390625 -1.171875l0 -0.734375q-0.171875 0.140625 -0.453125 0.21875q-0.28125 0.0625 -1.0 0.15625q-0.640625 0.09375 -0.953125 0.34375q-0.296875 0.25 -0.296875 0.703125zm10.075134 -5.125q0.125 0 0.21875 0.015625q0.109375 0.015625 0.203125 0.046875l0 1.765625q-0.15625 -0.03125 -0.3125 -0.046875q-0.15625 -0.015625 -0.359375 -0.015625q-0.953125 0 -1.421875 0.59375q-0.453125 0.578125 -0.453125 1.5625l0 3.15625l-1.890625 0l0 -6.890625l1.796875 0l0 1.28125l0.03125 0q0.296875 -0.671875 0.890625 -1.0625q0.59375 -0.40625 1.296875 -0.40625zm5.046158 0q1.46875 0 2.296875 1.03125q0.84375 1.015625 0.84375 2.671875q0 1.53125 -0.828125 2.546875q-0.8125 1.015625 -2.203125 1.015625q-0.625 0 -1.171875 -0.265625q-0.546875 -0.265625 -0.890625 -0.78125l-0.03125 0l0 3.28125l-1.890625 0l0 -9.3125l1.796875 0l0 0.875l0.03125 0q0.34375 -0.53125 0.859375 -0.796875q0.53125 -0.265625 1.1875 -0.265625zm-2.046875 3.65625q0 0.984375 0.421875 1.59375q0.421875 0.59375 1.234375 0.59375q0.78125 0 1.203125 -0.5625q0.4375 -0.578125 0.4375 -1.625q0 -0.984375 -0.4375 -1.609375q-0.421875 -0.625 -1.234375 -0.625q-0.78125 0 -1.203125 0.59375q-0.421875 0.578125 -0.421875 1.640625z" fill-rule="nonzero"/><path fill="#000000" d="m85.21364 131.57973q1.71875 0 2.75 0.8125q1.046875 0.796875 1.046875 2.265625l-2.015625 0q-0.046875 -0.71875 -0.5 -1.078125q-0.4375 -0.359375 -1.375 -0.359375q-0.640625 0 -1.046875 0.28125q-0.40625 0.265625 -0.40625 0.796875q0 0.359375 0.171875 0.53125q0.171875 0.171875 0.6875 0.375q0.53125 0.1875 2.296875 0.59375q1.1875 0.296875 1.84375 0.984375q0.671875 0.671875 0.671875 1.71875q0 1.390625 -1.046875 2.234375q-1.03125 0.828125 -2.90625 0.828125q-1.796875 0 -2.9375 -0.890625q-1.125 -0.890625 -1.125 -2.453125l0 -0.046875l2.03125 0q0 0.890625 0.578125 1.328125q0.578125 0.421875 1.515625 0.421875q0.859375 0 1.359375 -0.296875q0.5 -0.3125 0.5 -0.875q0 -0.46875 -0.390625 -0.765625q-0.375 -0.296875 -1.234375 -0.515625q-1.09375 -0.234375 -1.984375 -0.515625q-0.890625 -0.28125 -1.484375 -0.890625q-0.578125 -0.625 -0.578125 -1.59375q0 -1.28125 1.03125 -2.078125q1.03125 -0.8125 2.546875 -0.8125zm8.461472 2.671875q1.34375 0 2.25 0.703125q0.921875 0.6875 1.0 1.90625l-1.859375 0q-0.078125 -0.59375 -0.4375 -0.890625q-0.34375 -0.296875 -0.953125 -0.296875q-0.765625 0 -1.1875 0.625q-0.421875 0.625 -0.421875 1.625q0 0.984375 0.40625 1.578125q0.421875 0.59375 1.15625 0.59375q0.625 0 1.015625 -0.359375q0.390625 -0.359375 0.5 -1.046875l1.8125 0q-0.1875 1.359375 -1.0625 2.09375q-0.875 0.734375 -2.25 0.734375q-1.53125 0 -2.515625 -0.984375q-0.96875 -0.984375 -0.96875 -2.546875q0 -1.671875 0.953125 -2.703125q0.96875 -1.03125 2.5625 -1.03125zm6.2470093 -2.4375l0 3.59375l0.046875 0q0.296875 -0.515625 0.84375 -0.828125q0.546875 -0.328125 1.171875 -0.328125q1.328125 0 1.921875 0.671875q0.59375 0.671875 0.59375 2.09375l0 4.3125l-1.890625 0l0 -3.953125q0 -0.796875 -0.28125 -1.203125q-0.28125 -0.421875 -0.9375 -0.421875q-0.78125 0 -1.125 0.46875q-0.34375 0.46875 -0.34375 1.4375l0 3.671875l-1.890625 0l0 -9.515625l1.890625 0zm9.197433 2.4375q1.53125 0 2.4375 1.0625q0.921875 1.046875 0.921875 2.671875l-0.015625 0.359375l-4.96875 0q0.03125 0.890625 0.453125 1.328125q0.4375 0.421875 1.234375 0.421875q0.515625 0 0.9375 -0.265625q0.4375 -0.265625 0.5625 -0.640625l1.65625 0q-0.375 1.171875 -1.1875 1.75q-0.796875 0.578125 -2.03125 0.578125q-1.59375 0 -2.5625 -1.0q-0.953125 -1.015625 -0.953125 -2.625q0 -1.546875 0.984375 -2.59375q0.984375 -1.046875 2.53125 -1.046875zm-1.625 2.890625l3.078125 0q-0.140625 -0.765625 -0.5 -1.109375q-0.34375 -0.359375 -1.015625 -0.359375q-0.6875 0 -1.09375 0.390625q-0.40625 0.390625 -0.46875 1.078125zm12.809509 -5.328125l0 9.515625l-1.796875 0l0 -0.875l-0.03125 0q-0.3125 0.53125 -0.84375 0.796875q-0.53125 0.265625 -1.25 0.265625q-1.40625 0 -2.25 -1.03125q-0.84375 -1.046875 -0.84375 -2.65625q0 -1.546875 0.828125 -2.5625q0.828125 -1.015625 2.234375 -1.015625q0.640625 0 1.171875 0.265625q0.53125 0.265625 0.859375 0.765625l0.03125 0l0 -3.46875l1.890625 0zm-5.125 6.0625q0 0.953125 0.453125 1.59375q0.453125 0.625 1.21875 0.625q0.78125 0 1.203125 -0.578125q0.421875 -0.59375 0.421875 -1.65625q0 -1.0 -0.40625 -1.59375q-0.40625 -0.59375 -1.234375 -0.59375q-0.78125 0 -1.21875 0.59375q-0.4375 0.59375 -0.4375 1.609375zm8.438232 -3.4375l0 3.953125q0 0.78125 0.265625 1.203125q0.28125 0.421875 0.953125 0.421875q0.78125 0 1.125 -0.46875q0.34375 -0.46875 0.34375 -1.4375l0 -3.671875l1.890625 0l0 6.890625l-1.8125 0l0 -0.953125l-0.03125 0q-0.359375 0.5625 -0.921875 0.859375q-0.5625 0.28125 -1.1875 0.28125q-1.28125 0 -1.90625 -0.65625q-0.609375 -0.65625 -0.609375 -2.109375l0 -4.3125l1.890625 0zm7.9630585 -2.625l0 9.515625l-1.890625 0l0 -9.515625l1.890625 0zm4.670532 2.4375q1.53125 0 2.4375 1.0625q0.921875 1.046875 0.921875 2.671875l-0.015625 0.359375l-4.96875 0q0.03125 0.890625 0.453125 1.328125q0.4375 0.421875 1.234375 0.421875q0.515625 0 0.9375 -0.265625q0.4375 -0.265625 0.5625 -0.640625l1.65625 0q-0.375 1.171875 -1.1875 1.75q-0.796875 0.578125 -2.03125 0.578125q-1.59375 0 -2.5625 -1.0q-0.953125 -1.015625 -0.953125 -2.625q0 -1.546875 0.984375 -2.59375q0.984375 -1.046875 2.53125 -1.046875zm-1.625 2.890625l3.078125 0q-0.140625 -0.765625 -0.5 -1.109375q-0.34375 -0.359375 -1.015625 -0.359375q-0.6875 0 -1.09375 0.390625q-0.40625 0.390625 -0.46875 1.078125zm10.106384 -2.890625q0.125 0 0.21875 0.015625q0.109375 0.015625 0.203125 0.046875l0 1.765625q-0.15625 -0.03125 -0.3125 -0.046875q-0.15625 -0.015625 -0.359375 -0.015625q-0.953125 0 -1.421875 0.59375q-0.453125 0.578125 -0.453125 1.5625l0 3.15625l-1.890625 0l0 -6.890625l1.796875 0l0 1.28125l0.03125 0q0.296875 -0.671875 0.890625 -1.0625q0.59375 -0.40625 1.296875 -0.40625z" fill-rule="nonzero"/><path fill="#d9d9d9" d="m169.85434 109.1706l73.732285 0l0 73.73228l-73.732285 0z" fill-rule="evenodd"/><path stroke="#000000" stroke-width="1.0" stroke-linejoin="round" stroke-linecap="butt" d="m169.85434 109.1706l73.732285 0l0 73.73228l-73.732285 0z" fill-rule="evenodd"/><path fill="#d9d9d9" d="m78.132545 195.51968l73.73229 0l0 73.73227l-73.73229 0z" fill-rule="evenodd"/><path stroke="#000000" stroke-width="1.0" stroke-linejoin="round" stroke-linecap="butt" d="m78.132545 195.51968l73.73229 0l0 73.73227l-73.73229 0z" fill-rule="evenodd"/><path fill="#d9d9d9" d="m169.85434 195.51968l73.732285 0l0 73.73227l-73.732285 0z" fill-rule="evenodd"/><path stroke="#000000" stroke-width="1.0" stroke-linejoin="round" stroke-linecap="butt" d="m169.85434 195.51968l73.732285 0l0 73.73227l-73.732285 0z" fill-rule="evenodd"/><path fill="#000000" fill-opacity="0.0" d="m163.72968 103.52973l85.98425 0l0 51.71653l-85.98425 0z" fill-rule="evenodd"/><path fill="#000000" d="m174.8703 115.8141l1.5 6.46875l0.015625 0l1.65625 -6.46875l1.96875 0l1.625 6.546875l0.015625 0l1.5625 -6.546875l2.0625 0l-2.5625 9.515625l-2.078125 0l-1.609375 -6.46875l-0.03125 0l-1.59375 6.46875l-2.109375 0l-2.53125 -9.515625l2.109375 0zm14.010712 2.4375q1.53125 0 2.265625 0.5q0.75 0.5 0.75 1.421875l0 3.6875q0 0.421875 0.046875 0.84375q0.0625 0.40625 0.1875 0.625l-1.921875 0q-0.046875 -0.15625 -0.078125 -0.3125q-0.03125 -0.171875 -0.046875 -0.34375q-0.40625 0.40625 -1.0 0.625q-0.578125 0.21875 -1.328125 0.21875q-1.0625 0 -1.703125 -0.53125q-0.640625 -0.546875 -0.640625 -1.53125q0 -0.96875 0.59375 -1.46875q0.609375 -0.515625 2.1875 -0.703125q1.109375 -0.09375 1.453125 -0.265625q0.359375 -0.171875 0.359375 -0.578125q0 -0.453125 -0.28125 -0.6875q-0.265625 -0.234375 -0.9375 -0.234375q-0.59375 0 -0.90625 0.25q-0.3125 0.25 -0.359375 0.796875l-1.890625 0q0.078125 -1.140625 0.921875 -1.71875q0.859375 -0.59375 2.328125 -0.59375zm-1.578125 5.125q0 0.40625 0.28125 0.640625q0.28125 0.234375 0.890625 0.234375q0.75 0 1.140625 -0.390625q0.390625 -0.40625 0.390625 -1.171875l0 -0.734375q-0.171875 0.140625 -0.453125 0.21875q-0.28125 0.0625 -1.0 0.15625q-0.640625 0.09375 -0.953125 0.34375q-0.296875 0.25 -0.296875 0.703125zm10.075134 -5.125q0.125 0 0.21875 0.015625q0.109375 0.015625 0.203125 0.046875l0 1.765625q-0.15625 -0.03125 -0.3125 -0.046875q-0.15625 -0.015625 -0.359375 -0.015625q-0.953125 0 -1.421875 0.59375q-0.453125 0.578125 -0.453125 1.5625l0 3.15625l-1.890625 0l0 -6.890625l1.796875 0l0 1.28125l0.03125 0q0.296875 -0.671875 0.890625 -1.0625q0.59375 -0.40625 1.296875 -0.40625zm5.046158 0q1.46875 0 2.296875 1.03125q0.84375 1.015625 0.84375 2.671875q0 1.53125 -0.828125 2.546875q-0.8125 1.015625 -2.203125 1.015625q-0.625 0 -1.171875 -0.265625q-0.546875 -0.265625 -0.890625 -0.78125l-0.03125 0l0 3.28125l-1.890625 0l0 -9.3125l1.796875 0l0 0.875l0.03125 0q0.34375 -0.53125 0.859375 -0.796875q0.53125 -0.265625 1.1875 -0.265625zm-2.046875 3.65625q0 0.984375 0.421875 1.59375q0.421875 0.59375 1.234375 0.59375q0.78125 0 1.203125 -0.5625q0.4375 -0.578125 0.4375 -1.625q0 -0.984375 -0.4375 -1.609375q-0.421875 -0.625 -1.234375 -0.625q-0.78125 0 -1.203125 0.59375q-0.421875 0.578125 -0.421875 1.640625z" fill-rule="nonzero"/><path fill="#000000" d="m176.9328 131.57973q1.71875 0 2.75 0.8125q1.046875 0.796875 1.046875 2.265625l-2.015625 0q-0.046875 -0.71875 -0.5 -1.078125q-0.4375 -0.359375 -1.375 -0.359375q-0.640625 0 -1.046875 0.28125q-0.40625 0.265625 -0.40625 0.796875q0 0.359375 0.171875 0.53125q0.171875 0.171875 0.6875 0.375q0.53125 0.1875 2.296875 0.59375q1.1875 0.296875 1.84375 0.984375q0.671875 0.671875 0.671875 1.71875q0 1.390625 -1.046875 2.234375q-1.03125 0.828125 -2.90625 0.828125q-1.796875 0 -2.9375 -0.890625q-1.125 -0.890625 -1.125 -2.453125l0 -0.046875l2.03125 0q0 0.890625 0.578125 1.328125q0.578125 0.421875 1.515625 0.421875q0.859375 0 1.359375 -0.296875q0.5 -0.3125 0.5 -0.875q0 -0.46875 -0.390625 -0.765625q-0.375 -0.296875 -1.234375 -0.515625q-1.09375 -0.234375 -1.984375 -0.515625q-0.890625 -0.28125 -1.484375 -0.890625q-0.578125 -0.625 -0.578125 -1.59375q0 -1.28125 1.03125 -2.078125q1.03125 -0.8125 2.546875 -0.8125zm8.461472 2.671875q1.34375 0 2.25 0.703125q0.921875 0.6875 1.0 1.90625l-1.859375 0q-0.078125 -0.59375 -0.4375 -0.890625q-0.34375 -0.296875 -0.953125 -0.296875q-0.765625 0 -1.1875 0.625q-0.421875 0.625 -0.421875 1.625q0 0.984375 0.40625 1.578125q0.421875 0.59375 1.15625 0.59375q0.625 0 1.015625 -0.359375q0.390625 -0.359375 0.5 -1.046875l1.8125 0q-0.1875 1.359375 -1.0625 2.09375q-0.875 0.734375 -2.25 0.734375q-1.53125 0 -2.515625 -0.984375q-0.96875 -0.984375 -0.96875 -2.546875q0 -1.671875 0.953125 -2.703125q0.96875 -1.03125 2.5625 -1.03125zm6.2470093 -2.4375l0 3.59375l0.046875 0q0.296875 -0.515625 0.84375 -0.828125q0.546875 -0.328125 1.171875 -0.328125q1.328125 0 1.921875 0.671875q0.59375 0.671875 0.59375 2.09375l0 4.3125l-1.890625 0l0 -3.953125q0 -0.796875 -0.28125 -1.203125q-0.28125 -0.421875 -0.9375 -0.421875q-0.78125 0 -1.125 0.46875q-0.34375 0.46875 -0.34375 1.4375l0 3.671875l-1.890625 0l0 -9.515625l1.890625 0zm9.197433 2.4375q1.53125 0 2.4375 1.0625q0.921875 1.046875 0.921875 2.671875l-0.015625 0.359375l-4.96875 0q0.03125 0.890625 0.453125 1.328125q0.4375 0.421875 1.234375 0.421875q0.515625 0 0.9375 -0.265625q0.4375 -0.265625 0.5625 -0.640625l1.65625 0q-0.375 1.171875 -1.1875 1.75q-0.796875 0.578125 -2.03125 0.578125q-1.59375 0 -2.5625 -1.0q-0.953125 -1.015625 -0.953125 -2.625q0 -1.546875 0.984375 -2.59375q0.984375 -1.046875 2.53125 -1.046875zm-1.625 2.890625l3.078125 0q-0.140625 -0.765625 -0.5 -1.109375q-0.34375 -0.359375 -1.015625 -0.359375q-0.6875 0 -1.09375 0.390625q-0.40625 0.390625 -0.46875 1.078125zm12.809509 -5.328125l0 9.515625l-1.796875 0l0 -0.875l-0.03125 0q-0.3125 0.53125 -0.84375 0.796875q-0.53125 0.265625 -1.25 0.265625q-1.40625 0 -2.25 -1.03125q-0.84375 -1.046875 -0.84375 -2.65625q0 -1.546875 0.828125 -2.5625q0.828125 -1.015625 2.234375 -1.015625q0.640625 0 1.171875 0.265625q0.53125 0.265625 0.859375 0.765625l0.03125 0l0 -3.46875l1.890625 0zm-5.125 6.0625q0 0.953125 0.453125 1.59375q0.453125 0.625 1.21875 0.625q0.78125 0 1.203125 -0.578125q0.421875 -0.59375 0.421875 -1.65625q0 -1.0 -0.40625 -1.59375q-0.40625 -0.59375 -1.234375 -0.59375q-0.78125 0 -1.21875 0.59375q-0.4375 0.59375 -0.4375 1.609375zm8.438232 -3.4375l0 3.953125q0 0.78125 0.265625 1.203125q0.28125 0.421875 0.953125 0.421875q0.78125 0 1.125 -0.46875q0.34375 -0.46875 0.34375 -1.4375l0 -3.671875l1.890625 0l0 6.890625l-1.8125 0l0 -0.953125l-0.03125 0q-0.359375 0.5625 -0.921875 0.859375q-0.5625 0.28125 -1.1875 0.28125q-1.28125 0 -1.90625 -0.65625q-0.609375 -0.65625 -0.609375 -2.109375l0 -4.3125l1.890625 0zm7.9630585 -2.625l0 9.515625l-1.890625 0l0 -9.515625l1.890625 0zm4.670532 2.4375q1.53125 0 2.4375 1.0625q0.921875 1.046875 0.921875 2.671875l-0.015625 0.359375l-4.96875 0q0.03125 0.890625 0.453125 1.328125q0.4375 0.421875 1.234375 0.421875q0.515625 0 0.9375 -0.265625q0.4375 -0.265625 0.5625 -0.640625l1.65625 0q-0.375 1.171875 -1.1875 1.75q-0.796875 0.578125 -2.03125 0.578125q-1.59375 0 -2.5625 -1.0q-0.953125 -1.015625 -0.953125 -2.625q0 -1.546875 0.984375 -2.59375q0.984375 -1.046875 2.53125 -1.046875zm-1.625 2.890625l3.078125 0q-0.140625 -0.765625 -0.5 -1.109375q-0.34375 -0.359375 -1.015625 -0.359375q-0.6875 0 -1.09375 0.390625q-0.40625 0.390625 -0.46875 1.078125zm10.106384 -2.890625q0.125 0 0.21875 0.015625q0.109375 0.015625 0.203125 0.046875l0 1.765625q-0.15625 -0.03125 -0.3125 -0.046875q-0.15625 -0.015625 -0.359375 -0.015625q-0.953125 0 -1.421875 0.59375q-0.453125 0.578125 -0.453125 1.5625l0 3.15625l-1.890625 0l0 -6.890625l1.796875 0l0 1.28125l0.03125 0q0.296875 -0.671875 0.890625 -1.0625q0.59375 -0.40625 1.296875 -0.40625z" fill-rule="nonzero"/><path fill="#000000" fill-opacity="0.0" d="m72.00789 189.89719l85.98425 0l0 51.716537l-85.98425 0z" fill-rule="evenodd"/><path fill="#000000" d="m83.14851 202.18156l1.5 6.46875l0.015625 0l1.65625 -6.46875l1.96875 0l1.625 6.546875l0.015625 0l1.5625 -6.546875l2.0625 0l-2.5625 9.515625l-2.078125 0l-1.609375 -6.46875l-0.03125 0l-1.59375 6.46875l-2.109375 0l-2.53125 -9.515625l2.109375 0zm14.010712 2.4375q1.53125 0 2.265625 0.5q0.75 0.5 0.75 1.421875l0 3.6875q0 0.421875 0.046875 0.84375q0.0625 0.40625 0.1875 0.625l-1.921875 0q-0.046875 -0.15625 -0.078125 -0.3125q-0.03125 -0.171875 -0.046875 -0.34375q-0.40625 0.40625 -1.0 0.625q-0.578125 0.21875 -1.328125 0.21875q-1.0625 0 -1.703125 -0.53125q-0.640625 -0.546875 -0.640625 -1.53125q0 -0.96875 0.59375 -1.46875q0.609375 -0.515625 2.1875 -0.703125q1.109375 -0.09375 1.453125 -0.265625q0.359375 -0.171875 0.359375 -0.578125q0 -0.453125 -0.28125 -0.6875q-0.265625 -0.234375 -0.9375 -0.234375q-0.59375 0 -0.90625 0.25q-0.3125 0.25 -0.359375 0.796875l-1.890625 0q0.078125 -1.140625 0.921875 -1.71875q0.859375 -0.59375 2.328125 -0.59375zm-1.578125 5.125q0 0.40625 0.28125 0.640625q0.28125 0.234375 0.890625 0.234375q0.75 0 1.140625 -0.390625q0.390625 -0.40625 0.390625 -1.171875l0 -0.734375q-0.171875 0.140625 -0.453125 0.21875q-0.28125 0.0625 -1.0 0.15625q-0.640625 0.09375 -0.953125 0.34375q-0.296875 0.25 -0.296875 0.703125zm10.075134 -5.125q0.125 0 0.21875 0.015625q0.109375 0.015625 0.203125 0.046875l0 1.765625q-0.15625 -0.03125 -0.3125 -0.046875q-0.15625 -0.015625 -0.359375 -0.015625q-0.953125 0 -1.421875 0.59375q-0.453125 0.578125 -0.453125 1.5625l0 3.15625l-1.890625 0l0 -6.890625l1.796875 0l0 1.28125l0.03125 0q0.296875 -0.671875 0.890625 -1.0625q0.59375 -0.40625 1.296875 -0.40625zm5.046158 0q1.46875 0 2.296875 1.03125q0.84375 1.015625 0.84375 2.671875q0 1.53125 -0.828125 2.546875q-0.8125 1.015625 -2.203125 1.015625q-0.625 0 -1.171875 -0.265625q-0.546875 -0.265625 -0.890625 -0.78125l-0.03125 0l0 3.28125l-1.890625 0l0 -9.3125l1.796875 0l0 0.875l0.03125 0q0.34375 -0.53125 0.859375 -0.796875q0.53125 -0.265625 1.1875 -0.265625zm-2.046875 3.65625q0 0.984375 0.421875 1.59375q0.421875 0.59375 1.234375 0.59375q0.78125 0 1.203125 -0.5625q0.4375 -0.578125 0.4375 -1.625q0 -0.984375 -0.4375 -1.609375q-0.421875 -0.625 -1.234375 -0.625q-0.78125 0 -1.203125 0.59375q-0.421875 0.578125 -0.421875 1.640625z" fill-rule="nonzero"/><path fill="#000000" d="m85.21101 217.94719q1.71875 0 2.75 0.8125q1.046875 0.796875 1.046875 2.265625l-2.015625 0q-0.046875 -0.71875 -0.5 -1.078125q-0.4375 -0.359375 -1.375 -0.359375q-0.640625 0 -1.046875 0.28125q-0.40625 0.265625 -0.40625 0.796875q0 0.359375 0.171875 0.53125q0.171875 0.171875 0.6875 0.375q0.53125 0.1875 2.296875 0.59375q1.1875 0.296875 1.84375 0.984375q0.671875 0.671875 0.671875 1.71875q0 1.390625 -1.046875 2.234375q-1.03125 0.828125 -2.90625 0.828125q-1.796875 0 -2.9375 -0.890625q-1.125 -0.890625 -1.125 -2.453125l0 -0.046875l2.03125 0q0 0.890625 0.578125 1.328125q0.578125 0.421875 1.515625 0.421875q0.859375 0 1.359375 -0.296875q0.5 -0.3125 0.5 -0.875q0 -0.46875 -0.390625 -0.765625q-0.375 -0.296875 -1.234375 -0.515625q-1.09375 -0.234375 -1.984375 -0.515625q-0.890625 -0.28125 -1.484375 -0.890625q-0.578125 -0.625 -0.578125 -1.59375q0 -1.28125 1.03125 -2.078125q1.03125 -0.8125 2.546875 -0.8125zm8.461472 2.671875q1.34375 0 2.25 0.703125q0.921875 0.6875 1.0 1.90625l-1.859375 0q-0.078125 -0.59375 -0.4375 -0.890625q-0.34375 -0.296875 -0.953125 -0.296875q-0.765625 0 -1.1875 0.625q-0.421875 0.625 -0.421875 1.625q0 0.984375 0.40625 1.578125q0.421875 0.59375 1.15625 0.59375q0.625 0 1.015625 -0.359375q0.390625 -0.359375 0.5 -1.046875l1.8125 0q-0.1875 1.359375 -1.0625 2.09375q-0.875 0.734375 -2.25 0.734375q-1.53125 0 -2.515625 -0.984375q-0.96875 -0.984375 -0.96875 -2.546875q0 -1.671875 0.953125 -2.703125q0.96875 -1.03125 2.5625 -1.03125zm6.2470093 -2.4375l0 3.59375l0.046875 0q0.296875 -0.515625 0.84375 -0.828125q0.546875 -0.328125 1.171875 -0.328125q1.328125 0 1.921875 0.671875q0.59375 0.671875 0.59375 2.09375l0 4.3125l-1.890625 0l0 -3.953125q0 -0.796875 -0.28125 -1.203125q-0.28125 -0.421875 -0.9375 -0.421875q-0.78125 0 -1.125 0.46875q-0.34375 0.46875 -0.34375 1.4375l0 3.671875l-1.890625 0l0 -9.515625l1.890625 0zm9.197433 2.4375q1.53125 0 2.4375 1.0625q0.921875 1.046875 0.921875 2.671875l-0.015625 0.359375l-4.96875 0q0.03125 0.890625 0.453125 1.328125q0.4375 0.421875 1.234375 0.421875q0.515625 0 0.9375 -0.265625q0.4375 -0.265625 0.5625 -0.640625l1.65625 0q-0.375 1.171875 -1.1875 1.75q-0.796875 0.578125 -2.03125 0.578125q-1.59375 0 -2.5625 -1.0q-0.953125 -1.015625 -0.953125 -2.625q0 -1.546875 0.984375 -2.59375q0.984375 -1.046875 2.53125 -1.046875zm-1.625 2.890625l3.078125 0q-0.140625 -0.765625 -0.5 -1.109375q-0.34375 -0.359375 -1.015625 -0.359375q-0.6875 0 -1.09375 0.390625q-0.40625 0.390625 -0.46875 1.078125zm12.809509 -5.328125l0 9.515625l-1.796875 0l0 -0.875l-0.03125 0q-0.3125 0.53125 -0.84375 0.796875q-0.53125 0.265625 -1.25 0.265625q-1.40625 0 -2.25 -1.03125q-0.84375 -1.046875 -0.84375 -2.65625q0 -1.546875 0.828125 -2.5625q0.828125 -1.015625 2.234375 -1.015625q0.640625 0 1.171875 0.265625q0.53125 0.265625 0.859375 0.765625l0.03125 0l0 -3.46875l1.890625 0zm-5.125 6.0625q0 0.953125 0.453125 1.59375q0.453125 0.625 1.21875 0.625q0.78125 0 1.203125 -0.578125q0.421875 -0.59375 0.421875 -1.65625q0 -1.0 -0.40625 -1.59375q-0.40625 -0.59375 -1.234375 -0.59375q-0.78125 0 -1.21875 0.59375q-0.4375 0.59375 -0.4375 1.609375zm8.438232 -3.4375l0 3.953125q0 0.78125 0.265625 1.203125q0.28125 0.421875 0.953125 0.421875q0.78125 0 1.125 -0.46875q0.34375 -0.46875 0.34375 -1.4375l0 -3.671875l1.890625 0l0 6.890625l-1.8125 0l0 -0.953125l-0.03125 0q-0.359375 0.5625 -0.921875 0.859375q-0.5625 0.28125 -1.1875 0.28125q-1.28125 0 -1.90625 -0.65625q-0.609375 -0.65625 -0.609375 -2.109375l0 -4.3125l1.890625 0zm7.9630585 -2.625l0 9.515625l-1.890625 0l0 -9.515625l1.890625 0zm4.670532 2.4375q1.53125 0 2.4375 1.0625q0.921875 1.046875 0.921875 2.671875l-0.015625 0.359375l-4.96875 0q0.03125 0.890625 0.453125 1.328125q0.4375 0.421875 1.234375 0.421875q0.515625 0 0.9375 -0.265625q0.4375 -0.265625 0.5625 -0.640625l1.65625 0q-0.375 1.171875 -1.1875 1.75q-0.796875 0.578125 -2.03125 0.578125q-1.59375 0 -2.5625 -1.0q-0.953125 -1.015625 -0.953125 -2.625q0 -1.546875 0.984375 -2.59375q0.984375 -1.046875 2.53125 -1.046875zm-1.625 2.890625l3.078125 0q-0.140625 -0.765625 -0.5 -1.109375q-0.34375 -0.359375 -1.015625 -0.359375q-0.6875 0 -1.09375 0.390625q-0.40625 0.390625 -0.46875 1.078125zm10.106384 -2.890625q0.125 0 0.21875 0.015625q0.109375 0.015625 0.203125 0.046875l0 1.765625q-0.15625 -0.03125 -0.3125 -0.046875q-0.15625 -0.015625 -0.359375 -0.015625q-0.953125 0 -1.421875 0.59375q-0.453125 0.578125 -0.453125 1.5625l0 3.15625l-1.890625 0l0 -6.890625l1.796875 0l0 1.28125l0.03125 0q0.296875 -0.671875 0.890625 -1.0625q0.59375 -0.40625 1.296875 -0.40625z" fill-rule="nonzero"/><path fill="#000000" fill-opacity="0.0" d="m163.72705 189.89719l85.98425 0l0 51.716537l-85.98425 0z" fill-rule="evenodd"/><path fill="#000000" d="m174.86768 202.18156l1.5 6.46875l0.015625 0l1.65625 -6.46875l1.96875 0l1.625 6.546875l0.015625 0l1.5625 -6.546875l2.0625 0l-2.5625 9.515625l-2.078125 0l-1.609375 -6.46875l-0.03125 0l-1.59375 6.46875l-2.109375 0l-2.53125 -9.515625l2.109375 0zm14.010712 2.4375q1.53125 0 2.265625 0.5q0.75 0.5 0.75 1.421875l0 3.6875q0 0.421875 0.046875 0.84375q0.0625 0.40625 0.1875 0.625l-1.921875 0q-0.046875 -0.15625 -0.078125 -0.3125q-0.03125 -0.171875 -0.046875 -0.34375q-0.40625 0.40625 -1.0 0.625q-0.578125 0.21875 -1.328125 0.21875q-1.0625 0 -1.703125 -0.53125q-0.640625 -0.546875 -0.640625 -1.53125q0 -0.96875 0.59375 -1.46875q0.609375 -0.515625 2.1875 -0.703125q1.109375 -0.09375 1.453125 -0.265625q0.359375 -0.171875 0.359375 -0.578125q0 -0.453125 -0.28125 -0.6875q-0.265625 -0.234375 -0.9375 -0.234375q-0.59375 0 -0.90625 0.25q-0.3125 0.25 -0.359375 0.796875l-1.890625 0q0.078125 -1.140625 0.921875 -1.71875q0.859375 -0.59375 2.328125 -0.59375zm-1.578125 5.125q0 0.40625 0.28125 0.640625q0.28125 0.234375 0.890625 0.234375q0.75 0 1.140625 -0.390625q0.390625 -0.40625 0.390625 -1.171875l0 -0.734375q-0.171875 0.140625 -0.453125 0.21875q-0.28125 0.0625 -1.0 0.15625q-0.640625 0.09375 -0.953125 0.34375q-0.296875 0.25 -0.296875 0.703125zm10.075134 -5.125q0.125 0 0.21875 0.015625q0.109375 0.015625 0.203125 0.046875l0 1.765625q-0.15625 -0.03125 -0.3125 -0.046875q-0.15625 -0.015625 -0.359375 -0.015625q-0.953125 0 -1.421875 0.59375q-0.453125 0.578125 -0.453125 1.5625l0 3.15625l-1.890625 0l0 -6.890625l1.796875 0l0 1.28125l0.03125 0q0.296875 -0.671875 0.890625 -1.0625q0.59375 -0.40625 1.296875 -0.40625zm5.046158 0q1.46875 0 2.296875 1.03125q0.84375 1.015625 0.84375 2.671875q0 1.53125 -0.828125 2.546875q-0.8125 1.015625 -2.203125 1.015625q-0.625 0 -1.171875 -0.265625q-0.546875 -0.265625 -0.890625 -0.78125l-0.03125 0l0 3.28125l-1.890625 0l0 -9.3125l1.796875 0l0 0.875l0.03125 0q0.34375 -0.53125 0.859375 -0.796875q0.53125 -0.265625 1.1875 -0.265625zm-2.046875 3.65625q0 0.984375 0.421875 1.59375q0.421875 0.59375 1.234375 0.59375q0.78125 0 1.203125 -0.5625q0.4375 -0.578125 0.4375 -1.625q0 -0.984375 -0.4375 -1.609375q-0.421875 -0.625 -1.234375 -0.625q-0.78125 0 -1.203125 0.59375q-0.421875 0.578125 -0.421875 1.640625z" fill-rule="nonzero"/><path fill="#000000" d="m176.93018 217.94719q1.71875 0 2.75 0.8125q1.046875 0.796875 1.046875 2.265625l-2.015625 0q-0.046875 -0.71875 -0.5 -1.078125q-0.4375 -0.359375 -1.375 -0.359375q-0.640625 0 -1.046875 0.28125q-0.40625 0.265625 -0.40625 0.796875q0 0.359375 0.171875 0.53125q0.171875 0.171875 0.6875 0.375q0.53125 0.1875 2.296875 0.59375q1.1875 0.296875 1.84375 0.984375q0.671875 0.671875 0.671875 1.71875q0 1.390625 -1.046875 2.234375q-1.03125 0.828125 -2.90625 0.828125q-1.796875 0 -2.9375 -0.890625q-1.125 -0.890625 -1.125 -2.453125l0 -0.046875l2.03125 0q0 0.890625 0.578125 1.328125q0.578125 0.421875 1.515625 0.421875q0.859375 0 1.359375 -0.296875q0.5 -0.3125 0.5 -0.875q0 -0.46875 -0.390625 -0.765625q-0.375 -0.296875 -1.234375 -0.515625q-1.09375 -0.234375 -1.984375 -0.515625q-0.890625 -0.28125 -1.484375 -0.890625q-0.578125 -0.625 -0.578125 -1.59375q0 -1.28125 1.03125 -2.078125q1.03125 -0.8125 2.546875 -0.8125zm8.461472 2.671875q1.34375 0 2.25 0.703125q0.921875 0.6875 1.0 1.90625l-1.859375 0q-0.078125 -0.59375 -0.4375 -0.890625q-0.34375 -0.296875 -0.953125 -0.296875q-0.765625 0 -1.1875 0.625q-0.421875 0.625 -0.421875 1.625q0 0.984375 0.40625 1.578125q0.421875 0.59375 1.15625 0.59375q0.625 0 1.015625 -0.359375q0.390625 -0.359375 0.5 -1.046875l1.8125 0q-0.1875 1.359375 -1.0625 2.09375q-0.875 0.734375 -2.25 0.734375q-1.53125 0 -2.515625 -0.984375q-0.96875 -0.984375 -0.96875 -2.546875q0 -1.671875 0.953125 -2.703125q0.96875 -1.03125 2.5625 -1.03125zm6.2470093 -2.4375l0 3.59375l0.046875 0q0.296875 -0.515625 0.84375 -0.828125q0.546875 -0.328125 1.171875 -0.328125q1.328125 0 1.921875 0.671875q0.59375 0.671875 0.59375 2.09375l0 4.3125l-1.890625 0l0 -3.953125q0 -0.796875 -0.28125 -1.203125q-0.28125 -0.421875 -0.9375 -0.421875q-0.78125 0 -1.125 0.46875q-0.34375 0.46875 -0.34375 1.4375l0 3.671875l-1.890625 0l0 -9.515625l1.890625 0zm9.197433 2.4375q1.53125 0 2.4375 1.0625q0.921875 1.046875 0.921875 2.671875l-0.015625 0.359375l-4.96875 0q0.03125 0.890625 0.453125 1.328125q0.4375 0.421875 1.234375 0.421875q0.515625 0 0.9375 -0.265625q0.4375 -0.265625 0.5625 -0.640625l1.65625 0q-0.375 1.171875 -1.1875 1.75q-0.796875 0.578125 -2.03125 0.578125q-1.59375 0 -2.5625 -1.0q-0.953125 -1.015625 -0.953125 -2.625q0 -1.546875 0.984375 -2.59375q0.984375 -1.046875 2.53125 -1.046875zm-1.625 2.890625l3.078125 0q-0.140625 -0.765625 -0.5 -1.109375q-0.34375 -0.359375 -1.015625 -0.359375q-0.6875 0 -1.09375 0.390625q-0.40625 0.390625 -0.46875 1.078125zm12.809509 -5.328125l0 9.515625l-1.796875 0l0 -0.875l-0.03125 0q-0.3125 0.53125 -0.84375 0.796875q-0.53125 0.265625 -1.25 0.265625q-1.40625 0 -2.25 -1.03125q-0.84375 -1.046875 -0.84375 -2.65625q0 -1.546875 0.828125 -2.5625q0.828125 -1.015625 2.234375 -1.015625q0.640625 0 1.171875 0.265625q0.53125 0.265625 0.859375 0.765625l0.03125 0l0 -3.46875l1.890625 0zm-5.125 6.0625q0 0.953125 0.453125 1.59375q0.453125 0.625 1.21875 0.625q0.78125 0 1.203125 -0.578125q0.421875 -0.59375 0.421875 -1.65625q0 -1.0 -0.40625 -1.59375q-0.40625 -0.59375 -1.234375 -0.59375q-0.78125 0 -1.21875 0.59375q-0.4375 0.59375 -0.4375 1.609375zm8.438232 -3.4375l0 3.953125q0 0.78125 0.265625 1.203125q0.28125 0.421875 0.953125 0.421875q0.78125 0 1.125 -0.46875q0.34375 -0.46875 0.34375 -1.4375l0 -3.671875l1.890625 0l0 6.890625l-1.8125 0l0 -0.953125l-0.03125 0q-0.359375 0.5625 -0.921875 0.859375q-0.5625 0.28125 -1.1875 0.28125q-1.28125 0 -1.90625 -0.65625q-0.609375 -0.65625 -0.609375 -2.109375l0 -4.3125l1.890625 0zm7.9630585 -2.625l0 9.515625l-1.890625 0l0 -9.515625l1.890625 0zm4.670532 2.4375q1.53125 0 2.4375 1.0625q0.921875 1.046875 0.921875 2.671875l-0.015625 0.359375l-4.96875 0q0.03125 0.890625 0.453125 1.328125q0.4375 0.421875 1.234375 0.421875q0.515625 0 0.9375 -0.265625q0.4375 -0.265625 0.5625 -0.640625l1.65625 0q-0.375 1.171875 -1.1875 1.75q-0.796875 0.578125 -2.03125 0.578125q-1.59375 0 -2.5625 -1.0q-0.953125 -1.015625 -0.953125 -2.625q0 -1.546875 0.984375 -2.59375q0.984375 -1.046875 2.53125 -1.046875zm-1.625 2.890625l3.078125 0q-0.140625 -0.765625 -0.5 -1.109375q-0.34375 -0.359375 -1.015625 -0.359375q-0.6875 0 -1.09375 0.390625q-0.40625 0.390625 -0.46875 1.078125zm10.106384 -2.890625q0.125 0 0.21875 0.015625q0.109375 0.015625 0.203125 0.046875l0 1.765625q-0.15625 -0.03125 -0.3125 -0.046875q-0.15625 -0.015625 -0.359375 -0.015625q-0.953125 0 -1.421875 0.59375q-0.453125 0.578125 -0.453125 1.5625l0 3.15625l-1.890625 0l0 -6.890625l1.796875 0l0 1.28125l0.03125 0q0.296875 -0.671875 0.890625 -1.0625q0.59375 -0.40625 1.296875 -0.40625z" fill-rule="nonzero"/><path fill="#000000" fill-opacity="0.0" d="m163.72693 202.71886l0 0c0 -7.914795 6.416214 -14.330994 14.330994 -14.330994l57.322266 0l0 0c3.8008118 0 7.4459686 1.5098724 10.133545 4.1974487c2.6875916 2.6875916 4.1974487 6.332733 4.1974487 10.133545l0 57.32225c0 7.914795 -6.4161987 14.330994 -14.330994 14.330994l-57.322266 0c-7.9147797 0 -14.330994 -6.4161987 -14.330994 -14.330994z" fill-rule="evenodd"/><path stroke="#cc0000" stroke-width="4.0" stroke-linejoin="round" stroke-linecap="butt" d="m163.72693 202.71886l0 0c0 -7.914795 6.416214 -14.330994 14.330994 -14.330994l57.322266 0l0 0c3.8008118 0 7.4459686 1.5098724 10.133545 4.1974487c2.6875916 2.6875916 4.1974487 6.332733 4.1974487 10.133545l0 57.32225c0 7.914795 -6.4161987 14.330994 -14.330994 14.330994l-57.322266 0c-7.9147797 0 -14.330994 -6.4161987 -14.330994 -14.330994z" fill-rule="evenodd"/><path fill="#000000" fill-opacity="0.0" d="m225.93964 274.57217l175.55905 1.448822" fill-rule="evenodd"/><path stroke="#cc0000" stroke-width="3.0" stroke-linejoin="round" stroke-linecap="butt" d="m225.93964 274.57217l175.55905 1.448822" fill-rule="evenodd"/><path fill="#000000" fill-opacity="0.0" d="m361.09555 92.59223l0 0c0 -20.20736 16.381317 -36.588657 36.588684 -36.588657l146.35025 0l0 0c9.703918 0 19.010376 3.854866 25.87207 10.716572c6.8616943 6.861702 10.716553 16.168167 10.716553 25.872086l0 146.38174c0 20.207367 -16.381287 36.588654 -36.588623 36.588654l-146.35025 0c-20.207367 0 -36.588684 -16.381287 -36.588684 -36.588654z" fill-rule="evenodd"/><path stroke="#cc0000" stroke-width="4.0" stroke-linejoin="round" stroke-linecap="butt" d="m361.09555 92.59223l0 0c0 -20.20736 16.381317 -36.588657 36.588684 -36.588657l146.35025 0l0 0c9.703918 0 19.010376 3.854866 25.87207 10.716572c6.8616943 6.861702 10.716553 16.168167 10.716553 25.872086l0 146.38174c0 20.207367 -16.381287 36.588654 -36.588623 36.588654l-146.35025 0c-20.207367 0 -36.588684 -16.381287 -36.588684 -36.588654z" fill-rule="evenodd"/><path fill="#000000" fill-opacity="0.0" d="m167.47769 193.67717l215.02362 -135.1811" fill-rule="evenodd"/><path stroke="#cc0000" stroke-width="3.0" stroke-linejoin="round" stroke-linecap="butt" d="m167.47769 193.67717l215.02362 -135.1811" fill-rule="evenodd"/><path fill="#d9d9d9" d="m383.14883 74.82665l180.29245 0l0 180.29242l-180.29245 0z" fill-rule="evenodd"/><path stroke="#000000" stroke-width="1.0" stroke-linejoin="round" stroke-linecap="butt" d="m383.14883 74.82665l180.29245 0l0 180.29242l-180.29245 0z" fill-rule="evenodd"/><path fill="#000000" fill-opacity="0.0" d="m382.24933 72.70604l132.20154 0l0 71.11832l-132.20154 0z" fill-rule="evenodd"/><path fill="#000000" d="m394.6712 86.967285l2.40625 10.359375l0.03125 0l2.65625 -10.359375l3.125 0l2.609375 10.484375l0.03125 0l2.5 -10.484375l3.28125 0l-4.09375 15.21875l-3.328125 0l-2.5625 -10.359375l-0.046875 0l-2.546875 10.359375l-3.390625 0l-4.03125 -15.21875l3.359375 0zm22.416962 3.90625q2.453125 0 3.640625 0.796875q1.1875 0.796875 1.1875 2.25l0 5.921875q0 0.671875 0.078125 1.34375q0.09375 0.65625 0.3125 1.0l-3.078125 0q-0.078125 -0.25 -0.140625 -0.515625q-0.046875 -0.265625 -0.078125 -0.53125q-0.625 0.65625 -1.578125 1.0q-0.9375 0.34375 -2.125 0.34375q-1.703125 0 -2.734375 -0.859375q-1.015625 -0.859375 -1.015625 -2.453125q0 -1.53125 0.953125 -2.34375q0.96875 -0.828125 3.5 -1.109375q1.75 -0.171875 2.3125 -0.4375q0.5625 -0.265625 0.5625 -0.921875q0 -0.734375 -0.4375 -1.09375q-0.421875 -0.375 -1.5 -0.375q-0.9375 0 -1.4375 0.40625q-0.5 0.390625 -0.59375 1.25l-3.03125 0q0.125 -1.8125 1.5 -2.734375q1.375 -0.9375 3.703125 -0.9375zm-2.515625 8.171875q0 0.65625 0.453125 1.03125q0.453125 0.375 1.421875 0.375q1.203125 0 1.8125 -0.625q0.625 -0.640625 0.625 -1.859375l0 -1.171875q-0.265625 0.21875 -0.71875 0.328125q-0.4375 0.109375 -1.59375 0.265625q-1.03125 0.140625 -1.515625 0.546875q-0.484375 0.390625 -0.484375 1.109375zm16.12201 -8.171875q0.203125 0 0.359375 0.03125q0.171875 0.015625 0.328125 0.0625l0 2.8125q-0.265625 -0.046875 -0.515625 -0.078125q-0.234375 -0.03125 -0.578125 -0.03125q-1.53125 0 -2.265625 0.9375q-0.734375 0.9375 -0.734375 2.515625l0 5.0625l-3.015625 0l0 -11.03125l2.875 0l0 2.046875l0.046875 0q0.46875 -1.078125 1.421875 -1.703125q0.953125 -0.625 2.078125 -0.625zm8.081329 0q2.34375 0 3.671875 1.640625q1.34375 1.625 1.34375 4.28125q0 2.4375 -1.3125 4.0625q-1.3125 1.625 -3.53125 1.625q-1.015625 0 -1.890625 -0.421875q-0.875 -0.4375 -1.40625 -1.234375l-0.0625 0l0 5.25l-3.015625 0l0 -14.921875l2.875 0l0 1.40625l0.046875 0q0.53125 -0.859375 1.375 -1.265625q0.84375 -0.421875 1.90625 -0.421875zm-3.28125 5.828125q0 1.59375 0.671875 2.546875q0.671875 0.953125 1.96875 0.953125q1.265625 0 1.9375 -0.90625q0.6875 -0.921875 0.6875 -2.59375q0 -1.578125 -0.6875 -2.5625q-0.671875 -1.0 -1.984375 -1.0q-1.25 0 -1.921875 0.9375q-0.671875 0.9375 -0.671875 2.625z" fill-rule="nonzero"/><path fill="#000000" d="m397.96808 112.19228q2.765625 0 4.421875 1.28125q1.671875 1.28125 1.671875 3.625l-3.234375 0q-0.078125 -1.140625 -0.796875 -1.71875q-0.703125 -0.578125 -2.203125 -0.578125q-1.015625 0 -1.671875 0.453125q-0.640625 0.4375 -0.640625 1.28125q0 0.5625 0.265625 0.84375q0.265625 0.28125 1.109375 0.59375q0.84375 0.296875 3.65625 0.96875q1.890625 0.453125 2.953125 1.546875q1.0625 1.09375 1.0625 2.78125q0 2.203125 -1.65625 3.546875q-1.640625 1.3281326 -4.65625 1.3281326q-2.875 0 -4.6875 -1.4062576q-1.8125 -1.421875 -1.8125 -3.921875l0 -0.078125l3.234375 0q0.03125 1.40625 0.953125 2.109375q0.921875 0.703125 2.421875 0.703125q1.359375 0 2.15625 -0.5q0.8125 -0.5 0.8125 -1.40625q0 -0.734375 -0.625 -1.203125q-0.609375 -0.484375 -1.96875 -0.828125q-1.75 -0.390625 -3.1875 -0.828125q-1.421875 -0.453125 -2.359375 -1.4375q-0.921875 -1.0 -0.921875 -2.546875q0 -2.046875 1.640625 -3.328125q1.640625 -1.28125 4.0625 -1.28125zm13.559143 4.28125q2.140625 0 3.59375 1.109375q1.46875 1.09375 1.59375 3.0625l-2.96875 0q-0.140625 -0.953125 -0.703125 -1.421875q-0.5625 -0.484375 -1.53125 -0.484375q-1.21875 0 -1.90625 1.0q-0.671875 1.0 -0.671875 2.59375q0 1.578125 0.65625 2.53125q0.671875 0.9375 1.859375 0.9375q1.0 0 1.625 -0.578125q0.625 -0.578125 0.78125 -1.671875l2.921875 0q-0.3125 2.1875 -1.71875 3.359375q-1.390625 1.1718826 -3.59375 1.1718826q-2.453125 0 -4.015625 -1.5781326q-1.546875 -1.578125 -1.546875 -4.078125q0 -2.671875 1.515625 -4.3125q1.53125 -1.640625 4.109375 -1.640625zm9.981384 -3.90625l0 5.734375l0.078125 0q0.484375 -0.828125 1.359375 -1.328125q0.875 -0.5 1.875 -0.5q2.109375 0 3.0625 1.078125q0.953125 1.0625 0.953125 3.34375l0 6.890625l-3.03125 0l0 -6.328125q0 -1.28125 -0.453125 -1.9375q-0.4375 -0.671875 -1.484375 -0.671875q-1.265625 0 -1.8125 0.75q-0.546875 0.75 -0.546875 2.296875l0 5.890625l-3.015625 0l0 -15.21875l3.015625 0zm14.720856 3.90625q2.453125 0 3.90625 1.6875q1.46875 1.671875 1.46875 4.28125l-0.03125 0.5625l-7.953125 0q0.0625 1.421875 0.75 2.109375q0.6875 0.6875 1.953125 0.6875q0.828125 0 1.515625 -0.421875q0.703125 -0.421875 0.890625 -1.015625l2.65625 0q-0.609375 1.875 -1.890625 2.796875q-1.28125 0.9218826 -3.265625 0.9218826q-2.546875 0 -4.09375 -1.6093826q-1.546875 -1.609375 -1.546875 -4.1875q0 -2.46875 1.578125 -4.140625q1.578125 -1.671875 4.0625 -1.671875zm-2.609375 4.609375l4.9375 0q-0.21875 -1.21875 -0.796875 -1.78125q-0.5625 -0.5625 -1.640625 -0.5625q-1.09375 0 -1.75 0.625q-0.640625 0.625 -0.75 1.71875zm20.512634 -8.515625l0 15.21875l-2.890625 0l0 -1.40625l-0.03125 0q-0.5 0.84375 -1.359375 1.28125q-0.859375 0.42188263 -1.984375 0.42188263q-2.265625 0 -3.609375 -1.6562576q-1.34375 -1.65625 -1.34375 -4.25q0 -2.46875 1.3125 -4.078125q1.328125 -1.625 3.578125 -1.625q1.03125 0 1.875 0.421875q0.859375 0.40625 1.375 1.203125l0.046875 0l0 -5.53125l3.03125 0zm-8.203125 9.6875q0 1.546875 0.71875 2.546875q0.71875 1.0 1.953125 1.0q1.265625 0 1.9375 -0.921875q0.671875 -0.9375 0.671875 -2.640625q0 -1.609375 -0.65625 -2.546875q-0.65625 -0.953125 -1.96875 -0.953125q-1.25 0 -1.953125 0.953125q-0.703125 0.9375 -0.703125 2.5625zm13.496826 -5.5l0 6.328125q0 1.25 0.4375 1.9375q0.4375 0.671875 1.515625 0.671875q1.25 0 1.796875 -0.75q0.546875 -0.765625 0.546875 -2.296875l0 -5.890625l3.03125 0l0 11.03125l-2.890625 0l0 -1.53125l-0.0625 0q-0.5625 0.921875 -1.46875 1.375q-0.90625 0.45313263 -1.90625 0.45313263q-2.0625 0 -3.046875 -1.0468826q-0.96875 -1.046875 -0.96875 -3.375l0 -6.90625l3.015625 0zm12.736511 -4.1875l0 15.21875l-3.03125 0l0 -15.21875l3.03125 0zm7.483032 3.90625q2.453125 0 3.90625 1.6875q1.46875 1.671875 1.46875 4.28125l-0.03125 0.5625l-7.953125 0q0.0625 1.421875 0.75 2.109375q0.6875 0.6875 1.953125 0.6875q0.828125 0 1.515625 -0.421875q0.703125 -0.421875 0.890625 -1.015625l2.65625 0q-0.609375 1.875 -1.890625 2.796875q-1.28125 0.9218826 -3.265625 0.9218826q-2.546875 0 -4.09375 -1.6093826q-1.546875 -1.609375 -1.546875 -4.1875q0 -2.46875 1.578125 -4.140625q1.578125 -1.671875 4.0625 -1.671875zm-2.609375 4.609375l4.9375 0q-0.21875 -1.21875 -0.796875 -1.78125q-0.5625 -0.5625 -1.640625 -0.5625q-1.09375 0 -1.75 0.625q-0.640625 0.625 -0.75 1.71875zm16.18451 -4.609375q0.203125 0 0.359375 0.03125q0.171875 0.015625 0.328125 0.0625l0 2.8125q-0.265625 -0.046875 -0.515625 -0.078125q-0.234375 -0.03125 -0.578125 -0.03125q-1.53125 0 -2.265625 0.9375q-0.734375 0.9375 -0.734375 2.515625l0 5.0625l-3.015625 0l0 -11.03125l2.875 0l0 2.046875l0.046875 0q0.46875 -1.078125 1.421875 -1.703125q0.953125 -0.625 2.078125 -0.625z" fill-rule="nonzero"/><path fill="#b7b7b7" d="m391.2296 148.2964l163.27557 0l0 25.35434l-163.27557 0z" fill-rule="evenodd"/><path stroke="#000000" stroke-width="1.0" stroke-linejoin="round" stroke-linecap="butt" d="m391.2296 148.2964l163.27557 0l0 25.35434l-163.27557 0z" fill-rule="evenodd"/><path fill="#000000" d="m425.69604 154.58107q1.609375 0 2.71875 1.046875q1.109375 1.03125 1.109375 2.625q0 1.265625 -0.53125 2.09375q-0.515625 0.8125 -1.59375 1.25l0 0.03125q0.953125 0.25 1.453125 1.125q0.5 0.875 0.546875 2.671875q0.03125 1.796875 0.515625 2.46875l-2.9375 0q-0.25 -0.640625 -0.34375 -2.09375q-0.140625 -1.96875 -0.671875 -2.53125q-0.515625 -0.578125 -1.59375 -0.578125l-3.0 0l0 5.203125l-2.9375 0l0 -13.3125l7.265625 0zm-1.0625 6.015625q0.921875 0 1.4375 -0.4375q0.515625 -0.453125 0.515625 -1.46875q0 -0.9375 -0.5 -1.390625q-0.5 -0.453125 -1.453125 -0.453125l-3.265625 0l0 3.75l3.265625 0zm11.457336 -2.609375q2.140625 0 3.421875 1.484375q1.28125 1.46875 1.28125 3.75l-0.03125 0.484375l-6.953125 0q0.0625 1.25 0.65625 1.859375q0.59375 0.59375 1.703125 0.59375q0.71875 0 1.328125 -0.359375q0.609375 -0.375 0.78125 -0.890625l2.328125 0q-0.53125 1.640625 -1.65625 2.453125q-1.125 0.796875 -2.859375 0.796875q-2.234375 0 -3.59375 -1.40625q-1.34375 -1.421875 -1.34375 -3.671875q0 -2.15625 1.375 -3.625q1.390625 -1.46875 3.5625 -1.46875zm-2.28125 4.046875l4.3125 0q-0.1875 -1.0625 -0.6875 -1.546875q-0.5 -0.5 -1.4375 -0.5q-0.96875 0 -1.53125 0.546875q-0.5625 0.546875 -0.65625 1.5zm12.369019 -4.046875q1.0625 0 1.75 0.390625q0.6875 0.390625 1.125 1.15625l0.046875 0l0 -1.28125l2.515625 0l0 9.109375q0 1.9375 -1.234375 3.0625q-1.234375 1.125 -3.75 1.125q-1.703125 0 -2.9375 -0.828125q-1.21875 -0.8125 -1.328125 -2.265625l2.625 0q0.171875 0.6875 0.6875 1.0q0.515625 0.328125 1.28125 0.328125q1.03125 0 1.578125 -0.625q0.5625 -0.609375 0.5625 -1.703125l0 -1.34375l-0.046875 0q-0.390625 0.71875 -1.15625 1.109375q-0.75 0.390625 -1.734375 0.390625q-1.953125 0 -3.046875 -1.296875q-1.078125 -1.296875 -1.078125 -3.546875q0 -2.046875 1.140625 -3.40625q1.140625 -1.375 3.0 -1.375zm-1.484375 4.734375q0 1.359375 0.5625 2.125q0.5625 0.765625 1.578125 0.765625q1.046875 0 1.65625 -0.765625q0.609375 -0.765625 0.609375 -1.90625q0 -1.421875 -0.578125 -2.1875q-0.578125 -0.765625 -1.6875 -0.765625q-0.984375 0 -1.5625 0.75q-0.578125 0.75 -0.578125 1.984375zm11.770966 -8.140625l0 2.171875l-2.65625 0l0 -2.171875l2.65625 0zm0 3.671875l0 9.640625l-2.65625 0l0 -9.640625l2.65625 0zm6.0441895 -0.265625q1.96875 0 3.03125 0.78125q1.078125 0.78125 1.21875 2.296875l-2.515625 0q-0.0625 -0.6875 -0.515625 -1.0q-0.453125 -0.3125 -1.3125 -0.3125q-0.75 0 -1.109375 0.234375q-0.34375 0.234375 -0.34375 0.671875q0 0.4375 0.453125 0.734375q0.46875 0.28125 1.859375 0.546875q2.21875 0.421875 2.96875 1.09375q0.765625 0.671875 0.765625 1.765625q0 1.640625 -1.203125 2.5q-1.1875 0.859375 -3.1875 0.859375q-2.015625 0 -3.234375 -0.84375q-1.21875 -0.859375 -1.3125 -2.5625l2.53125 0q0 0.765625 0.578125 1.203125q0.578125 0.421875 1.453125 0.421875q0.765625 0 1.25 -0.328125q0.484375 -0.328125 0.484375 -0.890625q0 -0.515625 -0.625 -0.828125q-0.625 -0.3125 -2.296875 -0.671875q-1.671875 -0.328125 -2.40625 -0.9375q-0.734375 -0.609375 -0.734375 -1.640625q0 -1.53125 1.078125 -2.3125q1.09375 -0.78125 3.125 -0.78125zm9.411072 -2.625l0 2.890625l1.9375 0l0 1.765625l-1.9375 0l0 4.84375q0 0.59375 0.21875 0.828125q0.234375 0.21875 0.90625 0.21875q0.234375 0 0.4375 -0.015625q0.203125 -0.015625 0.375 -0.046875l0 2.0625q-0.328125 0.0625 -0.734375 0.078125q-0.390625 0.015625 -0.796875 0.015625q-1.71875 0 -2.390625 -0.578125q-0.65625 -0.59375 -0.65625 -1.65625l0 -5.75l-1.609375 0l0 -1.765625l1.609375 0l0 -2.890625l2.640625 0zm7.5861816 2.625q2.140625 0 3.421875 1.484375q1.28125 1.46875 1.28125 3.75l-0.03125 0.484375l-6.953125 0q0.0625 1.25 0.65625 1.859375q0.59375 0.59375 1.703125 0.59375q0.71875 0 1.328125 -0.359375q0.609375 -0.375 0.78125 -0.890625l2.328125 0q-0.53125 1.640625 -1.65625 2.453125q-1.125 0.796875 -2.859375 0.796875q-2.234375 0 -3.59375 -1.40625q-1.34375 -1.421875 -1.34375 -3.671875q0 -2.15625 1.375 -3.625q1.390625 -1.46875 3.5625 -1.46875zm-2.28125 4.046875l4.3125 0q-0.1875 -1.0625 -0.6875 -1.546875q-0.5 -0.5 -1.4375 -0.5q-0.96875 0 -1.53125 0.546875q-0.5625 0.546875 -0.65625 1.5zm14.150269 -4.046875q0.1875 0 0.328125 0.03125q0.140625 0.015625 0.265625 0.0625l0 2.46875q-0.21875 -0.046875 -0.4375 -0.0625q-0.21875 -0.03125 -0.5 -0.03125q-1.34375 0 -1.984375 0.828125q-0.640625 0.8125 -0.640625 2.1875l0 4.421875l-2.640625 0l0 -9.640625l2.515625 0l0 1.78125l0.03125 0q0.421875 -0.9375 1.25 -1.484375q0.828125 -0.5625 1.8125 -0.5625zm16.474823 -3.40625l0 2.453125l-6.4375 0l0 3.078125l5.578125 0l0 2.28125l-5.578125 0l0 5.5l-2.9375 0l0 -13.3125l9.375 0zm4.1370544 0l0 2.171875l-2.65625 0l0 -2.171875l2.65625 0zm0 3.671875l0 9.640625l-2.65625 0l0 -9.640625l2.65625 0zm4.809845 -3.671875l0 13.3125l-2.65625 0l0 -13.3125l2.65625 0zm6.5441895 3.40625q2.140625 0 3.421875 1.484375q1.28125 1.46875 1.28125 3.75l-0.03125 0.484375l-6.953125 0q0.0625 1.25 0.65625 1.859375q0.59375 0.59375 1.703125 0.59375q0.71875 0 1.328125 -0.359375q0.609375 -0.375 0.78125 -0.890625l2.328125 0q-0.53125 1.640625 -1.65625 2.453125q-1.125 0.796875 -2.859375 0.796875q-2.234375 0 -3.59375 -1.40625q-1.34375 -1.421875 -1.34375 -3.671875q0 -2.15625 1.375 -3.625q1.390625 -1.46875 3.5625 -1.46875zm-2.28125 4.046875l4.3125 0q-0.1875 -1.0625 -0.6875 -1.546875q-0.5 -0.5 -1.4375 -0.5q-0.96875 0 -1.53125 0.546875q-0.5625 0.546875 -0.65625 1.5z" fill-rule="nonzero"/><path fill="#b7b7b7" d="m392.11578 181.43872l163.27557 0l0 25.35434l-163.27557 0z" fill-rule="evenodd"/><path stroke="#000000" stroke-width="1.0" stroke-linejoin="round" stroke-linecap="butt" d="m392.11578 181.43872l163.27557 0l0 25.35434l-163.27557 0z" fill-rule="evenodd"/><path fill="#000000" d="m447.93353 187.39526q2.265625 0 3.859375 1.28125q1.59375 1.28125 1.875 3.515625l-2.828125 0q-0.203125 -1.046875 -1.046875 -1.6875q-0.84375 -0.640625 -1.875 -0.640625q-1.71875 0 -2.671875 1.25q-0.9375 1.25 -0.9375 3.3125q0 1.984375 0.9375 3.21875q0.9375 1.234375 2.6875 1.234375q1.265625 0 2.046875 -0.765625q0.78125 -0.78125 0.96875 -2.203125l2.84375 0q-0.265625 2.53125 -1.859375 3.984375q-1.578125 1.453125 -4.0 1.453125q-1.921875 0 -3.421875 -0.875q-1.5 -0.875 -2.328125 -2.46875q-0.8125 -1.609375 -0.8125 -3.578125q0 -3.0625 1.796875 -5.046875q1.796875 -1.984375 4.765625 -1.984375zm12.250092 3.734375q2.28125 0 3.640625 1.40625q1.359375 1.390625 1.359375 3.6875q0 2.3125 -1.375 3.703125q-1.375 1.375 -3.625 1.375q-2.234375 0 -3.609375 -1.390625q-1.375 -1.390625 -1.375 -3.6875q0 -2.28125 1.34375 -3.6875q1.359375 -1.40625 3.640625 -1.40625zm-2.328125 5.09375q0 1.53125 0.625 2.3125q0.625 0.765625 1.703125 0.765625q1.140625 0 1.75 -0.796875q0.609375 -0.8125 0.609375 -2.28125q0 -1.4375 -0.59375 -2.265625q-0.59375 -0.828125 -1.78125 -0.828125q-1.0625 0 -1.6875 0.765625q-0.625 0.765625 -0.625 2.328125zm14.583496 -5.09375q1.84375 0 2.671875 0.9375q0.84375 0.9375 0.84375 2.9375l0 6.03125l-2.65625 0l0 -5.53125q0 -1.125 -0.390625 -1.703125q-0.390625 -0.578125 -1.296875 -0.578125q-1.109375 0 -1.59375 0.65625q-0.46875 0.65625 -0.46875 2.015625l0 5.140625l-2.640625 0l0 -9.640625l2.515625 0l0 1.34375l0.046875 0q0.484375 -0.78125 1.25 -1.1875q0.78125 -0.421875 1.71875 -0.421875zm8.871429 -2.625l0 2.890625l1.9375 0l0 1.765625l-1.9375 0l0 4.84375q0 0.59375 0.21875 0.828125q0.234375 0.21875 0.90625 0.21875q0.234375 0 0.4375 -0.015625q0.203125 -0.015625 0.375 -0.046875l0 2.0625q-0.328125 0.0625 -0.734375 0.078125q-0.390625 0.015625 -0.796875 0.015625q-1.71875 0 -2.390625 -0.578125q-0.65625 -0.59375 -0.65625 -1.65625l0 -5.75l-1.609375 0l0 -1.765625l1.609375 0l0 -2.890625l2.640625 0zm8.833557 2.625q0.1875 0 0.328125 0.03125q0.140625 0.015625 0.265625 0.0625l0 2.46875q-0.21875 -0.046875 -0.4375 -0.0625q-0.21875 -0.03125 -0.5 -0.03125q-1.34375 0 -1.984375 0.828125q-0.640625 0.8125 -0.640625 2.1875l0 4.421875l-2.640625 0l0 -9.640625l2.515625 0l0 1.78125l0.03125 0q0.421875 -0.9375 1.25 -1.484375q0.828125 -0.5625 1.8125 -0.5625zm6.176941 0q2.28125 0 3.640625 1.40625q1.359375 1.390625 1.359375 3.6875q0 2.3125 -1.375 3.703125q-1.375 1.375 -3.625 1.375q-2.234375 0 -3.609375 -1.390625q-1.375 -1.390625 -1.375 -3.6875q0 -2.28125 1.34375 -3.6875q1.359375 -1.40625 3.640625 -1.40625zm-2.328125 5.09375q0 1.53125 0.625 2.3125q0.625 0.765625 1.703125 0.765625q1.140625 0 1.75 -0.796875q0.609375 -0.8125 0.609375 -2.28125q0 -1.4375 -0.59375 -2.265625q-0.59375 -0.828125 -1.78125 -0.828125q-1.0625 0 -1.6875 0.765625q-0.625 0.765625 -0.625 2.328125zm11.770996 -8.5l0 13.3125l-2.65625 0l0 -13.3125l2.65625 0z" fill-rule="nonzero"/><path fill="#b7b7b7" d="m392.11578 214.58104l163.27557 0l0 25.354324l-163.27557 0z" fill-rule="evenodd"/><path stroke="#000000" stroke-width="1.0" stroke-linejoin="round" stroke-linecap="butt" d="m392.11578 214.58104l163.27557 0l0 25.354324l-163.27557 0z" fill-rule="evenodd"/><path fill="#000000" d="m412.41766 220.8657l0 2.453125l-6.4375 0l0 3.078125l5.578125 0l0 2.28125l-5.578125 0l0 5.5l-2.9375 0l0 -13.3125l9.375 0zm3.329773 3.671875l0 5.515625q0 1.09375 0.375 1.703125q0.390625 0.59375 1.328125 0.59375q1.09375 0 1.5625 -0.65625q0.484375 -0.671875 0.484375 -2.015625l0 -5.140625l2.65625 0l0 9.640625l-2.53125 0l0 -1.34375l-0.046875 0q-0.5 0.8125 -1.296875 1.21875q-0.796875 0.390625 -1.671875 0.390625q-1.796875 0 -2.65625 -0.90625q-0.84375 -0.921875 -0.84375 -2.96875l0 -6.03125l2.640625 0zm13.949554 -0.265625q1.84375 0 2.671875 0.9375q0.84375 0.9375 0.84375 2.9375l0 6.03125l-2.65625 0l0 -5.53125q0 -1.125 -0.390625 -1.703125q-0.390625 -0.578125 -1.296875 -0.578125q-1.109375 0 -1.59375 0.65625q-0.46875 0.65625 -0.46875 2.015625l0 5.140625l-2.640625 0l0 -9.640625l2.515625 0l0 1.34375l0.046875 0q0.484375 -0.78125 1.25 -1.1875q0.78125 -0.421875 1.71875 -0.421875zm10.137054 0q1.875 0 3.15625 0.96875q1.28125 0.96875 1.390625 2.6875l-2.609375 0q-0.109375 -0.828125 -0.609375 -1.234375q-0.484375 -0.421875 -1.34375 -0.421875q-1.0625 0 -1.65625 0.875q-0.59375 0.875 -0.59375 2.265625q0 1.375 0.578125 2.203125q0.59375 0.828125 1.625 0.828125q0.875 0 1.421875 -0.5q0.546875 -0.5 0.6875 -1.46875l2.546875 0q-0.265625 1.921875 -1.5 2.953125q-1.21875 1.015625 -3.140625 1.015625q-2.15625 0 -3.515625 -1.375q-1.359375 -1.390625 -1.359375 -3.578125q0 -2.328125 1.328125 -3.765625q1.34375 -1.453125 3.59375 -1.453125zm9.447144 -2.625l0 2.890625l1.9375 0l0 1.765625l-1.9375 0l0 4.84375q0 0.59375 0.21875 0.828125q0.234375 0.21875 0.90625 0.21875q0.234375 0 0.4375 -0.015625q0.203125 -0.015625 0.375 -0.046875l0 2.0625q-0.328125 0.0625 -0.734375 0.078125q-0.390625 0.015625 -0.796875 0.015625q-1.71875 0 -2.390625 -0.578125q-0.65625 -0.59375 -0.65625 -1.65625l0 -5.75l-1.609375 0l0 -1.765625l1.609375 0l0 -2.890625l2.640625 0zm5.942932 -0.78125l0 2.171875l-2.65625 0l0 -2.171875l2.65625 0zm0 3.671875l0 9.640625l-2.65625 0l0 -9.640625l2.65625 0zm6.7629395 -0.265625q2.28125 0 3.640625 1.40625q1.359375 1.390625 1.359375 3.6875q0 2.3125 -1.375 3.703125q-1.375 1.375 -3.625 1.375q-2.234375 0 -3.609375 -1.390625q-1.375 -1.390625 -1.375 -3.6875q0 -2.28125 1.34375 -3.6875q1.359375 -1.40625 3.640625 -1.40625zm-2.328125 5.09375q0 1.53125 0.625 2.3125q0.625 0.765625 1.703125 0.765625q1.140625 0 1.75 -0.796875q0.609375 -0.8125 0.609375 -2.28125q0 -1.4375 -0.59375 -2.265625q-0.59375 -0.828125 -1.78125 -0.828125q-1.0625 0 -1.6875 0.765625q-0.625 0.765625 -0.625 2.328125zm14.583496 -5.09375q1.84375 0 2.671875 0.9375q0.84375 0.9375 0.84375 2.9375l0 6.03125l-2.65625 0l0 -5.53125q0 -1.125 -0.390625 -1.703125q-0.390625 -0.578125 -1.296875 -0.578125q-1.109375 0 -1.59375 0.65625q-0.46875 0.65625 -0.46875 2.015625l0 5.140625l-2.640625 0l0 -9.640625l2.515625 0l0 1.34375l0.046875 0q0.484375 -0.78125 1.25 -1.1875q0.78125 -0.421875 1.71875 -0.421875zm9.949554 0q2.140625 0 3.1875 0.703125q1.046875 0.703125 1.046875 1.984375l0 5.171875q0 0.578125 0.0625 1.171875q0.078125 0.578125 0.265625 0.875l-2.6875 0q-0.078125 -0.21875 -0.125 -0.453125q-0.046875 -0.234375 -0.0625 -0.46875q-0.5625 0.578125 -1.390625 0.890625q-0.8125 0.296875 -1.859375 0.296875q-1.484375 0 -2.390625 -0.75q-0.890625 -0.75 -0.890625 -2.140625q0 -1.359375 0.84375 -2.0625q0.84375 -0.71875 3.046875 -0.96875q1.546875 -0.140625 2.03125 -0.375q0.5 -0.234375 0.5 -0.8125q0 -0.640625 -0.375 -0.96875q-0.375 -0.328125 -1.328125 -0.328125q-0.828125 0 -1.265625 0.359375q-0.4375 0.34375 -0.5 1.109375l-2.65625 0q0.109375 -1.59375 1.296875 -2.40625q1.203125 -0.828125 3.25 -0.828125zm-2.1875 7.171875q0 0.5625 0.390625 0.890625q0.390625 0.328125 1.234375 0.328125q1.0625 0 1.59375 -0.546875q0.546875 -0.5625 0.546875 -1.625l0 -1.03125q-0.234375 0.1875 -0.625 0.28125q-0.390625 0.09375 -1.40625 0.25q-0.890625 0.109375 -1.3125 0.46875q-0.421875 0.34375 -0.421875 0.984375zm11.197144 -10.578125l0 13.3125l-2.65625 0l0 -13.3125l2.65625 0zm10.414978 0l0 8.359375q0 1.4375 0.65625 2.125q0.671875 0.671875 2.09375 0.671875q1.53125 0 2.140625 -0.65625q0.625 -0.671875 0.625 -2.140625l0 -8.359375l2.9219055 0l0 8.359375q0 2.484375 -1.4531555 3.875q-1.4375 1.390625 -4.234375 1.390625q-2.8125 0 -4.25 -1.359375q-1.421875 -1.375 -1.421875 -3.90625l0 -8.359375l2.921875 0zm16.218842 3.40625q1.84375 0 2.671875 0.9375q0.84375 0.9375 0.84375 2.9375l0 6.03125l-2.65625 0l0 -5.53125q0 -1.125 -0.390625 -1.703125q-0.390625 -0.578125 -1.296875 -0.578125q-1.109375 0 -1.59375 0.65625q-0.46875 0.65625 -0.46875 2.015625l0 5.140625l-2.640625 0l0 -9.640625l2.515625 0l0 1.34375l0.046875 0q0.484375 -0.78125 1.25 -1.1875q0.78125 -0.421875 1.71875 -0.421875zm8.24646 -3.40625l0 2.171875l-2.65625 0l0 -2.171875l2.65625 0zm0 3.671875l0 9.640625l-2.65625 0l0 -9.640625l2.65625 0zm5.4348145 -2.890625l0 2.890625l1.9375 0l0 1.765625l-1.9375 0l0 4.84375q0 0.59375 0.21875 0.828125q0.234375 0.21875 0.90625 0.21875q0.234375 0 0.4375 -0.015625q0.203125 -0.015625 0.375 -0.046875l0 2.0625q-0.328125 0.0625 -0.734375 0.078125q-0.390625 0.015625 -0.796875 0.015625q-1.71875 0 -2.390625 -0.578125q-0.65625 -0.59375 -0.65625 -1.65625l0 -5.75l-1.609375 0l0 -1.765625l1.609375 0l0 -2.890625l2.640625 0zm7.177307 2.625q1.96875 0 3.03125 0.78125q1.078125 0.78125 1.21875 2.296875l-2.515625 0q-0.0625 -0.6875 -0.515625 -1.0q-0.453125 -0.3125 -1.3125 -0.3125q-0.75 0 -1.109375 0.234375q-0.34375 0.234375 -0.34375 0.671875q0 0.4375 0.453125 0.734375q0.46875 0.28125 1.859375 0.546875q2.21875 0.421875 2.96875 1.09375q0.765625 0.671875 0.765625 1.765625q0 1.640625 -1.203125 2.5q-1.1875 0.859375 -3.1875 0.859375q-2.015625 0 -3.234375 -0.84375q-1.21875 -0.859375 -1.3125 -2.5625l2.53125 0q0 0.765625 0.578125 1.203125q0.578125 0.421875 1.453125 0.421875q0.765625 0 1.25 -0.328125q0.484375 -0.328125 0.484375 -0.890625q0 -0.515625 -0.625 -0.828125q-0.625 -0.3125 -2.296875 -0.671875q-1.671875 -0.328125 -2.40625 -0.9375q-0.734375 -0.609375 -0.734375 -1.640625q0 -1.53125 1.078125 -2.3125q1.09375 -0.78125 3.125 -0.78125z" fill-rule="nonzero"/><path fill="#000000" fill-opacity="0.0" d="m382.2476 215.86592l0 0c0 -3.14563 2.5500488 -5.6956635 5.695648 -5.6956635l169.80554 0c1.5106201 0 2.9592896 0.6000824 4.027466 1.6682281c1.0681152 1.0681305 1.6682129 2.5168457 1.6682129 4.0274353l0 22.781921c0 3.1456146 -2.5500488 5.695648 -5.6956787 5.695648l-169.80554 0l0 0c-3.1455994 0 -5.695648 -2.5500336 -5.695648 -5.695648z" fill-rule="evenodd"/><path stroke="#cc0000" stroke-width="4.0" stroke-linejoin="round" stroke-linecap="butt" d="m382.2476 215.86592l0 0c0 -3.14563 2.5500488 -5.6956635 5.695648 -5.6956635l169.80554 0c1.5106201 0 2.9592896 0.6000824 4.027466 1.6682281c1.0681152 1.0681305 1.6682129 2.5168457 1.6682129 4.0274353l0 22.781921c0 3.1456146 -2.5500488 5.695648 -5.6956787 5.695648l-169.80554 0l0 0c-3.1455994 0 -5.695648 -2.5500336 -5.695648 -5.695648z" fill-rule="evenodd"/><path fill="#ffffff" d="m364.42743 224.50914l11.212616 8.818893l-45.102386 57.039368l-11.212585 -8.818878z" fill-rule="evenodd"/><path fill="#000000" fill-opacity="0.0" d="m292.22046 325.54855l92.25198 -114.58267" fill-rule="evenodd"/><path stroke="#cc0000" stroke-width="3.0" stroke-linejoin="round" stroke-linecap="butt" d="m292.22046 325.54855l92.25198 -114.58267" fill-rule="evenodd"/><path fill="#ffffff" d="m566.6877 230.87672l11.307129 -8.692917l16.598389 21.669296l-11.307068 8.692902z" fill-rule="evenodd"/><path fill="#000000" fill-opacity="0.0" d="m648.15314 327.17267l-87.811035 -117.102356" fill-rule="evenodd"/><path stroke="#cc0000" stroke-width="3.0" stroke-linejoin="round" stroke-linecap="butt" d="m648.15314 327.17267l-87.811035 -117.102356" fill-rule="evenodd"/></g></svg>